<?xml version="1.0" encoding="utf-8"?>
<svg xmlns="http://www.w3.org/2000/svg" xmlns:xlink="http://www.w3.org/1999/xlink" width="672" height="480" viewBox="0 0 2688 1920">
<defs>
  <clipPath id="clip040">
    <rect x="0" y="0" width="2688" height="1920"/>
  </clipPath>
</defs>
<path clip-path="url(#clip040)" d="M0 1920 L2688 1920 L2688 0 L0 0  Z" fill="#ffffff" fill-rule="evenodd" fill-opacity="1"/>
<defs>
  <clipPath id="clip041">
    <rect x="537" y="0" width="1883" height="1883"/>
  </clipPath>
</defs>
<path clip-path="url(#clip040)" d="M202.163 1734.12 L2640.76 1734.12 L2640.76 47.2441 L202.163 47.2441  Z" fill="#ffffff" fill-rule="evenodd" fill-opacity="1"/>
<defs>
  <clipPath id="clip042">
    <rect x="202" y="47" width="2440" height="1688"/>
  </clipPath>
</defs>
<polyline clip-path="url(#clip042)" style="stroke:#000000; stroke-linecap:round; stroke-linejoin:round; stroke-width:2; stroke-opacity:0.1; fill:none" points="202.163,1734.12 202.163,47.2441 "/>
<polyline clip-path="url(#clip042)" style="stroke:#000000; stroke-linecap:round; stroke-linejoin:round; stroke-width:2; stroke-opacity:0.1; fill:none" points="811.811,1734.12 811.811,47.2441 "/>
<polyline clip-path="url(#clip042)" style="stroke:#000000; stroke-linecap:round; stroke-linejoin:round; stroke-width:2; stroke-opacity:0.1; fill:none" points="1421.46,1734.12 1421.46,47.2441 "/>
<polyline clip-path="url(#clip042)" style="stroke:#000000; stroke-linecap:round; stroke-linejoin:round; stroke-width:2; stroke-opacity:0.1; fill:none" points="2031.11,1734.12 2031.11,47.2441 "/>
<polyline clip-path="url(#clip042)" style="stroke:#000000; stroke-linecap:round; stroke-linejoin:round; stroke-width:2; stroke-opacity:0.1; fill:none" points="2640.76,1734.12 2640.76,47.2441 "/>
<polyline clip-path="url(#clip040)" style="stroke:#000000; stroke-linecap:round; stroke-linejoin:round; stroke-width:4; stroke-opacity:1; fill:none" points="202.163,1734.12 2640.76,1734.12 "/>
<polyline clip-path="url(#clip040)" style="stroke:#000000; stroke-linecap:round; stroke-linejoin:round; stroke-width:4; stroke-opacity:1; fill:none" points="202.163,1734.12 202.163,1715.22 "/>
<polyline clip-path="url(#clip040)" style="stroke:#000000; stroke-linecap:round; stroke-linejoin:round; stroke-width:4; stroke-opacity:1; fill:none" points="811.811,1734.12 811.811,1715.22 "/>
<polyline clip-path="url(#clip040)" style="stroke:#000000; stroke-linecap:round; stroke-linejoin:round; stroke-width:4; stroke-opacity:1; fill:none" points="1421.46,1734.12 1421.46,1715.22 "/>
<polyline clip-path="url(#clip040)" style="stroke:#000000; stroke-linecap:round; stroke-linejoin:round; stroke-width:4; stroke-opacity:1; fill:none" points="2031.11,1734.12 2031.11,1715.22 "/>
<polyline clip-path="url(#clip040)" style="stroke:#000000; stroke-linecap:round; stroke-linejoin:round; stroke-width:4; stroke-opacity:1; fill:none" points="2640.76,1734.12 2640.76,1715.22 "/>
<path clip-path="url(#clip040)" d="M202.163 1767.34 Q198.552 1767.34 196.723 1770.9 Q194.918 1774.45 194.918 1781.58 Q194.918 1788.68 196.723 1792.25 Q198.552 1795.79 202.163 1795.79 Q205.797 1795.79 207.603 1792.25 Q209.432 1788.68 209.432 1781.58 Q209.432 1774.45 207.603 1770.9 Q205.797 1767.34 202.163 1767.34 M202.163 1763.64 Q207.973 1763.64 211.029 1768.24 Q214.108 1772.83 214.108 1781.58 Q214.108 1790.3 211.029 1794.91 Q207.973 1799.49 202.163 1799.49 Q196.353 1799.49 193.274 1794.91 Q190.219 1790.3 190.219 1781.58 Q190.219 1772.83 193.274 1768.24 Q196.353 1763.64 202.163 1763.64 Z" fill="#000000" fill-rule="nonzero" fill-opacity="1" /><path clip-path="url(#clip040)" d="M786.499 1794.89 L794.138 1794.89 L794.138 1768.52 L785.828 1770.19 L785.828 1765.93 L794.092 1764.26 L798.767 1764.26 L798.767 1794.89 L806.406 1794.89 L806.406 1798.82 L786.499 1798.82 L786.499 1794.89 Z" fill="#000000" fill-rule="nonzero" fill-opacity="1" /><path clip-path="url(#clip040)" d="M825.851 1767.34 Q822.24 1767.34 820.411 1770.9 Q818.605 1774.45 818.605 1781.58 Q818.605 1788.68 820.411 1792.25 Q822.24 1795.79 825.851 1795.79 Q829.485 1795.79 831.29 1792.25 Q833.119 1788.68 833.119 1781.58 Q833.119 1774.45 831.29 1770.9 Q829.485 1767.34 825.851 1767.34 M825.851 1763.64 Q831.661 1763.64 834.716 1768.24 Q837.795 1772.83 837.795 1781.58 Q837.795 1790.3 834.716 1794.91 Q831.661 1799.49 825.851 1799.49 Q820.04 1799.49 816.962 1794.91 Q813.906 1790.3 813.906 1781.58 Q813.906 1772.83 816.962 1768.24 Q820.04 1763.64 825.851 1763.64 Z" fill="#000000" fill-rule="nonzero" fill-opacity="1" /><path clip-path="url(#clip040)" d="M1400.23 1794.89 L1416.55 1794.89 L1416.55 1798.82 L1394.61 1798.82 L1394.61 1794.89 Q1397.27 1792.13 1401.85 1787.5 Q1406.46 1782.85 1407.64 1781.51 Q1409.89 1778.98 1410.77 1777.25 Q1411.67 1775.49 1411.67 1773.8 Q1411.67 1771.04 1409.72 1769.31 Q1407.8 1767.57 1404.7 1767.57 Q1402.5 1767.57 1400.05 1768.34 Q1397.62 1769.1 1394.84 1770.65 L1394.84 1765.93 Q1397.66 1764.79 1400.12 1764.21 Q1402.57 1763.64 1404.61 1763.64 Q1409.98 1763.64 1413.17 1766.32 Q1416.37 1769.01 1416.37 1773.5 Q1416.37 1775.63 1415.56 1777.55 Q1414.77 1779.45 1412.66 1782.04 Q1412.08 1782.71 1408.98 1785.93 Q1405.88 1789.12 1400.23 1794.89 Z" fill="#000000" fill-rule="nonzero" fill-opacity="1" /><path clip-path="url(#clip040)" d="M1436.37 1767.34 Q1432.76 1767.34 1430.93 1770.9 Q1429.12 1774.45 1429.12 1781.58 Q1429.12 1788.68 1430.93 1792.25 Q1432.76 1795.79 1436.37 1795.79 Q1440 1795.79 1441.81 1792.25 Q1443.64 1788.68 1443.64 1781.58 Q1443.64 1774.45 1441.81 1770.9 Q1440 1767.34 1436.37 1767.34 M1436.37 1763.64 Q1442.18 1763.64 1445.23 1768.24 Q1448.31 1772.83 1448.31 1781.58 Q1448.31 1790.3 1445.23 1794.91 Q1442.18 1799.49 1436.37 1799.49 Q1430.56 1799.49 1427.48 1794.91 Q1424.42 1790.3 1424.42 1781.58 Q1424.42 1772.83 1427.48 1768.24 Q1430.56 1763.64 1436.37 1763.64 Z" fill="#000000" fill-rule="nonzero" fill-opacity="1" /><path clip-path="url(#clip040)" d="M2019.95 1780.19 Q2023.31 1780.9 2025.18 1783.17 Q2027.08 1785.44 2027.08 1788.77 Q2027.08 1793.89 2023.56 1796.69 Q2020.04 1799.49 2013.56 1799.49 Q2011.39 1799.49 2009.07 1799.05 Q2006.78 1798.64 2004.33 1797.78 L2004.33 1793.27 Q2006.27 1794.4 2008.58 1794.98 Q2010.9 1795.56 2013.42 1795.56 Q2017.82 1795.56 2020.11 1793.82 Q2022.43 1792.08 2022.43 1788.77 Q2022.43 1785.72 2020.27 1784.01 Q2018.14 1782.27 2014.33 1782.27 L2010.3 1782.27 L2010.3 1778.43 L2014.51 1778.43 Q2017.96 1778.43 2019.79 1777.06 Q2021.62 1775.67 2021.62 1773.08 Q2021.62 1770.42 2019.72 1769.01 Q2017.84 1767.57 2014.33 1767.57 Q2012.4 1767.57 2010.21 1767.99 Q2008.01 1768.4 2005.37 1769.28 L2005.37 1765.12 Q2008.03 1764.38 2010.34 1764.01 Q2012.68 1763.64 2014.74 1763.64 Q2020.07 1763.64 2023.17 1766.07 Q2026.27 1768.47 2026.27 1772.59 Q2026.27 1775.46 2024.63 1777.46 Q2022.98 1779.42 2019.95 1780.19 Z" fill="#000000" fill-rule="nonzero" fill-opacity="1" /><path clip-path="url(#clip040)" d="M2045.95 1767.34 Q2042.33 1767.34 2040.51 1770.9 Q2038.7 1774.45 2038.7 1781.58 Q2038.7 1788.68 2040.51 1792.25 Q2042.33 1795.79 2045.95 1795.79 Q2049.58 1795.79 2051.39 1792.25 Q2053.21 1788.68 2053.21 1781.58 Q2053.21 1774.45 2051.39 1770.9 Q2049.58 1767.34 2045.95 1767.34 M2045.95 1763.64 Q2051.76 1763.64 2054.81 1768.24 Q2057.89 1772.83 2057.89 1781.58 Q2057.89 1790.3 2054.81 1794.91 Q2051.76 1799.49 2045.95 1799.49 Q2040.14 1799.49 2037.06 1794.91 Q2034 1790.3 2034 1781.58 Q2034 1772.83 2037.06 1768.24 Q2040.14 1763.64 2045.95 1763.64 Z" fill="#000000" fill-rule="nonzero" fill-opacity="1" /><path clip-path="url(#clip040)" d="M2628.93 1768.34 L2617.12 1786.78 L2628.93 1786.78 L2628.93 1768.34 M2627.7 1764.26 L2633.58 1764.26 L2633.58 1786.78 L2638.51 1786.78 L2638.51 1790.67 L2633.58 1790.67 L2633.58 1798.82 L2628.93 1798.82 L2628.93 1790.67 L2613.33 1790.67 L2613.33 1786.16 L2627.7 1764.26 Z" fill="#000000" fill-rule="nonzero" fill-opacity="1" /><path clip-path="url(#clip040)" d="M2656.24 1767.34 Q2652.63 1767.34 2650.8 1770.9 Q2649 1774.45 2649 1781.58 Q2649 1788.68 2650.8 1792.25 Q2652.63 1795.79 2656.24 1795.79 Q2659.88 1795.79 2661.68 1792.25 Q2663.51 1788.68 2663.51 1781.58 Q2663.51 1774.45 2661.68 1770.9 Q2659.88 1767.34 2656.24 1767.34 M2656.24 1763.64 Q2662.05 1763.64 2665.11 1768.24 Q2668.19 1772.83 2668.19 1781.58 Q2668.19 1790.3 2665.11 1794.91 Q2662.05 1799.49 2656.24 1799.49 Q2650.43 1799.49 2647.35 1794.91 Q2644.3 1790.3 2644.3 1781.58 Q2644.3 1772.83 2647.35 1768.24 Q2650.43 1763.64 2656.24 1763.64 Z" fill="#000000" fill-rule="nonzero" fill-opacity="1" /><path clip-path="url(#clip040)" d="M1420.52 1837.53 L1420.52 1847.65 L1432.58 1847.65 L1432.58 1852.2 L1420.52 1852.2 L1420.52 1871.56 Q1420.52 1875.92 1421.7 1877.16 Q1422.91 1878.4 1426.57 1878.4 L1432.58 1878.4 L1432.58 1883.3 L1426.57 1883.3 Q1419.79 1883.3 1417.21 1880.79 Q1414.63 1878.24 1414.63 1871.56 L1414.63 1852.2 L1410.34 1852.2 L1410.34 1847.65 L1414.63 1847.65 L1414.63 1837.53 L1420.52 1837.53 Z" fill="#000000" fill-rule="nonzero" fill-opacity="1" /><polyline clip-path="url(#clip042)" style="stroke:#000000; stroke-linecap:round; stroke-linejoin:round; stroke-width:2; stroke-opacity:0.1; fill:none" points="202.163,1686.38 2640.76,1686.38 "/>
<polyline clip-path="url(#clip042)" style="stroke:#000000; stroke-linecap:round; stroke-linejoin:round; stroke-width:2; stroke-opacity:0.1; fill:none" points="202.163,1284.51 2640.76,1284.51 "/>
<polyline clip-path="url(#clip042)" style="stroke:#000000; stroke-linecap:round; stroke-linejoin:round; stroke-width:2; stroke-opacity:0.1; fill:none" points="202.163,882.643 2640.76,882.643 "/>
<polyline clip-path="url(#clip042)" style="stroke:#000000; stroke-linecap:round; stroke-linejoin:round; stroke-width:2; stroke-opacity:0.1; fill:none" points="202.163,480.777 2640.76,480.777 "/>
<polyline clip-path="url(#clip042)" style="stroke:#000000; stroke-linecap:round; stroke-linejoin:round; stroke-width:2; stroke-opacity:0.1; fill:none" points="202.163,78.9111 2640.76,78.9111 "/>
<polyline clip-path="url(#clip040)" style="stroke:#000000; stroke-linecap:round; stroke-linejoin:round; stroke-width:4; stroke-opacity:1; fill:none" points="202.163,1734.12 202.163,47.2441 "/>
<polyline clip-path="url(#clip040)" style="stroke:#000000; stroke-linecap:round; stroke-linejoin:round; stroke-width:4; stroke-opacity:1; fill:none" points="202.163,1686.38 221.061,1686.38 "/>
<polyline clip-path="url(#clip040)" style="stroke:#000000; stroke-linecap:round; stroke-linejoin:round; stroke-width:4; stroke-opacity:1; fill:none" points="202.163,1284.51 221.061,1284.51 "/>
<polyline clip-path="url(#clip040)" style="stroke:#000000; stroke-linecap:round; stroke-linejoin:round; stroke-width:4; stroke-opacity:1; fill:none" points="202.163,882.643 221.061,882.643 "/>
<polyline clip-path="url(#clip040)" style="stroke:#000000; stroke-linecap:round; stroke-linejoin:round; stroke-width:4; stroke-opacity:1; fill:none" points="202.163,480.777 221.061,480.777 "/>
<polyline clip-path="url(#clip040)" style="stroke:#000000; stroke-linecap:round; stroke-linejoin:round; stroke-width:4; stroke-opacity:1; fill:none" points="202.163,78.9111 221.061,78.9111 "/>
<path clip-path="url(#clip040)" d="M149.899 1672.17 Q146.288 1672.17 144.459 1675.74 Q142.653 1679.28 142.653 1686.41 Q142.653 1693.52 144.459 1697.08 Q146.288 1700.62 149.899 1700.62 Q153.533 1700.62 155.339 1697.08 Q157.167 1693.52 157.167 1686.41 Q157.167 1679.28 155.339 1675.74 Q153.533 1672.17 149.899 1672.17 M149.899 1668.47 Q155.709 1668.47 158.765 1673.08 Q161.843 1677.66 161.843 1686.41 Q161.843 1695.14 158.765 1699.74 Q155.709 1704.33 149.899 1704.33 Q144.089 1704.33 141.01 1699.74 Q137.954 1695.14 137.954 1686.41 Q137.954 1677.66 141.01 1673.08 Q144.089 1668.47 149.899 1668.47 Z" fill="#000000" fill-rule="nonzero" fill-opacity="1" /><path clip-path="url(#clip040)" d="M83.6029 1297.85 L99.9222 1297.85 L99.9222 1301.79 L77.9779 1301.79 L77.9779 1297.85 Q80.6399 1295.1 85.2232 1290.47 Q89.8297 1285.82 91.0102 1284.47 Q93.2556 1281.95 94.1352 1280.22 Q95.038 1278.46 95.038 1276.77 Q95.038 1274.01 93.0936 1272.28 Q91.1723 1270.54 88.0704 1270.54 Q85.8714 1270.54 83.4177 1271.3 Q80.9871 1272.07 78.2094 1273.62 L78.2094 1268.9 Q81.0334 1267.76 83.4871 1267.18 Q85.9408 1266.6 87.9778 1266.6 Q93.3482 1266.6 96.5426 1269.29 Q99.737 1271.97 99.737 1276.47 Q99.737 1278.59 98.9269 1280.52 Q98.1398 1282.41 96.0334 1285.01 Q95.4547 1285.68 92.3528 1288.9 Q89.251 1292.09 83.6029 1297.85 Z" fill="#000000" fill-rule="nonzero" fill-opacity="1" /><path clip-path="url(#clip040)" d="M109.783 1267.23 L128.14 1267.23 L128.14 1271.16 L114.066 1271.16 L114.066 1279.64 Q115.084 1279.29 116.103 1279.13 Q117.121 1278.94 118.14 1278.94 Q123.927 1278.94 127.306 1282.11 Q130.686 1285.28 130.686 1290.7 Q130.686 1296.28 127.214 1299.38 Q123.742 1302.46 117.422 1302.46 Q115.246 1302.46 112.978 1302.09 Q110.732 1301.72 108.325 1300.98 L108.325 1296.28 Q110.408 1297.41 112.63 1297.97 Q114.853 1298.53 117.33 1298.53 Q121.334 1298.53 123.672 1296.42 Q126.01 1294.31 126.01 1290.7 Q126.01 1287.09 123.672 1284.98 Q121.334 1282.88 117.33 1282.88 Q115.455 1282.88 113.58 1283.29 Q111.728 1283.71 109.783 1284.59 L109.783 1267.23 Z" fill="#000000" fill-rule="nonzero" fill-opacity="1" /><path clip-path="url(#clip040)" d="M149.899 1270.31 Q146.288 1270.31 144.459 1273.87 Q142.653 1277.41 142.653 1284.54 Q142.653 1291.65 144.459 1295.22 Q146.288 1298.76 149.899 1298.76 Q153.533 1298.76 155.339 1295.22 Q157.167 1291.65 157.167 1284.54 Q157.167 1277.41 155.339 1273.87 Q153.533 1270.31 149.899 1270.31 M149.899 1266.6 Q155.709 1266.6 158.765 1271.21 Q161.843 1275.79 161.843 1284.54 Q161.843 1293.27 158.765 1297.88 Q155.709 1302.46 149.899 1302.46 Q144.089 1302.46 141.01 1297.88 Q137.954 1293.27 137.954 1284.54 Q137.954 1275.79 141.01 1271.21 Q144.089 1266.6 149.899 1266.6 Z" fill="#000000" fill-rule="nonzero" fill-opacity="1" /><path clip-path="url(#clip040)" d="M79.6214 865.363 L97.9778 865.363 L97.9778 869.298 L83.9038 869.298 L83.9038 877.771 Q84.9223 877.423 85.9408 877.261 Q86.9593 877.076 87.9778 877.076 Q93.7649 877.076 97.1445 880.247 Q100.524 883.419 100.524 888.835 Q100.524 894.414 97.0519 897.516 Q93.5797 900.595 87.2603 900.595 Q85.0843 900.595 82.8158 900.224 Q80.5705 899.854 78.1631 899.113 L78.1631 894.414 Q80.2464 895.548 82.4686 896.104 Q84.6908 896.659 87.1677 896.659 Q91.1723 896.659 93.5102 894.553 Q95.8482 892.446 95.8482 888.835 Q95.8482 885.224 93.5102 883.118 Q91.1723 881.011 87.1677 881.011 Q85.2927 881.011 83.4177 881.428 Q81.5658 881.845 79.6214 882.724 L79.6214 865.363 Z" fill="#000000" fill-rule="nonzero" fill-opacity="1" /><path clip-path="url(#clip040)" d="M119.737 868.442 Q116.126 868.442 114.297 872.007 Q112.492 875.548 112.492 882.678 Q112.492 889.784 114.297 893.349 Q116.126 896.891 119.737 896.891 Q123.371 896.891 125.177 893.349 Q127.005 889.784 127.005 882.678 Q127.005 875.548 125.177 872.007 Q123.371 868.442 119.737 868.442 M119.737 864.738 Q125.547 864.738 128.603 869.345 Q131.681 873.928 131.681 882.678 Q131.681 891.405 128.603 896.011 Q125.547 900.595 119.737 900.595 Q113.927 900.595 110.848 896.011 Q107.793 891.405 107.793 882.678 Q107.793 873.928 110.848 869.345 Q113.927 864.738 119.737 864.738 Z" fill="#000000" fill-rule="nonzero" fill-opacity="1" /><path clip-path="url(#clip040)" d="M149.899 868.442 Q146.288 868.442 144.459 872.007 Q142.653 875.548 142.653 882.678 Q142.653 889.784 144.459 893.349 Q146.288 896.891 149.899 896.891 Q153.533 896.891 155.339 893.349 Q157.167 889.784 157.167 882.678 Q157.167 875.548 155.339 872.007 Q153.533 868.442 149.899 868.442 M149.899 864.738 Q155.709 864.738 158.765 869.345 Q161.843 873.928 161.843 882.678 Q161.843 891.405 158.765 896.011 Q155.709 900.595 149.899 900.595 Q144.089 900.595 141.01 896.011 Q137.954 891.405 137.954 882.678 Q137.954 873.928 141.01 869.345 Q144.089 864.738 149.899 864.738 Z" fill="#000000" fill-rule="nonzero" fill-opacity="1" /><path clip-path="url(#clip040)" d="M78.3946 463.497 L100.617 463.497 L100.617 465.488 L88.0704 498.057 L83.1862 498.057 L94.9917 467.432 L78.3946 467.432 L78.3946 463.497 Z" fill="#000000" fill-rule="nonzero" fill-opacity="1" /><path clip-path="url(#clip040)" d="M109.783 463.497 L128.14 463.497 L128.14 467.432 L114.066 467.432 L114.066 475.905 Q115.084 475.557 116.103 475.395 Q117.121 475.21 118.14 475.21 Q123.927 475.21 127.306 478.381 Q130.686 481.553 130.686 486.969 Q130.686 492.548 127.214 495.65 Q123.742 498.728 117.422 498.728 Q115.246 498.728 112.978 498.358 Q110.732 497.988 108.325 497.247 L108.325 492.548 Q110.408 493.682 112.63 494.238 Q114.853 494.793 117.33 494.793 Q121.334 494.793 123.672 492.687 Q126.01 490.58 126.01 486.969 Q126.01 483.358 123.672 481.252 Q121.334 479.145 117.33 479.145 Q115.455 479.145 113.58 479.562 Q111.728 479.979 109.783 480.858 L109.783 463.497 Z" fill="#000000" fill-rule="nonzero" fill-opacity="1" /><path clip-path="url(#clip040)" d="M149.899 466.576 Q146.288 466.576 144.459 470.141 Q142.653 473.682 142.653 480.812 Q142.653 487.918 144.459 491.483 Q146.288 495.025 149.899 495.025 Q153.533 495.025 155.339 491.483 Q157.167 487.918 157.167 480.812 Q157.167 473.682 155.339 470.141 Q153.533 466.576 149.899 466.576 M149.899 462.872 Q155.709 462.872 158.765 467.479 Q161.843 472.062 161.843 480.812 Q161.843 489.539 158.765 494.145 Q155.709 498.728 149.899 498.728 Q144.089 498.728 141.01 494.145 Q137.954 489.539 137.954 480.812 Q137.954 472.062 141.01 467.479 Q144.089 462.872 149.899 462.872 Z" fill="#000000" fill-rule="nonzero" fill-opacity="1" /><path clip-path="url(#clip040)" d="M50.2234 92.256 L57.8623 92.256 L57.8623 65.8904 L49.5521 67.557 L49.5521 63.2978 L57.816 61.6311 L62.4919 61.6311 L62.4919 92.256 L70.1307 92.256 L70.1307 96.1911 L50.2234 96.1911 L50.2234 92.256 Z" fill="#000000" fill-rule="nonzero" fill-opacity="1" /><path clip-path="url(#clip040)" d="M89.5751 64.7098 Q85.964 64.7098 84.1353 68.2746 Q82.3297 71.8163 82.3297 78.9459 Q82.3297 86.0523 84.1353 89.6171 Q85.964 93.1587 89.5751 93.1587 Q93.2093 93.1587 95.0148 89.6171 Q96.8435 86.0523 96.8435 78.9459 Q96.8435 71.8163 95.0148 68.2746 Q93.2093 64.7098 89.5751 64.7098 M89.5751 61.0061 Q95.3852 61.0061 98.4408 65.6126 Q101.519 70.1959 101.519 78.9459 Q101.519 87.6727 98.4408 92.2791 Q95.3852 96.8624 89.5751 96.8624 Q83.7649 96.8624 80.6862 92.2791 Q77.6307 87.6727 77.6307 78.9459 Q77.6307 70.1959 80.6862 65.6126 Q83.7649 61.0061 89.5751 61.0061 Z" fill="#000000" fill-rule="nonzero" fill-opacity="1" /><path clip-path="url(#clip040)" d="M119.737 64.7098 Q116.126 64.7098 114.297 68.2746 Q112.492 71.8163 112.492 78.9459 Q112.492 86.0523 114.297 89.6171 Q116.126 93.1587 119.737 93.1587 Q123.371 93.1587 125.177 89.6171 Q127.005 86.0523 127.005 78.9459 Q127.005 71.8163 125.177 68.2746 Q123.371 64.7098 119.737 64.7098 M119.737 61.0061 Q125.547 61.0061 128.603 65.6126 Q131.681 70.1959 131.681 78.9459 Q131.681 87.6727 128.603 92.2791 Q125.547 96.8624 119.737 96.8624 Q113.927 96.8624 110.848 92.2791 Q107.793 87.6727 107.793 78.9459 Q107.793 70.1959 110.848 65.6126 Q113.927 61.0061 119.737 61.0061 Z" fill="#000000" fill-rule="nonzero" fill-opacity="1" /><path clip-path="url(#clip040)" d="M149.899 64.7098 Q146.288 64.7098 144.459 68.2746 Q142.653 71.8163 142.653 78.9459 Q142.653 86.0523 144.459 89.6171 Q146.288 93.1587 149.899 93.1587 Q153.533 93.1587 155.339 89.6171 Q157.167 86.0523 157.167 78.9459 Q157.167 71.8163 155.339 68.2746 Q153.533 64.7098 149.899 64.7098 M149.899 61.0061 Q155.709 61.0061 158.765 65.6126 Q161.843 70.1959 161.843 78.9459 Q161.843 87.6727 158.765 92.2791 Q155.709 96.8624 149.899 96.8624 Q144.089 96.8624 141.01 92.2791 Q137.954 87.6727 137.954 78.9459 Q137.954 70.1959 141.01 65.6126 Q144.089 61.0061 149.899 61.0061 Z" fill="#000000" fill-rule="nonzero" fill-opacity="1" /><polyline clip-path="url(#clip042)" style="stroke:#009af9; stroke-linecap:round; stroke-linejoin:round; stroke-width:4; stroke-opacity:1; fill:none" points="202.163,94.9858 204.604,95.3059 207.045,95.6291 209.486,95.9555 211.927,96.285 214.368,96.6176 216.809,96.9535 219.25,97.2926 221.691,97.6349 224.132,97.9806 226.574,98.3296 229.015,98.6818 231.456,99.0375 233.897,99.3966 236.338,99.7592 238.779,100.125 241.22,100.495 243.661,100.868 246.102,101.244 248.543,101.625 250.984,102.008 253.425,102.396 255.866,102.787 258.307,103.182 260.748,103.58 263.189,103.983 265.63,104.389 268.071,104.799 270.512,105.213 272.953,105.631 275.394,106.052 277.835,106.478 280.276,106.908 282.717,107.342 285.158,107.78 287.599,108.223 290.04,108.669 292.481,109.12 294.922,109.575 297.364,110.032 299.805,110.495 302.246,110.963 304.687,111.435 307.128,111.912 309.569,112.393 312.01,112.879 314.451,113.369 316.892,113.864 319.333,114.363 321.774,114.864 324.215,115.372 326.656,115.886 329.097,116.404 331.538,116.926 333.979,117.454 336.42,117.987 338.861,118.525 341.302,119.067 343.743,119.615 346.184,120.167 348.625,120.725 351.066,121.284 353.507,121.851 355.948,122.424 358.389,123.002 360.83,123.585 363.271,124.174 365.712,124.769 368.153,125.369 370.595,125.974 373.036,126.585 375.477,127.202 377.918,127.823 380.359,128.451 382.8,129.084 385.241,129.716 387.682,130.36 390.123,131.01 392.564,131.666 395.005,132.328 397.446,132.996 399.887,133.671 402.328,134.351 404.769,135.037 407.21,135.73 409.651,136.429 412.092,137.133 414.533,137.844 416.974,138.561 419.415,139.284 421.856,140.005 424.297,140.741 426.738,141.483 429.179,142.232 431.62,142.988 434.061,143.751 436.502,144.52 438.943,145.296 441.384,146.08 443.826,146.87 446.267,147.667 448.708,148.47 451.149,149.281 453.59,150.098 456.031,150.922 458.472,151.753 460.913,152.579 463.354,153.424 465.795,154.276 468.236,155.136 470.677,156.003 473.118,156.878 475.559,157.761 478,158.652 480.441,159.55 482.882,160.455 485.323,161.369 487.764,162.29 490.205,163.219 492.646,164.155 495.087,165.099 497.528,166.051 499.969,167.01 502.41,167.977 504.851,168.935 507.292,169.917 509.733,170.908 512.174,171.908 514.616,172.916 517.057,173.933 519.498,174.958 521.939,175.992 524.38,177.034 526.821,178.085 529.262,179.144 531.703,180.212 534.144,181.289 536.585,182.374 539.026,183.467 541.467,184.569 543.908,185.68 546.349,186.799 548.79,187.905 551.231,189.041 553.672,190.186 556.113,191.341 558.554,192.505 560.995,193.679 563.436,194.862 565.877,196.055 568.318,197.257 570.759,198.468 573.2,199.689 575.641,200.919 578.082,202.159 580.523,203.408 582.964,204.667 585.405,205.935 587.847,207.213 590.288,208.5 592.729,209.796 595.17,211.102 597.611,212.417 600.052,213.714 602.493,215.049 604.934,216.394 607.375,217.75 609.816,219.116 612.257,220.492 614.698,221.878 617.139,223.275 619.58,224.682 622.021,226.099 624.462,227.526 626.903,228.964 629.344,230.412 631.785,231.871 634.226,233.339 636.667,234.818 639.108,236.308 641.549,237.807 643.99,239.317 646.431,240.837 648.872,242.367 651.313,243.873 653.754,245.425 656.195,246.987 658.637,248.561 661.078,250.146 663.519,251.741 665.96,253.347 668.401,254.965 670.842,256.593 673.283,258.232 675.724,259.882 678.165,261.543 680.606,263.215 683.047,264.898 685.488,266.592 687.929,268.297 690.37,270.012 692.811,271.739 695.252,273.476 697.693,275.224 700.134,276.984 702.575,278.754 705.016,280.535 707.457,282.285 709.898,284.09 712.339,285.906 714.78,287.733 717.221,289.571 719.662,291.42 722.103,293.281 724.544,295.152 726.985,297.035 729.426,298.929 731.868,300.834 734.309,302.75 736.75,304.677 739.191,306.616 741.632,308.565 744.073,310.526 746.514,312.498 748.955,314.481 751.396,316.475 753.837,318.48 756.278,320.496 758.719,322.523 761.16,324.562 763.601,326.612 766.042,328.623 768.483,330.698 770.924,332.785 773.365,334.882 775.806,336.99 778.247,339.108 780.688,341.237 783.129,343.376 785.57,345.527 788.011,347.687 790.452,349.859 792.893,352.041 795.334,354.234 797.775,356.437 800.216,358.651 802.657,360.876 805.099,363.111 807.54,365.357 809.981,367.613 812.422,369.88 814.863,372.158 817.304,374.446 819.745,376.745 822.186,379.055 824.627,381.375 827.068,383.706 829.509,386.048 831.95,388.352 834.391,390.721 836.832,393.099 839.273,395.486 841.714,397.883 844.155,400.288 846.596,402.703 849.037,405.126 851.478,407.559 853.919,410.001 856.36,412.452 858.801,414.912 861.242,417.381 863.683,419.859 866.124,422.346 868.565,424.843 871.006,427.348 873.447,429.863 875.889,432.386 878.33,434.919 880.771,437.461 883.212,440.012 885.653,442.572 888.094,445.141 890.535,447.719 892.976,450.306 895.417,452.903 897.858,455.508 900.299,458.123 902.74,460.709 905.181,463.352 907.622,466 910.063,468.655 912.504,471.317 914.945,473.984 917.386,476.658 919.827,479.338 922.268,482.024 924.709,484.716 927.15,487.415 929.591,490.119 932.032,492.83 934.473,495.548 936.914,498.271 939.355,501.001 941.796,503.737 944.237,506.479 946.678,509.227 949.12,511.981 951.561,514.742 954.002,517.509 956.443,520.282 958.884,523.062 961.325,525.848 963.766,528.639 966.207,531.437 968.648,534.242 971.089,537.052 973.53,539.869 975.971,542.692 978.412,545.521 980.853,548.353 983.294,551.207 985.735,554.063 988.176,556.922 990.617,559.782 993.058,562.645 995.499,565.509 997.94,568.376 1000.38,571.245 1002.82,574.116 1005.26,576.989 1007.7,579.864 1010.15,582.742 1012.59,585.621 1015.03,588.503 1017.47,591.386 1019.91,594.272 1022.35,597.16 1024.79,600.05 1027.23,602.942 1029.67,605.837 1032.11,608.733 1034.56,611.632 1037,614.532 1039.44,617.435 1041.88,620.34 1044.32,623.247 1046.76,626.156 1049.2,629.067 1051.64,631.981 1054.08,634.896 1056.53,637.814 1058.97,640.734 1061.41,643.656 1063.85,646.626 1066.29,649.567 1068.73,652.505 1071.17,655.441 1073.61,658.374 1076.05,661.305 1078.49,664.234 1080.94,667.16 1083.38,670.084 1085.82,673.005 1088.26,675.924 1090.7,678.841 1093.14,681.755 1095.58,684.667 1098.02,687.576 1100.46,690.483 1102.9,693.388 1105.35,696.29 1107.79,699.19 1110.23,702.087 1112.67,704.982 1115.11,707.874 1117.55,710.764 1119.99,713.652 1122.43,716.537 1124.87,719.42 1127.31,722.301 1129.76,725.179 1132.2,728.055 1134.64,730.928 1137.08,733.799 1139.52,736.667 1141.96,739.533 1144.4,742.397 1146.84,745.258 1149.28,748.117 1151.73,751.082 1154.17,753.947 1156.61,756.806 1159.05,759.659 1161.49,762.505 1163.93,765.345 1166.37,768.179 1168.81,771.007 1171.25,773.828 1173.69,776.644 1176.14,779.453 1178.58,782.255 1181.02,785.052 1183.46,787.842 1185.9,790.626 1188.34,793.403 1190.78,796.175 1193.22,798.94 1195.66,801.699 1198.1,804.452 1200.55,807.198 1202.99,809.938 1205.43,812.672 1207.87,815.4 1210.31,818.121 1212.75,820.836 1215.19,823.545 1217.63,826.248 1220.07,828.944 1222.52,831.634 1224.96,834.318 1227.4,836.996 1229.84,839.667 1232.28,842.332 1234.72,844.991 1237.16,847.644 1239.6,850.42 1242.04,853.07 1244.48,855.711 1246.93,858.344 1249.37,860.967 1251.81,863.582 1254.25,866.188 1256.69,868.786 1259.13,871.375 1261.57,873.955 1264.01,876.527 1266.45,879.09 1268.89,881.644 1271.34,884.189 1273.78,886.726 1276.22,889.254 1278.66,891.773 1281.1,894.284 1283.54,896.786 1285.98,899.279 1288.42,901.764 1290.86,904.24 1293.31,906.707 1295.75,909.165 1298.19,911.615 1300.63,914.056 1303.07,916.488 1305.51,918.912 1307.95,921.327 1310.39,923.733 1312.83,926.131 1315.27,928.52 1317.72,930.9 1320.16,933.272 1322.6,935.635 1325.04,937.989 1327.48,940.334 1329.92,942.671 1332.36,944.999 1334.8,947.457 1337.24,949.772 1339.68,952.077 1342.13,954.373 1344.57,956.658 1347.01,958.935 1349.45,961.202 1351.89,963.459 1354.33,965.707 1356.77,967.945 1359.21,970.174 1361.65,972.393 1364.1,974.603 1366.54,976.803 1368.98,978.994 1371.42,981.175 1373.86,983.347 1376.3,985.509 1378.74,987.661 1381.18,989.804 1383.62,991.938 1386.06,994.061 1388.51,996.176 1390.95,998.281 1393.39,1000.38 1395.83,1002.46 1398.27,1004.54 1400.71,1006.6 1403.15,1008.66 1405.59,1010.71 1408.03,1012.75 1410.47,1014.78 1412.92,1016.8 1415.36,1018.81 1417.8,1020.81 1420.24,1022.8 1422.68,1024.78 1425.12,1026.75 1427.56,1028.71 1430,1030.66 1432.44,1032.72 1434.89,1034.66 1437.33,1036.58 1439.77,1038.49 1442.21,1040.4 1444.65,1042.3 1447.09,1044.18 1449.53,1046.06 1451.97,1047.93 1454.41,1049.79 1456.85,1051.64 1459.3,1053.49 1461.74,1055.32 1464.18,1057.15 1466.62,1058.96 1469.06,1060.77 1471.5,1062.57 1473.94,1064.35 1476.38,1066.13 1478.82,1067.9 1481.26,1069.67 1483.71,1071.42 1486.15,1073.16 1488.59,1074.9 1491.03,1076.62 1493.47,1078.34 1495.91,1080.05 1498.35,1081.74 1500.79,1083.43 1503.23,1085.11 1505.68,1086.79 1508.12,1088.45 1510.56,1090.1 1513,1091.75 1515.44,1093.38 1517.88,1095.01 1520.32,1096.63 1522.76,1098.23 1525.2,1099.83 1527.64,1101.42 1530.09,1103.01 1532.53,1104.58 1534.97,1106.14 1537.41,1107.7 1539.85,1109.33 1542.29,1110.86 1544.73,1112.38 1547.17,1113.89 1549.61,1115.4 1552.05,1116.9 1554.5,1118.4 1556.94,1119.88 1559.38,1121.36 1561.82,1122.83 1564.26,1124.29 1566.7,1125.75 1569.14,1127.19 1571.58,1128.63 1574.02,1130.07 1576.47,1131.49 1578.91,1132.91 1581.35,1134.32 1583.79,1135.72 1586.23,1137.11 1588.67,1138.5 1591.11,1139.88 1593.55,1141.25 1595.99,1142.62 1598.43,1143.97 1600.88,1145.32 1603.32,1146.66 1605.76,1148 1608.2,1149.32 1610.64,1150.64 1613.08,1151.95 1615.52,1153.26 1617.96,1154.55 1620.4,1155.84 1622.84,1157.12 1625.29,1158.39 1627.73,1159.66 1630.17,1160.92 1632.61,1162.17 1635.05,1163.41 1637.49,1164.65 1639.93,1165.87 1642.37,1167.09 1644.81,1168.31 1647.26,1169.51 1649.7,1170.71 1652.14,1171.9 1654.58,1173.08 1657.02,1174.26 1659.46,1175.42 1661.9,1176.62 1664.34,1177.76 1666.78,1178.89 1669.22,1180.02 1671.67,1181.14 1674.11,1182.26 1676.55,1183.37 1678.99,1184.47 1681.43,1185.57 1683.87,1186.66 1686.31,1187.75 1688.75,1188.83 1691.19,1189.91 1693.63,1190.98 1696.08,1192.04 1698.52,1193.1 1700.96,1194.16 1703.4,1195.21 1705.84,1196.25 1708.28,1197.29 1710.72,1198.32 1713.16,1199.35 1715.6,1200.37 1718.05,1201.38 1720.49,1202.39 1722.93,1203.4 1725.37,1204.4 1727.81,1205.39 1730.25,1206.38 1732.69,1207.36 1735.13,1208.33 1737.57,1209.31 1740.01,1210.27 1742.46,1211.23 1744.9,1212.19 1747.34,1213.13 1749.78,1214.08 1752.22,1215.01 1754.66,1215.95 1757.1,1216.87 1759.54,1217.79 1761.98,1218.71 1764.42,1219.62 1766.87,1220.52 1769.31,1221.42 1771.75,1222.32 1774.19,1223.2 1776.63,1224.09 1779.07,1224.96 1781.51,1225.83 1783.95,1226.7 1786.39,1227.56 1788.84,1228.41 1791.28,1229.26 1793.72,1230.11 1796.16,1230.94 1798.6,1231.78 1801.04,1232.6 1803.48,1233.42 1805.92,1234.24 1808.36,1235.05 1810.8,1235.85 1813.25,1236.65 1815.69,1237.45 1818.13,1238.23 1820.57,1239.02 1823.01,1239.79 1825.45,1240.52 1827.89,1241.27 1830.33,1242.02 1832.77,1242.77 1835.21,1243.52 1837.66,1244.26 1840.1,1244.99 1842.54,1245.73 1844.98,1246.46 1847.42,1247.18 1849.86,1247.9 1852.3,1248.62 1854.74,1249.34 1857.18,1250.05 1859.63,1250.75 1862.07,1251.46 1864.51,1252.16 1866.95,1252.85 1869.39,1253.54 1871.83,1254.23 1874.27,1254.92 1876.71,1255.6 1879.15,1256.28 1881.59,1256.95 1884.04,1257.62 1886.48,1258.28 1888.92,1258.95 1891.36,1259.61 1893.8,1260.26 1896.24,1260.91 1898.68,1261.56 1901.12,1262.2 1903.56,1262.84 1906,1263.48 1908.45,1264.11 1910.89,1264.74 1913.33,1265.36 1915.77,1265.99 1918.21,1266.6 1920.65,1267.22 1923.09,1267.83 1925.53,1268.43 1927.97,1269.04 1930.42,1269.64 1932.86,1270.23 1935.3,1270.82 1937.74,1271.41 1940.18,1271.99 1942.62,1272.57 1945.06,1273.15 1947.5,1273.72 1949.94,1274.29 1952.38,1274.86 1954.83,1275.42 1957.27,1275.98 1959.71,1276.53 1962.15,1277.08 1964.59,1277.63 1967.03,1278.17 1969.47,1278.71 1971.91,1279.25 1974.35,1279.78 1976.79,1280.31 1979.24,1280.83 1981.68,1281.35 1984.12,1281.87 1986.56,1282.29 1989,1282.79 1991.44,1283.29 1993.88,1283.78 1996.32,1284.28 1998.76,1284.77 2001.21,1285.25 2003.65,1285.74 2006.09,1286.22 2008.53,1286.7 2010.97,1287.18 2013.41,1287.66 2015.85,1288.13 2018.29,1288.6 2020.73,1289.07 2023.17,1289.54 2025.62,1290 2028.06,1290.46 2030.5,1290.92 2032.94,1291.38 2035.38,1291.83 2037.82,1292.28 2040.26,1292.73 2042.7,1293.18 2045.14,1293.62 2047.58,1294.06 2050.03,1294.5 2052.47,1294.94 2054.91,1295.37 2057.35,1295.8 2059.79,1296.23 2062.23,1296.66 2064.67,1297.08 2067.11,1297.51 2069.55,1297.93 2072,1298.34 2074.44,1298.76 2076.88,1299.17 2079.32,1299.58 2081.76,1299.99 2084.2,1300.39 2086.64,1300.79 2089.08,1301.19 2091.52,1301.59 2093.96,1301.99 2096.41,1302.38 2098.85,1302.77 2101.29,1303.16 2103.73,1303.54 2106.17,1303.93 2108.61,1304.31 2111.05,1304.68 2113.49,1305.06 2115.93,1305.43 2118.37,1305.8 2120.82,1306.17 2123.26,1306.54 2125.7,1306.9 2128.14,1307.26 2130.58,1307.62 2133.02,1307.98 2135.46,1308.33 2137.9,1308.68 2140.34,1309.03 2142.79,1309.37 2145.23,1309.72 2147.67,1310.06 2150.11,1310.3 2152.55,1310.63 2154.99,1310.96 2157.43,1311.29 2159.87,1311.61 2162.31,1311.93 2164.75,1312.26 2167.2,1312.58 2169.64,1312.89 2172.08,1313.21 2174.52,1313.53 2176.96,1313.84 2179.4,1314.15 2181.84,1314.46 2184.28,1314.77 2186.72,1315.08 2189.16,1315.39 2191.61,1315.69 2194.05,1315.99 2196.49,1316.29 2198.93,1316.59 2201.37,1316.89 2203.81,1317.19 2206.25,1317.48 2208.69,1317.77 2211.13,1318.06 2213.57,1318.35 2216.02,1318.64 2218.46,1318.93 2220.9,1319.21 2223.34,1319.5 2225.78,1319.78 2228.22,1320.06 2230.66,1320.34 2233.1,1320.61 2235.54,1320.89 2237.99,1321.16 2240.43,1321.43 2242.87,1321.71 2245.31,1321.97 2247.75,1322.24 2250.19,1322.51 2252.63,1322.77 2255.07,1323.03 2257.51,1323.29 2259.95,1323.55 2262.4,1323.81 2264.84,1324.07 2267.28,1324.32 2269.72,1324.57 2272.16,1324.83 2274.6,1325.08 2277.04,1325.32 2279.48,1325.57 2281.92,1325.81 2284.36,1326.06 2286.81,1326.3 2289.25,1326.54 2291.69,1326.78 2294.13,1327.01 2296.57,1327.25 2299.01,1327.48 2301.45,1327.72 2303.89,1327.95 2306.33,1328.17 2308.78,1328.4 2311.22,1328.55 2313.66,1328.77 2316.1,1328.99 2318.54,1329.21 2320.98,1329.42 2323.42,1329.64 2325.86,1329.85 2328.3,1330.06 2330.74,1330.27 2333.19,1330.48 2335.63,1330.69 2338.07,1330.9 2340.51,1331.11 2342.95,1331.32 2345.39,1331.52 2347.83,1331.73 2350.27,1331.93 2352.71,1332.13 2355.15,1332.33 2357.6,1332.53 2360.04,1332.73 2362.48,1332.93 2364.92,1333.13 2367.36,1333.32 2369.8,1333.52 2372.24,1333.71 2374.68,1333.9 2377.12,1334.09 2379.57,1334.28 2382.01,1334.47 2384.45,1334.66 2386.89,1334.85 2389.33,1335.04 2391.77,1335.22 2394.21,1335.41 2396.65,1335.59 2399.09,1335.77 2401.53,1335.95 2403.98,1336.13 2406.42,1336.31 2408.86,1336.49 2411.3,1336.67 2413.74,1336.84 2416.18,1337.02 2418.62,1337.19 2421.06,1337.36 2423.5,1337.53 2425.94,1337.7 2428.39,1337.87 2430.83,1338.04 2433.27,1338.21 2435.71,1338.38 2438.15,1338.54 2440.59,1338.71 2443.03,1338.87 2445.47,1339.03 2447.91,1339.19 2450.36,1339.35 2452.8,1339.51 2455.24,1339.67 2457.68,1339.83 2460.12,1339.98 2462.56,1340.14 2465,1340.29 2467.44,1340.44 2469.88,1340.59 2472.32,1340.74 2474.77,1340.84 2477.21,1340.98 2479.65,1341.12 2482.09,1341.27 2484.53,1341.41 2486.97,1341.55 2489.41,1341.7 2491.85,1341.84 2494.29,1341.98 2496.73,1342.12 2499.18,1342.26 2501.62,1342.39 2504.06,1342.53 2506.5,1342.67 2508.94,1342.8 2511.38,1342.94 2513.82,1343.07 2516.26,1343.21 2518.7,1343.34 2521.15,1343.47 2523.59,1343.61 2526.03,1343.74 2528.47,1343.87 2530.91,1344 2533.35,1344.13 2535.79,1344.26 2538.23,1344.38 2540.67,1344.51 2543.11,1344.64 2545.56,1344.76 2548,1344.89 2550.44,1345.01 2552.88,1345.13 2555.32,1345.26 2557.76,1345.38 2560.2,1345.5 2562.64,1345.62 2565.08,1345.74 2567.52,1345.86 2569.97,1345.98 2572.41,1346.1 2574.85,1346.22 2577.29,1346.33 2579.73,1346.45 2582.17,1346.56 2584.61,1346.68 2587.05,1346.79 2589.49,1346.91 2591.94,1347.02 2594.38,1347.13 2596.82,1347.24 2599.26,1347.35 2601.7,1347.46 2604.14,1347.57 2606.58,1347.68 2609.02,1347.79 2611.46,1347.89 2613.9,1348 2616.35,1348.1 2618.79,1348.21 2621.23,1348.31 2623.67,1348.42 2626.11,1348.52 2628.55,1348.62 2630.99,1348.72 2633.43,1348.82 2635.87,1348.88 2638.31,1348.98 2640.76,1349.08 "/>
<polyline clip-path="url(#clip042)" style="stroke:#e26f46; stroke-linecap:round; stroke-linejoin:round; stroke-width:4; stroke-opacity:1; fill:none" points="202.163,1670.3 204.604,1670.14 207.045,1669.98 209.486,1669.82 211.927,1669.66 214.368,1669.49 216.809,1669.33 219.25,1669.16 221.691,1668.99 224.132,1668.82 226.574,1668.65 229.015,1668.47 231.456,1668.3 233.897,1668.12 236.338,1667.94 238.779,1667.76 241.22,1667.58 243.661,1667.39 246.102,1667.21 248.543,1667.02 250.984,1666.83 253.425,1666.64 255.866,1666.45 258.307,1666.25 260.748,1666.06 263.189,1665.86 265.63,1665.66 268.071,1665.46 270.512,1665.26 272.953,1665.05 275.394,1664.84 277.835,1664.63 280.276,1664.42 282.717,1664.21 285.158,1663.99 287.599,1663.78 290.04,1663.56 292.481,1663.34 294.922,1663.11 297.364,1662.89 299.805,1662.66 302.246,1662.43 304.687,1662.2 307.128,1661.97 309.569,1661.73 312.01,1661.5 314.451,1661.26 316.892,1661.01 319.333,1660.77 321.774,1660.52 324.215,1660.28 326.656,1660.03 329.097,1659.77 331.538,1659.52 333.979,1659.26 336.42,1659 338.861,1658.74 341.302,1658.47 343.743,1658.21 346.184,1657.94 348.625,1657.67 351.066,1657.4 353.507,1657.12 355.948,1656.84 358.389,1656.56 360.83,1656.28 363.271,1655.99 365.712,1655.7 368.153,1655.41 370.595,1655.12 373.036,1654.82 375.477,1654.52 377.918,1654.22 380.359,1653.92 382.8,1653.61 385.241,1653.31 387.682,1652.99 390.123,1652.68 392.564,1652.36 395.005,1652.04 397.446,1651.72 399.887,1651.39 402.328,1651.07 404.769,1650.74 407.21,1650.4 409.651,1650.07 412.092,1649.73 414.533,1649.38 416.974,1649.04 419.415,1648.69 421.856,1648.35 424.297,1647.99 426.738,1647.64 429.179,1647.28 431.62,1646.91 434.061,1646.55 436.502,1646.18 438.943,1645.81 441.384,1645.43 443.826,1645.06 446.267,1644.68 448.708,1644.29 451.149,1643.91 453.59,1643.52 456.031,1643.12 458.472,1642.73 460.913,1642.33 463.354,1641.93 465.795,1641.53 468.236,1641.12 470.677,1640.71 473.118,1640.29 475.559,1639.87 478,1639.45 480.441,1639.02 482.882,1638.6 485.323,1638.16 487.764,1637.73 490.205,1637.29 492.646,1636.85 495.087,1636.4 497.528,1635.95 499.969,1635.5 502.41,1635.05 504.851,1634.59 507.292,1634.13 509.733,1633.67 512.174,1633.2 514.616,1632.72 517.057,1632.25 519.498,1631.77 521.939,1631.28 524.38,1630.8 526.821,1630.31 529.262,1629.81 531.703,1629.31 534.144,1628.81 536.585,1628.31 539.026,1627.8 541.467,1627.28 543.908,1626.77 546.349,1626.25 548.79,1625.74 551.231,1625.21 553.672,1624.68 556.113,1624.14 558.554,1623.61 560.995,1623.06 563.436,1622.52 565.877,1621.97 568.318,1621.41 570.759,1620.86 573.2,1620.3 575.641,1619.73 578.082,1619.16 580.523,1618.59 582.964,1618.01 585.405,1617.43 587.847,1616.85 590.288,1616.26 592.729,1615.67 595.17,1615.08 597.611,1614.48 600.052,1613.89 602.493,1613.28 604.934,1612.67 607.375,1612.06 609.816,1611.44 612.257,1610.82 614.698,1610.19 617.139,1609.56 619.58,1608.93 622.021,1608.29 624.462,1607.65 626.903,1607 629.344,1606.36 631.785,1605.7 634.226,1605.05 636.667,1604.39 639.108,1603.72 641.549,1603.05 643.99,1602.38 646.431,1601.71 648.872,1601.03 651.313,1600.36 653.754,1599.67 656.195,1598.98 658.637,1598.29 661.078,1597.59 663.519,1596.89 665.96,1596.18 668.401,1595.47 670.842,1594.76 673.283,1594.04 675.724,1593.32 678.165,1592.59 680.606,1591.87 683.047,1591.13 685.488,1590.4 687.929,1589.66 690.37,1588.92 692.811,1588.17 695.252,1587.42 697.693,1586.67 700.134,1585.91 702.575,1585.15 705.016,1584.39 707.457,1583.64 709.898,1582.87 712.339,1582.09 714.78,1581.31 717.221,1580.53 719.662,1579.75 722.103,1578.96 724.544,1578.17 726.985,1577.37 729.426,1576.57 731.868,1575.77 734.309,1574.97 736.75,1574.16 739.191,1573.35 741.632,1572.54 744.073,1571.73 746.514,1570.91 748.955,1570.09 751.396,1569.26 753.837,1568.43 756.278,1567.6 758.719,1566.77 761.16,1565.93 763.601,1565.09 766.042,1564.28 768.483,1563.43 770.924,1562.58 773.365,1561.72 775.806,1560.87 778.247,1560.01 780.688,1559.15 783.129,1558.29 785.57,1557.43 788.011,1556.56 790.452,1555.7 792.893,1554.83 795.334,1553.96 797.775,1553.09 800.216,1552.21 802.657,1551.34 805.099,1550.46 807.54,1549.58 809.981,1548.7 812.422,1547.81 814.863,1546.93 817.304,1546.04 819.745,1545.15 822.186,1544.26 824.627,1543.36 827.068,1542.47 829.509,1541.57 831.95,1540.71 834.391,1539.8 836.832,1538.9 839.273,1537.99 841.714,1537.08 844.155,1536.18 846.596,1535.27 849.037,1534.37 851.478,1533.46 853.919,1532.55 856.36,1531.65 858.801,1530.74 861.242,1529.83 863.683,1528.93 866.124,1528.02 868.565,1527.11 871.006,1526.21 873.447,1525.3 875.889,1524.39 878.33,1523.49 880.771,1522.58 883.212,1521.67 885.653,1520.77 888.094,1519.86 890.535,1518.95 892.976,1518.04 895.417,1517.14 897.858,1516.23 900.299,1515.32 902.74,1514.45 905.181,1513.54 907.622,1512.62 910.063,1511.71 912.504,1510.81 914.945,1509.9 917.386,1509 919.827,1508.1 922.268,1507.2 924.709,1506.31 927.15,1505.42 929.591,1504.53 932.032,1503.64 934.473,1502.75 936.914,1501.87 939.355,1500.99 941.796,1500.11 944.237,1499.24 946.678,1498.36 949.12,1497.49 951.561,1496.62 954.002,1495.76 956.443,1494.9 958.884,1494.04 961.325,1493.18 963.766,1492.32 966.207,1491.47 968.648,1490.62 971.089,1489.77 973.53,1488.92 975.971,1488.08 978.412,1487.24 980.853,1486.44 983.294,1485.59 985.735,1484.76 988.176,1483.92 990.617,1483.1 993.058,1482.27 995.499,1481.46 997.94,1480.64 1000.38,1479.84 1002.82,1479.04 1005.26,1478.24 1007.7,1477.45 1010.15,1476.66 1012.59,1475.88 1015.03,1475.11 1017.47,1474.34 1019.91,1473.57 1022.35,1472.82 1024.79,1472.06 1027.23,1471.31 1029.67,1470.57 1032.11,1469.83 1034.56,1469.1 1037,1468.37 1039.44,1467.65 1041.88,1466.93 1044.32,1466.22 1046.76,1465.51 1049.2,1464.81 1051.64,1464.12 1054.08,1463.43 1056.53,1462.74 1058.97,1462.06 1061.41,1461.38 1063.85,1460.76 1066.29,1460.09 1068.73,1459.42 1071.17,1458.77 1073.61,1458.12 1076.05,1457.48 1078.49,1456.84 1080.94,1456.22 1083.38,1455.6 1085.82,1454.99 1088.26,1454.39 1090.7,1453.79 1093.14,1453.2 1095.58,1452.62 1098.02,1452.05 1100.46,1451.49 1102.9,1450.93 1105.35,1450.38 1107.79,1449.84 1110.23,1449.3 1112.67,1448.77 1115.11,1448.25 1117.55,1447.74 1119.99,1447.24 1122.43,1446.74 1124.87,1446.25 1127.31,1445.77 1129.76,1445.29 1132.2,1444.82 1134.64,1444.37 1137.08,1443.91 1139.52,1443.47 1141.96,1443.03 1144.4,1442.6 1146.84,1442.18 1149.28,1441.77 1151.73,1441.4 1154.17,1440.99 1156.61,1440.6 1159.05,1440.21 1161.49,1439.84 1163.93,1439.47 1166.37,1439.11 1168.81,1438.76 1171.25,1438.42 1173.69,1438.08 1176.14,1437.75 1178.58,1437.44 1181.02,1437.13 1183.46,1436.83 1185.9,1436.54 1188.34,1436.25 1190.78,1435.98 1193.22,1435.71 1195.66,1435.45 1198.1,1435.2 1200.55,1434.96 1202.99,1434.73 1205.43,1434.51 1207.87,1434.29 1210.31,1434.09 1212.75,1433.89 1215.19,1433.7 1217.63,1433.52 1220.07,1433.34 1222.52,1433.18 1224.96,1433.02 1227.4,1432.88 1229.84,1432.74 1232.28,1432.61 1234.72,1432.49 1237.16,1432.37 1239.6,1432.31 1242.04,1432.21 1244.48,1432.12 1246.93,1432.04 1249.37,1431.97 1251.81,1431.9 1254.25,1431.85 1256.69,1431.8 1259.13,1431.76 1261.57,1431.72 1264.01,1431.7 1266.45,1431.68 1268.89,1431.67 1271.34,1431.67 1273.78,1431.68 1276.22,1431.69 1278.66,1431.71 1281.1,1431.74 1283.54,1431.78 1285.98,1431.83 1288.42,1431.88 1290.86,1431.94 1293.31,1432.01 1295.75,1432.09 1298.19,1432.17 1300.63,1432.27 1303.07,1432.37 1305.51,1432.48 1307.95,1432.59 1310.39,1432.72 1312.83,1432.85 1315.27,1432.99 1317.72,1433.14 1320.16,1433.29 1322.6,1433.46 1325.04,1433.63 1327.48,1433.81 1329.92,1434 1332.36,1434.19 1334.8,1434.44 1337.24,1434.66 1339.68,1434.87 1342.13,1435.1 1344.57,1435.33 1347.01,1435.57 1349.45,1435.81 1351.89,1436.06 1354.33,1436.32 1356.77,1436.58 1359.21,1436.85 1361.65,1437.12 1364.1,1437.4 1366.54,1437.69 1368.98,1437.98 1371.42,1438.28 1373.86,1438.58 1376.3,1438.89 1378.74,1439.21 1381.18,1439.53 1383.62,1439.86 1386.06,1440.19 1388.51,1440.53 1390.95,1440.88 1393.39,1441.23 1395.83,1441.59 1398.27,1441.95 1400.71,1442.32 1403.15,1442.69 1405.59,1443.08 1408.03,1443.46 1410.47,1443.86 1412.92,1444.26 1415.36,1444.66 1417.8,1445.07 1420.24,1445.49 1422.68,1445.92 1425.12,1446.35 1427.56,1446.78 1430,1447.22 1432.44,1447.71 1434.89,1448.17 1437.33,1448.64 1439.77,1449.11 1442.21,1449.58 1444.65,1450.05 1447.09,1450.53 1449.53,1451.01 1451.97,1451.49 1454.41,1451.98 1456.85,1452.47 1459.3,1452.97 1461.74,1453.46 1464.18,1453.97 1466.62,1454.47 1469.06,1454.98 1471.5,1455.49 1473.94,1456.01 1476.38,1456.53 1478.82,1457.05 1481.26,1457.58 1483.71,1458.11 1486.15,1458.64 1488.59,1459.18 1491.03,1459.72 1493.47,1460.26 1495.91,1460.81 1498.35,1461.36 1500.79,1461.91 1503.23,1462.47 1505.68,1463.03 1508.12,1463.6 1510.56,1464.16 1513,1464.74 1515.44,1465.31 1517.88,1465.89 1520.32,1466.47 1522.76,1467.06 1525.2,1467.65 1527.64,1468.24 1530.09,1468.84 1532.53,1469.43 1534.97,1470.04 1537.41,1470.64 1539.85,1471.29 1542.29,1471.91 1544.73,1472.53 1547.17,1473.16 1549.61,1473.78 1552.05,1474.41 1554.5,1475.04 1556.94,1475.66 1559.38,1476.29 1561.82,1476.92 1564.26,1477.56 1566.7,1478.19 1569.14,1478.82 1571.58,1479.45 1574.02,1480.09 1576.47,1480.73 1578.91,1481.36 1581.35,1482 1583.79,1482.64 1586.23,1483.28 1588.67,1483.92 1591.11,1484.56 1593.55,1485.21 1595.99,1485.85 1598.43,1486.5 1600.88,1487.14 1603.32,1487.79 1605.76,1488.44 1608.2,1489.09 1610.64,1489.74 1613.08,1490.39 1615.52,1491.04 1617.96,1491.7 1620.4,1492.35 1622.84,1493.01 1625.29,1493.67 1627.73,1494.32 1630.17,1494.98 1632.61,1495.64 1635.05,1496.3 1637.49,1496.96 1639.93,1497.63 1642.37,1498.29 1644.81,1498.96 1647.26,1499.62 1649.7,1500.29 1652.14,1500.96 1654.58,1501.63 1657.02,1502.3 1659.46,1502.97 1661.9,1503.65 1664.34,1504.34 1666.78,1505.02 1669.22,1505.7 1671.67,1506.39 1674.11,1507.07 1676.55,1507.75 1678.99,1508.43 1681.43,1509.11 1683.87,1509.78 1686.31,1510.46 1688.75,1511.13 1691.19,1511.81 1693.63,1512.48 1696.08,1513.16 1698.52,1513.83 1700.96,1514.5 1703.4,1515.17 1705.84,1515.84 1708.28,1516.5 1710.72,1517.17 1713.16,1517.84 1715.6,1518.5 1718.05,1519.17 1720.49,1519.83 1722.93,1520.49 1725.37,1521.15 1727.81,1521.81 1730.25,1522.47 1732.69,1523.13 1735.13,1523.79 1737.57,1524.45 1740.01,1525.1 1742.46,1525.76 1744.9,1526.41 1747.34,1527.06 1749.78,1527.71 1752.22,1528.37 1754.66,1529.02 1757.1,1529.66 1759.54,1530.31 1761.98,1530.96 1764.42,1531.61 1766.87,1532.25 1769.31,1532.89 1771.75,1533.54 1774.19,1534.18 1776.63,1534.82 1779.07,1535.46 1781.51,1536.1 1783.95,1536.74 1786.39,1537.38 1788.84,1538.01 1791.28,1538.65 1793.72,1539.28 1796.16,1539.92 1798.6,1540.55 1801.04,1541.18 1803.48,1541.81 1805.92,1542.44 1808.36,1543.07 1810.8,1543.7 1813.25,1544.33 1815.69,1544.95 1818.13,1545.58 1820.57,1546.2 1823.01,1546.83 1825.45,1547.39 1827.89,1548.02 1830.33,1548.64 1832.77,1549.26 1835.21,1549.88 1837.66,1550.5 1840.1,1551.12 1842.54,1551.73 1844.98,1552.34 1847.42,1552.95 1849.86,1553.56 1852.3,1554.17 1854.74,1554.77 1857.18,1555.38 1859.63,1555.98 1862.07,1556.58 1864.51,1557.18 1866.95,1557.77 1869.39,1558.37 1871.83,1558.96 1874.27,1559.55 1876.71,1560.14 1879.15,1560.73 1881.59,1561.31 1884.04,1561.9 1886.48,1562.48 1888.92,1563.06 1891.36,1563.64 1893.8,1564.21 1896.24,1564.79 1898.68,1565.36 1901.12,1565.93 1903.56,1566.5 1906,1567.07 1908.45,1567.64 1910.89,1568.2 1913.33,1568.76 1915.77,1569.32 1918.21,1569.88 1920.65,1570.44 1923.09,1570.99 1925.53,1571.54 1927.97,1572.1 1930.42,1572.64 1932.86,1573.19 1935.3,1573.74 1937.74,1574.28 1940.18,1574.82 1942.62,1575.36 1945.06,1575.9 1947.5,1576.44 1949.94,1576.98 1952.38,1577.51 1954.83,1578.04 1957.27,1578.57 1959.71,1579.1 1962.15,1579.62 1964.59,1580.15 1967.03,1580.67 1969.47,1581.19 1971.91,1581.71 1974.35,1582.23 1976.79,1582.74 1979.24,1583.25 1981.68,1583.77 1984.12,1584.28 1986.56,1584.67 1989,1585.18 1991.44,1585.68 1993.88,1586.19 1996.32,1586.69 1998.76,1587.19 2001.21,1587.68 2003.65,1588.18 2006.09,1588.67 2008.53,1589.16 2010.97,1589.65 2013.41,1590.14 2015.85,1590.63 2018.29,1591.11 2020.73,1591.59 2023.17,1592.07 2025.62,1592.55 2028.06,1593.03 2030.5,1593.5 2032.94,1593.98 2035.38,1594.45 2037.82,1594.92 2040.26,1595.38 2042.7,1595.85 2045.14,1596.31 2047.58,1596.78 2050.03,1597.24 2052.47,1597.69 2054.91,1598.15 2057.35,1598.61 2059.79,1599.06 2062.23,1599.51 2064.67,1599.96 2067.11,1600.41 2069.55,1600.85 2072,1601.3 2074.44,1601.74 2076.88,1602.18 2079.32,1602.62 2081.76,1603.05 2084.2,1603.49 2086.64,1603.92 2089.08,1604.35 2091.52,1604.78 2093.96,1605.21 2096.41,1605.63 2098.85,1606.05 2101.29,1606.48 2103.73,1606.9 2106.17,1607.31 2108.61,1607.73 2111.05,1608.14 2113.49,1608.56 2115.93,1608.97 2118.37,1609.38 2120.82,1609.78 2123.26,1610.19 2125.7,1610.59 2128.14,1610.99 2130.58,1611.39 2133.02,1611.79 2135.46,1612.19 2137.9,1612.58 2140.34,1612.97 2142.79,1613.36 2145.23,1613.75 2147.67,1614.14 2150.11,1614.41 2152.55,1614.79 2154.99,1615.17 2157.43,1615.54 2159.87,1615.92 2162.31,1616.3 2164.75,1616.67 2167.2,1617.04 2169.64,1617.41 2172.08,1617.78 2174.52,1618.15 2176.96,1618.51 2179.4,1618.87 2181.84,1619.24 2184.28,1619.6 2186.72,1619.96 2189.16,1620.32 2191.61,1620.67 2194.05,1621.03 2196.49,1621.38 2198.93,1621.73 2201.37,1622.08 2203.81,1622.43 2206.25,1622.78 2208.69,1623.12 2211.13,1623.47 2213.57,1623.81 2216.02,1624.15 2218.46,1624.49 2220.9,1624.83 2223.34,1625.16 2225.78,1625.5 2228.22,1625.83 2230.66,1626.16 2233.1,1626.49 2235.54,1626.82 2237.99,1627.15 2240.43,1627.47 2242.87,1627.8 2245.31,1628.12 2247.75,1628.44 2250.19,1628.76 2252.63,1629.08 2255.07,1629.39 2257.51,1629.71 2259.95,1630.02 2262.4,1630.33 2264.84,1630.64 2267.28,1630.95 2269.72,1631.26 2272.16,1631.56 2274.6,1631.86 2277.04,1632.17 2279.48,1632.47 2281.92,1632.77 2284.36,1633.06 2286.81,1633.36 2289.25,1633.66 2291.69,1633.95 2294.13,1634.24 2296.57,1634.53 2299.01,1634.82 2301.45,1635.1 2303.89,1635.39 2306.33,1635.67 2308.78,1635.96 2311.22,1636.13 2313.66,1636.41 2316.1,1636.69 2318.54,1636.96 2320.98,1637.23 2323.42,1637.5 2325.86,1637.77 2328.3,1638.04 2330.74,1638.31 2333.19,1638.58 2335.63,1638.84 2338.07,1639.11 2340.51,1639.37 2342.95,1639.63 2345.39,1639.89 2347.83,1640.15 2350.27,1640.41 2352.71,1640.66 2355.15,1640.92 2357.6,1641.18 2360.04,1641.43 2362.48,1641.68 2364.92,1641.93 2367.36,1642.18 2369.8,1642.43 2372.24,1642.68 2374.68,1642.93 2377.12,1643.17 2379.57,1643.41 2382.01,1643.66 2384.45,1643.9 2386.89,1644.14 2389.33,1644.38 2391.77,1644.62 2394.21,1644.85 2396.65,1645.09 2399.09,1645.32 2401.53,1645.56 2403.98,1645.79 2406.42,1646.02 2408.86,1646.25 2411.3,1646.48 2413.74,1646.71 2416.18,1646.93 2418.62,1647.16 2421.06,1647.38 2423.5,1647.6 2425.94,1647.83 2428.39,1648.05 2430.83,1648.27 2433.27,1648.48 2435.71,1648.7 2438.15,1648.92 2440.59,1649.13 2443.03,1649.34 2445.47,1649.56 2447.91,1649.77 2450.36,1649.98 2452.8,1650.19 2455.24,1650.39 2457.68,1650.6 2460.12,1650.8 2462.56,1651.01 2465,1651.21 2467.44,1651.41 2469.88,1651.61 2472.32,1651.81 2474.77,1651.93 2477.21,1652.12 2479.65,1652.32 2482.09,1652.51 2484.53,1652.7 2486.97,1652.89 2489.41,1653.08 2491.85,1653.27 2494.29,1653.46 2496.73,1653.64 2499.18,1653.83 2501.62,1654.01 2504.06,1654.2 2506.5,1654.38 2508.94,1654.56 2511.38,1654.75 2513.82,1654.93 2516.26,1655.11 2518.7,1655.29 2521.15,1655.47 2523.59,1655.64 2526.03,1655.82 2528.47,1656 2530.91,1656.17 2533.35,1656.34 2535.79,1656.52 2538.23,1656.69 2540.67,1656.86 2543.11,1657.03 2545.56,1657.2 2548,1657.37 2550.44,1657.54 2552.88,1657.71 2555.32,1657.87 2557.76,1658.04 2560.2,1658.2 2562.64,1658.37 2565.08,1658.53 2567.52,1658.69 2569.97,1658.85 2572.41,1659.01 2574.85,1659.17 2577.29,1659.33 2579.73,1659.49 2582.17,1659.65 2584.61,1659.8 2587.05,1659.96 2589.49,1660.11 2591.94,1660.26 2594.38,1660.42 2596.82,1660.57 2599.26,1660.72 2601.7,1660.87 2604.14,1661.02 2606.58,1661.17 2609.02,1661.31 2611.46,1661.46 2613.9,1661.61 2616.35,1661.75 2618.79,1661.9 2621.23,1662.04 2623.67,1662.18 2626.11,1662.32 2628.55,1662.46 2630.99,1662.6 2633.43,1662.74 2635.87,1662.82 2638.31,1662.96 2640.76,1663.09 "/>
<polyline clip-path="url(#clip042)" style="stroke:#3da44d; stroke-linecap:round; stroke-linejoin:round; stroke-width:4; stroke-opacity:1; fill:none" points="202.163,1686.38 204.604,1686.21 207.045,1686.05 209.486,1685.89 211.927,1685.72 214.368,1685.55 216.809,1685.38 219.25,1685.21 221.691,1685.04 224.132,1684.86 226.574,1684.68 229.015,1684.51 231.456,1684.33 233.897,1684.14 236.338,1683.96 238.779,1683.78 241.22,1683.59 243.661,1683.4 246.102,1683.21 248.543,1683.02 250.984,1682.82 253.425,1682.62 255.866,1682.43 258.307,1682.23 260.748,1682.02 263.189,1681.82 265.63,1681.61 268.071,1681.4 270.512,1681.19 272.953,1680.98 275.394,1680.77 277.835,1680.55 280.276,1680.33 282.717,1680.11 285.158,1679.89 287.599,1679.66 290.04,1679.43 292.481,1679.2 294.922,1678.97 297.364,1678.74 299.805,1678.5 302.246,1678.27 304.687,1678.02 307.128,1677.78 309.569,1677.54 312.01,1677.29 314.451,1677.04 316.892,1676.78 319.333,1676.53 321.774,1676.27 324.215,1676.01 326.656,1675.75 329.097,1675.48 331.538,1675.22 333.979,1674.95 336.42,1674.67 338.861,1674.4 341.302,1674.12 343.743,1673.84 346.184,1673.56 348.625,1673.27 351.066,1672.98 353.507,1672.69 355.948,1672.4 358.389,1672.1 360.83,1671.8 363.271,1671.5 365.712,1671.19 368.153,1670.88 370.595,1670.57 373.036,1670.26 375.477,1669.94 377.918,1669.62 380.359,1669.29 382.8,1668.97 385.241,1668.64 387.682,1668.31 390.123,1667.97 392.564,1667.63 395.005,1667.29 397.446,1666.95 399.887,1666.6 402.328,1666.24 404.769,1665.89 407.21,1665.53 409.651,1665.17 412.092,1664.8 414.533,1664.43 416.974,1664.06 419.415,1663.69 421.856,1663.31 424.297,1662.93 426.738,1662.54 429.179,1662.15 431.62,1661.76 434.061,1661.36 436.502,1660.96 438.943,1660.56 441.384,1660.15 443.826,1659.73 446.267,1659.32 448.708,1658.9 451.149,1658.48 453.59,1658.05 456.031,1657.62 458.472,1657.18 460.913,1656.75 463.354,1656.31 465.795,1655.86 468.236,1655.41 470.677,1654.95 473.118,1654.49 475.559,1654.03 478,1653.56 480.441,1653.09 482.882,1652.61 485.323,1652.13 487.764,1651.64 490.205,1651.15 492.646,1650.66 495.087,1650.16 497.528,1649.66 499.969,1649.15 502.41,1648.64 504.851,1648.13 507.292,1647.61 509.733,1647.09 512.174,1646.56 514.616,1646.02 517.057,1645.48 519.498,1644.94 521.939,1644.39 524.38,1643.83 526.821,1643.27 529.262,1642.71 531.703,1642.14 534.144,1641.56 536.585,1640.98 539.026,1640.4 541.467,1639.81 543.908,1639.21 546.349,1638.61 548.79,1638.02 551.231,1637.41 553.672,1636.8 556.113,1636.18 558.554,1635.55 560.995,1634.92 563.436,1634.28 565.877,1633.64 568.318,1632.99 570.759,1632.34 573.2,1631.68 575.641,1631.01 578.082,1630.34 580.523,1629.66 582.964,1628.98 585.405,1628.29 587.847,1627.6 590.288,1626.9 592.729,1626.19 595.17,1625.48 597.611,1624.77 600.052,1624.06 602.493,1623.33 604.934,1622.59 607.375,1621.85 609.816,1621.11 612.257,1620.35 614.698,1619.59 617.139,1618.83 619.58,1618.05 622.021,1617.27 624.462,1616.49 626.903,1615.69 629.344,1614.89 631.785,1614.09 634.226,1613.28 636.667,1612.46 639.108,1611.63 641.549,1610.8 643.99,1609.96 646.431,1609.12 648.872,1608.27 651.313,1607.43 653.754,1606.56 656.195,1605.69 658.637,1604.81 661.078,1603.93 663.519,1603.03 665.96,1602.13 668.401,1601.23 670.842,1600.31 673.283,1599.39 675.724,1598.46 678.165,1597.52 680.606,1596.58 683.047,1595.63 685.488,1594.67 687.929,1593.7 690.37,1592.73 692.811,1591.75 695.252,1590.76 697.693,1589.77 700.134,1588.77 702.575,1587.76 705.016,1586.74 707.457,1585.73 709.898,1584.7 712.339,1583.66 714.78,1582.61 717.221,1581.56 719.662,1580.49 722.103,1579.42 724.544,1578.34 726.985,1577.25 729.426,1576.16 731.868,1575.05 734.309,1573.94 736.75,1572.82 739.191,1571.69 741.632,1570.55 744.073,1569.41 746.514,1568.26 748.955,1567.1 751.396,1565.93 753.837,1564.75 756.278,1563.56 758.719,1562.37 761.16,1561.17 763.601,1559.96 766.042,1558.76 768.483,1557.53 770.924,1556.3 773.365,1555.06 775.806,1553.8 778.247,1552.54 780.688,1551.27 783.129,1549.99 785.57,1548.71 788.011,1547.41 790.452,1546.11 792.893,1544.79 795.334,1543.47 797.775,1542.14 800.216,1540.8 802.657,1539.45 805.099,1538.09 807.54,1536.73 809.981,1535.35 812.422,1533.97 814.863,1532.58 817.304,1531.18 819.745,1529.77 822.186,1528.35 824.627,1526.92 827.068,1525.49 829.509,1524.04 831.95,1522.6 834.391,1521.14 836.832,1519.67 839.273,1518.19 841.714,1516.7 844.155,1515.2 846.596,1513.69 849.037,1512.17 851.478,1510.64 853.919,1509.11 856.36,1507.56 858.801,1506.01 861.242,1504.45 863.683,1502.87 866.124,1501.29 868.565,1499.7 871.006,1498.11 873.447,1496.5 875.889,1494.88 878.33,1493.26 880.771,1491.62 883.212,1489.98 885.653,1488.32 888.094,1486.66 890.535,1484.99 892.976,1483.31 895.417,1481.62 897.858,1479.93 900.299,1478.22 902.74,1476.5 905.181,1474.77 907.622,1473.04 910.063,1471.29 912.504,1469.54 914.945,1467.78 917.386,1466 919.827,1464.22 922.268,1462.44 924.709,1460.64 927.15,1458.83 929.591,1457.02 932.032,1455.19 934.473,1453.36 936.914,1451.52 939.355,1449.67 941.796,1447.81 944.237,1445.95 946.678,1444.07 949.12,1442.19 951.561,1440.29 954.002,1438.39 956.443,1436.48 958.884,1434.56 961.325,1432.64 963.766,1430.7 966.207,1428.76 968.648,1426.8 971.089,1424.84 973.53,1422.87 975.971,1420.89 978.412,1418.9 980.853,1416.87 983.294,1414.86 985.735,1412.84 988.176,1410.82 990.617,1408.78 993.058,1406.74 995.499,1404.7 997.94,1402.64 1000.38,1400.58 1002.82,1398.51 1005.26,1396.43 1007.7,1394.35 1010.15,1392.26 1012.59,1390.16 1015.03,1388.05 1017.47,1385.94 1019.91,1383.82 1022.35,1381.69 1024.79,1379.55 1027.23,1377.41 1029.67,1375.26 1032.11,1373.1 1034.56,1370.93 1037,1368.76 1039.44,1366.58 1041.88,1364.39 1044.32,1362.2 1046.76,1359.99 1049.2,1357.78 1051.64,1355.57 1054.08,1353.34 1056.53,1351.11 1058.97,1348.87 1061.41,1346.62 1063.85,1344.28 1066.29,1342.01 1068.73,1339.73 1071.17,1337.45 1073.61,1335.17 1076.05,1332.88 1078.49,1330.58 1080.94,1328.28 1083.38,1325.98 1085.82,1323.67 1088.26,1321.35 1090.7,1319.03 1093.14,1316.7 1095.58,1314.37 1098.02,1312.03 1100.46,1309.69 1102.9,1307.35 1105.35,1304.99 1107.79,1302.64 1110.23,1300.27 1112.67,1297.91 1115.11,1295.53 1117.55,1293.16 1119.99,1290.77 1122.43,1288.39 1124.87,1285.99 1127.31,1283.59 1129.76,1281.19 1132.2,1278.78 1134.64,1276.37 1137.08,1273.95 1139.52,1271.53 1141.96,1269.1 1144.4,1266.66 1146.84,1264.22 1149.28,1261.78 1151.73,1259.18 1154.17,1256.72 1156.61,1254.26 1159.05,1251.79 1161.49,1249.32 1163.93,1246.85 1166.37,1244.37 1168.81,1241.9 1171.25,1239.42 1173.69,1236.94 1176.14,1234.45 1178.58,1231.97 1181.02,1229.48 1183.46,1226.99 1185.9,1224.5 1188.34,1222.01 1190.78,1219.51 1193.22,1217.01 1195.66,1214.51 1198.1,1212.01 1200.55,1209.5 1202.99,1206.99 1205.43,1204.48 1207.87,1201.97 1210.31,1199.46 1212.75,1196.94 1215.19,1194.42 1217.63,1191.9 1220.07,1189.37 1222.52,1186.85 1224.96,1184.32 1227.4,1181.79 1229.84,1179.26 1232.28,1176.72 1234.72,1174.19 1237.16,1171.65 1239.6,1168.94 1242.04,1166.38 1244.48,1163.83 1246.93,1161.28 1249.37,1158.73 1251.81,1156.18 1254.25,1153.63 1256.69,1151.08 1259.13,1148.53 1261.57,1145.98 1264.01,1143.44 1266.45,1140.89 1268.89,1138.35 1271.34,1135.8 1273.78,1133.26 1276.22,1130.72 1278.66,1128.18 1281.1,1125.64 1283.54,1123.1 1285.98,1120.56 1288.42,1118.02 1290.86,1115.48 1293.31,1112.94 1295.75,1110.41 1298.19,1107.87 1300.63,1105.34 1303.07,1102.81 1305.51,1100.27 1307.95,1097.74 1310.39,1095.21 1312.83,1092.68 1315.27,1090.15 1317.72,1087.62 1320.16,1085.1 1322.6,1082.57 1325.04,1080.04 1327.48,1077.52 1329.92,1074.99 1332.36,1072.47 1334.8,1069.76 1337.24,1067.23 1339.68,1064.71 1342.13,1062.19 1344.57,1059.67 1347.01,1057.16 1349.45,1054.65 1351.89,1052.14 1354.33,1049.64 1356.77,1047.14 1359.21,1044.64 1361.65,1042.15 1364.1,1039.66 1366.54,1037.17 1368.98,1034.69 1371.42,1032.21 1373.86,1029.73 1376.3,1027.26 1378.74,1024.79 1381.18,1022.33 1383.62,1019.87 1386.06,1017.41 1388.51,1014.96 1390.95,1012.51 1393.39,1010.06 1395.83,1007.61 1398.27,1005.17 1400.71,1002.74 1403.15,1000.31 1405.59,997.876 1408.03,995.45 1410.47,993.028 1412.92,990.609 1415.36,988.194 1417.8,985.782 1420.24,983.374 1422.68,980.969 1425.12,978.568 1427.56,976.17 1430,973.776 1432.44,971.224 1434.89,968.831 1437.33,966.444 1439.77,964.062 1442.21,961.686 1444.65,959.316 1447.09,956.951 1449.53,954.591 1451.97,952.237 1454.41,949.889 1456.85,947.546 1459.3,945.208 1461.74,942.876 1464.18,940.55 1466.62,938.229 1469.06,935.914 1471.5,933.604 1473.94,931.299 1476.38,929 1478.82,926.707 1481.26,924.419 1483.71,922.137 1486.15,919.86 1488.59,917.589 1491.03,915.323 1493.47,913.063 1495.91,910.808 1498.35,908.559 1500.79,906.315 1503.23,904.077 1505.68,901.845 1508.12,899.618 1510.56,897.396 1513,895.18 1515.44,892.969 1517.88,890.764 1520.32,888.565 1522.76,886.371 1525.2,884.182 1527.64,881.999 1530.09,879.822 1532.53,877.65 1534.97,875.483 1537.41,873.322 1539.85,871.047 1542.29,868.894 1544.73,866.748 1547.17,864.608 1549.61,862.476 1552.05,860.349 1554.5,858.229 1556.94,856.116 1559.38,854.009 1561.82,851.909 1564.26,849.815 1566.7,847.728 1569.14,845.648 1571.58,843.574 1574.02,841.506 1576.47,839.445 1578.91,837.391 1581.35,835.343 1583.79,833.302 1586.23,831.267 1588.67,829.239 1591.11,827.217 1593.55,825.202 1595.99,823.194 1598.43,821.192 1600.88,819.196 1603.32,817.208 1605.76,815.225 1608.2,813.249 1610.64,811.28 1613.08,809.317 1615.52,807.361 1617.96,805.412 1620.4,803.469 1622.84,801.532 1625.29,799.602 1627.73,797.679 1630.17,795.762 1632.61,793.852 1635.05,791.948 1637.49,790.051 1639.93,788.16 1642.37,786.276 1644.81,784.398 1647.26,782.527 1649.7,780.663 1652.14,778.805 1654.58,776.953 1657.02,775.109 1659.46,773.27 1661.9,771.386 1664.34,769.563 1666.78,767.747 1669.22,765.938 1671.67,764.135 1674.11,762.338 1676.55,760.548 1678.99,758.764 1681.43,756.987 1683.87,755.217 1686.31,753.453 1688.75,751.695 1691.19,749.944 1693.63,748.2 1696.08,746.462 1698.52,744.73 1700.96,743.005 1703.4,741.287 1705.84,739.575 1708.28,737.869 1710.72,736.17 1713.16,734.478 1715.6,732.792 1718.05,731.112 1720.49,729.439 1722.93,727.773 1725.37,726.113 1727.81,724.459 1730.25,722.812 1732.69,721.172 1735.13,719.538 1737.57,717.91 1740.01,716.289 1742.46,714.675 1744.9,713.067 1747.34,711.465 1749.78,709.87 1752.22,708.282 1754.66,706.7 1757.1,705.124 1759.54,703.555 1761.98,701.993 1764.42,700.437 1766.87,698.887 1769.31,697.344 1771.75,695.808 1774.19,694.278 1776.63,692.754 1779.07,691.237 1781.51,689.727 1783.95,688.223 1786.39,686.725 1788.84,685.234 1791.28,683.75 1793.72,682.272 1796.16,680.8 1798.6,679.335 1801.04,677.877 1803.48,676.425 1805.92,674.979 1808.36,673.54 1810.8,672.108 1813.25,670.682 1815.69,669.262 1818.13,667.849 1820.57,666.443 1823.01,665.043 1825.45,663.755 1827.89,662.374 1830.33,660.999 1832.77,659.63 1835.21,658.265 1837.66,656.907 1840.1,655.554 1842.54,654.206 1844.98,652.864 1847.42,651.528 1849.86,650.197 1852.3,648.872 1854.74,647.552 1857.18,646.238 1859.63,644.929 1862.07,643.626 1864.51,642.328 1866.95,641.036 1869.39,639.749 1871.83,638.468 1874.27,637.193 1876.71,635.923 1879.15,634.658 1881.59,633.399 1884.04,632.146 1886.48,630.898 1888.92,629.655 1891.36,628.418 1893.8,627.187 1896.24,625.961 1898.68,624.741 1901.12,623.526 1903.56,622.317 1906,621.114 1908.45,619.916 1910.89,618.723 1913.33,617.536 1915.77,616.354 1918.21,615.178 1920.65,614.008 1923.09,612.843 1925.53,611.684 1927.97,610.53 1930.42,609.381 1932.86,608.239 1935.3,607.101 1937.74,605.97 1940.18,604.843 1942.62,603.723 1945.06,602.608 1947.5,601.498 1949.94,600.394 1952.38,599.295 1954.83,598.202 1957.27,597.115 1959.71,596.033 1962.15,594.957 1964.59,593.886 1967.03,592.82 1969.47,591.761 1971.91,590.706 1974.35,589.658 1976.79,588.614 1979.24,587.577 1981.68,586.544 1984.12,585.518 1986.56,584.699 1989,583.693 1991.44,582.69 1993.88,581.693 1996.32,580.699 1998.76,579.71 2001.21,578.725 2003.65,577.744 2006.09,576.768 2008.53,575.796 2010.97,574.828 2013.41,573.864 2015.85,572.905 2018.29,571.95 2020.73,570.999 2023.17,570.053 2025.62,569.111 2028.06,568.173 2030.5,567.239 2032.94,566.31 2035.38,565.385 2037.82,564.464 2040.26,563.548 2042.7,562.635 2045.14,561.727 2047.58,560.824 2050.03,559.924 2052.47,559.029 2054.91,558.139 2057.35,557.252 2059.79,556.37 2062.23,555.492 2064.67,554.618 2067.11,553.749 2069.55,552.884 2072,552.023 2074.44,551.167 2076.88,550.314 2079.32,549.466 2081.76,548.623 2084.2,547.783 2086.64,546.948 2089.08,546.118 2091.52,545.291 2093.96,544.469 2096.41,543.651 2098.85,542.837 2101.29,542.028 2103.73,541.223 2106.17,540.422 2108.61,539.625 2111.05,538.833 2113.49,538.045 2115.93,537.261 2118.37,536.482 2120.82,535.707 2123.26,534.936 2125.7,534.169 2128.14,533.407 2130.58,532.649 2133.02,531.895 2135.46,531.146 2137.9,530.4 2140.34,529.66 2142.79,528.923 2145.23,528.191 2147.67,527.463 2150.11,526.954 2152.55,526.243 2154.99,525.536 2157.43,524.831 2159.87,524.13 2162.31,523.432 2164.75,522.737 2167.2,522.045 2169.64,521.357 2172.08,520.671 2174.52,519.989 2176.96,519.31 2179.4,518.634 2181.84,517.961 2184.28,517.291 2186.72,516.625 2189.16,515.961 2191.61,515.301 2194.05,514.644 2196.49,513.99 2198.93,513.339 2201.37,512.691 2203.81,512.047 2206.25,511.405 2208.69,510.767 2211.13,510.132 2213.57,509.5 2216.02,508.871 2218.46,508.245 2220.9,507.623 2223.34,507.003 2225.78,506.387 2228.22,505.774 2230.66,505.164 2233.1,504.557 2235.54,503.953 2237.99,503.353 2240.43,502.755 2242.87,502.161 2245.31,501.57 2247.75,500.982 2250.19,500.397 2252.63,499.815 2255.07,499.237 2257.51,498.661 2259.95,498.089 2262.4,497.52 2264.84,496.954 2267.28,496.391 2269.72,495.832 2272.16,495.275 2274.6,494.722 2277.04,494.171 2279.48,493.624 2281.92,493.08 2284.36,492.539 2286.81,492.002 2289.25,491.467 2291.69,490.936 2294.13,490.408 2296.57,489.882 2299.01,489.36 2301.45,488.842 2303.89,488.326 2306.33,487.813 2308.78,487.304 2311.22,486.976 2313.66,486.481 2316.1,485.988 2318.54,485.498 2320.98,485.009 2323.42,484.524 2325.86,484.04 2328.3,483.558 2330.74,483.079 2333.19,482.602 2335.63,482.127 2338.07,481.655 2340.51,481.184 2342.95,480.716 2345.39,480.25 2347.83,479.787 2350.27,479.325 2352.71,478.866 2355.15,478.409 2357.6,477.955 2360.04,477.502 2362.48,477.052 2364.92,476.604 2367.36,476.158 2369.8,475.715 2372.24,475.274 2374.68,474.834 2377.12,474.398 2379.57,473.963 2382.01,473.531 2384.45,473.101 2386.89,472.673 2389.33,472.247 2391.77,471.824 2394.21,471.403 2396.65,470.984 2399.09,470.567 2401.53,470.153 2403.98,469.74 2406.42,469.33 2408.86,468.923 2411.3,468.517 2413.74,468.114 2416.18,467.713 2418.62,467.314 2421.06,466.917 2423.5,466.523 2425.94,466.131 2428.39,465.741 2430.83,465.353 2433.27,464.968 2435.71,464.585 2438.15,464.204 2440.59,463.825 2443.03,463.449 2445.47,463.074 2447.91,462.702 2450.36,462.333 2452.8,461.965 2455.24,461.6 2457.68,461.237 2460.12,460.876 2462.56,460.517 2465,460.161 2467.44,459.807 2469.88,459.455 2472.32,459.105 2474.77,458.898 2477.21,458.559 2479.65,458.222 2482.09,457.886 2484.53,457.551 2486.97,457.218 2489.41,456.887 2491.85,456.557 2494.29,456.229 2496.73,455.903 2499.18,455.578 2501.62,455.254 2504.06,454.932 2506.5,454.612 2508.94,454.293 2511.38,453.976 2513.82,453.66 2516.26,453.346 2518.7,453.033 2521.15,452.722 2523.59,452.413 2526.03,452.105 2528.47,451.798 2530.91,451.494 2533.35,451.19 2535.79,450.889 2538.23,450.589 2540.67,450.29 2543.11,449.993 2545.56,449.697 2548,449.404 2550.44,449.111 2552.88,448.82 2555.32,448.531 2557.76,448.243 2560.2,447.957 2562.64,447.673 2565.08,447.39 2567.52,447.108 2569.97,446.828 2572.41,446.55 2574.85,446.273 2577.29,445.998 2579.73,445.724 2582.17,445.452 2584.61,445.181 2587.05,444.912 2589.49,444.645 2591.94,444.379 2594.38,444.115 2596.82,443.852 2599.26,443.591 2601.7,443.331 2604.14,443.073 2606.58,442.816 2609.02,442.561 2611.46,442.308 2613.9,442.056 2616.35,441.806 2618.79,441.557 2621.23,441.31 2623.67,441.064 2626.11,440.82 2628.55,440.577 2630.99,440.336 2633.43,440.097 2635.87,439.959 2638.31,439.725 2640.76,439.49 "/>
<path clip-path="url(#clip040)" d="M2288.69 310.833 L2559.47 310.833 L2559.47 103.473 L2288.69 103.473  Z" fill="#ffffff" fill-rule="evenodd" fill-opacity="1"/>
<polyline clip-path="url(#clip040)" style="stroke:#000000; stroke-linecap:round; stroke-linejoin:round; stroke-width:4; stroke-opacity:1; fill:none" points="2288.69,310.833 2559.47,310.833 2559.47,103.473 2288.69,103.473 2288.69,310.833 "/>
<polyline clip-path="url(#clip040)" style="stroke:#009af9; stroke-linecap:round; stroke-linejoin:round; stroke-width:4; stroke-opacity:1; fill:none" points="2315.78,155.313 2478.36,155.313 "/>
<path clip-path="url(#clip040)" d="M2527.7 139.167 L2527.7 143.728 Q2525.04 142.454 2522.67 141.829 Q2520.31 141.204 2518.11 141.204 Q2514.3 141.204 2512.21 142.686 Q2510.15 144.167 2510.15 146.899 Q2510.15 149.191 2511.52 150.371 Q2512.91 151.528 2516.75 152.246 L2519.57 152.825 Q2524.8 153.82 2527.28 156.343 Q2529.78 158.843 2529.78 163.056 Q2529.78 168.079 2526.4 170.672 Q2523.05 173.264 2516.54 173.264 Q2514.09 173.264 2511.31 172.709 Q2508.55 172.153 2505.59 171.065 L2505.59 166.251 Q2508.44 167.848 2511.17 168.658 Q2513.9 169.468 2516.54 169.468 Q2520.55 169.468 2522.72 167.894 Q2524.9 166.32 2524.9 163.403 Q2524.9 160.857 2523.32 159.422 Q2521.77 157.987 2518.21 157.269 L2515.36 156.714 Q2510.13 155.672 2507.79 153.45 Q2505.45 151.228 2505.45 147.269 Q2505.45 142.686 2508.67 140.047 Q2511.91 137.408 2517.58 137.408 Q2520.01 137.408 2522.54 137.848 Q2525.06 138.288 2527.7 139.167 Z" fill="#000000" fill-rule="nonzero" fill-opacity="1" /><polyline clip-path="url(#clip040)" style="stroke:#e26f46; stroke-linecap:round; stroke-linejoin:round; stroke-width:4; stroke-opacity:1; fill:none" points="2315.78,207.153 2478.36,207.153 "/>
<path clip-path="url(#clip040)" d="M2505.45 189.873 L2510.13 189.873 L2510.13 224.433 L2505.45 224.433 L2505.45 189.873 Z" fill="#000000" fill-rule="nonzero" fill-opacity="1" /><polyline clip-path="url(#clip040)" style="stroke:#3da44d; stroke-linecap:round; stroke-linejoin:round; stroke-width:4; stroke-opacity:1; fill:none" points="2315.78,258.993 2478.36,258.993 "/>
<path clip-path="url(#clip040)" d="M2521.84 260.07 Q2523.35 260.579 2524.76 262.245 Q2526.19 263.912 2527.63 266.829 L2532.37 276.273 L2527.35 276.273 L2522.93 267.407 Q2521.22 263.935 2519.6 262.801 Q2518 261.667 2515.22 261.667 L2510.13 261.667 L2510.13 276.273 L2505.45 276.273 L2505.45 241.713 L2516.01 241.713 Q2521.93 241.713 2524.85 244.19 Q2527.77 246.667 2527.77 251.667 Q2527.77 254.931 2526.24 257.083 Q2524.74 259.236 2521.84 260.07 M2510.13 245.556 L2510.13 257.824 L2516.01 257.824 Q2519.39 257.824 2521.1 256.273 Q2522.84 254.699 2522.84 251.667 Q2522.84 248.634 2521.1 247.107 Q2519.39 245.556 2516.01 245.556 L2510.13 245.556 Z" fill="#000000" fill-rule="nonzero" fill-opacity="1" /></svg>
