<?xml version="1.0" encoding="UTF-8" standalone="no"?>
<!DOCTYPE svg PUBLIC "-//W3C//DTD SVG 1.1//EN"
 "http://www.w3.org/Graphics/SVG/1.1/DTD/svg11.dtd">
<!-- Generated by graphviz version 8.0.5 (20230430.1635)
 -->
<!-- Title: G Pages: 1 -->
<svg width="202pt" height="44pt"
 viewBox="0.00 0.00 201.50 44.00" xmlns="http://www.w3.org/2000/svg" xmlns:xlink="http://www.w3.org/1999/xlink">
<g id="graph0" class="graph" transform="scale(1 1) rotate(0) translate(4 40)">
<title>G</title>
<polygon fill="white" stroke="none" points="-4,4 -4,-40 197.5,-40 197.5,4 -4,4"/>
<!-- s1 -->
<g id="node1" class="node">
<title>s1</title>
<ellipse fill="#6c9ac3" stroke="#6c9ac3" cx="18" cy="-18" rx="18" ry="18"/>
<text text-anchor="middle" x="18" y="-12.95" font-family="Times,serif" font-size="14.00">I</text>
</g>
<!-- t1 -->
<g id="node3" class="node">
<title>t1</title>
<polygon fill="#e28f41" stroke="#e28f41" points="114.75,-36 78.75,-36 78.75,0 114.75,0 114.75,-36"/>
<text text-anchor="middle" x="96.75" y="-12.95" font-family="Times,serif" font-size="14.00">γ</text>
</g>
<!-- s1&#45;&gt;t1 -->
<g id="edge1" class="edge">
<title>s1&#45;&gt;t1</title>
<path fill="none" stroke="black" d="M36.42,-18C45.64,-18 57.19,-18 67.65,-18"/>
<polygon fill="black" stroke="black" points="67.4,-21.5 77.4,-18 67.4,-14.5 67.4,-21.5"/>
<text text-anchor="middle" x="57.38" y="-21.2" font-family="Times,serif" font-size="14.00">1</text>
</g>
<!-- s2 -->
<g id="node2" class="node">
<title>s2</title>
<ellipse fill="#6c9ac3" stroke="#6c9ac3" cx="175.5" cy="-18" rx="18" ry="18"/>
<text text-anchor="middle" x="175.5" y="-12.95" font-family="Times,serif" font-size="14.00">R</text>
</g>
<!-- t1&#45;&gt;s2 -->
<g id="edge2" class="edge">
<title>t1&#45;&gt;s2</title>
<path fill="none" stroke="black" d="M115.17,-18C124.39,-18 135.94,-18 146.4,-18"/>
<polygon fill="black" stroke="black" points="146.15,-21.5 156.15,-18 146.15,-14.5 146.15,-21.5"/>
<text text-anchor="middle" x="136.12" y="-21.2" font-family="Times,serif" font-size="14.00">1</text>
</g>
</g>
</svg>
