<?xml version="1.0" encoding="UTF-8" standalone="no"?>
<!DOCTYPE svg PUBLIC "-//W3C//DTD SVG 1.1//EN"
 "http://www.w3.org/Graphics/SVG/1.1/DTD/svg11.dtd">
<!-- Generated by graphviz version 11.0.0 (20240428.1522)
 -->
<!-- Title: G Pages: 1 -->
<svg width="202pt" height="48pt"
 viewBox="0.00 0.00 201.50 47.87" xmlns="http://www.w3.org/2000/svg" xmlns:xlink="http://www.w3.org/1999/xlink">
<g id="graph0" class="graph" transform="scale(1 1) rotate(0) translate(4 43.87)">
<title>G</title>
<polygon fill="white" stroke="none" points="-4,4 -4,-43.87 197.5,-43.87 197.5,4 -4,4"/>
<!-- n1 -->
<g id="node1" class="node">
<title>n1</title>
<ellipse fill="#6c9ac3" stroke="#6c9ac3" cx="18" cy="-21.87" rx="18" ry="18"/>
<text text-anchor="middle" x="18" y="-16.82" font-family="Times,serif" font-size="14.00">S</text>
</g>
<!-- n3 -->
<g id="node3" class="node">
<title>n3</title>
<polygon fill="#e28f41" stroke="#e28f41" points="114.75,-39.87 78.75,-39.87 78.75,-3.87 114.75,-3.87 114.75,-39.87"/>
<text text-anchor="middle" x="96.75" y="-16.82" font-family="Times,serif" font-size="14.00">β</text>
</g>
<!-- n1&#45;&gt;n3 -->
<g id="edge2" class="edge">
<title>n1&#45;&gt;n3</title>
<path fill="none" stroke="black" d="M36.42,-21.87C45.44,-21.87 56.7,-21.87 66.98,-21.87"/>
<polygon fill="black" stroke="black" points="66.89,-25.37 76.89,-21.87 66.89,-18.37 66.89,-25.37"/>
<text text-anchor="middle" x="57.38" y="-25.07" font-family="Times,serif" font-size="14.00">1</text>
</g>
<!-- n2 -->
<g id="node2" class="node">
<title>n2</title>
<ellipse fill="#6c9ac3" stroke="#6c9ac3" cx="175.5" cy="-21.87" rx="18" ry="18"/>
<text text-anchor="middle" x="175.5" y="-16.82" font-family="Times,serif" font-size="14.00">I</text>
</g>
<!-- n2&#45;&gt;n3 -->
<g id="edge3" class="edge">
<title>n2&#45;&gt;n3</title>
<path fill="none" stroke="black" d="M161.48,-9.87C153.49,-3.96 142.88,1.37 132.75,-1.37 130.17,-2.07 127.58,-3.02 125.05,-4.12"/>
<polygon fill="black" stroke="black" points="123.7,-0.87 116.44,-8.59 126.93,-7.09 123.7,-0.87"/>
<text text-anchor="middle" x="136.12" y="-4.07" font-family="Times,serif" font-size="14.00">1</text>
</g>
<!-- n3&#45;&gt;n2 -->
<g id="edge1" class="edge">
<title>n3&#45;&gt;n2</title>
<path fill="none" stroke="black" d="M115.17,-21.87C124.19,-21.87 135.45,-21.87 145.73,-21.87"/>
<polygon fill="black" stroke="black" points="145.64,-25.37 155.64,-21.87 145.64,-18.37 145.64,-25.37"/>
<text text-anchor="middle" x="136.12" y="-25.07" font-family="Times,serif" font-size="14.00">2</text>
</g>
</g>
</svg>
