<?xml version="1.0" encoding="UTF-8" standalone="no"?>
<!DOCTYPE svg PUBLIC "-//W3C//DTD SVG 1.1//EN"
 "http://www.w3.org/Graphics/SVG/1.1/DTD/svg11.dtd">
<!-- Generated by graphviz version 8.0.5 (20230430.1635)
 -->
<!-- Title: G Pages: 1 -->
<svg width="202pt" height="48pt"
 viewBox="0.00 0.00 201.50 47.87" xmlns="http://www.w3.org/2000/svg" xmlns:xlink="http://www.w3.org/1999/xlink">
<g id="graph0" class="graph" transform="scale(1 1) rotate(0) translate(4 43.87)">
<title>G</title>
<polygon fill="white" stroke="none" points="-4,4 -4,-43.87 197.5,-43.87 197.5,4 -4,4"/>
<!-- s1 -->
<g id="node1" class="node">
<title>s1</title>
<ellipse fill="#6c9ac3" stroke="#6c9ac3" cx="18" cy="-21.87" rx="18" ry="18"/>
<text text-anchor="middle" x="18" y="-16.82" font-family="Times,serif" font-size="14.00">S</text>
</g>
<!-- t1 -->
<g id="node3" class="node">
<title>t1</title>
<polygon fill="#e28f41" stroke="#e28f41" points="114.75,-39.87 78.75,-39.87 78.75,-3.87 114.75,-3.87 114.75,-39.87"/>
<text text-anchor="middle" x="96.75" y="-16.82" font-family="Times,serif" font-size="14.00">β</text>
</g>
<!-- s1&#45;&gt;t1 -->
<g id="edge1" class="edge">
<title>s1&#45;&gt;t1</title>
<path fill="none" stroke="black" d="M36.42,-21.87C45.64,-21.87 57.19,-21.87 67.65,-21.87"/>
<polygon fill="black" stroke="black" points="67.4,-25.37 77.4,-21.87 67.4,-18.37 67.4,-25.37"/>
<text text-anchor="middle" x="57.38" y="-25.07" font-family="Times,serif" font-size="14.00">1</text>
</g>
<!-- s2 -->
<g id="node2" class="node">
<title>s2</title>
<ellipse fill="#6c9ac3" stroke="#6c9ac3" cx="175.5" cy="-21.87" rx="18" ry="18"/>
<text text-anchor="middle" x="175.5" y="-16.82" font-family="Times,serif" font-size="14.00">I</text>
</g>
<!-- s2&#45;&gt;t1 -->
<g id="edge3" class="edge">
<title>s2&#45;&gt;t1</title>
<path fill="none" stroke="black" d="M161.48,-9.87C153.49,-3.96 142.88,1.37 132.75,-1.37 130.07,-2.1 127.39,-3.09 124.77,-4.24"/>
<polygon fill="black" stroke="black" points="123.35,-1.56 116.1,-9.29 126.58,-7.76 123.35,-1.56"/>
<text text-anchor="middle" x="136.12" y="-4.07" font-family="Times,serif" font-size="14.00">1</text>
</g>
<!-- t1&#45;&gt;s2 -->
<g id="edge2" class="edge">
<title>t1&#45;&gt;s2</title>
<path fill="none" stroke="black" d="M115.17,-21.87C124.39,-21.87 135.94,-21.87 146.4,-21.87"/>
<polygon fill="black" stroke="black" points="146.15,-25.37 156.15,-21.87 146.15,-18.37 146.15,-25.37"/>
<text text-anchor="middle" x="136.12" y="-25.07" font-family="Times,serif" font-size="14.00">2</text>
</g>
</g>
</svg>
