<?xml version="1.0" encoding="UTF-8" standalone="no"?>
<!DOCTYPE svg PUBLIC "-//W3C//DTD SVG 1.1//EN"
 "http://www.w3.org/Graphics/SVG/1.1/DTD/svg11.dtd">
<!-- Generated by graphviz version 11.0.0 (20240428.1522)
 -->
<!-- Title: G Pages: 1 -->
<svg width="165pt" height="163pt"
 viewBox="0.00 0.00 165.25 162.62" xmlns="http://www.w3.org/2000/svg" xmlns:xlink="http://www.w3.org/1999/xlink">
<g id="graph0" class="graph" transform="scale(1 1) rotate(0) translate(4 158.62)">
<title>G</title>
<polygon fill="white" stroke="none" points="-4,4 -4,-158.62 161.25,-158.62 161.25,4 -4,4"/>
<!-- n1 -->
<g id="node1" class="node">
<title>n1</title>
<ellipse fill="#6c9ac3" stroke="#6c9ac3" cx="25.25" cy="-72.62" rx="25.25" ry="25.25"/>
<text text-anchor="middle" x="25.25" y="-67.58" font-family="Times,serif" font-size="14.00">Pop</text>
</g>
<!-- n2 -->
<g id="node2" class="node">
<title>n2</title>
<polygon fill="#e28f41" stroke="#e28f41" points="157.25,-154.62 93.25,-154.62 93.25,-90.62 157.25,-90.62 157.25,-154.62"/>
<text text-anchor="middle" x="125.25" y="-117.58" font-family="Times,serif" font-size="14.00">infection</text>
</g>
<!-- n1&#45;&gt;n2 -->
<g id="edge1" class="edge">
<title>n1&#45;&gt;n2</title>
<path fill="none" stroke="black" d="M42.77,-91.18C50.01,-98.26 59.01,-105.78 68.5,-110.62 72.71,-112.78 77.3,-114.55 81.97,-116"/>
<polygon fill="black" stroke="black" points="80.86,-119.33 91.42,-118.46 82.63,-112.55 80.86,-119.33"/>
<text text-anchor="middle" x="71.87" y="-115.83" font-family="Times,serif" font-size="14.00">2</text>
</g>
<!-- n3 -->
<g id="node3" class="node">
<title>n3</title>
<polygon fill="#e28f41" stroke="#e28f41" points="156.87,-63.25 93.62,-63.25 93.62,0 156.87,0 156.87,-63.25"/>
<text text-anchor="middle" x="125.25" y="-26.57" font-family="Times,serif" font-size="14.00">recovery</text>
</g>
<!-- n1&#45;&gt;n3 -->
<g id="edge3" class="edge">
<title>n1&#45;&gt;n3</title>
<path fill="none" stroke="black" d="M48.56,-62.71C54.98,-59.9 62,-56.86 68.5,-54.12 73.11,-52.18 77.96,-50.18 82.78,-48.2"/>
<polygon fill="black" stroke="black" points="83.87,-51.54 91.82,-44.53 81.24,-45.06 83.87,-51.54"/>
<text text-anchor="middle" x="71.87" y="-56.83" font-family="Times,serif" font-size="14.00">1</text>
</g>
<!-- n2&#45;&gt;n1 -->
<g id="edge4" class="edge">
<title>n2&#45;&gt;n1</title>
<path fill="none" stroke="black" d="M92.76,-100.14C87.07,-96.54 81.09,-93.05 75.25,-90.12 70.45,-87.72 65.25,-85.49 60.08,-83.49"/>
<polygon fill="black" stroke="black" points="61.68,-80.35 51.08,-80.21 59.28,-86.92 61.68,-80.35"/>
<text text-anchor="middle" x="71.87" y="-92.83" font-family="Times,serif" font-size="14.00">2</text>
</g>
<!-- n3&#45;&gt;n1 -->
<g id="edge2" class="edge">
<title>n3&#45;&gt;n1</title>
<path fill="none" stroke="black" d="M93.13,-13.38C84.9,-10.81 76.18,-10.2 68.5,-14.12 57.51,-19.74 48.72,-29.7 42.07,-39.83"/>
<polygon fill="black" stroke="black" points="39.22,-37.77 37.11,-48.15 45.24,-41.35 39.22,-37.77"/>
<text text-anchor="middle" x="71.87" y="-16.82" font-family="Times,serif" font-size="14.00">1</text>
</g>
</g>
</svg>
