<?xml version="1.0" encoding="UTF-8" standalone="no"?>
<!DOCTYPE svg PUBLIC "-//W3C//DTD SVG 1.1//EN"
 "http://www.w3.org/Graphics/SVG/1.1/DTD/svg11.dtd">
<!-- Generated by graphviz version 11.0.0 (20240428.1522)
 -->
<!-- Title: G Pages: 1 -->
<svg width="280pt" height="429pt"
 viewBox="0.00 0.00 280.25 429.00" xmlns="http://www.w3.org/2000/svg" xmlns:xlink="http://www.w3.org/1999/xlink">
<g id="graph0" class="graph" transform="scale(1 1) rotate(0) translate(4 425)">
<title>G</title>
<polygon fill="white" stroke="none" points="-4,4 -4,-425 276.25,-425 276.25,4 -4,4"/>
<!-- n1 -->
<g id="node1" class="node">
<title>n1</title>
<ellipse fill="#6c9ac3" stroke="#6c9ac3" cx="18" cy="-285" rx="18" ry="18"/>
<text text-anchor="middle" x="18" y="-279.95" font-family="Times,serif" font-size="14.00">H</text>
</g>
<!-- n3 -->
<g id="node3" class="node">
<title>n3</title>
<polygon fill="#e28f41" stroke="#e28f41" points="114.75,-421 78.75,-421 78.75,-385 114.75,-385 114.75,-421"/>
<text text-anchor="middle" x="96.75" y="-397.95" font-family="Times,serif" font-size="14.00">HH</text>
</g>
<!-- n1&#45;&gt;n3 -->
<g id="edge4" class="edge">
<title>n1&#45;&gt;n3</title>
<path fill="none" stroke="black" d="M21.05,-302.89C24.4,-324.57 32.94,-361.02 54,-384 57.83,-388.18 62.77,-391.51 67.89,-394.13"/>
<polygon fill="black" stroke="black" points="66.42,-397.31 76.99,-397.99 69.15,-390.86 66.42,-397.31"/>
<text text-anchor="middle" x="57.38" y="-392.2" font-family="Times,serif" font-size="14.00">2</text>
</g>
<!-- n4 -->
<g id="node4" class="node">
<title>n4</title>
<polygon fill="#e28f41" stroke="#e28f41" points="114.75,-302 78.75,-302 78.75,-266 114.75,-266 114.75,-302"/>
<text text-anchor="middle" x="96.75" y="-278.95" font-family="Times,serif" font-size="14.00">HL</text>
</g>
<!-- n1&#45;&gt;n4 -->
<g id="edge6" class="edge">
<title>n1&#45;&gt;n4</title>
<path fill="none" stroke="black" d="M36.42,-284.77C45.44,-284.66 56.7,-284.51 66.98,-284.37"/>
<polygon fill="black" stroke="black" points="66.94,-287.88 76.89,-284.25 66.84,-280.88 66.94,-287.88"/>
<text text-anchor="middle" x="57.38" y="-287.2" font-family="Times,serif" font-size="14.00">1</text>
</g>
<!-- n5 -->
<g id="node5" class="node">
<title>n5</title>
<polygon fill="#e28f41" stroke="#e28f41" points="272.25,-226 236.25,-226 236.25,-190 272.25,-190 272.25,-226"/>
<text text-anchor="middle" x="254.25" y="-202.95" font-family="Times,serif" font-size="14.00">LH</text>
</g>
<!-- n1&#45;&gt;n5 -->
<g id="edge9" class="edge">
<title>n1&#45;&gt;n5</title>
<path fill="none" stroke="black" d="M33.53,-294.52C39.65,-298.21 46.98,-302.21 54,-305 89.31,-319.04 105.37,-322.71 139.5,-306 175.21,-288.52 208.74,-257.08 230.02,-234.53"/>
<polygon fill="black" stroke="black" points="232.32,-237.2 236.53,-227.47 227.17,-232.45 232.32,-237.2"/>
<text text-anchor="middle" x="136.12" y="-311.2" font-family="Times,serif" font-size="14.00">1</text>
</g>
<!-- n7 -->
<g id="node7" class="node">
<title>n7</title>
<polygon fill="#e28f41" stroke="#e28f41" points="114.75,-183 78.75,-183 78.75,-147 114.75,-147 114.75,-183"/>
<text text-anchor="middle" x="96.75" y="-159.95" font-family="Times,serif" font-size="14.00">H</text>
</g>
<!-- n1&#45;&gt;n7 -->
<g id="edge15" class="edge">
<title>n1&#45;&gt;n7</title>
<path fill="none" stroke="black" d="M22.45,-267.24C26.98,-247.55 36.5,-215.65 54,-193.5 58.18,-188.21 63.62,-183.52 69.18,-179.56"/>
<polygon fill="black" stroke="black" points="70.66,-182.76 77.18,-174.41 66.87,-176.88 70.66,-182.76"/>
<text text-anchor="middle" x="57.38" y="-196.2" font-family="Times,serif" font-size="14.00">1</text>
</g>
<!-- n2 -->
<g id="node2" class="node">
<title>n2</title>
<ellipse fill="#6c9ac3" stroke="#6c9ac3" cx="175.5" cy="-132" rx="18" ry="18"/>
<text text-anchor="middle" x="175.5" y="-126.95" font-family="Times,serif" font-size="14.00">L</text>
</g>
<!-- n2&#45;&gt;n4 -->
<g id="edge13" class="edge">
<title>n2&#45;&gt;n4</title>
<path fill="none" stroke="black" d="M171.52,-149.84C167.14,-172.54 157.48,-212.36 139.5,-242 135.1,-249.25 129.2,-256.19 123.23,-262.27"/>
<polygon fill="black" stroke="black" points="121.07,-259.48 116.26,-268.92 125.91,-264.55 121.07,-259.48"/>
<text text-anchor="middle" x="136.12" y="-254.2" font-family="Times,serif" font-size="14.00">1</text>
</g>
<!-- n2&#45;&gt;n5 -->
<g id="edge2" class="edge">
<title>n2&#45;&gt;n5</title>
<path fill="none" stroke="black" d="M188.21,-145.28C194.88,-152.7 203.49,-162.03 211.5,-170 216.61,-175.08 222.23,-180.37 227.64,-185.34"/>
<polygon fill="black" stroke="black" points="224.99,-187.66 234.75,-191.79 229.69,-182.48 224.99,-187.66"/>
<text text-anchor="middle" x="214.88" y="-179.2" font-family="Times,serif" font-size="14.00">1</text>
</g>
<!-- n6 -->
<g id="node6" class="node">
<title>n6</title>
<polygon fill="#e28f41" stroke="#e28f41" points="272.25,-103 236.25,-103 236.25,-67 272.25,-67 272.25,-103"/>
<text text-anchor="middle" x="254.25" y="-79.95" font-family="Times,serif" font-size="14.00">LL</text>
</g>
<!-- n2&#45;&gt;n6 -->
<g id="edge7" class="edge">
<title>n2&#45;&gt;n6</title>
<path fill="none" stroke="black" d="M191.3,-122.94C201.14,-116.91 214.35,-108.82 226.05,-101.66"/>
<polygon fill="black" stroke="black" points="227.82,-104.68 234.52,-96.47 224.16,-98.71 227.82,-104.68"/>
<text text-anchor="middle" x="214.88" y="-113.2" font-family="Times,serif" font-size="14.00">2</text>
</g>
<!-- n8 -->
<g id="node8" class="node">
<title>n8</title>
<polygon fill="#e28f41" stroke="#e28f41" points="272.25,-36 236.25,-36 236.25,0 272.25,0 272.25,-36"/>
<text text-anchor="middle" x="254.25" y="-12.95" font-family="Times,serif" font-size="14.00">L</text>
</g>
<!-- n2&#45;&gt;n8 -->
<g id="edge10" class="edge">
<title>n2&#45;&gt;n8</title>
<path fill="none" stroke="black" d="M181.33,-114.7C186.73,-97.48 196.7,-70.88 211.5,-51.5 215.94,-45.68 221.6,-40.28 227.31,-35.58"/>
<polygon fill="black" stroke="black" points="229.13,-38.59 234.95,-29.73 224.88,-33.03 229.13,-38.59"/>
<text text-anchor="middle" x="214.88" y="-55.2" font-family="Times,serif" font-size="14.00">1</text>
</g>
<!-- n3&#45;&gt;n1 -->
<g id="edge1" class="edge">
<title>n3&#45;&gt;n1</title>
<path fill="none" stroke="black" d="M78.34,-385.19C70.37,-376.5 61.13,-365.65 54,-355 44.97,-341.5 36.74,-325.35 30.53,-311.96"/>
<polygon fill="black" stroke="black" points="33.74,-310.55 26.44,-302.87 27.35,-313.42 33.74,-310.55"/>
<text text-anchor="middle" x="57.38" y="-366.2" font-family="Times,serif" font-size="14.00">2</text>
</g>
<!-- n4&#45;&gt;n1 -->
<g id="edge8" class="edge">
<title>n4&#45;&gt;n1</title>
<path fill="none" stroke="black" d="M78.44,-268.99C71.13,-264.41 62.39,-261.13 54,-263.5 50.11,-264.6 46.22,-266.27 42.53,-268.2"/>
<polygon fill="black" stroke="black" points="40.84,-265.13 34.1,-273.3 44.47,-271.12 40.84,-265.13"/>
<text text-anchor="middle" x="57.38" y="-266.2" font-family="Times,serif" font-size="14.00">1</text>
</g>
<!-- n4&#45;&gt;n2 -->
<g id="edge11" class="edge">
<title>n4&#45;&gt;n2</title>
<path fill="none" stroke="black" d="M114.92,-287.63C123.22,-288.36 132.81,-287.57 139.5,-282 157.75,-266.8 167.52,-200.48 171.8,-161.29"/>
<polygon fill="black" stroke="black" points="175.25,-161.9 172.8,-151.6 168.29,-161.19 175.25,-161.9"/>
<text text-anchor="middle" x="136.12" y="-288.2" font-family="Times,serif" font-size="14.00">1</text>
</g>
<!-- n5&#45;&gt;n1 -->
<g id="edge12" class="edge">
<title>n5&#45;&gt;n1</title>
<path fill="none" stroke="black" d="M235.76,-208.21C212,-208.88 168.43,-211.52 132.75,-221.5 95.6,-231.89 86.98,-237.98 54,-258 49.79,-260.55 45.5,-263.52 41.42,-266.54"/>
<polygon fill="black" stroke="black" points="39.41,-263.67 33.65,-272.56 43.7,-269.2 39.41,-263.67"/>
<text text-anchor="middle" x="136.12" y="-224.2" font-family="Times,serif" font-size="14.00">1</text>
</g>
<!-- n5&#45;&gt;n2 -->
<g id="edge14" class="edge">
<title>n5&#45;&gt;n2</title>
<path fill="none" stroke="black" d="M245.92,-189.54C240.06,-176.83 230.77,-160.35 218.25,-149.5 214.02,-145.83 208.91,-142.85 203.74,-140.46"/>
<polygon fill="black" stroke="black" points="205.29,-137.31 194.7,-136.89 202.72,-143.82 205.29,-137.31"/>
<text text-anchor="middle" x="214.88" y="-153.2" font-family="Times,serif" font-size="14.00">1</text>
</g>
<!-- n6&#45;&gt;n2 -->
<g id="edge3" class="edge">
<title>n6&#45;&gt;n2</title>
<path fill="none" stroke="black" d="M235.85,-74.41C228.05,-71.09 218.96,-69.27 211.5,-73.5 199.68,-80.2 191.42,-92.67 185.9,-104.37"/>
<polygon fill="black" stroke="black" points="182.79,-102.75 182.17,-113.32 189.25,-105.44 182.79,-102.75"/>
<text text-anchor="middle" x="214.88" y="-77.2" font-family="Times,serif" font-size="14.00">2</text>
</g>
<!-- n7&#45;&gt;n1 -->
<g id="edge5" class="edge">
<title>n7&#45;&gt;n1</title>
<path fill="none" stroke="black" d="M78.57,-153.86C70.45,-150.11 61.03,-148.09 54,-153.5 37.96,-165.83 27.71,-220.54 22.69,-255.39"/>
<polygon fill="black" stroke="black" points="19.22,-254.91 21.34,-265.29 26.16,-255.86 19.22,-254.91"/>
<text text-anchor="middle" x="57.38" y="-156.2" font-family="Times,serif" font-size="14.00">1</text>
</g>
<!-- n8&#45;&gt;n2 -->
<g id="edge16" class="edge">
<title>n8&#45;&gt;n2</title>
<path fill="none" stroke="black" d="M236.13,-16.25C227.83,-16.32 218.24,-17.88 211.5,-23.5 188.37,-42.78 180.37,-77.45 177.69,-102.42"/>
<polygon fill="black" stroke="black" points="174.21,-102.03 176.88,-112.28 181.19,-102.6 174.21,-102.03"/>
<text text-anchor="middle" x="214.88" y="-27.2" font-family="Times,serif" font-size="14.00">1</text>
</g>
</g>
</svg>
