<?xml version="1.0" encoding="UTF-8" standalone="no"?>
<!DOCTYPE svg PUBLIC "-//W3C//DTD SVG 1.1//EN"
 "http://www.w3.org/Graphics/SVG/1.1/DTD/svg11.dtd">
<!-- Generated by graphviz version 11.0.0 (20240428.1522)
 -->
<!-- Title: G Pages: 1 -->
<svg width="830pt" height="445pt"
 viewBox="0.00 0.00 829.79 444.69" xmlns="http://www.w3.org/2000/svg" xmlns:xlink="http://www.w3.org/1999/xlink">
<g id="graph0" class="graph" transform="scale(1 1) rotate(0) translate(4 440.69)">
<title>G</title>
<polygon fill="white" stroke="none" points="-4,4 -4,-440.69 825.79,-440.69 825.79,4 -4,4"/>
<!-- n1 -->
<g id="node1" class="node">
<title>n1</title>
<ellipse fill="#6c9ac3" stroke="#6c9ac3" cx="39.07" cy="-39.07" rx="39.07" ry="39.07"/>
<text text-anchor="middle" x="39.07" y="-34.02" font-family="Times,serif" font-size="14.00">(:S, :H)</text>
</g>
<!-- n7 -->
<g id="node7" class="node">
<title>n7</title>
<polygon fill="#e28f41" stroke="#e28f41" points="187.14,-166.19 120.89,-166.19 120.89,-99.94 187.14,-99.94 187.14,-166.19"/>
<text text-anchor="middle" x="154.01" y="-128.02" font-family="Times,serif" font-size="14.00">(:β, :HH)</text>
</g>
<!-- n1&#45;&gt;n7 -->
<g id="edge16" class="edge">
<title>n1&#45;&gt;n7</title>
<path fill="none" stroke="black" d="M69.74,-63.77C82.73,-74.58 98.18,-87.44 112.23,-99.13"/>
<polygon fill="black" stroke="black" points="109.67,-101.55 119.6,-105.26 114.15,-96.17 109.67,-101.55"/>
<text text-anchor="middle" x="99.51" y="-92.27" font-family="Times,serif" font-size="14.00">1</text>
</g>
<!-- n9 -->
<g id="node9" class="node">
<title>n9</title>
<polygon fill="#e28f41" stroke="#e28f41" points="686.66,-229.44 621.91,-229.44 621.91,-164.69 686.66,-164.69 686.66,-229.44"/>
<text text-anchor="middle" x="654.28" y="-192.02" font-family="Times,serif" font-size="14.00">(:β, :HL)</text>
</g>
<!-- n1&#45;&gt;n9 -->
<g id="edge7" class="edge">
<title>n1&#45;&gt;n9</title>
<path fill="none" stroke="black" d="M77.78,-31.02C99.65,-27.04 127.76,-23.07 153.01,-23.07 153.01,-23.07 153.01,-23.07 525.82,-23.07 590.36,-23.07 625.77,-101.94 642.02,-153.48"/>
<polygon fill="black" stroke="black" points="638.62,-154.33 644.86,-162.89 645.32,-152.31 638.62,-154.33"/>
<text text-anchor="middle" x="327.35" y="-26.27" font-family="Times,serif" font-size="14.00">1</text>
</g>
<!-- n2 -->
<g id="node2" class="node">
<title>n2</title>
<ellipse fill="#6c9ac3" stroke="#6c9ac3" cx="267.93" cy="-173.07" rx="37.02" ry="37.02"/>
<text text-anchor="middle" x="267.93" y="-168.02" font-family="Times,serif" font-size="14.00">(:I, :H)</text>
</g>
<!-- n2&#45;&gt;n7 -->
<g id="edge8" class="edge">
<title>n2&#45;&gt;n7</title>
<path fill="none" stroke="black" d="M240.77,-147.28C232.25,-140.51 222.28,-134.12 211.89,-130.57 207.69,-129.14 203.22,-128.28 198.7,-127.85"/>
<polygon fill="black" stroke="black" points="199.09,-124.36 189,-127.59 198.9,-131.36 199.09,-124.36"/>
<text text-anchor="middle" x="208.51" y="-133.27" font-family="Times,serif" font-size="14.00">1</text>
</g>
<!-- n8 -->
<g id="node8" class="node">
<title>n8</title>
<polygon fill="#e28f41" stroke="#e28f41" points="427.72,-314.44 362.97,-314.44 362.97,-249.69 427.72,-249.69 427.72,-314.44"/>
<text text-anchor="middle" x="395.35" y="-277.02" font-family="Times,serif" font-size="14.00">(:β, :LH)</text>
</g>
<!-- n2&#45;&gt;n8 -->
<g id="edge12" class="edge">
<title>n2&#45;&gt;n8</title>
<path fill="none" stroke="black" d="M294.02,-199.53C303.19,-208.82 313.82,-219.16 323.97,-228.07 333.37,-236.31 343.89,-244.75 353.86,-252.44"/>
<polygon fill="black" stroke="black" points="351.54,-255.07 361.62,-258.34 355.78,-249.5 351.54,-255.07"/>
<text text-anchor="middle" x="327.35" y="-235.27" font-family="Times,serif" font-size="14.00">1</text>
</g>
<!-- n11 -->
<g id="node11" class="node">
<title>n11</title>
<polygon fill="#e28f41" stroke="#e28f41" points="441.97,-144.69 348.72,-144.69 348.72,-51.44 441.97,-51.44 441.97,-144.69"/>
<text text-anchor="middle" x="395.35" y="-93.02" font-family="Times,serif" font-size="14.00">(:γ, :recovery)</text>
</g>
<!-- n2&#45;&gt;n11 -->
<g id="edge2" class="edge">
<title>n2&#45;&gt;n11</title>
<path fill="none" stroke="black" d="M300.26,-154.34C311.93,-147.35 325.57,-139.2 338.77,-131.3"/>
<polygon fill="black" stroke="black" points="340.19,-134.53 346.98,-126.4 336.6,-128.52 340.19,-134.53"/>
<text text-anchor="middle" x="327.35" y="-142.27" font-family="Times,serif" font-size="14.00">1</text>
</g>
<!-- n3 -->
<g id="node3" class="node">
<title>n3</title>
<ellipse fill="#6c9ac3" stroke="#6c9ac3" cx="524.82" cy="-98.07" rx="40.09" ry="40.09"/>
<text text-anchor="middle" x="524.82" y="-93.02" font-family="Times,serif" font-size="14.00">(:R, :H)</text>
</g>
<!-- n4 -->
<g id="node4" class="node">
<title>n4</title>
<ellipse fill="#6c9ac3" stroke="#6c9ac3" cx="267.93" cy="-350.07" rx="38.04" ry="38.04"/>
<text text-anchor="middle" x="267.93" y="-345.02" font-family="Times,serif" font-size="14.00">(:S, :L)</text>
</g>
<!-- n4&#45;&gt;n8 -->
<g id="edge10" class="edge">
<title>n4&#45;&gt;n8</title>
<path fill="none" stroke="black" d="M301.88,-332.2C317.39,-323.79 336.06,-313.67 352.55,-304.73"/>
<polygon fill="black" stroke="black" points="354.03,-307.91 361.15,-300.07 350.69,-301.76 354.03,-307.91"/>
<text text-anchor="middle" x="327.35" y="-323.27" font-family="Times,serif" font-size="14.00">1</text>
</g>
<!-- n10 -->
<g id="node10" class="node">
<title>n10</title>
<polygon fill="#e28f41" stroke="#e28f41" points="685.91,-325.69 622.66,-325.69 622.66,-262.44 685.91,-262.44 685.91,-325.69"/>
<text text-anchor="middle" x="654.28" y="-289.02" font-family="Times,serif" font-size="14.00">(:β, :LL)</text>
</g>
<!-- n4&#45;&gt;n10 -->
<g id="edge11" class="edge">
<title>n4&#45;&gt;n10</title>
<path fill="none" stroke="black" d="M304.48,-361.24C366.24,-378.49 495.75,-405.02 589.66,-358.07 601.58,-352.11 598.6,-343.85 607.66,-334.07 609.81,-331.75 612.08,-329.43 614.41,-327.13"/>
<polygon fill="black" stroke="black" points="616.55,-329.92 621.42,-320.51 611.75,-324.83 616.55,-329.92"/>
<text text-anchor="middle" x="463.35" y="-387.27" font-family="Times,serif" font-size="14.00">1</text>
</g>
<!-- n5 -->
<g id="node5" class="node">
<title>n5</title>
<ellipse fill="#6c9ac3" stroke="#6c9ac3" cx="524.82" cy="-285.07" rx="36" ry="36"/>
<text text-anchor="middle" x="524.82" y="-280.02" font-family="Times,serif" font-size="14.00">(:I, :L)</text>
</g>
<!-- n5&#45;&gt;n9 -->
<g id="edge3" class="edge">
<title>n5&#45;&gt;n9</title>
<path fill="none" stroke="black" d="M555.06,-264.88C571.96,-253.21 593.49,-238.35 612.08,-225.51"/>
<polygon fill="black" stroke="black" points="614.01,-228.43 620.25,-219.87 610.03,-222.67 614.01,-228.43"/>
<text text-anchor="middle" x="586.28" y="-246.27" font-family="Times,serif" font-size="14.00">1</text>
</g>
<!-- n5&#45;&gt;n10 -->
<g id="edge15" class="edge">
<title>n5&#45;&gt;n10</title>
<path fill="none" stroke="black" d="M558.87,-298.06C566.64,-300.55 574.97,-302.78 582.91,-304.07 592.09,-305.56 601.96,-305.3 611.33,-304.2"/>
<polygon fill="black" stroke="black" points="611.56,-307.7 620.92,-302.73 610.5,-300.79 611.56,-307.7"/>
<text text-anchor="middle" x="586.28" y="-307.27" font-family="Times,serif" font-size="14.00">1</text>
</g>
<!-- n12 -->
<g id="node12" class="node">
<title>n12</title>
<polygon fill="#e28f41" stroke="#e28f41" points="700.91,-436.69 607.66,-436.69 607.66,-343.44 700.91,-343.44 700.91,-436.69"/>
<text text-anchor="middle" x="654.28" y="-385.02" font-family="Times,serif" font-size="14.00">(:γ, :recovery)</text>
</g>
<!-- n5&#45;&gt;n12 -->
<g id="edge17" class="edge">
<title>n5&#45;&gt;n12</title>
<path fill="none" stroke="black" d="M553.16,-307.59C566.43,-318.52 582.87,-332.06 598.56,-344.99"/>
<polygon fill="black" stroke="black" points="596.06,-347.47 606.01,-351.12 600.51,-342.07 596.06,-347.47"/>
<text text-anchor="middle" x="586.28" y="-340.27" font-family="Times,serif" font-size="14.00">1</text>
</g>
<!-- n6 -->
<g id="node6" class="node">
<title>n6</title>
<ellipse fill="#6c9ac3" stroke="#6c9ac3" cx="782.73" cy="-390.07" rx="39.07" ry="39.07"/>
<text text-anchor="middle" x="782.73" y="-385.02" font-family="Times,serif" font-size="14.00">(:R, :L)</text>
</g>
<!-- n7&#45;&gt;n2 -->
<g id="edge6" class="edge">
<title>n7&#45;&gt;n2</title>
<path fill="none" stroke="black" d="M187.63,-144.8C193.46,-146.89 199.48,-149.04 205.14,-151.07 210.56,-153.01 216.25,-155.04 221.9,-157.05"/>
<polygon fill="black" stroke="black" points="220.58,-160.3 231.18,-160.36 222.93,-153.71 220.58,-160.3"/>
<text text-anchor="middle" x="208.51" y="-156.27" font-family="Times,serif" font-size="14.00">2</text>
</g>
<!-- n8&#45;&gt;n2 -->
<g id="edge18" class="edge">
<title>n8&#45;&gt;n2</title>
<path fill="none" stroke="black" d="M370.59,-249.33C359.48,-235.41 345.46,-219.64 330.72,-207.57 324.85,-202.75 318.21,-198.25 311.52,-194.19"/>
<polygon fill="black" stroke="black" points="313.48,-191.29 303.07,-189.34 309.99,-197.35 313.48,-191.29"/>
<text text-anchor="middle" x="327.35" y="-210.27" font-family="Times,serif" font-size="14.00">1</text>
</g>
<!-- n8&#45;&gt;n5 -->
<g id="edge9" class="edge">
<title>n8&#45;&gt;n5</title>
<path fill="none" stroke="black" d="M428.19,-282.82C442.9,-283.16 460.67,-283.58 476.89,-283.96"/>
<polygon fill="black" stroke="black" points="476.75,-287.46 486.83,-284.2 476.92,-280.46 476.75,-287.46"/>
<text text-anchor="middle" x="463.35" y="-286.27" font-family="Times,serif" font-size="14.00">1</text>
</g>
<!-- n9&#45;&gt;n2 -->
<g id="edge4" class="edge">
<title>n9&#45;&gt;n2</title>
<path fill="none" stroke="black" d="M621.58,-195.09C554.06,-190.87 395.73,-180.99 316.23,-176.02"/>
<polygon fill="black" stroke="black" points="316.8,-172.55 306.6,-175.42 316.36,-179.54 316.8,-172.55"/>
<text text-anchor="middle" x="463.35" y="-188.27" font-family="Times,serif" font-size="14.00">1</text>
</g>
<!-- n9&#45;&gt;n5 -->
<g id="edge14" class="edge">
<title>n9&#45;&gt;n5</title>
<path fill="none" stroke="black" d="M621.55,-203.86C608.85,-207.51 594.51,-212.89 582.91,-220.57 572.01,-227.78 561.89,-237.58 553.3,-247.37"/>
<polygon fill="black" stroke="black" points="550.87,-244.82 547.13,-254.74 556.24,-249.32 550.87,-244.82"/>
<text text-anchor="middle" x="586.28" y="-223.27" font-family="Times,serif" font-size="14.00">1</text>
</g>
<!-- n10&#45;&gt;n5 -->
<g id="edge1" class="edge">
<title>n10&#45;&gt;n5</title>
<path fill="none" stroke="black" d="M622.25,-290.5C611.9,-289.42 600.29,-288.32 589.66,-287.57 584.06,-287.17 578.18,-286.84 572.36,-286.55"/>
<polygon fill="black" stroke="black" points="572.95,-283.07 562.81,-286.13 572.64,-290.07 572.95,-283.07"/>
<text text-anchor="middle" x="586.28" y="-290.27" font-family="Times,serif" font-size="14.00">2</text>
</g>
<!-- n11&#45;&gt;n3 -->
<g id="edge5" class="edge">
<title>n11&#45;&gt;n3</title>
<path fill="none" stroke="black" d="M442.37,-98.07C452.42,-98.07 463.11,-98.07 473.33,-98.07"/>
<polygon fill="black" stroke="black" points="473.08,-101.57 483.08,-98.07 473.08,-94.57 473.08,-101.57"/>
<text text-anchor="middle" x="463.35" y="-101.27" font-family="Times,serif" font-size="14.00">1</text>
</g>
<!-- n12&#45;&gt;n6 -->
<g id="edge13" class="edge">
<title>n12&#45;&gt;n6</title>
<path fill="none" stroke="black" d="M701.29,-390.07C711.35,-390.07 722.03,-390.07 732.22,-390.07"/>
<polygon fill="black" stroke="black" points="731.93,-393.57 741.93,-390.07 731.93,-386.57 731.93,-393.57"/>
<text text-anchor="middle" x="722.28" y="-393.27" font-family="Times,serif" font-size="14.00">1</text>
</g>
</g>
</svg>
