<?xml version="1.0" encoding="UTF-8" standalone="no"?>
<!DOCTYPE svg PUBLIC "-//W3C//DTD SVG 1.1//EN"
 "http://www.w3.org/Graphics/SVG/1.1/DTD/svg11.dtd">
<!-- Generated by graphviz version 8.0.5 (20230430.1635)
 -->
<!-- Title: G Pages: 1 -->
<svg width="837pt" height="329pt"
 viewBox="0.00 0.00 837.41 328.50" xmlns="http://www.w3.org/2000/svg" xmlns:xlink="http://www.w3.org/1999/xlink">
<g id="graph0" class="graph" transform="scale(1 1) rotate(0) translate(4 324.5)">
<title>G</title>
<polygon fill="white" stroke="none" points="-4,4 -4,-324.5 833.41,-324.5 833.41,4 -4,4"/>
<!-- s1 -->
<g id="node1" class="node">
<title>s1</title>
<ellipse fill="#6c9ac3" stroke="#6c9ac3" cx="18" cy="-61" rx="18" ry="18"/>
<text text-anchor="middle" x="18" y="-55.95" font-family="Times,serif" font-size="14.00">S</text>
</g>
<!-- t1 -->
<g id="node7" class="node">
<title>t1</title>
<polygon fill="#e28f41" stroke="#e28f41" points="114.75,-102 78.75,-102 78.75,-66 114.75,-66 114.75,-102"/>
<text text-anchor="middle" x="96.75" y="-79.7" font-family="Times,serif" font-size="14.00">β₁</text>
</g>
<!-- s1&#45;&gt;t1 -->
<g id="edge20" class="edge">
<title>s1&#45;&gt;t1</title>
<path fill="none" stroke="black" d="M35.65,-65.99C45.11,-68.82 57.19,-72.44 68.04,-75.7"/>
<polygon fill="black" stroke="black" points="66.75,-79.26 77.33,-78.78 68.76,-72.56 66.75,-79.26"/>
<text text-anchor="middle" x="57.38" y="-77.2" font-family="Times,serif" font-size="14.00">1</text>
</g>
<!-- t2 -->
<g id="node8" class="node">
<title>t2</title>
<polygon fill="#e28f41" stroke="#e28f41" points="432.7,-268 396.7,-268 396.7,-232 432.7,-232 432.7,-268"/>
<text text-anchor="middle" x="414.7" y="-245.7" font-family="Times,serif" font-size="14.00">β₂</text>
</g>
<!-- s1&#45;&gt;t2 -->
<g id="edge7" class="edge">
<title>s1&#45;&gt;t2</title>
<path fill="none" stroke="black" d="M20.78,-79.26C26.79,-135.78 48.63,-304 95.75,-304 95.75,-304 95.75,-304 336.21,-304 357.8,-304 377.67,-289.72 391.89,-275.85"/>
<polygon fill="black" stroke="black" points="393.76,-278.91 398.18,-269.28 388.72,-274.06 393.76,-278.91"/>
<text text-anchor="middle" x="216.35" y="-307.2" font-family="Times,serif" font-size="14.00">1</text>
</g>
<!-- t3 -->
<g id="node9" class="node">
<title>t3</title>
<polygon fill="#e28f41" stroke="#e28f41" points="591.68,-152 555.68,-152 555.68,-116 591.68,-116 591.68,-152"/>
<text text-anchor="middle" x="573.68" y="-129.7" font-family="Times,serif" font-size="14.00">β₃</text>
</g>
<!-- s1&#45;&gt;t3 -->
<g id="edge11" class="edge">
<title>s1&#45;&gt;t3</title>
<path fill="none" stroke="black" d="M34.76,-53.34C49.99,-46.65 73.91,-38 95.75,-38 95.75,-38 95.75,-38 495.19,-38 530.33,-38 552.25,-77.42 563.47,-105.74"/>
<polygon fill="black" stroke="black" points="560.49,-106.78 567.25,-114.94 567.06,-104.35 560.49,-106.78"/>
<text text-anchor="middle" x="295.1" y="-41.2" font-family="Times,serif" font-size="14.00">1</text>
</g>
<!-- t4 -->
<g id="node10" class="node">
<title>t4</title>
<polygon fill="#e28f41" stroke="#e28f41" points="750.66,-111 714.66,-111 714.66,-75 750.66,-75 750.66,-111"/>
<text text-anchor="middle" x="732.66" y="-88.7" font-family="Times,serif" font-size="14.00">β₄</text>
</g>
<!-- s1&#45;&gt;t4 -->
<g id="edge18" class="edge">
<title>s1&#45;&gt;t4</title>
<path fill="none" stroke="black" d="M28.69,-45.92C41.61,-27.86 66.3,0 95.75,0 95.75,0 95.75,0 654.17,0 688.27,0 710.27,-37.37 721.81,-64.73"/>
<polygon fill="black" stroke="black" points="718.8,-65.61 725.73,-73.63 725.31,-63.04 718.8,-65.61"/>
<text text-anchor="middle" x="375.33" y="-3.2" font-family="Times,serif" font-size="14.00">1</text>
</g>
<!-- s2 -->
<g id="node2" class="node">
<title>s2</title>
<ellipse fill="#6c9ac3" stroke="#6c9ac3" cx="176.24" cy="-117" rx="18.74" ry="18.74"/>
<text text-anchor="middle" x="176.24" y="-112.7" font-family="Times,serif" font-size="14.00">I₁</text>
</g>
<!-- s2&#45;&gt;t1 -->
<g id="edge23" class="edge">
<title>s2&#45;&gt;t1</title>
<path fill="none" stroke="black" d="M158.21,-110.4C150.41,-107.33 141.08,-103.57 132.75,-100 130.22,-98.92 127.61,-97.77 124.99,-96.61"/>
<polygon fill="black" stroke="black" points="126.68,-93.08 116.12,-92.14 123.79,-99.45 126.68,-93.08"/>
<text text-anchor="middle" x="136.12" y="-105.2" font-family="Times,serif" font-size="14.00">1</text>
</g>
<!-- t5 -->
<g id="node11" class="node">
<title>t5</title>
<polygon fill="#e28f41" stroke="#e28f41" points="273.73,-191 237.73,-191 237.73,-155 273.73,-155 273.73,-191"/>
<text text-anchor="middle" x="255.73" y="-168.7" font-family="Times,serif" font-size="14.00">δ₁</text>
</g>
<!-- s2&#45;&gt;t5 -->
<g id="edge14" class="edge">
<title>s2&#45;&gt;t5</title>
<path fill="none" stroke="black" d="M191.81,-127.53C202.08,-134.96 216.13,-145.11 228.34,-153.93"/>
<polygon fill="black" stroke="black" points="226.08,-157.34 236.23,-160.36 230.18,-151.66 226.08,-157.34"/>
<text text-anchor="middle" x="216.35" y="-149.2" font-family="Times,serif" font-size="14.00">1</text>
</g>
<!-- s3 -->
<g id="node3" class="node">
<title>s3</title>
<ellipse fill="#6c9ac3" stroke="#6c9ac3" cx="335.21" cy="-188" rx="18.74" ry="18.74"/>
<text text-anchor="middle" x="335.21" y="-183.7" font-family="Times,serif" font-size="14.00">I₂</text>
</g>
<!-- s3&#45;&gt;t2 -->
<g id="edge21" class="edge">
<title>s3&#45;&gt;t2</title>
<path fill="none" stroke="black" d="M354.37,-188.51C362.4,-189.49 371.6,-191.7 378.7,-196.5 388.05,-202.82 395.5,-212.56 401.07,-222.01"/>
<polygon fill="black" stroke="black" points="398.4,-223.43 406.21,-230.59 404.57,-220.12 398.4,-223.43"/>
<text text-anchor="middle" x="375.33" y="-199.2" font-family="Times,serif" font-size="14.00">1</text>
</g>
<!-- t6 -->
<g id="node12" class="node">
<title>t6</title>
<polygon fill="#e28f41" stroke="#e28f41" points="432.7,-191 396.7,-191 396.7,-155 432.7,-155 432.7,-191"/>
<text text-anchor="middle" x="414.7" y="-168.7" font-family="Times,serif" font-size="14.00">δ₂</text>
</g>
<!-- s3&#45;&gt;t6 -->
<g id="edge9" class="edge">
<title>s3&#45;&gt;t6</title>
<path fill="none" stroke="black" d="M347.5,-173.64C353.85,-166.74 362.41,-159.19 371.95,-155.5 376.61,-153.7 381.54,-153.87 386.3,-155.15"/>
<polygon fill="black" stroke="black" points="384.75,-158.71 395.32,-159.37 387.47,-152.26 384.75,-158.71"/>
<text text-anchor="middle" x="375.33" y="-158.2" font-family="Times,serif" font-size="14.00">1</text>
</g>
<!-- s4 -->
<g id="node4" class="node">
<title>s4</title>
<ellipse fill="#6c9ac3" stroke="#6c9ac3" cx="494.19" cy="-184" rx="18.74" ry="18.74"/>
<text text-anchor="middle" x="494.19" y="-179.7" font-family="Times,serif" font-size="14.00">I₃</text>
</g>
<!-- s4&#45;&gt;t3 -->
<g id="edge8" class="edge">
<title>s4&#45;&gt;t3</title>
<path fill="none" stroke="black" d="M512.35,-177.73C520.34,-174.46 529.8,-170.08 537.68,-165 540.85,-162.96 544.01,-160.64 547.08,-158.21"/>
<polygon fill="black" stroke="black" points="548.98,-160.34 554.36,-151.21 544.46,-154.99 548.98,-160.34"/>
<text text-anchor="middle" x="534.3" y="-171.2" font-family="Times,serif" font-size="14.00">1</text>
</g>
<!-- t7 -->
<g id="node13" class="node">
<title>t7</title>
<polygon fill="#e28f41" stroke="#e28f41" points="591.68,-225 555.68,-225 555.68,-189 591.68,-189 591.68,-225"/>
<text text-anchor="middle" x="573.68" y="-202.7" font-family="Times,serif" font-size="14.00">δ₃</text>
</g>
<!-- s4&#45;&gt;t7 -->
<g id="edge15" class="edge">
<title>s4&#45;&gt;t7</title>
<path fill="none" stroke="black" d="M509.75,-194.72C515.96,-198.7 523.48,-202.78 530.93,-205 535.19,-206.27 539.8,-207.05 544.35,-207.49"/>
<polygon fill="black" stroke="black" points="544.15,-211.03 554.3,-208.02 544.48,-204.04 544.15,-211.03"/>
<text text-anchor="middle" x="534.3" y="-209.2" font-family="Times,serif" font-size="14.00">1</text>
</g>
<!-- s5 -->
<g id="node5" class="node">
<title>s5</title>
<ellipse fill="#6c9ac3" stroke="#6c9ac3" cx="653.17" cy="-163" rx="18.74" ry="18.74"/>
<text text-anchor="middle" x="653.17" y="-158.7" font-family="Times,serif" font-size="14.00">I₄</text>
</g>
<!-- s5&#45;&gt;t4 -->
<g id="edge22" class="edge">
<title>s5&#45;&gt;t4</title>
<path fill="none" stroke="black" d="M668.15,-151.56C676.54,-144.6 687.35,-135.45 696.66,-127 699.97,-123.99 703.41,-120.77 706.78,-117.56"/>
<polygon fill="black" stroke="black" points="708.66,-120.65 713.43,-111.19 703.81,-115.61 708.66,-120.65"/>
<text text-anchor="middle" x="693.28" y="-135.2" font-family="Times,serif" font-size="14.00">1</text>
</g>
<!-- t8 -->
<g id="node14" class="node">
<title>t8</title>
<polygon fill="#e28f41" stroke="#e28f41" points="750.66,-207 714.66,-207 714.66,-171 750.66,-171 750.66,-207"/>
<text text-anchor="middle" x="732.66" y="-184.7" font-family="Times,serif" font-size="14.00">δ₄</text>
</g>
<!-- s5&#45;&gt;t8 -->
<g id="edge6" class="edge">
<title>s5&#45;&gt;t8</title>
<path fill="none" stroke="black" d="M671.37,-168.77C680.93,-171.98 693.06,-176.05 703.93,-179.7"/>
<polygon fill="black" stroke="black" points="702.65,-183.29 713.24,-183.16 704.87,-176.66 702.65,-183.29"/>
<text text-anchor="middle" x="693.28" y="-179.2" font-family="Times,serif" font-size="14.00">1</text>
</g>
<!-- s6 -->
<g id="node6" class="node">
<title>s6</title>
<ellipse fill="#6c9ac3" stroke="#6c9ac3" cx="811.41" cy="-189" rx="18" ry="18"/>
<text text-anchor="middle" x="811.41" y="-183.95" font-family="Times,serif" font-size="14.00">R</text>
</g>
<!-- t1&#45;&gt;s2 -->
<g id="edge13" class="edge">
<title>t1&#45;&gt;s2</title>
<path fill="none" stroke="black" d="M114.94,-80.9C122.7,-80.23 131.82,-80.46 139.5,-83.5 145.68,-85.94 151.42,-90.02 156.41,-94.5"/>
<polygon fill="black" stroke="black" points="153.52,-96.57 163.04,-101.21 158.49,-91.64 153.52,-96.57"/>
<text text-anchor="middle" x="136.12" y="-86.2" font-family="Times,serif" font-size="14.00">2</text>
</g>
<!-- t2&#45;&gt;s2 -->
<g id="edge16" class="edge">
<title>t2&#45;&gt;s2</title>
<path fill="none" stroke="black" d="M396.35,-248.83C362.83,-245.8 288.03,-235.3 237.73,-200 217.16,-185.57 200.91,-161.88 190.45,-143.49"/>
<polygon fill="black" stroke="black" points="193.1,-142.03 185.25,-134.92 186.95,-145.38 193.1,-142.03"/>
<text text-anchor="middle" x="295.1" y="-232.2" font-family="Times,serif" font-size="14.00">1</text>
</g>
<!-- t2&#45;&gt;s3 -->
<g id="edge3" class="edge">
<title>t2&#45;&gt;s3</title>
<path fill="none" stroke="black" d="M396.33,-236.1C385.3,-227.27 370.91,-215.76 358.98,-206.21"/>
<polygon fill="black" stroke="black" points="361.42,-202.89 351.43,-199.37 357.05,-208.35 361.42,-202.89"/>
<text text-anchor="middle" x="375.33" y="-223.2" font-family="Times,serif" font-size="14.00">1</text>
</g>
<!-- t3&#45;&gt;s2 -->
<g id="edge17" class="edge">
<title>t3&#45;&gt;s2</title>
<path fill="none" stroke="black" d="M555.47,-126.89C539.98,-121.14 516.45,-114 495.19,-114 254.73,-114 254.73,-114 254.73,-114 238.69,-114 220.79,-114.65 206.24,-115.34"/>
<polygon fill="black" stroke="black" points="206.2,-111.89 196.39,-115.9 206.56,-118.88 206.2,-111.89"/>
<text text-anchor="middle" x="375.33" y="-117.2" font-family="Times,serif" font-size="14.00">1</text>
</g>
<!-- t3&#45;&gt;s4 -->
<g id="edge2" class="edge">
<title>t3&#45;&gt;s4</title>
<path fill="none" stroke="black" d="M555.24,-138.16C547.44,-140.49 538.35,-143.87 530.93,-148.5 524.99,-152.21 519.27,-157.07 514.21,-162"/>
<polygon fill="black" stroke="black" points="512.27,-159.01 507.88,-168.65 517.33,-163.85 512.27,-159.01"/>
<text text-anchor="middle" x="534.3" y="-151.2" font-family="Times,serif" font-size="14.00">1</text>
</g>
<!-- t4&#45;&gt;s2 -->
<g id="edge1" class="edge">
<title>t4&#45;&gt;s2</title>
<path fill="none" stroke="black" d="M714.35,-86.96C698.8,-82.07 675.24,-76 654.17,-76 254.73,-76 254.73,-76 254.73,-76 234.18,-76 213.76,-87.4 199.04,-98.18"/>
<polygon fill="black" stroke="black" points="197.41,-95.79 191.67,-104.7 201.71,-101.32 197.41,-95.79"/>
<text text-anchor="middle" x="454.08" y="-79.2" font-family="Times,serif" font-size="14.00">1</text>
</g>
<!-- t4&#45;&gt;s5 -->
<g id="edge4" class="edge">
<title>t4&#45;&gt;s5</title>
<path fill="none" stroke="black" d="M714.19,-97.8C706.2,-100.6 696.97,-104.73 689.91,-110.5 681.03,-117.75 673.48,-127.76 667.63,-137.1"/>
<polygon fill="black" stroke="black" points="664.19,-135.05 662.17,-145.45 670.24,-138.58 664.19,-135.05"/>
<text text-anchor="middle" x="693.28" y="-113.2" font-family="Times,serif" font-size="14.00">1</text>
</g>
<!-- t5&#45;&gt;s3 -->
<g id="edge10" class="edge">
<title>t5&#45;&gt;s3</title>
<path fill="none" stroke="black" d="M273.92,-176.33C283.32,-178.15 295.2,-180.45 305.92,-182.52"/>
<polygon fill="black" stroke="black" points="305.05,-186.11 315.53,-184.58 306.38,-179.24 305.05,-186.11"/>
<text text-anchor="middle" x="295.1" y="-183.2" font-family="Times,serif" font-size="14.00">1</text>
</g>
<!-- t6&#45;&gt;s4 -->
<g id="edge19" class="edge">
<title>t6&#45;&gt;s4</title>
<path fill="none" stroke="black" d="M432.9,-175.44C442.23,-176.77 454.01,-178.44 464.67,-179.95"/>
<polygon fill="black" stroke="black" points="463.84,-183.51 474.23,-181.45 464.83,-176.58 463.84,-183.51"/>
<text text-anchor="middle" x="454.08" y="-181.2" font-family="Times,serif" font-size="14.00">1</text>
</g>
<!-- t7&#45;&gt;s5 -->
<g id="edge5" class="edge">
<title>t7&#45;&gt;s5</title>
<path fill="none" stroke="black" d="M591.88,-197.23C602.15,-191.4 615.4,-183.88 626.85,-177.38"/>
<polygon fill="black" stroke="black" points="628.37,-179.97 635.34,-171.99 624.91,-173.88 628.37,-179.97"/>
<text text-anchor="middle" x="613.05" y="-189.2" font-family="Times,serif" font-size="14.00">1</text>
</g>
<!-- t8&#45;&gt;s6 -->
<g id="edge12" class="edge">
<title>t8&#45;&gt;s6</title>
<path fill="none" stroke="black" d="M751.07,-189C760.3,-189 771.85,-189 782.31,-189"/>
<polygon fill="black" stroke="black" points="782.06,-192.5 792.06,-189 782.06,-185.5 782.06,-192.5"/>
<text text-anchor="middle" x="772.03" y="-192.2" font-family="Times,serif" font-size="14.00">1</text>
</g>
</g>
</svg>
