<?xml version="1.0" encoding="UTF-8" standalone="no"?>
<!DOCTYPE svg PUBLIC "-//W3C//DTD SVG 1.1//EN"
 "http://www.w3.org/Graphics/SVG/1.1/DTD/svg11.dtd">
<!-- Generated by graphviz version 11.0.0 (20240428.1522)
 -->
<!-- Title: G Pages: 1 -->
<svg width="383pt" height="348pt"
 viewBox="0.00 0.00 383.27 348.02" xmlns="http://www.w3.org/2000/svg" xmlns:xlink="http://www.w3.org/1999/xlink">
<g id="graph0" class="graph" transform="scale(1 1) rotate(0) translate(4 344.02)">
<title>G</title>
<polygon fill="white" stroke="none" points="-4,4 -4,-344.02 379.27,-344.02 379.27,4 -4,4"/>
<!-- n1 -->
<g id="box1" class="node">
<title>n1</title>
<ellipse fill="none" stroke="black" cx="316.78" cy="-46.89" rx="40.42" ry="18"/>
<text text-anchor="middle" x="316.78" y="-40.71" font-family="Serif" font-size="14.00">progression</text>
</g>
<!-- n14 -->
<!-- junction -->
<g id="junction1" class="node">
<title>n14</title>
<ellipse fill="black" stroke="black" cx="346.88" cy="-24.41" rx="2.7" ry="2.7"/>
<text text-anchor="middle" x="338.93" y="-8.41" font-family="Serif" font-size="14.00">I₁</text>
</g>
<!-- n1&#45;&#45;n14 -->
<g id="edge1" class="edge">
<title>n1&#45;&#45;n14</title>
<path fill="none" stroke="black" d="M337.68,-31.28C340.41,-29.24 342.84,-27.43 344.51,-26.18"/>
</g>
<!-- n15 -->
<!-- junction -->
<g id="junction2" class="node">
<title>n15</title>
<ellipse fill="black" stroke="black" cx="289.91" cy="-76.52" rx="2.7" ry="2.7"/>
<text text-anchor="middle" x="297.86" y="-83.92" font-family="Serif" font-size="14.00">I₂</text>
</g>
<!-- n1&#45;&#45;n15 -->
<g id="edge3" class="edge">
<title>n1&#45;&#45;n15</title>
<path fill="none" stroke="black" d="M301.46,-63.78C297.69,-67.94 294.12,-71.88 291.98,-74.25"/>
</g>
<!-- n2 -->
<g id="box2" class="node">
<title>n2</title>
<ellipse fill="none" stroke="black" cx="249.69" cy="-77.13" rx="40.42" ry="18"/>
<text text-anchor="middle" x="249.69" y="-70.96" font-family="Serif" font-size="14.00">progression</text>
</g>
<!-- n2&#45;&#45;n15 -->
<g id="edge4" class="edge">
<title>n2&#45;&#45;n15</title>
<path fill="none" stroke="black" d="M289.8,-76.52C289.84,-76.52 289.87,-76.52 289.89,-76.52"/>
</g>
<!-- n16 -->
<!-- junction -->
<g id="junction3" class="node">
<title>n16</title>
<ellipse fill="black" stroke="black" cx="209.66" cy="-71.26" rx="2.7" ry="2.7"/>
<text text-anchor="middle" x="201.71" y="-55.26" font-family="Serif" font-size="14.00">I₃</text>
</g>
<!-- n2&#45;&#45;n16 -->
<g id="edge6" class="edge">
<title>n2&#45;&#45;n16</title>
<path fill="none" stroke="black" d="M210.99,-71.46C210.57,-71.4 210.23,-71.35 210.01,-71.31"/>
</g>
<!-- n3 -->
<g id="box3" class="node">
<title>n3</title>
<ellipse fill="none" stroke="black" cx="176.44" cy="-94.48" rx="40.42" ry="18"/>
<text text-anchor="middle" x="176.44" y="-88.3" font-family="Serif" font-size="14.00">progression</text>
</g>
<!-- n3&#45;&#45;n16 -->
<g id="edge7" class="edge">
<title>n3&#45;&#45;n16</title>
<path fill="none" stroke="black" d="M198.41,-79.12C201.89,-76.69 205.01,-74.51 207.08,-73.07"/>
</g>
<!-- n17 -->
<!-- junction -->
<g id="junction4" class="node">
<title>n17</title>
<ellipse fill="black" stroke="black" cx="136.75" cy="-102.69" rx="2.7" ry="2.7"/>
<text text-anchor="middle" x="128.8" y="-104.69" font-family="Serif" font-size="14.00">I₄</text>
</g>
<!-- n3&#45;&#45;n17 -->
<g id="edge9" class="edge">
<title>n3&#45;&#45;n17</title>
<path fill="none" stroke="black" d="M139.35,-102.15C139.25,-102.17 139.15,-102.19 139.06,-102.21"/>
</g>
<!-- n4 -->
<g id="box4" class="node">
<title>n4</title>
<ellipse fill="none" stroke="black" cx="113.29" cy="-135.79" rx="40.42" ry="18"/>
<text text-anchor="middle" x="113.29" y="-129.61" font-family="Serif" font-size="14.00">progression</text>
</g>
<!-- n4&#45;&#45;n17 -->
<g id="edge10" class="edge">
<title>n4&#45;&#45;n17</title>
<path fill="none" stroke="black" d="M125.57,-118.46C129.29,-113.2 132.95,-108.05 135.02,-105.13"/>
</g>
<!-- n18 -->
<!-- junction -->
<g id="junction5" class="node">
<title>n18</title>
<ellipse fill="black" stroke="black" cx="78.28" cy="-156.17" rx="2.7" ry="2.7"/>
<text text-anchor="middle" x="70.33" y="-163.57" font-family="Serif" font-size="14.00">I₅</text>
</g>
<!-- n4&#45;&#45;n18 -->
<g id="edge12" class="edge">
<title>n4&#45;&#45;n18</title>
<path fill="none" stroke="black" d="M88.22,-150.38C85.24,-152.12 82.62,-153.64 80.82,-154.69"/>
</g>
<!-- n5 -->
<g id="box5" class="node">
<title>n5</title>
<ellipse fill="none" stroke="black" cx="66.62" cy="-194.9" rx="40.42" ry="18"/>
<text text-anchor="middle" x="66.62" y="-188.73" font-family="Serif" font-size="14.00">progression</text>
</g>
<!-- n5&#45;&#45;n18 -->
<g id="edge13" class="edge">
<title>n5&#45;&#45;n18</title>
<path fill="none" stroke="black" d="M72.04,-176.9C74.09,-170.1 76.2,-163.08 77.37,-159.2"/>
</g>
<!-- n19 -->
<!-- junction -->
<g id="junction6" class="node">
<title>n19</title>
<ellipse fill="black" stroke="black" cx="41.38" cy="-226.26" rx="2.7" ry="2.7"/>
<text text-anchor="middle" x="33.43" y="-233.66" font-family="Serif" font-size="14.00">I₆</text>
</g>
<!-- n5&#45;&#45;n19 -->
<g id="edge15" class="edge">
<title>n5&#45;&#45;n19</title>
<path fill="none" stroke="black" d="M52.82,-212.05C48.95,-216.86 45.23,-221.47 43.13,-224.08"/>
</g>
<!-- n6 -->
<g id="box6" class="node">
<title>n6</title>
<ellipse fill="none" stroke="black" cx="46.51" cy="-265.79" rx="31.35" ry="18"/>
<text text-anchor="middle" x="46.51" y="-259.62" font-family="Serif" font-size="14.00">recovery</text>
</g>
<!-- n6&#45;&#45;n19 -->
<g id="edge16" class="edge">
<title>n6&#45;&#45;n19</title>
<path fill="none" stroke="black" d="M44.12,-247.42C43.22,-240.48 42.29,-233.32 41.78,-229.36"/>
</g>
<!-- n20 -->
<!-- junction -->
<g id="junction7" class="node">
<title>n20</title>
<ellipse fill="black" stroke="black" cx="40.58" cy="-303.04" rx="2.7" ry="2.7"/>
<text text-anchor="middle" x="33.38" y="-306.69" font-family="Serif" font-size="14.00">R</text>
</g>
<!-- n6&#45;&#45;n20 -->
<g id="edge18" class="edge">
<title>n6&#45;&#45;n20</title>
<path fill="none" stroke="black" d="M43.61,-283.98C42.63,-290.18 41.63,-296.45 41.06,-300.03"/>
</g>
<!-- n7 -->
<!-- n7&#45;&#45;n14 -->
<g id="edge2" class="edge">
<title>n7&#45;&#45;n14</title>
<path fill="none" stroke="black" d="M374.59,-0.99C372.09,-3.1 355.36,-17.24 349.17,-22.47"/>
</g>
<!-- n8 -->
<!-- n8&#45;&#45;n15 -->
<g id="edge5" class="edge">
<title>n8&#45;&#45;n15</title>
<path fill="none" stroke="black" d="M313.1,-109.51C310.96,-106.48 296.46,-85.84 291.54,-78.84"/>
</g>
<!-- n9 -->
<!-- n9&#45;&#45;n16 -->
<g id="edge8" class="edge">
<title>n9&#45;&#45;n16</title>
<path fill="none" stroke="black" d="M201.87,-31.06C202.74,-35.56 207.51,-60.18 209.13,-68.51"/>
</g>
<!-- n10 -->
<!-- n10&#45;&#45;n17 -->
<g id="edge11" class="edge">
<title>n10&#45;&#45;n17</title>
<path fill="none" stroke="black" d="M114.03,-67.86C116.12,-71.07 130.33,-92.85 135.15,-100.24"/>
</g>
<!-- n11 -->
<!-- n11&#45;&#45;n18 -->
<g id="edge14" class="edge">
<title>n11&#45;&#45;n18</title>
<path fill="none" stroke="black" d="M44.1,-132.1C45.77,-133.27 68.11,-149.01 75.75,-154.38"/>
</g>
<!-- n12 -->
<!-- n12&#45;&#45;n19 -->
<g id="edge17" class="edge">
<title>n12&#45;&#45;n19</title>
<path fill="none" stroke="black" d="M0.48,-221.43C2.47,-221.67 29.21,-224.83 38.34,-225.91"/>
</g>
<!-- n13 -->
<!-- n13&#45;&#45;n20 -->
<g id="edge19" class="edge">
<title>n13&#45;&#45;n20</title>
<path fill="none" stroke="black" d="M34.22,-338.89C34.79,-335.66 38.63,-314.01 40.05,-306.01"/>
</g>
</g>
</svg>
