<?xml version="1.0" encoding="UTF-8" standalone="no"?>
<!DOCTYPE svg PUBLIC "-//W3C//DTD SVG 1.1//EN"
 "http://www.w3.org/Graphics/SVG/1.1/DTD/svg11.dtd">
<!-- Generated by graphviz version 11.0.0 (20240428.1522)
 -->
<!-- Title: G Pages: 1 -->
<svg width="1155pt" height="468pt"
 viewBox="0.00 0.00 1155.36 467.50" xmlns="http://www.w3.org/2000/svg" xmlns:xlink="http://www.w3.org/1999/xlink">
<g id="graph0" class="graph" transform="scale(1 1) rotate(0) translate(4 463.5)">
<title>G</title>
<polygon fill="white" stroke="none" points="-4,4 -4,-463.5 1151.36,-463.5 1151.36,4 -4,4"/>
<!-- n1 -->
<g id="node1" class="node">
<title>n1</title>
<ellipse fill="#6c9ac3" stroke="#6c9ac3" cx="18" cy="-113" rx="18" ry="18"/>
<text text-anchor="middle" x="18" y="-107.95" font-family="Times,serif" font-size="14.00">S</text>
</g>
<!-- n9 -->
<g id="node9" class="node">
<title>n9</title>
<polygon fill="#e28f41" stroke="#e28f41" points="114.75,-168 78.75,-168 78.75,-132 114.75,-132 114.75,-168"/>
<text text-anchor="middle" x="96.75" y="-145.7" font-family="Times,serif" font-size="14.00">β₁</text>
</g>
<!-- n1&#45;&gt;n9 -->
<g id="edge17" class="edge">
<title>n1&#45;&gt;n9</title>
<path fill="none" stroke="black" d="M34.53,-120.49C44.16,-125.13 56.8,-131.22 68.09,-136.67"/>
<polygon fill="black" stroke="black" points="66.48,-139.77 77,-140.96 69.52,-133.47 66.48,-139.77"/>
<text text-anchor="middle" x="57.38" y="-135.2" font-family="Times,serif" font-size="14.00">1</text>
</g>
<!-- n10 -->
<g id="node10" class="node">
<title>n10</title>
<polygon fill="#e28f41" stroke="#e28f41" points="432.7,-382 396.7,-382 396.7,-346 432.7,-346 432.7,-382"/>
<text text-anchor="middle" x="414.7" y="-359.7" font-family="Times,serif" font-size="14.00">β₂</text>
</g>
<!-- n1&#45;&gt;n10 -->
<g id="edge35" class="edge">
<title>n1&#45;&gt;n10</title>
<path fill="none" stroke="black" d="M19.84,-131.27C23.28,-195.19 38.88,-405 95.75,-405 95.75,-405 95.75,-405 336.21,-405 354.64,-405 372.97,-395.83 387.17,-386.16"/>
<polygon fill="black" stroke="black" points="389.06,-389.12 395.07,-380.39 384.93,-383.47 389.06,-389.12"/>
<text text-anchor="middle" x="216.35" y="-408.2" font-family="Times,serif" font-size="14.00">1</text>
</g>
<!-- n11 -->
<g id="node11" class="node">
<title>n11</title>
<polygon fill="#e28f41" stroke="#e28f41" points="591.68,-267 555.68,-267 555.68,-231 591.68,-231 591.68,-267"/>
<text text-anchor="middle" x="573.68" y="-244.7" font-family="Times,serif" font-size="14.00">β₃</text>
</g>
<!-- n1&#45;&gt;n11 -->
<g id="edge20" class="edge">
<title>n1&#45;&gt;n11</title>
<path fill="none" stroke="black" d="M32.48,-101.9C47.12,-91 71.64,-76 95.75,-76 95.75,-76 95.75,-76 495.19,-76 515.37,-76 524.45,-76.76 537.68,-92 553.98,-110.77 564.53,-179.35 569.45,-219.39"/>
<polygon fill="black" stroke="black" points="565.95,-219.55 570.59,-229.07 572.9,-218.73 565.95,-219.55"/>
<text text-anchor="middle" x="295.1" y="-79.2" font-family="Times,serif" font-size="14.00">1</text>
</g>
<!-- n12 -->
<g id="node12" class="node">
<title>n12</title>
<polygon fill="#e28f41" stroke="#e28f41" points="750.66,-346 714.66,-346 714.66,-310 750.66,-310 750.66,-346"/>
<text text-anchor="middle" x="732.66" y="-323.7" font-family="Times,serif" font-size="14.00">β₄</text>
</g>
<!-- n1&#45;&gt;n12 -->
<g id="edge5" class="edge">
<title>n1&#45;&gt;n12</title>
<path fill="none" stroke="black" d="M19.3,-131.21C20.92,-200.39 31.19,-443 95.75,-443 95.75,-443 95.75,-443 654.17,-443 695.48,-443 716.23,-391.33 725.41,-357.26"/>
<polygon fill="black" stroke="black" points="728.71,-358.49 727.73,-347.95 721.92,-356.8 728.71,-358.49"/>
<text text-anchor="middle" x="375.33" y="-446.2" font-family="Times,serif" font-size="14.00">1</text>
</g>
<!-- n13 -->
<g id="node13" class="node">
<title>n13</title>
<polygon fill="#e28f41" stroke="#e28f41" points="909.63,-216 873.63,-216 873.63,-180 909.63,-180 909.63,-216"/>
<text text-anchor="middle" x="891.63" y="-193.7" font-family="Times,serif" font-size="14.00">β₅</text>
</g>
<!-- n1&#45;&gt;n13 -->
<g id="edge7" class="edge">
<title>n1&#45;&gt;n13</title>
<path fill="none" stroke="black" d="M26.6,-96.73C38.17,-74.67 62.4,-38 95.75,-38 95.75,-38 95.75,-38 813.14,-38 870.38,-38 885.35,-121.95 889.26,-168.23"/>
<polygon fill="black" stroke="black" points="885.77,-168.41 889.96,-178.14 892.75,-167.91 885.77,-168.41"/>
<text text-anchor="middle" x="454.08" y="-41.2" font-family="Times,serif" font-size="14.00">1</text>
</g>
<!-- n14 -->
<g id="node14" class="node">
<title>n14</title>
<polygon fill="#e28f41" stroke="#e28f41" points="1068.61,-187 1032.61,-187 1032.61,-151 1068.61,-151 1068.61,-187"/>
<text text-anchor="middle" x="1050.61" y="-164.7" font-family="Times,serif" font-size="14.00">β₆</text>
</g>
<!-- n1&#45;&gt;n14 -->
<g id="edge9" class="edge">
<title>n1&#45;&gt;n14</title>
<path fill="none" stroke="black" d="M22.51,-95.09C29.92,-63.23 50.34,0 95.75,0 95.75,0 95.75,0 972.12,0 1032.67,0 1046.09,-90.76 1048.94,-139.25"/>
<polygon fill="black" stroke="black" points="1045.44,-139.25 1049.39,-149.08 1052.43,-138.93 1045.44,-139.25"/>
<text text-anchor="middle" x="534.3" y="-3.2" font-family="Times,serif" font-size="14.00">1</text>
</g>
<!-- n2 -->
<g id="node2" class="node">
<title>n2</title>
<ellipse fill="#6c9ac3" stroke="#6c9ac3" cx="176.24" cy="-190" rx="18.74" ry="18.74"/>
<text text-anchor="middle" x="176.24" y="-185.7" font-family="Times,serif" font-size="14.00">I₁</text>
</g>
<!-- n2&#45;&gt;n9 -->
<g id="edge1" class="edge">
<title>n2&#45;&gt;n9</title>
<path fill="none" stroke="black" d="M159.15,-181.69C149.26,-176.59 136.34,-169.92 124.9,-164.02"/>
<polygon fill="black" stroke="black" points="126.78,-161.05 116.29,-159.57 123.57,-167.27 126.78,-161.05"/>
<text text-anchor="middle" x="136.12" y="-174.2" font-family="Times,serif" font-size="14.00">1</text>
</g>
<!-- n15 -->
<g id="node15" class="node">
<title>n15</title>
<polygon fill="#e28f41" stroke="#e28f41" points="273.73,-305 237.73,-305 237.73,-269 273.73,-269 273.73,-305"/>
<text text-anchor="middle" x="255.73" y="-282.7" font-family="Times,serif" font-size="14.00">δ₁</text>
</g>
<!-- n2&#45;&gt;n15 -->
<g id="edge27" class="edge">
<title>n2&#45;&gt;n15</title>
<path fill="none" stroke="black" d="M187,-205.44C193.88,-216.01 203.53,-230.2 212.98,-242 218.2,-248.52 224.13,-255.27 229.86,-261.49"/>
<polygon fill="black" stroke="black" points="227.02,-263.58 236.41,-268.47 232.12,-258.79 227.02,-263.58"/>
<text text-anchor="middle" x="216.35" y="-252.2" font-family="Times,serif" font-size="14.00">1</text>
</g>
<!-- n3 -->
<g id="node3" class="node">
<title>n3</title>
<ellipse fill="#6c9ac3" stroke="#6c9ac3" cx="335.21" cy="-302" rx="18.74" ry="18.74"/>
<text text-anchor="middle" x="335.21" y="-297.7" font-family="Times,serif" font-size="14.00">I₂</text>
</g>
<!-- n3&#45;&gt;n10 -->
<g id="edge10" class="edge">
<title>n3&#45;&gt;n10</title>
<path fill="none" stroke="black" d="M350.43,-313.37C360.83,-321.7 375.25,-333.23 387.7,-343.19"/>
<polygon fill="black" stroke="black" points="385.15,-345.64 395.14,-349.15 389.52,-340.17 385.15,-345.64"/>
<text text-anchor="middle" x="375.33" y="-337.2" font-family="Times,serif" font-size="14.00">1</text>
</g>
<!-- n16 -->
<g id="node16" class="node">
<title>n16</title>
<polygon fill="#e28f41" stroke="#e28f41" points="432.7,-299 396.7,-299 396.7,-263 432.7,-263 432.7,-299"/>
<text text-anchor="middle" x="414.7" y="-276.7" font-family="Times,serif" font-size="14.00">δ₂</text>
</g>
<!-- n3&#45;&gt;n16 -->
<g id="edge23" class="edge">
<title>n3&#45;&gt;n16</title>
<path fill="none" stroke="black" d="M347.5,-287.64C353.85,-280.74 362.41,-273.19 371.95,-269.5 376.25,-267.84 380.88,-267.63 385.44,-268.28"/>
<polygon fill="black" stroke="black" points="384.36,-271.61 394.93,-270.89 386.22,-264.86 384.36,-271.61"/>
<text text-anchor="middle" x="375.33" y="-272.2" font-family="Times,serif" font-size="14.00">1</text>
</g>
<!-- n4 -->
<g id="node4" class="node">
<title>n4</title>
<ellipse fill="#6c9ac3" stroke="#6c9ac3" cx="494.19" cy="-288" rx="18.74" ry="18.74"/>
<text text-anchor="middle" x="494.19" y="-283.7" font-family="Times,serif" font-size="14.00">I₃</text>
</g>
<!-- n4&#45;&gt;n11 -->
<g id="edge4" class="edge">
<title>n4&#45;&gt;n11</title>
<path fill="none" stroke="black" d="M513.21,-286.21C521.03,-284.93 530.11,-282.74 537.68,-279 540.64,-277.54 543.55,-275.77 546.36,-273.83"/>
<polygon fill="black" stroke="black" points="548.48,-276.62 554.21,-267.7 544.17,-271.1 548.48,-276.62"/>
<text text-anchor="middle" x="534.3" y="-284.2" font-family="Times,serif" font-size="14.00">1</text>
</g>
<!-- n17 -->
<g id="node17" class="node">
<title>n17</title>
<polygon fill="#e28f41" stroke="#e28f41" points="591.68,-346 555.68,-346 555.68,-310 591.68,-310 591.68,-346"/>
<text text-anchor="middle" x="573.68" y="-323.7" font-family="Times,serif" font-size="14.00">δ₃</text>
</g>
<!-- n4&#45;&gt;n17 -->
<g id="edge19" class="edge">
<title>n4&#45;&gt;n17</title>
<path fill="none" stroke="black" d="M511.25,-296.29C521.09,-301.37 533.95,-308.01 545.36,-313.9"/>
<polygon fill="black" stroke="black" points="543.46,-316.86 553.95,-318.33 546.67,-310.64 543.46,-316.86"/>
<text text-anchor="middle" x="534.3" y="-312.2" font-family="Times,serif" font-size="14.00">1</text>
</g>
<!-- n5 -->
<g id="node5" class="node">
<title>n5</title>
<ellipse fill="#6c9ac3" stroke="#6c9ac3" cx="653.17" cy="-326" rx="18.74" ry="18.74"/>
<text text-anchor="middle" x="653.17" y="-321.7" font-family="Times,serif" font-size="14.00">I₄</text>
</g>
<!-- n5&#45;&gt;n12 -->
<g id="edge33" class="edge">
<title>n5&#45;&gt;n12</title>
<path fill="none" stroke="black" d="M672.14,-326.46C681.27,-326.7 692.58,-326.99 702.88,-327.26"/>
<polygon fill="black" stroke="black" points="702.71,-330.75 712.8,-327.51 702.9,-323.76 702.71,-330.75"/>
<text text-anchor="middle" x="693.28" y="-330.2" font-family="Times,serif" font-size="14.00">1</text>
</g>
<!-- n18 -->
<g id="node18" class="node">
<title>n18</title>
<polygon fill="#e28f41" stroke="#e28f41" points="750.66,-272 714.66,-272 714.66,-236 750.66,-236 750.66,-272"/>
<text text-anchor="middle" x="732.66" y="-249.7" font-family="Times,serif" font-size="14.00">δ₄</text>
</g>
<!-- n5&#45;&gt;n18 -->
<g id="edge28" class="edge">
<title>n5&#45;&gt;n18</title>
<path fill="none" stroke="black" d="M665.75,-311.49C672.44,-303.47 681.24,-293.53 689.91,-285.5 694.65,-281.1 699.99,-276.72 705.22,-272.67"/>
<polygon fill="black" stroke="black" points="707.25,-275.53 713.17,-266.74 703.06,-269.92 707.25,-275.53"/>
<text text-anchor="middle" x="693.28" y="-288.2" font-family="Times,serif" font-size="14.00">1</text>
</g>
<!-- n6 -->
<g id="node6" class="node">
<title>n6</title>
<ellipse fill="#6c9ac3" stroke="#6c9ac3" cx="812.14" cy="-248" rx="18.74" ry="18.74"/>
<text text-anchor="middle" x="812.14" y="-243.7" font-family="Times,serif" font-size="14.00">I₅</text>
</g>
<!-- n6&#45;&gt;n13 -->
<g id="edge11" class="edge">
<title>n6&#45;&gt;n13</title>
<path fill="none" stroke="black" d="M828.45,-238.12C838.52,-231.63 851.96,-222.96 863.77,-215.34"/>
<polygon fill="black" stroke="black" points="865.42,-218.44 871.92,-210.07 861.62,-212.56 865.42,-218.44"/>
<text text-anchor="middle" x="852.26" y="-227.2" font-family="Times,serif" font-size="14.00">1</text>
</g>
<!-- n19 -->
<g id="node19" class="node">
<title>n19</title>
<polygon fill="#e28f41" stroke="#e28f41" points="909.63,-278 873.63,-278 873.63,-242 909.63,-242 909.63,-278"/>
<text text-anchor="middle" x="891.63" y="-255.7" font-family="Times,serif" font-size="14.00">δ₅</text>
</g>
<!-- n6&#45;&gt;n19 -->
<g id="edge31" class="edge">
<title>n6&#45;&gt;n19</title>
<path fill="none" stroke="black" d="M831.12,-250.78C840.34,-252.21 851.8,-253.99 862.19,-255.6"/>
<polygon fill="black" stroke="black" points="861.38,-259.01 871.8,-257.08 862.45,-252.09 861.38,-259.01"/>
<text text-anchor="middle" x="852.26" y="-257.2" font-family="Times,serif" font-size="14.00">1</text>
</g>
<!-- n7 -->
<g id="node7" class="node">
<title>n7</title>
<ellipse fill="#6c9ac3" stroke="#6c9ac3" cx="971.12" cy="-234" rx="18.74" ry="18.74"/>
<text text-anchor="middle" x="971.12" y="-229.7" font-family="Times,serif" font-size="14.00">I₆</text>
</g>
<!-- n7&#45;&gt;n14 -->
<g id="edge21" class="edge">
<title>n7&#45;&gt;n14</title>
<path fill="none" stroke="black" d="M979.95,-217.45C986.08,-206.13 995.63,-191.58 1007.86,-182.5 1011.85,-179.54 1016.52,-177.21 1021.26,-175.38"/>
<polygon fill="black" stroke="black" points="1022.23,-178.75 1030.73,-172.42 1020.14,-172.07 1022.23,-178.75"/>
<text text-anchor="middle" x="1011.23" y="-185.2" font-family="Times,serif" font-size="14.00">1</text>
</g>
<!-- n20 -->
<g id="node20" class="node">
<title>n20</title>
<polygon fill="#e28f41" stroke="#e28f41" points="1068.61,-283 1032.61,-283 1032.61,-247 1068.61,-247 1068.61,-283"/>
<text text-anchor="middle" x="1050.61" y="-260.7" font-family="Times,serif" font-size="14.00">δ₆</text>
</g>
<!-- n7&#45;&gt;n20 -->
<g id="edge25" class="edge">
<title>n7&#45;&gt;n20</title>
<path fill="none" stroke="black" d="M988.94,-240.73C998.55,-244.57 1010.85,-249.49 1021.86,-253.9"/>
<polygon fill="black" stroke="black" points="1020.3,-257.04 1030.89,-257.51 1022.9,-250.55 1020.3,-257.04"/>
<text text-anchor="middle" x="1011.23" y="-253.2" font-family="Times,serif" font-size="14.00">1</text>
</g>
<!-- n8 -->
<g id="node8" class="node">
<title>n8</title>
<ellipse fill="#6c9ac3" stroke="#6c9ac3" cx="1129.36" cy="-265" rx="18" ry="18"/>
<text text-anchor="middle" x="1129.36" y="-259.95" font-family="Times,serif" font-size="14.00">R</text>
</g>
<!-- n9&#45;&gt;n2 -->
<g id="edge8" class="edge">
<title>n9&#45;&gt;n2</title>
<path fill="none" stroke="black" d="M115.11,-145.32C122.9,-144.12 132,-144.01 139.5,-147.5 147.43,-151.19 154.23,-157.61 159.7,-164.35"/>
<polygon fill="black" stroke="black" points="156.75,-166.24 165.44,-172.3 162.42,-162.14 156.75,-166.24"/>
<text text-anchor="middle" x="136.12" y="-150.2" font-family="Times,serif" font-size="14.00">2</text>
</g>
<!-- n10&#45;&gt;n2 -->
<g id="edge24" class="edge">
<title>n10&#45;&gt;n2</title>
<path fill="none" stroke="black" d="M396.45,-363.43C362.43,-361.47 285.86,-352.72 237.73,-314 207.87,-289.98 191.71,-247.57 183.79,-219.12"/>
<polygon fill="black" stroke="black" points="187.24,-218.51 181.34,-209.71 180.47,-220.27 187.24,-218.51"/>
<text text-anchor="middle" x="295.1" y="-348.2" font-family="Times,serif" font-size="14.00">1</text>
</g>
<!-- n10&#45;&gt;n3 -->
<g id="edge29" class="edge">
<title>n10&#45;&gt;n3</title>
<path fill="none" stroke="black" d="M406.21,-345.59C400.44,-333.74 391.3,-319.02 378.7,-310.5 374.71,-307.8 370.05,-305.92 365.31,-304.61"/>
<polygon fill="black" stroke="black" points="366.34,-301.25 355.86,-302.8 365.02,-308.12 366.34,-301.25"/>
<text text-anchor="middle" x="375.33" y="-313.2" font-family="Times,serif" font-size="14.00">1</text>
</g>
<!-- n11&#45;&gt;n2 -->
<g id="edge6" class="edge">
<title>n11&#45;&gt;n2</title>
<path fill="none" stroke="black" d="M555.19,-241.42C539.72,-235.4 516.38,-228 495.19,-228 254.73,-228 254.73,-228 254.73,-228 235.13,-228 215.32,-218.08 200.64,-208.37"/>
<polygon fill="black" stroke="black" points="202.79,-205.6 192.6,-202.69 198.75,-211.32 202.79,-205.6"/>
<text text-anchor="middle" x="375.33" y="-231.2" font-family="Times,serif" font-size="14.00">1</text>
</g>
<!-- n11&#45;&gt;n4 -->
<g id="edge13" class="edge">
<title>n11&#45;&gt;n4</title>
<path fill="none" stroke="black" d="M555.41,-251.08C547.65,-252.47 538.53,-254.76 530.93,-258.5 525.96,-260.94 521.07,-264.21 516.59,-267.68"/>
<polygon fill="black" stroke="black" points="514.6,-264.78 509.21,-273.9 519.11,-270.13 514.6,-264.78"/>
<text text-anchor="middle" x="534.3" y="-261.2" font-family="Times,serif" font-size="14.00">1</text>
</g>
<!-- n12&#45;&gt;n2 -->
<g id="edge34" class="edge">
<title>n12&#45;&gt;n2</title>
<path fill="none" stroke="black" d="M723.49,-309.67C706.49,-272.14 667.74,-190 654.17,-190 254.73,-190 254.73,-190 254.73,-190 238.86,-190 221.16,-190 206.69,-190"/>
<polygon fill="black" stroke="black" points="206.91,-186.5 196.91,-190 206.91,-193.5 206.91,-186.5"/>
<text text-anchor="middle" x="454.08" y="-193.2" font-family="Times,serif" font-size="14.00">1</text>
</g>
<!-- n12&#45;&gt;n5 -->
<g id="edge16" class="edge">
<title>n12&#45;&gt;n5</title>
<path fill="none" stroke="black" d="M714.31,-315.41C708.92,-312.19 702.77,-309.16 696.66,-307.5 690.54,-305.84 684.17,-306.95 678.27,-309.29"/>
<polygon fill="black" stroke="black" points="676.92,-306.05 669.68,-313.78 680.17,-312.25 676.92,-306.05"/>
<text text-anchor="middle" x="693.28" y="-310.2" font-family="Times,serif" font-size="14.00">1</text>
</g>
<!-- n13&#45;&gt;n2 -->
<g id="edge22" class="edge">
<title>n13&#45;&gt;n2</title>
<path fill="none" stroke="black" d="M883.46,-179.77C872.39,-155.07 848.66,-114 813.14,-114 254.73,-114 254.73,-114 254.73,-114 225.77,-114 203.66,-141.38 190.61,-163.28"/>
<polygon fill="black" stroke="black" points="187.66,-161.38 185.83,-171.81 193.77,-164.79 187.66,-161.38"/>
<text text-anchor="middle" x="534.3" y="-117.2" font-family="Times,serif" font-size="14.00">1</text>
</g>
<!-- n13&#45;&gt;n6 -->
<g id="edge12" class="edge">
<title>n13&#45;&gt;n6</title>
<path fill="none" stroke="black" d="M873.49,-195.85C865.57,-195.63 856.3,-196.52 848.88,-200.5 839.96,-205.29 832.63,-213.38 826.98,-221.55"/>
<polygon fill="black" stroke="black" points="824.01,-219.69 821.72,-230.04 829.96,-223.38 824.01,-219.69"/>
<text text-anchor="middle" x="852.26" y="-203.2" font-family="Times,serif" font-size="14.00">1</text>
</g>
<!-- n14&#45;&gt;n2 -->
<g id="edge14" class="edge">
<title>n14&#45;&gt;n2</title>
<path fill="none" stroke="black" d="M1032.31,-162.96C1016.76,-158.07 993.19,-152 972.12,-152 254.73,-152 254.73,-152 254.73,-152 235.13,-152 215.32,-161.92 200.64,-171.63"/>
<polygon fill="black" stroke="black" points="198.75,-168.68 192.6,-177.31 202.79,-174.4 198.75,-168.68"/>
<text text-anchor="middle" x="613.05" y="-155.2" font-family="Times,serif" font-size="14.00">1</text>
</g>
<!-- n14&#45;&gt;n7 -->
<g id="edge3" class="edge">
<title>n14&#45;&gt;n7</title>
<path fill="none" stroke="black" d="M1032.26,-186.8C1026.76,-192.17 1020.57,-197.98 1014.61,-203 1008.84,-207.87 1002.36,-212.82 996.24,-217.31"/>
<polygon fill="black" stroke="black" points="994.39,-214.33 988.29,-222.99 998.46,-220.02 994.39,-214.33"/>
<text text-anchor="middle" x="1011.23" y="-211.2" font-family="Times,serif" font-size="14.00">1</text>
</g>
<!-- n15&#45;&gt;n3 -->
<g id="edge26" class="edge">
<title>n15&#45;&gt;n3</title>
<path fill="none" stroke="black" d="M273.92,-290.33C283.12,-292.11 294.7,-294.35 305.25,-296.39"/>
<polygon fill="black" stroke="black" points="304.56,-299.82 315.04,-298.29 305.89,-292.95 304.56,-299.82"/>
<text text-anchor="middle" x="295.1" y="-297.2" font-family="Times,serif" font-size="14.00">1</text>
</g>
<!-- n16&#45;&gt;n4 -->
<g id="edge2" class="edge">
<title>n16&#45;&gt;n4</title>
<path fill="none" stroke="black" d="M432.9,-282.55C442.04,-283.38 453.52,-284.42 464,-285.36"/>
<polygon fill="black" stroke="black" points="463.45,-288.83 473.73,-286.24 464.08,-281.86 463.45,-288.83"/>
<text text-anchor="middle" x="454.08" y="-287.2" font-family="Times,serif" font-size="14.00">1</text>
</g>
<!-- n17&#45;&gt;n5 -->
<g id="edge18" class="edge">
<title>n17&#45;&gt;n5</title>
<path fill="none" stroke="black" d="M591.88,-327.56C600.95,-327.32 612.33,-327.03 622.75,-326.76"/>
<polygon fill="black" stroke="black" points="622.52,-330.27 632.43,-326.51 622.34,-323.27 622.52,-330.27"/>
<text text-anchor="middle" x="613.05" y="-330.2" font-family="Times,serif" font-size="14.00">1</text>
</g>
<!-- n18&#45;&gt;n6 -->
<g id="edge15" class="edge">
<title>n18&#45;&gt;n6</title>
<path fill="none" stroke="black" d="M750.85,-252.67C759.99,-251.96 771.47,-251.07 781.95,-250.26"/>
<polygon fill="black" stroke="black" points="781.98,-253.77 791.68,-249.51 781.44,-246.79 781.98,-253.77"/>
<text text-anchor="middle" x="772.03" y="-254.2" font-family="Times,serif" font-size="14.00">1</text>
</g>
<!-- n19&#45;&gt;n7 -->
<g id="edge32" class="edge">
<title>n19&#45;&gt;n7</title>
<path fill="none" stroke="black" d="M909.83,-254.23C919.36,-251.03 931.44,-246.98 942.28,-243.34"/>
<polygon fill="black" stroke="black" points="943.17,-246.73 951.54,-240.24 940.94,-240.1 943.17,-246.73"/>
<text text-anchor="middle" x="931.01" y="-250.2" font-family="Times,serif" font-size="14.00">1</text>
</g>
<!-- n20&#45;&gt;n8 -->
<g id="edge30" class="edge">
<title>n20&#45;&gt;n8</title>
<path fill="none" stroke="black" d="M1069.03,-265C1078.05,-265 1089.31,-265 1099.59,-265"/>
<polygon fill="black" stroke="black" points="1099.5,-268.5 1109.5,-265 1099.5,-261.5 1099.5,-268.5"/>
<text text-anchor="middle" x="1089.98" y="-268.2" font-family="Times,serif" font-size="14.00">1</text>
</g>
</g>
</svg>
