<?xml version="1.0" encoding="UTF-8" standalone="no"?>
<!DOCTYPE svg PUBLIC "-//W3C//DTD SVG 1.1//EN"
 "http://www.w3.org/Graphics/SVG/1.1/DTD/svg11.dtd">
<!-- Generated by graphviz version 8.0.5 (20230430.1635)
 -->
<!-- Title: G Pages: 1 -->
<svg width="203pt" height="399pt"
 viewBox="0.00 0.00 202.98 399.48" xmlns="http://www.w3.org/2000/svg" xmlns:xlink="http://www.w3.org/1999/xlink">
<g id="graph0" class="graph" transform="scale(1 1) rotate(0) translate(4 395.48)">
<title>G</title>
<polygon fill="white" stroke="none" points="-4,4 -4,-395.48 198.98,-395.48 198.98,4 -4,4"/>
<!-- s1 -->
<g id="node1" class="node">
<title>s1</title>
<ellipse fill="#6c9ac3" stroke="#6c9ac3" cx="18" cy="-187.74" rx="18" ry="18"/>
<text text-anchor="middle" x="18" y="-182.69" font-family="Times,serif" font-size="14.00">S</text>
</g>
<!-- t1 -->
<g id="node6" class="node">
<title>t1</title>
<polygon fill="#e28f41" stroke="#e28f41" points="114.75,-250.74 78.75,-250.74 78.75,-214.74 114.75,-214.74 114.75,-250.74"/>
<text text-anchor="middle" x="96.75" y="-228.44" font-family="Times,serif" font-size="14.00">β₁</text>
</g>
<!-- s1&#45;&gt;t1 -->
<g id="edge12" class="edge">
<title>s1&#45;&gt;t1</title>
<path fill="none" stroke="black" d="M34.16,-196.63C44.13,-202.47 57.44,-210.28 69.14,-217.14"/>
<polygon fill="black" stroke="black" points="67.08,-220.57 77.47,-222.61 70.62,-214.53 67.08,-220.57"/>
<text text-anchor="middle" x="57.38" y="-213.94" font-family="Times,serif" font-size="14.00">1</text>
</g>
<!-- t2 -->
<g id="node7" class="node">
<title>t2</title>
<polygon fill="#e28f41" stroke="#e28f41" points="114.75,-350.74 78.75,-350.74 78.75,-314.74 114.75,-314.74 114.75,-350.74"/>
<text text-anchor="middle" x="96.75" y="-328.44" font-family="Times,serif" font-size="14.00">β₂</text>
</g>
<!-- s1&#45;&gt;t2 -->
<g id="edge5" class="edge">
<title>s1&#45;&gt;t2</title>
<path fill="none" stroke="black" d="M27.36,-203.53C40.27,-227.93 65.25,-275.11 81.18,-305.21"/>
<polygon fill="black" stroke="black" points="78.43,-306.5 86.2,-313.7 84.62,-303.23 78.43,-306.5"/>
<text text-anchor="middle" x="57.38" y="-266.94" font-family="Times,serif" font-size="14.00">1</text>
</g>
<!-- t3 -->
<g id="node8" class="node">
<title>t3</title>
<polygon fill="#e28f41" stroke="#e28f41" points="114.75,-175.74 78.75,-175.74 78.75,-139.74 114.75,-139.74 114.75,-175.74"/>
<text text-anchor="middle" x="96.75" y="-153.44" font-family="Times,serif" font-size="14.00">β₃</text>
</g>
<!-- s1&#45;&gt;t3 -->
<g id="edge7" class="edge">
<title>s1&#45;&gt;t3</title>
<path fill="none" stroke="black" d="M35.28,-181.38C44.88,-177.62 57.28,-172.77 68.36,-168.45"/>
<polygon fill="black" stroke="black" points="69.39,-171.41 77.43,-164.51 66.84,-164.89 69.39,-171.41"/>
<text text-anchor="middle" x="57.38" y="-176.94" font-family="Times,serif" font-size="14.00">1</text>
</g>
<!-- t4 -->
<g id="node9" class="node">
<title>t4</title>
<polygon fill="#e28f41" stroke="#e28f41" points="114.75,-88.74 78.75,-88.74 78.75,-52.74 114.75,-52.74 114.75,-88.74"/>
<text text-anchor="middle" x="96.75" y="-66.44" font-family="Times,serif" font-size="14.00">β₄</text>
</g>
<!-- s1&#45;&gt;t4 -->
<g id="edge11" class="edge">
<title>s1&#45;&gt;t4</title>
<path fill="none" stroke="black" d="M28.72,-172.92C41.06,-154.11 62.58,-121.31 77.9,-97.95"/>
<polygon fill="black" stroke="black" points="81.29,-100.17 83.84,-89.89 75.43,-96.33 81.29,-100.17"/>
<text text-anchor="middle" x="57.38" y="-136.94" font-family="Times,serif" font-size="14.00">1</text>
</g>
<!-- s2 -->
<g id="node2" class="node">
<title>s2</title>
<ellipse fill="#6c9ac3" stroke="#6c9ac3" cx="176.24" cy="-232.74" rx="18.74" ry="18.74"/>
<text text-anchor="middle" x="176.24" y="-228.44" font-family="Times,serif" font-size="14.00">I₁</text>
</g>
<!-- s2&#45;&gt;t1 -->
<g id="edge15" class="edge">
<title>s2&#45;&gt;t1</title>
<path fill="none" stroke="black" d="M157.47,-230.94C149.86,-230.37 140.87,-229.95 132.75,-230.24 130.6,-230.31 128.39,-230.42 126.15,-230.54"/>
<polygon fill="black" stroke="black" points="125.94,-227.11 116.18,-231.25 126.39,-234.09 125.94,-227.11"/>
<text text-anchor="middle" x="136.12" y="-232.94" font-family="Times,serif" font-size="14.00">1</text>
</g>
<!-- s3 -->
<g id="node3" class="node">
<title>s3</title>
<ellipse fill="#6c9ac3" stroke="#6c9ac3" cx="176.24" cy="-372.74" rx="18.74" ry="18.74"/>
<text text-anchor="middle" x="176.24" y="-368.44" font-family="Times,serif" font-size="14.00">I₂</text>
</g>
<!-- s3&#45;&gt;t2 -->
<g id="edge13" class="edge">
<title>s3&#45;&gt;t2</title>
<path fill="none" stroke="black" d="M157.15,-374.87C149.31,-375.06 140.24,-374.24 132.75,-370.74 126.81,-367.97 121.42,-363.69 116.73,-358.98"/>
<polygon fill="black" stroke="black" points="119.8,-357.03 110.56,-351.85 114.55,-361.66 119.8,-357.03"/>
<text text-anchor="middle" x="136.12" y="-375.94" font-family="Times,serif" font-size="14.00">1</text>
</g>
<!-- s4 -->
<g id="node4" class="node">
<title>s4</title>
<ellipse fill="#6c9ac3" stroke="#6c9ac3" cx="176.24" cy="-85.74" rx="18.74" ry="18.74"/>
<text text-anchor="middle" x="176.24" y="-81.44" font-family="Times,serif" font-size="14.00">I₃</text>
</g>
<!-- s4&#45;&gt;t3 -->
<g id="edge6" class="edge">
<title>s4&#45;&gt;t3</title>
<path fill="none" stroke="black" d="M160.1,-75.93C151.52,-71.7 140.89,-68.82 132.75,-74.24 123.07,-80.68 112.88,-107.58 106.01,-129.13"/>
<polygon fill="black" stroke="black" points="102.43,-127.89 102.83,-138.47 109.12,-129.94 102.43,-127.89"/>
<text text-anchor="middle" x="136.12" y="-77.94" font-family="Times,serif" font-size="14.00">1</text>
</g>
<!-- s5 -->
<g id="node5" class="node">
<title>s5</title>
<ellipse fill="#6c9ac3" stroke="#6c9ac3" cx="176.24" cy="-18.74" rx="18.74" ry="18.74"/>
<text text-anchor="middle" x="176.24" y="-14.44" font-family="Times,serif" font-size="14.00">I₄</text>
</g>
<!-- s5&#45;&gt;t4 -->
<g id="edge14" class="edge">
<title>s5&#45;&gt;t4</title>
<path fill="none" stroke="black" d="M159.04,-10.42C150.72,-7.37 140.7,-5.65 132.75,-10.24 120.6,-17.25 112.28,-30.27 106.82,-42.44"/>
<polygon fill="black" stroke="black" points="103.33,-40.73 102.88,-51.31 109.83,-43.32 103.33,-40.73"/>
<text text-anchor="middle" x="136.12" y="-13.94" font-family="Times,serif" font-size="14.00">1</text>
</g>
<!-- t1&#45;&gt;s2 -->
<g id="edge8" class="edge">
<title>t1&#45;&gt;s2</title>
<path fill="none" stroke="black" d="M114.92,-243.61C120.4,-246.52 126.64,-249.26 132.75,-250.74 138.78,-252.2 145.06,-251.13 150.88,-248.92"/>
<polygon fill="black" stroke="black" points="152.31,-251.62 159.7,-244.02 149.19,-245.35 152.31,-251.62"/>
<text text-anchor="middle" x="136.12" y="-253.94" font-family="Times,serif" font-size="14.00">2</text>
</g>
<!-- t2&#45;&gt;s2 -->
<g id="edge9" class="edge">
<title>t2&#45;&gt;s2</title>
<path fill="none" stroke="black" d="M111.96,-314.4C124.69,-297.98 143.41,-273.81 157.19,-256.03"/>
<polygon fill="black" stroke="black" points="160.53,-258.44 163.89,-248.39 154.99,-254.15 160.53,-258.44"/>
<text text-anchor="middle" x="136.12" y="-287.94" font-family="Times,serif" font-size="14.00">1</text>
</g>
<!-- t2&#45;&gt;s3 -->
<g id="edge3" class="edge">
<title>t2&#45;&gt;s3</title>
<path fill="none" stroke="black" d="M115.22,-341.73C122.7,-345.58 131.53,-350.12 139.5,-354.24 142.73,-355.91 146.12,-357.66 149.47,-359.39"/>
<polygon fill="black" stroke="black" points="147.74,-362.95 158.23,-364.44 150.96,-356.74 147.74,-362.95"/>
<text text-anchor="middle" x="136.12" y="-356.94" font-family="Times,serif" font-size="14.00">1</text>
</g>
<!-- t3&#45;&gt;s2 -->
<g id="edge10" class="edge">
<title>t3&#45;&gt;s2</title>
<path fill="none" stroke="black" d="M114.95,-174.38C126.65,-185.71 142.2,-200.76 154.58,-212.74"/>
<polygon fill="black" stroke="black" points="151.56,-214.66 161.18,-219.1 156.43,-209.63 151.56,-214.66"/>
<text text-anchor="middle" x="136.12" y="-199.94" font-family="Times,serif" font-size="14.00">1</text>
</g>
<!-- t3&#45;&gt;s4 -->
<g id="edge2" class="edge">
<title>t3&#45;&gt;s4</title>
<path fill="none" stroke="black" d="M114.9,-148.38C122.82,-143.64 132.08,-137.47 139.5,-130.74 146.36,-124.52 152.94,-116.89 158.55,-109.7"/>
<polygon fill="black" stroke="black" points="161.89,-112.06 165.07,-101.96 156.28,-107.88 161.89,-112.06"/>
<text text-anchor="middle" x="136.12" y="-139.94" font-family="Times,serif" font-size="14.00">1</text>
</g>
<!-- t4&#45;&gt;s2 -->
<g id="edge1" class="edge">
<title>t4&#45;&gt;s2</title>
<path fill="none" stroke="black" d="M114.87,-83.34C123.37,-90.39 133.15,-99.85 139.5,-110.24 157.21,-139.22 166.52,-177.42 171.15,-203.41"/>
<polygon fill="black" stroke="black" points="167.83,-203.78 172.91,-213.07 174.73,-202.64 167.83,-203.78"/>
<text text-anchor="middle" x="136.12" y="-113.94" font-family="Times,serif" font-size="14.00">1</text>
</g>
<!-- t4&#45;&gt;s5 -->
<g id="edge4" class="edge">
<title>t4&#45;&gt;s5</title>
<path fill="none" stroke="black" d="M112.37,-52.32C118.17,-45.92 125.25,-39.13 132.75,-34.24 137.28,-31.28 142.45,-28.8 147.58,-26.74"/>
<polygon fill="black" stroke="black" points="148.6,-29.74 156.86,-23.11 146.26,-23.14 148.6,-29.74"/>
<text text-anchor="middle" x="136.12" y="-37.94" font-family="Times,serif" font-size="14.00">1</text>
</g>
</g>
</svg>
