<?xml version="1.0" encoding="UTF-8" standalone="no"?>
<!DOCTYPE svg PUBLIC "-//W3C//DTD SVG 1.1//EN"
 "http://www.w3.org/Graphics/SVG/1.1/DTD/svg11.dtd">
<!-- Generated by graphviz version 8.0.5 (20230430.1635)
 -->
<!-- Title: G Pages: 1 -->
<svg width="680pt" height="45pt"
 viewBox="0.00 0.00 679.91 45.48" xmlns="http://www.w3.org/2000/svg" xmlns:xlink="http://www.w3.org/1999/xlink">
<g id="graph0" class="graph" transform="scale(1 1) rotate(0) translate(4 41.48)">
<title>G</title>
<polygon fill="white" stroke="none" points="-4,4 -4,-41.48 675.91,-41.48 675.91,4 -4,4"/>
<!-- s1 -->
<g id="node1" class="node">
<title>s1</title>
<ellipse fill="#6c9ac3" stroke="#6c9ac3" cx="18.74" cy="-18.74" rx="18.74" ry="18.74"/>
<text text-anchor="middle" x="18.74" y="-14.44" font-family="Times,serif" font-size="14.00">I₁</text>
</g>
<!-- t1 -->
<g id="node6" class="node">
<title>t1</title>
<polygon fill="#e28f41" stroke="#e28f41" points="116.23,-36.74 80.23,-36.74 80.23,-0.74 116.23,-0.74 116.23,-36.74"/>
<text text-anchor="middle" x="98.23" y="-14.44" font-family="Times,serif" font-size="14.00">δ₁</text>
</g>
<!-- s1&#45;&gt;t1 -->
<g id="edge2" class="edge">
<title>s1&#45;&gt;t1</title>
<path fill="none" stroke="black" d="M37.71,-18.74C47.04,-18.74 58.64,-18.74 69.12,-18.74"/>
<polygon fill="black" stroke="black" points="68.89,-22.24 78.89,-18.74 68.88,-15.24 68.89,-22.24"/>
<text text-anchor="middle" x="58.85" y="-21.94" font-family="Times,serif" font-size="14.00">1</text>
</g>
<!-- s2 -->
<g id="node2" class="node">
<title>s2</title>
<ellipse fill="#6c9ac3" stroke="#6c9ac3" cx="177.71" cy="-18.74" rx="18.74" ry="18.74"/>
<text text-anchor="middle" x="177.71" y="-14.44" font-family="Times,serif" font-size="14.00">I₂</text>
</g>
<!-- t2 -->
<g id="node7" class="node">
<title>t2</title>
<polygon fill="#e28f41" stroke="#e28f41" points="275.2,-36.74 239.2,-36.74 239.2,-0.74 275.2,-0.74 275.2,-36.74"/>
<text text-anchor="middle" x="257.2" y="-14.44" font-family="Times,serif" font-size="14.00">δ₂</text>
</g>
<!-- s2&#45;&gt;t2 -->
<g id="edge7" class="edge">
<title>s2&#45;&gt;t2</title>
<path fill="none" stroke="black" d="M196.69,-18.74C206.01,-18.74 217.62,-18.74 228.09,-18.74"/>
<polygon fill="black" stroke="black" points="227.86,-22.24 237.86,-18.74 227.86,-15.24 227.86,-22.24"/>
<text text-anchor="middle" x="217.83" y="-21.94" font-family="Times,serif" font-size="14.00">1</text>
</g>
<!-- s3 -->
<g id="node3" class="node">
<title>s3</title>
<ellipse fill="#6c9ac3" stroke="#6c9ac3" cx="336.69" cy="-18.74" rx="18.74" ry="18.74"/>
<text text-anchor="middle" x="336.69" y="-14.44" font-family="Times,serif" font-size="14.00">I₃</text>
</g>
<!-- t3 -->
<g id="node8" class="node">
<title>t3</title>
<polygon fill="#e28f41" stroke="#e28f41" points="434.18,-36.74 398.18,-36.74 398.18,-0.74 434.18,-0.74 434.18,-36.74"/>
<text text-anchor="middle" x="416.18" y="-14.44" font-family="Times,serif" font-size="14.00">δ₃</text>
</g>
<!-- s3&#45;&gt;t3 -->
<g id="edge8" class="edge">
<title>s3&#45;&gt;t3</title>
<path fill="none" stroke="black" d="M355.66,-18.74C364.99,-18.74 376.59,-18.74 387.07,-18.74"/>
<polygon fill="black" stroke="black" points="386.84,-22.24 396.84,-18.74 386.84,-15.24 386.84,-22.24"/>
<text text-anchor="middle" x="376.8" y="-21.94" font-family="Times,serif" font-size="14.00">1</text>
</g>
<!-- s4 -->
<g id="node4" class="node">
<title>s4</title>
<ellipse fill="#6c9ac3" stroke="#6c9ac3" cx="495.67" cy="-18.74" rx="18.74" ry="18.74"/>
<text text-anchor="middle" x="495.67" y="-14.44" font-family="Times,serif" font-size="14.00">I₄</text>
</g>
<!-- t4 -->
<g id="node9" class="node">
<title>t4</title>
<polygon fill="#e28f41" stroke="#e28f41" points="593.16,-36.74 557.16,-36.74 557.16,-0.74 593.16,-0.74 593.16,-36.74"/>
<text text-anchor="middle" x="575.16" y="-14.44" font-family="Times,serif" font-size="14.00">δ₄</text>
</g>
<!-- s4&#45;&gt;t4 -->
<g id="edge1" class="edge">
<title>s4&#45;&gt;t4</title>
<path fill="none" stroke="black" d="M514.64,-18.74C523.97,-18.74 535.57,-18.74 546.05,-18.74"/>
<polygon fill="black" stroke="black" points="545.82,-22.24 555.81,-18.74 545.81,-15.24 545.82,-22.24"/>
<text text-anchor="middle" x="535.78" y="-21.94" font-family="Times,serif" font-size="14.00">1</text>
</g>
<!-- s5 -->
<g id="node5" class="node">
<title>s5</title>
<ellipse fill="#6c9ac3" stroke="#6c9ac3" cx="653.91" cy="-18.74" rx="18" ry="18"/>
<text text-anchor="middle" x="653.91" y="-13.69" font-family="Times,serif" font-size="14.00">R</text>
</g>
<!-- t1&#45;&gt;s2 -->
<g id="edge3" class="edge">
<title>t1&#45;&gt;s2</title>
<path fill="none" stroke="black" d="M116.42,-18.74C125.59,-18.74 137.12,-18.74 147.63,-18.74"/>
<polygon fill="black" stroke="black" points="147.49,-22.24 157.49,-18.74 147.49,-15.24 147.49,-22.24"/>
<text text-anchor="middle" x="137.6" y="-21.94" font-family="Times,serif" font-size="14.00">1</text>
</g>
<!-- t2&#45;&gt;s3 -->
<g id="edge5" class="edge">
<title>t2&#45;&gt;s3</title>
<path fill="none" stroke="black" d="M275.4,-18.74C284.57,-18.74 296.1,-18.74 306.61,-18.74"/>
<polygon fill="black" stroke="black" points="306.46,-22.24 316.46,-18.74 306.46,-15.24 306.46,-22.24"/>
<text text-anchor="middle" x="296.58" y="-21.94" font-family="Times,serif" font-size="14.00">1</text>
</g>
<!-- t3&#45;&gt;s4 -->
<g id="edge4" class="edge">
<title>t3&#45;&gt;s4</title>
<path fill="none" stroke="black" d="M434.38,-18.74C443.55,-18.74 455.07,-18.74 465.59,-18.74"/>
<polygon fill="black" stroke="black" points="465.44,-22.24 475.44,-18.74 465.44,-15.24 465.44,-22.24"/>
<text text-anchor="middle" x="455.55" y="-21.94" font-family="Times,serif" font-size="14.00">1</text>
</g>
<!-- t4&#45;&gt;s5 -->
<g id="edge6" class="edge">
<title>t4&#45;&gt;s5</title>
<path fill="none" stroke="black" d="M593.57,-18.74C602.8,-18.74 614.35,-18.74 624.81,-18.74"/>
<polygon fill="black" stroke="black" points="624.56,-22.24 634.56,-18.74 624.56,-15.24 624.56,-22.24"/>
<text text-anchor="middle" x="614.53" y="-21.94" font-family="Times,serif" font-size="14.00">1</text>
</g>
</g>
</svg>
