<?xml version="1.0" encoding="UTF-8" standalone="no"?>
<!DOCTYPE svg PUBLIC "-//W3C//DTD SVG 1.1//EN"
 "http://www.w3.org/Graphics/SVG/1.1/DTD/svg11.dtd">
<!-- Generated by graphviz version 11.0.0 (20240428.1522)
 -->
<!-- Title: G Pages: 1 -->
<svg width="388pt" height="106pt"
 viewBox="0.00 0.00 388.25 105.50" xmlns="http://www.w3.org/2000/svg" xmlns:xlink="http://www.w3.org/1999/xlink">
<g id="graph0" class="graph" transform="scale(1 1) rotate(0) translate(4 101.5)">
<title>G</title>
<polygon fill="white" stroke="none" points="-4,4 -4,-101.5 384.25,-101.5 384.25,4 -4,4"/>
<!-- n1 -->
<g id="node1" class="node">
<title>n1</title>
<ellipse fill="#6c9ac3" stroke="#6c9ac3" cx="18" cy="-38" rx="18" ry="18"/>
<text text-anchor="middle" x="18" y="-32.95" font-family="Times,serif" font-size="14.00">S</text>
</g>
<!-- n4 -->
<g id="node4" class="node">
<title>n4</title>
<polygon fill="#e28f41" stroke="#e28f41" points="114.75,-82 78.75,-82 78.75,-46 114.75,-46 114.75,-82"/>
<text text-anchor="middle" x="96.75" y="-58.95" font-family="Times,serif" font-size="14.00">β</text>
</g>
<!-- n1&#45;&gt;n4 -->
<g id="edge6" class="edge">
<title>n1&#45;&gt;n4</title>
<path fill="none" stroke="black" d="M35.28,-43.51C44.68,-46.7 56.77,-50.8 67.67,-54.49"/>
<polygon fill="black" stroke="black" points="66.4,-57.75 77,-57.65 68.65,-51.12 66.4,-57.75"/>
<text text-anchor="middle" x="57.38" y="-54.2" font-family="Times,serif" font-size="14.00">1</text>
</g>
<!-- n6 -->
<g id="node6" class="node">
<title>n6</title>
<polygon fill="#e28f41" stroke="#e28f41" points="168.75,-36 132.75,-36 132.75,0 168.75,0 168.75,-36"/>
<text text-anchor="middle" x="150.75" y="-12.95" font-family="Times,serif" font-size="14.00">σ</text>
</g>
<!-- n1&#45;&gt;n6 -->
<g id="edge4" class="edge">
<title>n1&#45;&gt;n6</title>
<path fill="none" stroke="black" d="M35.65,-33.53C41.43,-32.09 47.97,-30.59 54,-29.5 76.41,-25.45 102.03,-22.46 121.13,-20.54"/>
<polygon fill="black" stroke="black" points="121.23,-24.05 130.85,-19.61 120.56,-17.08 121.23,-24.05"/>
<text text-anchor="middle" x="57.38" y="-32.2" font-family="Times,serif" font-size="14.00">1</text>
</g>
<!-- n2 -->
<g id="node2" class="node">
<title>n2</title>
<ellipse fill="#6c9ac3" stroke="#6c9ac3" cx="204.75" cy="-64" rx="18" ry="18"/>
<text text-anchor="middle" x="204.75" y="-58.95" font-family="Times,serif" font-size="14.00">I</text>
</g>
<!-- n2&#45;&gt;n4 -->
<g id="edge1" class="edge">
<title>n2&#45;&gt;n4</title>
<path fill="none" stroke="black" d="M186.31,-63.11C180.7,-62.86 174.47,-62.62 168.75,-62.5 152.75,-62.16 148.75,-62.16 132.75,-62.5 130.7,-62.54 128.57,-62.6 126.44,-62.67"/>
<polygon fill="black" stroke="black" points="126.56,-59.16 116.7,-63.05 126.83,-66.16 126.56,-59.16"/>
<text text-anchor="middle" x="150.75" y="-65.2" font-family="Times,serif" font-size="14.00">1</text>
</g>
<!-- n5 -->
<g id="node5" class="node">
<title>n5</title>
<polygon fill="#e28f41" stroke="#e28f41" points="301.5,-82 265.5,-82 265.5,-46 301.5,-46 301.5,-82"/>
<text text-anchor="middle" x="283.5" y="-58.95" font-family="Times,serif" font-size="14.00">γ</text>
</g>
<!-- n2&#45;&gt;n5 -->
<g id="edge2" class="edge">
<title>n2&#45;&gt;n5</title>
<path fill="none" stroke="black" d="M223.17,-64C232.19,-64 243.45,-64 253.73,-64"/>
<polygon fill="black" stroke="black" points="253.64,-67.5 263.64,-64 253.64,-60.5 253.64,-67.5"/>
<text text-anchor="middle" x="244.12" y="-67.2" font-family="Times,serif" font-size="14.00">1</text>
</g>
<!-- n3 -->
<g id="node3" class="node">
<title>n3</title>
<ellipse fill="#6c9ac3" stroke="#6c9ac3" cx="362.25" cy="-34" rx="18" ry="18"/>
<text text-anchor="middle" x="362.25" y="-28.95" font-family="Times,serif" font-size="14.00">R</text>
</g>
<!-- n4&#45;&gt;n2 -->
<g id="edge3" class="edge">
<title>n4&#45;&gt;n2</title>
<path fill="none" stroke="black" d="M115.1,-73.08C120.6,-75.5 126.79,-77.78 132.75,-79 148.42,-82.22 153.08,-82.22 168.75,-79 171.8,-78.37 174.92,-77.47 177.97,-76.41"/>
<polygon fill="black" stroke="black" points="179.16,-79.7 187.11,-72.69 176.53,-73.22 179.16,-79.7"/>
<text text-anchor="middle" x="150.75" y="-84.2" font-family="Times,serif" font-size="14.00">2</text>
</g>
<!-- n5&#45;&gt;n3 -->
<g id="edge5" class="edge">
<title>n5&#45;&gt;n3</title>
<path fill="none" stroke="black" d="M301.92,-57.19C311.5,-53.45 323.6,-48.72 334.37,-44.51"/>
<polygon fill="black" stroke="black" points="335.5,-47.82 343.54,-40.92 332.96,-41.3 335.5,-47.82"/>
<text text-anchor="middle" x="322.88" y="-52.2" font-family="Times,serif" font-size="14.00">1</text>
</g>
<!-- n6&#45;&gt;n3 -->
<g id="edge7" class="edge">
<title>n6&#45;&gt;n3</title>
<path fill="none" stroke="black" d="M168.89,-19.31C204.8,-22.05 288.25,-28.42 332.5,-31.8"/>
<polygon fill="black" stroke="black" points="332.12,-35.29 342.36,-32.56 332.66,-28.31 332.12,-35.29"/>
<text text-anchor="middle" x="244.12" y="-28.2" font-family="Times,serif" font-size="14.00">1</text>
</g>
</g>
</svg>
