<?xml version="1.0" encoding="UTF-8" standalone="no"?>
<!DOCTYPE svg PUBLIC "-//W3C//DTD SVG 1.1//EN"
 "http://www.w3.org/Graphics/SVG/1.1/DTD/svg11.dtd">
<!-- Generated by graphviz version 11.0.0 (20240428.1522)
 -->
<!-- Title: G Pages: 1 -->
<svg width="359pt" height="46pt"
 viewBox="0.00 0.00 359.00 45.72" xmlns="http://www.w3.org/2000/svg" xmlns:xlink="http://www.w3.org/1999/xlink">
<g id="graph0" class="graph" transform="scale(1 1) rotate(0) translate(4 41.72)">
<title>G</title>
<polygon fill="white" stroke="none" points="-4,4 -4,-41.72 355,-41.72 355,4 -4,4"/>
<!-- n1 -->
<g id="node1" class="node">
<title>n1</title>
<ellipse fill="#6c9ac3" stroke="#6c9ac3" cx="18" cy="-19.72" rx="18" ry="18"/>
<text text-anchor="middle" x="18" y="-14.67" font-family="Times,serif" font-size="14.00">S</text>
</g>
<!-- n4 -->
<g id="node4" class="node">
<title>n4</title>
<polygon fill="#e28f41" stroke="#e28f41" points="114.75,-37.72 78.75,-37.72 78.75,-1.72 114.75,-1.72 114.75,-37.72"/>
<text text-anchor="middle" x="96.75" y="-14.67" font-family="Times,serif" font-size="14.00">β</text>
</g>
<!-- n1&#45;&gt;n4 -->
<g id="edge5" class="edge">
<title>n1&#45;&gt;n4</title>
<path fill="none" stroke="black" d="M36.42,-19.72C45.44,-19.72 56.7,-19.72 66.98,-19.72"/>
<polygon fill="black" stroke="black" points="66.89,-23.22 76.89,-19.72 66.89,-16.22 66.89,-23.22"/>
<text text-anchor="middle" x="57.38" y="-22.92" font-family="Times,serif" font-size="14.00">1</text>
</g>
<!-- n2 -->
<g id="node2" class="node">
<title>n2</title>
<ellipse fill="#6c9ac3" stroke="#6c9ac3" cx="175.5" cy="-19.72" rx="18" ry="18"/>
<text text-anchor="middle" x="175.5" y="-14.67" font-family="Times,serif" font-size="14.00">I</text>
</g>
<!-- n2&#45;&gt;n4 -->
<g id="edge1" class="edge">
<title>n2&#45;&gt;n4</title>
<path fill="none" stroke="black" d="M161.01,-8.64C153.04,-3.4 142.6,1.22 132.75,-1.22 130.31,-1.83 127.85,-2.64 125.44,-3.58"/>
<polygon fill="black" stroke="black" points="124.18,-0.3 116.61,-7.71 127.15,-6.64 124.18,-0.3"/>
<text text-anchor="middle" x="136.12" y="-3.92" font-family="Times,serif" font-size="14.00">1</text>
</g>
<!-- n5 -->
<g id="node5" class="node">
<title>n5</title>
<polygon fill="#e28f41" stroke="#e28f41" points="272.25,-37.72 236.25,-37.72 236.25,-1.72 272.25,-1.72 272.25,-37.72"/>
<text text-anchor="middle" x="254.25" y="-14.67" font-family="Times,serif" font-size="14.00">γ</text>
</g>
<!-- n2&#45;&gt;n5 -->
<g id="edge2" class="edge">
<title>n2&#45;&gt;n5</title>
<path fill="none" stroke="black" d="M193.92,-19.72C202.94,-19.72 214.2,-19.72 224.48,-19.72"/>
<polygon fill="black" stroke="black" points="224.39,-23.22 234.39,-19.72 224.39,-16.22 224.39,-23.22"/>
<text text-anchor="middle" x="214.88" y="-22.92" font-family="Times,serif" font-size="14.00">1</text>
</g>
<!-- n3 -->
<g id="node3" class="node">
<title>n3</title>
<ellipse fill="#6c9ac3" stroke="#6c9ac3" cx="333" cy="-19.72" rx="18" ry="18"/>
<text text-anchor="middle" x="333" y="-14.67" font-family="Times,serif" font-size="14.00">R</text>
</g>
<!-- n4&#45;&gt;n2 -->
<g id="edge3" class="edge">
<title>n4&#45;&gt;n2</title>
<path fill="none" stroke="black" d="M115.17,-19.72C124.19,-19.72 135.45,-19.72 145.73,-19.72"/>
<polygon fill="black" stroke="black" points="145.64,-23.22 155.64,-19.72 145.64,-16.22 145.64,-23.22"/>
<text text-anchor="middle" x="136.12" y="-22.92" font-family="Times,serif" font-size="14.00">2</text>
</g>
<!-- n5&#45;&gt;n3 -->
<g id="edge4" class="edge">
<title>n5&#45;&gt;n3</title>
<path fill="none" stroke="black" d="M272.67,-19.72C281.69,-19.72 292.95,-19.72 303.23,-19.72"/>
<polygon fill="black" stroke="black" points="303.14,-23.22 313.14,-19.72 303.14,-16.22 303.14,-23.22"/>
<text text-anchor="middle" x="293.62" y="-22.92" font-family="Times,serif" font-size="14.00">1</text>
</g>
</g>
</svg>
