<?xml version="1.0" encoding="UTF-8" standalone="no"?>
<!DOCTYPE svg PUBLIC "-//W3C//DTD SVG 1.1//EN"
 "http://www.w3.org/Graphics/SVG/1.1/DTD/svg11.dtd">
<!-- Generated by graphviz version 11.0.0 (20240428.1522)
 -->
<!-- Title: G Pages: 1 -->
<svg width="484pt" height="587pt"
 viewBox="0.00 0.00 484.22 587.12" xmlns="http://www.w3.org/2000/svg" xmlns:xlink="http://www.w3.org/1999/xlink">
<g id="graph0" class="graph" transform="scale(1 1) rotate(0) translate(4 583.12)">
<title>G</title>
<polygon fill="white" stroke="none" points="-4,4 -4,-583.12 480.22,-583.12 480.22,4 -4,4"/>
<!-- n1 -->
<g id="node1" class="node">
<title>n1</title>
<ellipse fill="#6c9ac3" stroke="#6c9ac3" cx="19.62" cy="-365" rx="19.62" ry="19.62"/>
<text text-anchor="middle" x="19.62" y="-359.95" font-family="Times,serif" font-size="14.00">a2</text>
</g>
<!-- n4 -->
<g id="node4" class="node">
<title>n4</title>
<polygon fill="#e28f41" stroke="#e28f41" points="130.24,-579.12 81.99,-579.12 81.99,-530.88 130.24,-530.88 130.24,-579.12"/>
<text text-anchor="middle" x="106.11" y="-549.95" font-family="Times,serif" font-size="14.00">a2_a2</text>
</g>
<!-- n1&#45;&gt;n4 -->
<g id="edge8" class="edge">
<title>n1&#45;&gt;n4</title>
<path fill="none" stroke="black" d="M22.03,-384.94C25.39,-426.74 35.3,-521.53 57.24,-544 60.89,-547.74 65.54,-550.32 70.49,-552.08"/>
<polygon fill="black" stroke="black" points="69.56,-555.45 80.1,-554.4 71.2,-548.65 69.56,-555.45"/>
<text text-anchor="middle" x="60.61" y="-551.2" font-family="Times,serif" font-size="14.00">2</text>
</g>
<!-- n5 -->
<g id="node5" class="node">
<title>n5</title>
<polygon fill="#e28f41" stroke="#e28f41" points="130.24,-273.12 81.99,-273.12 81.99,-224.88 130.24,-224.88 130.24,-273.12"/>
<text text-anchor="middle" x="106.11" y="-243.95" font-family="Times,serif" font-size="14.00">a3_a2</text>
</g>
<!-- n1&#45;&gt;n5 -->
<g id="edge19" class="edge">
<title>n1&#45;&gt;n5</title>
<path fill="none" stroke="black" d="M26.12,-346.27C31.88,-328.94 42.18,-303.13 57.24,-284.5 61.68,-279.01 67.15,-273.92 72.8,-269.41"/>
<polygon fill="black" stroke="black" points="74.51,-272.5 80.46,-263.73 70.34,-266.88 74.51,-272.5"/>
<text text-anchor="middle" x="60.61" y="-287.2" font-family="Times,serif" font-size="14.00">1</text>
</g>
<!-- n6 -->
<g id="node6" class="node">
<title>n6</title>
<polygon fill="#e28f41" stroke="#e28f41" points="476.22,-458.12 427.97,-458.12 427.97,-409.88 476.22,-409.88 476.22,-458.12"/>
<text text-anchor="middle" x="452.09" y="-428.95" font-family="Times,serif" font-size="14.00">a1_a2</text>
</g>
<!-- n1&#45;&gt;n6 -->
<g id="edge22" class="edge">
<title>n1&#45;&gt;n6</title>
<path fill="none" stroke="black" d="M28.06,-382.81C40.12,-408.52 66.57,-453 105.11,-453 105.11,-453 105.11,-453 366.6,-453 383.37,-453 401.57,-449.39 416.77,-445.32"/>
<polygon fill="black" stroke="black" points="417.63,-448.71 426.28,-442.59 415.7,-441.99 417.63,-448.71"/>
<text text-anchor="middle" x="233.6" y="-456.2" font-family="Times,serif" font-size="14.00">1</text>
</g>
<!-- n7 -->
<g id="node7" class="node">
<title>n7</title>
<polygon fill="#e28f41" stroke="#e28f41" points="303.23,-317.12 254.98,-317.12 254.98,-268.88 303.23,-268.88 303.23,-317.12"/>
<text text-anchor="middle" x="279.1" y="-287.95" font-family="Times,serif" font-size="14.00">a2_a3</text>
</g>
<!-- n1&#45;&gt;n7 -->
<g id="edge27" class="edge">
<title>n1&#45;&gt;n7</title>
<path fill="none" stroke="black" d="M39.27,-368.84C78.79,-375.95 172.62,-387.25 236.98,-350 246.44,-344.52 254.32,-335.9 260.56,-327"/>
<polygon fill="black" stroke="black" points="263.45,-328.96 265.87,-318.65 257.55,-325.21 263.45,-328.96"/>
<text text-anchor="middle" x="151.61" y="-377.2" font-family="Times,serif" font-size="14.00">1</text>
</g>
<!-- n10 -->
<g id="node10" class="node">
<title>n10</title>
<polygon fill="#e28f41" stroke="#e28f41" points="476.22,-76.12 427.97,-76.12 427.97,-27.88 476.22,-27.88 476.22,-76.12"/>
<text text-anchor="middle" x="452.09" y="-46.95" font-family="Times,serif" font-size="14.00">a2_a1</text>
</g>
<!-- n1&#45;&gt;n10 -->
<g id="edge30" class="edge">
<title>n1&#45;&gt;n10</title>
<path fill="none" stroke="black" d="M21.48,-345.16C25.05,-274.6 41.71,-40 105.11,-40 105.11,-40 105.11,-40 366.6,-40 383.13,-40 401.3,-42.28 416.54,-44.85"/>
<polygon fill="black" stroke="black" points="415.59,-48.24 426.05,-46.57 416.84,-41.35 415.59,-48.24"/>
<text text-anchor="middle" x="233.6" y="-43.2" font-family="Times,serif" font-size="14.00">1</text>
</g>
<!-- n2 -->
<g id="node2" class="node">
<title>n2</title>
<ellipse fill="#6c9ac3" stroke="#6c9ac3" cx="192.61" cy="-231" rx="19.62" ry="19.62"/>
<text text-anchor="middle" x="192.61" y="-225.95" font-family="Times,serif" font-size="14.00">a3</text>
</g>
<!-- n2&#45;&gt;n5 -->
<g id="edge4" class="edge">
<title>n2&#45;&gt;n5</title>
<path fill="none" stroke="black" d="M173.25,-226.27C165.45,-224.98 156.31,-224.44 148.24,-226.5 145.8,-227.12 143.36,-227.92 140.94,-228.85"/>
<polygon fill="black" stroke="black" points="139.66,-225.59 132.01,-232.92 142.56,-231.96 139.66,-225.59"/>
<text text-anchor="middle" x="151.61" y="-229.2" font-family="Times,serif" font-size="14.00">1</text>
</g>
<!-- n2&#45;&gt;n7 -->
<g id="edge17" class="edge">
<title>n2&#45;&gt;n7</title>
<path fill="none" stroke="black" d="M207.96,-243.3C214.61,-248.86 222.7,-255.42 230.23,-261 235.15,-264.65 240.45,-268.38 245.68,-271.95"/>
<polygon fill="black" stroke="black" points="243.39,-274.63 253.64,-277.3 247.29,-268.82 243.39,-274.63"/>
<text text-anchor="middle" x="233.6" y="-268.2" font-family="Times,serif" font-size="14.00">1</text>
</g>
<!-- n8 -->
<g id="node8" class="node">
<title>n8</title>
<polygon fill="#e28f41" stroke="#e28f41" points="303.23,-393.12 254.98,-393.12 254.98,-344.88 303.23,-344.88 303.23,-393.12"/>
<text text-anchor="middle" x="279.1" y="-363.95" font-family="Times,serif" font-size="14.00">a3_a3</text>
</g>
<!-- n2&#45;&gt;n8 -->
<g id="edge20" class="edge">
<title>n2&#45;&gt;n8</title>
<path fill="none" stroke="black" d="M198.9,-249.99C204.74,-268.97 215.32,-298.5 230.23,-321 234.88,-328.01 240.66,-334.86 246.59,-341.07"/>
<polygon fill="black" stroke="black" points="244.04,-343.47 253.59,-348.05 248.98,-338.51 244.04,-343.47"/>
<text text-anchor="middle" x="233.6" y="-332.2" font-family="Times,serif" font-size="14.00">2</text>
</g>
<!-- n9 -->
<g id="node9" class="node">
<title>n9</title>
<polygon fill="#e28f41" stroke="#e28f41" points="476.22,-190.12 427.97,-190.12 427.97,-141.88 476.22,-141.88 476.22,-190.12"/>
<text text-anchor="middle" x="452.09" y="-160.95" font-family="Times,serif" font-size="14.00">a1_a3</text>
</g>
<!-- n2&#45;&gt;n9 -->
<g id="edge1" class="edge">
<title>n2&#45;&gt;n9</title>
<path fill="none" stroke="black" d="M194.32,-211.36C196.34,-185.77 203.72,-141.33 230.23,-116 260.51,-87.06 279.7,-96.99 321.23,-91.5 357.18,-86.75 375.01,-95.7 409.97,-119 415.89,-122.95 421.47,-127.96 426.51,-133.23"/>
<polygon fill="black" stroke="black" points="423.68,-135.32 432.94,-140.48 428.92,-130.67 423.68,-135.32"/>
<text text-anchor="middle" x="324.6" y="-95.2" font-family="Times,serif" font-size="14.00">1</text>
</g>
<!-- n11 -->
<g id="node11" class="node">
<title>n11</title>
<polygon fill="#e28f41" stroke="#e28f41" points="303.23,-227.12 254.98,-227.12 254.98,-178.88 303.23,-178.88 303.23,-227.12"/>
<text text-anchor="middle" x="279.1" y="-197.95" font-family="Times,serif" font-size="14.00">a3_a1</text>
</g>
<!-- n2&#45;&gt;n11 -->
<g id="edge5" class="edge">
<title>n2&#45;&gt;n11</title>
<path fill="none" stroke="black" d="M207.44,-217.97C213.86,-212.77 221.91,-207.34 230.23,-204.5 234.45,-203.06 239,-202.16 243.55,-201.63"/>
<polygon fill="black" stroke="black" points="243.42,-205.14 253.21,-201.09 243.02,-198.16 243.42,-205.14"/>
<text text-anchor="middle" x="233.6" y="-207.2" font-family="Times,serif" font-size="14.00">1</text>
</g>
<!-- n3 -->
<g id="node3" class="node">
<title>n3</title>
<ellipse fill="#6c9ac3" stroke="#6c9ac3" cx="365.6" cy="-243" rx="19.62" ry="19.62"/>
<text text-anchor="middle" x="365.6" y="-237.95" font-family="Times,serif" font-size="14.00">a1</text>
</g>
<!-- n3&#45;&gt;n6 -->
<g id="edge28" class="edge">
<title>n3&#45;&gt;n6</title>
<path fill="none" stroke="black" d="M374.55,-260.97C388.5,-292.51 417.62,-358.35 435.65,-399.1"/>
<polygon fill="black" stroke="black" points="432.34,-400.27 439.59,-408 438.74,-397.44 432.34,-400.27"/>
<text text-anchor="middle" x="406.59" y="-341.2" font-family="Times,serif" font-size="14.00">1</text>
</g>
<!-- n3&#45;&gt;n9 -->
<g id="edge23" class="edge">
<title>n3&#45;&gt;n9</title>
<path fill="none" stroke="black" d="M378.34,-227.67C385.16,-219.22 394.17,-208.79 403.22,-200.5 408.05,-196.06 413.47,-191.69 418.87,-187.62"/>
<polygon fill="black" stroke="black" points="420.58,-190.7 426.61,-182 416.46,-185.04 420.58,-190.7"/>
<text text-anchor="middle" x="406.59" y="-203.2" font-family="Times,serif" font-size="14.00">1</text>
</g>
<!-- n3&#45;&gt;n10 -->
<g id="edge11" class="edge">
<title>n3&#45;&gt;n10</title>
<path fill="none" stroke="black" d="M374.55,-225.03C388.5,-193.49 417.62,-127.65 435.65,-86.9"/>
<polygon fill="black" stroke="black" points="438.74,-88.56 439.59,-78 432.34,-85.73 438.74,-88.56"/>
<text text-anchor="middle" x="406.59" y="-162.2" font-family="Times,serif" font-size="14.00">1</text>
</g>
<!-- n3&#45;&gt;n11 -->
<g id="edge25" class="edge">
<title>n3&#45;&gt;n11</title>
<path fill="none" stroke="black" d="M354.6,-226.44C348.22,-217.55 339.07,-207.42 327.98,-202.5 323.82,-200.66 319.26,-199.62 314.65,-199.14"/>
<polygon fill="black" stroke="black" points="314.89,-195.64 304.82,-198.94 314.75,-202.64 314.89,-195.64"/>
<text text-anchor="middle" x="324.6" y="-205.2" font-family="Times,serif" font-size="14.00">1</text>
</g>
<!-- n12 -->
<g id="node12" class="node">
<title>n12</title>
<polygon fill="#e28f41" stroke="#e28f41" points="476.22,-327.12 427.97,-327.12 427.97,-278.88 476.22,-278.88 476.22,-327.12"/>
<text text-anchor="middle" x="452.09" y="-297.95" font-family="Times,serif" font-size="14.00">a1_a1</text>
</g>
<!-- n3&#45;&gt;n12 -->
<g id="edge14" class="edge">
<title>n3&#45;&gt;n12</title>
<path fill="none" stroke="black" d="M382.09,-254C392.27,-261.23 405.96,-270.95 418.46,-279.83"/>
<polygon fill="black" stroke="black" points="416.3,-282.59 426.48,-285.52 420.35,-276.88 416.3,-282.59"/>
<text text-anchor="middle" x="406.59" y="-276.2" font-family="Times,serif" font-size="14.00">2</text>
</g>
<!-- n4&#45;&gt;n1 -->
<g id="edge15" class="edge">
<title>n4&#45;&gt;n1</title>
<path fill="none" stroke="black" d="M81.98,-535.08C73.11,-526.34 63.59,-515.47 57.24,-504 38.22,-469.65 28.75,-425.03 24.27,-395.73"/>
<polygon fill="black" stroke="black" points="27.77,-395.47 22.9,-386.05 20.84,-396.44 27.77,-395.47"/>
<text text-anchor="middle" x="60.61" y="-516.2" font-family="Times,serif" font-size="14.00">2</text>
</g>
<!-- n5&#45;&gt;n1 -->
<g id="edge21" class="edge">
<title>n5&#45;&gt;n1</title>
<path fill="none" stroke="black" d="M81.6,-247.83C73.08,-248.57 63.93,-250.86 57.24,-256.5 34.64,-275.55 25.94,-309.07 22.61,-333.82"/>
<polygon fill="black" stroke="black" points="19.15,-333.34 21.54,-343.67 26.11,-334.1 19.15,-333.34"/>
<text text-anchor="middle" x="60.61" y="-259.2" font-family="Times,serif" font-size="14.00">1</text>
</g>
<!-- n5&#45;&gt;n2 -->
<g id="edge26" class="edge">
<title>n5&#45;&gt;n2</title>
<path fill="none" stroke="black" d="M130.65,-246.96C138.45,-246.04 147.14,-244.76 154.99,-243 157.63,-242.41 160.36,-241.7 163.07,-240.93"/>
<polygon fill="black" stroke="black" points="163.97,-244.32 172.47,-238.01 161.89,-237.64 163.97,-244.32"/>
<text text-anchor="middle" x="151.61" y="-247.2" font-family="Times,serif" font-size="14.00">1</text>
</g>
<!-- n6&#45;&gt;n1 -->
<g id="edge29" class="edge">
<title>n6&#45;&gt;n1</title>
<path fill="none" stroke="black" d="M431.19,-458.34C415.55,-474.59 392.18,-493 366.6,-493 105.11,-493 105.11,-493 105.11,-493 58.54,-493 36.17,-433.25 26.66,-395.4"/>
<polygon fill="black" stroke="black" points="30.13,-394.86 24.46,-385.91 23.31,-396.45 30.13,-394.86"/>
<text text-anchor="middle" x="233.6" y="-496.2" font-family="Times,serif" font-size="14.00">1</text>
</g>
<!-- n6&#45;&gt;n3 -->
<g id="edge9" class="edge">
<title>n6&#45;&gt;n3</title>
<path fill="none" stroke="black" d="M427.79,-418.83C418.89,-411.94 409.4,-403.07 403.22,-393 380.57,-356.14 371.92,-306.14 368.62,-274.22"/>
<polygon fill="black" stroke="black" points="372.13,-274.09 367.74,-264.44 365.15,-274.72 372.13,-274.09"/>
<text text-anchor="middle" x="406.59" y="-404.2" font-family="Times,serif" font-size="14.00">1</text>
</g>
<!-- n7&#45;&gt;n1 -->
<g id="edge6" class="edge">
<title>n7&#45;&gt;n1</title>
<path fill="none" stroke="black" d="M254.56,-299.58C207.34,-312.79 101.18,-342.47 49.7,-356.87"/>
<polygon fill="black" stroke="black" points="48.87,-353.47 40.18,-359.53 50.76,-360.21 48.87,-353.47"/>
<text text-anchor="middle" x="151.61" y="-332.2" font-family="Times,serif" font-size="14.00">1</text>
</g>
<!-- n7&#45;&gt;n2 -->
<g id="edge16" class="edge">
<title>n7&#45;&gt;n2</title>
<path fill="none" stroke="black" d="M261.75,-268.46C254.97,-259.85 246.46,-250.78 236.98,-244.5 232.83,-241.76 228.1,-239.55 223.33,-237.77"/>
<polygon fill="black" stroke="black" points="224.38,-234.44 213.79,-234.83 222.31,-241.12 224.38,-234.44"/>
<text text-anchor="middle" x="233.6" y="-247.2" font-family="Times,serif" font-size="14.00">1</text>
</g>
<!-- n8&#45;&gt;n2 -->
<g id="edge2" class="edge">
<title>n8&#45;&gt;n2</title>
<path fill="none" stroke="black" d="M263.03,-344.38C248.01,-319.85 225.03,-282.32 209.67,-257.24"/>
<polygon fill="black" stroke="black" points="212.8,-255.64 204.59,-248.94 206.83,-259.29 212.8,-255.64"/>
<text text-anchor="middle" x="233.6" y="-303.2" font-family="Times,serif" font-size="14.00">2</text>
</g>
<!-- n9&#45;&gt;n2 -->
<g id="edge10" class="edge">
<title>n9&#45;&gt;n2</title>
<path fill="none" stroke="black" d="M427.54,-150.88C421.98,-148.04 415.94,-145.5 409.97,-144 407.06,-143.27 406.2,-143.74 403.22,-144 149.59,-166.07 249.98,-162.17 230.23,-176 220.46,-182.83 212.59,-193.18 206.69,-203.06"/>
<polygon fill="black" stroke="black" points="203.69,-201.25 201.97,-211.7 209.83,-204.6 203.69,-201.25"/>
<text text-anchor="middle" x="324.6" y="-155.2" font-family="Times,serif" font-size="14.00">1</text>
</g>
<!-- n9&#45;&gt;n3 -->
<g id="edge13" class="edge">
<title>n9&#45;&gt;n3</title>
<path fill="none" stroke="black" d="M436.39,-190.47C429.34,-200.81 420.19,-212.41 409.97,-221 405.32,-224.91 399.86,-228.35 394.41,-231.29"/>
<polygon fill="black" stroke="black" points="392.98,-228.1 385.53,-235.64 396.05,-234.39 392.98,-228.1"/>
<text text-anchor="middle" x="406.59" y="-228.2" font-family="Times,serif" font-size="14.00">1</text>
</g>
<!-- n10&#45;&gt;n1 -->
<g id="edge18" class="edge">
<title>n10&#45;&gt;n1</title>
<path fill="none" stroke="black" d="M427.54,-27.83C411.75,-14.25 389.68,0 366.6,0 105.11,0 105.11,0 105.11,0 80.9,0 70.72,-5.89 57.24,-26 23.76,-75.96 20.36,-260.17 20.38,-334.05"/>
<polygon fill="black" stroke="black" points="16.88,-333.82 20.4,-343.81 23.88,-333.8 16.88,-333.82"/>
<text text-anchor="middle" x="233.6" y="-3.2" font-family="Times,serif" font-size="14.00">1</text>
</g>
<!-- n10&#45;&gt;n3 -->
<g id="edge24" class="edge">
<title>n10&#45;&gt;n3</title>
<path fill="none" stroke="black" d="M433.22,-76.58C423.39,-90.91 411.54,-109.63 403.22,-127.5 390.22,-155.39 380.12,-189.12 373.85,-212.91"/>
<polygon fill="black" stroke="black" points="370.46,-212.02 371.38,-222.57 377.24,-213.75 370.46,-212.02"/>
<text text-anchor="middle" x="406.59" y="-131.2" font-family="Times,serif" font-size="14.00">1</text>
</g>
<!-- n11&#45;&gt;n2 -->
<g id="edge7" class="edge">
<title>n11&#45;&gt;n2</title>
<path fill="none" stroke="black" d="M254.53,-183.69C246.72,-179.6 238.04,-177.56 230.23,-181.5 220.66,-186.32 212.97,-194.96 207.15,-203.69"/>
<polygon fill="black" stroke="black" points="204.26,-201.69 202.15,-212.08 210.28,-205.28 204.26,-201.69"/>
<text text-anchor="middle" x="233.6" y="-185.2" font-family="Times,serif" font-size="14.00">1</text>
</g>
<!-- n11&#45;&gt;n3 -->
<g id="edge12" class="edge">
<title>n11&#45;&gt;n3</title>
<path fill="none" stroke="black" d="M303.64,-214.14C314.04,-219.07 326.34,-224.89 337.15,-230.01"/>
<polygon fill="black" stroke="black" points="335.44,-233.07 345.98,-234.19 338.44,-226.74 335.44,-233.07"/>
<text text-anchor="middle" x="324.6" y="-228.2" font-family="Times,serif" font-size="14.00">1</text>
</g>
<!-- n12&#45;&gt;n3 -->
<g id="edge3" class="edge">
<title>n12&#45;&gt;n3</title>
<path fill="none" stroke="black" d="M427.93,-306.31C419.65,-306.43 410.56,-305.25 403.22,-301 391.97,-294.49 383.66,-282.99 377.82,-271.94"/>
<polygon fill="black" stroke="black" points="381.05,-270.58 373.61,-263.03 374.72,-273.56 381.05,-270.58"/>
<text text-anchor="middle" x="406.59" y="-306.2" font-family="Times,serif" font-size="14.00">2</text>
</g>
</g>
</svg>
