<?xml version="1.0" encoding="UTF-8" standalone="no"?>
<!DOCTYPE svg PUBLIC "-//W3C//DTD SVG 1.1//EN"
 "http://www.w3.org/Graphics/SVG/1.1/DTD/svg11.dtd">
<!-- Generated by graphviz version 11.0.0 (20240428.1522)
 -->
<!-- Title: G Pages: 1 -->
<svg width="1353pt" height="717pt"
 viewBox="0.00 0.00 1352.61 716.50" xmlns="http://www.w3.org/2000/svg" xmlns:xlink="http://www.w3.org/1999/xlink">
<g id="graph0" class="graph" transform="scale(1 1) rotate(0) translate(4 712.5)">
<title>G</title>
<polygon fill="white" stroke="none" points="-4,4 -4,-712.5 1348.61,-712.5 1348.61,4 -4,4"/>
<!-- n1 -->
<g id="node1" class="node">
<title>n1</title>
<ellipse fill="#6c9ac3" stroke="#6c9ac3" cx="29.34" cy="-340.5" rx="29.34" ry="29.34"/>
<text text-anchor="middle" x="29.34" y="-335.45" font-family="Times,serif" font-size="14.00">S_a2</text>
</g>
<!-- n13 -->
<g id="node13" class="node">
<title>n13</title>
<polygon fill="#e28f41" stroke="#e28f41" points="163.19,-371.38 101.44,-371.38 101.44,-309.62 163.19,-309.62 163.19,-371.38"/>
<text text-anchor="middle" x="132.31" y="-335.45" font-family="Times,serif" font-size="14.00">β_a2_a2</text>
</g>
<!-- n1&#45;&gt;n13 -->
<g id="edge11" class="edge">
<title>n1&#45;&gt;n13</title>
<path fill="none" stroke="black" d="M59.01,-340.5C68.58,-340.5 79.45,-340.5 89.8,-340.5"/>
<polygon fill="black" stroke="black" points="89.65,-344 99.65,-340.5 89.65,-337 89.65,-344"/>
<text text-anchor="middle" x="80.06" y="-343.7" font-family="Times,serif" font-size="14.00">1</text>
</g>
<!-- n16 -->
<g id="node16" class="node">
<title>n16</title>
<polygon fill="#e28f41" stroke="#e28f41" points="764.3,-247.38 702.55,-247.38 702.55,-185.62 764.3,-185.62 764.3,-247.38"/>
<text text-anchor="middle" x="733.42" y="-211.45" font-family="Times,serif" font-size="14.00">β_a2_a3</text>
</g>
<!-- n1&#45;&gt;n16 -->
<g id="edge13" class="edge">
<title>n1&#45;&gt;n16</title>
<path fill="none" stroke="black" d="M34.03,-311.24C44.22,-236.87 75.73,-46.5 131.31,-46.5 131.31,-46.5 131.31,-46.5 287,-46.5 383.64,-46.5 410.87,-58.4 497.36,-101.5 549.96,-127.71 548.38,-157.54 601.11,-183.5 629.49,-197.47 664.32,-205.88 690.98,-210.7"/>
<polygon fill="black" stroke="black" points="690.29,-214.14 700.74,-212.36 691.47,-207.23 690.29,-214.14"/>
<text text-anchor="middle" x="390.5" y="-60.7" font-family="Times,serif" font-size="14.00">1</text>
</g>
<!-- n19 -->
<g id="node19" class="node">
<title>n19</title>
<polygon fill="#e28f41" stroke="#e28f41" points="1155.37,-642.38 1093.62,-642.38 1093.62,-580.62 1155.37,-580.62 1155.37,-642.38"/>
<text text-anchor="middle" x="1124.5" y="-606.45" font-family="Times,serif" font-size="14.00">β_a2_a1</text>
</g>
<!-- n1&#45;&gt;n19 -->
<g id="edge7" class="edge">
<title>n1&#45;&gt;n19</title>
<path fill="none" stroke="black" d="M33,-370.08C41.09,-451.07 68.78,-670.5 131.31,-670.5 131.31,-670.5 131.31,-670.5 1024.58,-670.5 1046.17,-670.5 1067.15,-660 1084.19,-647.86"/>
<polygon fill="black" stroke="black" points="1086.18,-650.75 1092.03,-641.91 1081.95,-645.17 1086.18,-650.75"/>
<text text-anchor="middle" x="579.73" y="-673.7" font-family="Times,serif" font-size="14.00">1</text>
</g>
<!-- n2 -->
<g id="node2" class="node">
<title>n2</title>
<ellipse fill="#6c9ac3" stroke="#6c9ac3" cx="235.28" cy="-300.5" rx="27.3" ry="27.3"/>
<text text-anchor="middle" x="235.28" y="-295.45" font-family="Times,serif" font-size="14.00">I_a2</text>
</g>
<!-- n2&#45;&gt;n13 -->
<g id="edge43" class="edge">
<title>n2&#45;&gt;n13</title>
<path fill="none" stroke="black" d="M209.44,-310.34C198.84,-314.54 186.18,-319.55 174.27,-324.28"/>
<polygon fill="black" stroke="black" points="173.02,-321 165.01,-327.94 175.6,-327.51 173.02,-321"/>
<text text-anchor="middle" x="184.56" y="-323.7" font-family="Times,serif" font-size="14.00">1</text>
</g>
<!-- n14 -->
<g id="node14" class="node">
<title>n14</title>
<polygon fill="#e28f41" stroke="#e28f41" points="369.12,-371.38 307.37,-371.38 307.37,-309.62 369.12,-309.62 369.12,-371.38"/>
<text text-anchor="middle" x="338.25" y="-335.45" font-family="Times,serif" font-size="14.00">β_a3_a2</text>
</g>
<!-- n2&#45;&gt;n14 -->
<g id="edge44" class="edge">
<title>n2&#45;&gt;n14</title>
<path fill="none" stroke="black" d="M261.24,-310.39C271.88,-314.6 284.58,-319.63 296.51,-324.36"/>
<polygon fill="black" stroke="black" points="295.19,-327.6 305.78,-328.03 297.77,-321.09 295.19,-327.6"/>
<text text-anchor="middle" x="286" y="-323.7" font-family="Times,serif" font-size="14.00">1</text>
</g>
<!-- n15 -->
<g id="node15" class="node">
<title>n15</title>
<polygon fill="#e28f41" stroke="#e28f41" points="764.3,-166.38 702.55,-166.38 702.55,-104.62 764.3,-104.62 764.3,-166.38"/>
<text text-anchor="middle" x="733.42" y="-130.45" font-family="Times,serif" font-size="14.00">β_a1_a2</text>
</g>
<!-- n2&#45;&gt;n15 -->
<g id="edge33" class="edge">
<title>n2&#45;&gt;n15</title>
<path fill="none" stroke="black" d="M261.57,-292.09C342,-265.34 592.44,-182.05 691.5,-149.11"/>
<polygon fill="black" stroke="black" points="692.44,-152.49 700.82,-146.01 690.23,-145.84 692.44,-152.49"/>
<text text-anchor="middle" x="493.98" y="-219.7" font-family="Times,serif" font-size="14.00">1</text>
</g>
<!-- n23 -->
<g id="node23" class="node">
<title>n23</title>
<polygon fill="#e28f41" stroke="#e28f41" points="359,-433.25 317.5,-433.25 317.5,-391.75 359,-391.75 359,-433.25"/>
<text text-anchor="middle" x="338.25" y="-407.45" font-family="Times,serif" font-size="14.00">γ_a2</text>
</g>
<!-- n2&#45;&gt;n23 -->
<g id="edge25" class="edge">
<title>n2&#45;&gt;n23</title>
<path fill="none" stroke="black" d="M253.97,-320.68C268.27,-336.93 288.98,-360.31 307.37,-380.5 308.19,-381.4 309.03,-382.31 309.87,-383.23"/>
<polygon fill="black" stroke="black" points="307.19,-385.48 316.54,-390.46 312.33,-380.74 307.19,-385.48"/>
<text text-anchor="middle" x="286" y="-361.7" font-family="Times,serif" font-size="14.00">1</text>
</g>
<!-- n3 -->
<g id="node3" class="node">
<title>n3</title>
<ellipse fill="#6c9ac3" stroke="#6c9ac3" cx="1228.49" cy="-552.5" rx="29.86" ry="29.86"/>
<text text-anchor="middle" x="1228.49" y="-547.45" font-family="Times,serif" font-size="14.00">E_a2</text>
</g>
<!-- n22 -->
<g id="node22" class="node">
<title>n22</title>
<polygon fill="#e28f41" stroke="#e28f41" points="1344.61,-43 1301.61,-43 1301.61,0 1344.61,0 1344.61,-43"/>
<text text-anchor="middle" x="1323.11" y="-16.45" font-family="Times,serif" font-size="14.00">σ_a2</text>
</g>
<!-- n3&#45;&gt;n22 -->
<g id="edge18" class="edge">
<title>n3&#45;&gt;n22</title>
<path fill="none" stroke="black" d="M1240.51,-524.95C1246.71,-508.51 1254.13,-487.08 1258.86,-467.5 1295.52,-315.55 1313.49,-129 1319.61,-54.5"/>
<polygon fill="black" stroke="black" points="1323.09,-54.89 1320.4,-44.64 1316.11,-54.33 1323.09,-54.89"/>
<text text-anchor="middle" x="1280.23" y="-373.7" font-family="Times,serif" font-size="14.00">1</text>
</g>
<!-- n4 -->
<g id="node4" class="node">
<title>n4</title>
<ellipse fill="#6c9ac3" stroke="#6c9ac3" cx="442.24" cy="-418.5" rx="30.37" ry="30.37"/>
<text text-anchor="middle" x="442.24" y="-413.45" font-family="Times,serif" font-size="14.00">R_a2</text>
</g>
<!-- n5 -->
<g id="node5" class="node">
<title>n5</title>
<ellipse fill="#6c9ac3" stroke="#6c9ac3" cx="235.28" cy="-464.5" rx="29.34" ry="29.34"/>
<text text-anchor="middle" x="235.28" y="-459.45" font-family="Times,serif" font-size="14.00">S_a3</text>
</g>
<!-- n5&#45;&gt;n14 -->
<g id="edge19" class="edge">
<title>n5&#45;&gt;n14</title>
<path fill="none" stroke="black" d="M254.57,-442.04C268.53,-424.9 288.12,-400.83 304.74,-380.43"/>
<polygon fill="black" stroke="black" points="307.33,-382.79 310.93,-372.82 301.9,-378.37 307.33,-382.79"/>
<text text-anchor="middle" x="286" y="-408.7" font-family="Times,serif" font-size="14.00">1</text>
</g>
<!-- n17 -->
<g id="node17" class="node">
<title>n17</title>
<polygon fill="#e28f41" stroke="#e28f41" points="764.3,-501.38 702.55,-501.38 702.55,-439.62 764.3,-439.62 764.3,-501.38"/>
<text text-anchor="middle" x="733.42" y="-465.45" font-family="Times,serif" font-size="14.00">β_a3_a3</text>
</g>
<!-- n5&#45;&gt;n17 -->
<g id="edge31" class="edge">
<title>n5&#45;&gt;n17</title>
<path fill="none" stroke="black" d="M261.04,-479.52C280.91,-490.14 309.9,-502.5 337.25,-502.5 337.25,-502.5 337.25,-502.5 580.73,-502.5 618.8,-502.5 661.1,-492.73 691.34,-483.99"/>
<polygon fill="black" stroke="black" points="692.28,-487.36 700.86,-481.15 690.28,-480.66 692.28,-487.36"/>
<text text-anchor="middle" x="493.98" y="-505.7" font-family="Times,serif" font-size="14.00">1</text>
</g>
<!-- n20 -->
<g id="node20" class="node">
<title>n20</title>
<polygon fill="#e28f41" stroke="#e28f41" points="1155.37,-557.38 1093.62,-557.38 1093.62,-495.62 1155.37,-495.62 1155.37,-557.38"/>
<text text-anchor="middle" x="1124.5" y="-521.45" font-family="Times,serif" font-size="14.00">β_a3_a1</text>
</g>
<!-- n5&#45;&gt;n20 -->
<g id="edge21" class="edge">
<title>n5&#45;&gt;n20</title>
<path fill="none" stroke="black" d="M263.09,-474.52C337.96,-502.33 545.95,-578.5 578.73,-578.5 578.73,-578.5 578.73,-578.5 975.91,-578.5 1013.77,-578.5 1054.16,-563.09 1083.09,-549.04"/>
<polygon fill="black" stroke="black" points="1084.49,-552.26 1091.86,-544.64 1081.35,-546 1084.49,-552.26"/>
<text text-anchor="middle" x="681.17" y="-581.7" font-family="Times,serif" font-size="14.00">1</text>
</g>
<!-- n6 -->
<g id="node6" class="node">
<title>n6</title>
<ellipse fill="#6c9ac3" stroke="#6c9ac3" cx="630.45" cy="-338.5" rx="27.3" ry="27.3"/>
<text text-anchor="middle" x="630.45" y="-333.45" font-family="Times,serif" font-size="14.00">I_a3</text>
</g>
<!-- n6&#45;&gt;n16 -->
<g id="edge26" class="edge">
<title>n6&#45;&gt;n16</title>
<path fill="none" stroke="black" d="M646.69,-316.26C655.44,-303.84 666.84,-288.25 677.8,-275 683.03,-268.67 688.76,-262.14 694.48,-255.85"/>
<polygon fill="black" stroke="black" points="696.99,-258.28 701.2,-248.56 691.85,-253.54 696.99,-258.28"/>
<text text-anchor="middle" x="681.17" y="-277.7" font-family="Times,serif" font-size="14.00">1</text>
</g>
<!-- n6&#45;&gt;n17 -->
<g id="edge35" class="edge">
<title>n6&#45;&gt;n17</title>
<path fill="none" stroke="black" d="M641.69,-363.7C649.83,-381.98 662.41,-406.69 677.8,-425.5 682.5,-431.25 688.03,-436.8 693.73,-441.91"/>
<polygon fill="black" stroke="black" points="691.1,-444.27 700.98,-448.09 695.64,-438.94 691.1,-444.27"/>
<text text-anchor="middle" x="681.17" y="-435.7" font-family="Times,serif" font-size="14.00">1</text>
</g>
<!-- n18 -->
<g id="node18" class="node">
<title>n18</title>
<polygon fill="#e28f41" stroke="#e28f41" points="764.3,-329.38 702.55,-329.38 702.55,-267.62 764.3,-267.62 764.3,-329.38"/>
<text text-anchor="middle" x="733.42" y="-293.45" font-family="Times,serif" font-size="14.00">β_a1_a3</text>
</g>
<!-- n6&#45;&gt;n18 -->
<g id="edge36" class="edge">
<title>n6&#45;&gt;n18</title>
<path fill="none" stroke="black" d="M648.74,-318.04C656.69,-310.19 666.79,-302.13 677.8,-298 681.97,-296.43 686.46,-295.46 691,-294.91"/>
<polygon fill="black" stroke="black" points="690.93,-298.42 700.74,-294.42 690.57,-291.43 690.93,-298.42"/>
<text text-anchor="middle" x="681.17" y="-300.7" font-family="Times,serif" font-size="14.00">1</text>
</g>
<!-- n25 -->
<g id="node25" class="node">
<title>n25</title>
<polygon fill="#e28f41" stroke="#e28f41" points="754.17,-399.25 712.67,-399.25 712.67,-357.75 754.17,-357.75 754.17,-399.25"/>
<text text-anchor="middle" x="733.42" y="-373.45" font-family="Times,serif" font-size="14.00">γ_a3</text>
</g>
<!-- n6&#45;&gt;n25 -->
<g id="edge45" class="edge">
<title>n6&#45;&gt;n25</title>
<path fill="none" stroke="black" d="M656.41,-348.39C670.19,-353.84 687.4,-360.66 701.96,-366.43"/>
<polygon fill="black" stroke="black" points="700.49,-369.61 711.07,-370.04 703.07,-363.11 700.49,-369.61"/>
<text text-anchor="middle" x="681.17" y="-361.7" font-family="Times,serif" font-size="14.00">1</text>
</g>
<!-- n7 -->
<g id="node7" class="node">
<title>n7</title>
<ellipse fill="#6c9ac3" stroke="#6c9ac3" cx="442.24" cy="-340.5" rx="29.86" ry="29.86"/>
<text text-anchor="middle" x="442.24" y="-335.45" font-family="Times,serif" font-size="14.00">E_a3</text>
</g>
<!-- n24 -->
<g id="node24" class="node">
<title>n24</title>
<polygon fill="#e28f41" stroke="#e28f41" points="558.36,-361 515.36,-361 515.36,-318 558.36,-318 558.36,-361"/>
<text text-anchor="middle" x="536.86" y="-334.45" font-family="Times,serif" font-size="14.00">σ_a3</text>
</g>
<!-- n7&#45;&gt;n24 -->
<g id="edge4" class="edge">
<title>n7&#45;&gt;n24</title>
<path fill="none" stroke="black" d="M472.55,-340.18C482.45,-340.08 493.56,-339.96 503.67,-339.85"/>
<polygon fill="black" stroke="black" points="503.48,-343.35 513.45,-339.74 503.41,-336.35 503.48,-343.35"/>
<text text-anchor="middle" x="493.98" y="-342.7" font-family="Times,serif" font-size="14.00">1</text>
</g>
<!-- n8 -->
<g id="node8" class="node">
<title>n8</title>
<ellipse fill="#6c9ac3" stroke="#6c9ac3" cx="837.41" cy="-378.5" rx="30.37" ry="30.37"/>
<text text-anchor="middle" x="837.41" y="-373.45" font-family="Times,serif" font-size="14.00">R_a3</text>
</g>
<!-- n9 -->
<g id="node9" class="node">
<title>n9</title>
<ellipse fill="#6c9ac3" stroke="#6c9ac3" cx="630.45" cy="-63.5" rx="29.34" ry="29.34"/>
<text text-anchor="middle" x="630.45" y="-58.45" font-family="Times,serif" font-size="14.00">S_a1</text>
</g>
<!-- n9&#45;&gt;n15 -->
<g id="edge40" class="edge">
<title>n9&#45;&gt;n15</title>
<path fill="none" stroke="black" d="M660.02,-59.54C668.35,-59.61 677.19,-60.97 684.55,-65 696.71,-71.66 706.39,-82.9 713.76,-94.47"/>
<polygon fill="black" stroke="black" points="710.6,-95.99 718.66,-102.87 716.65,-92.46 710.6,-95.99"/>
<text text-anchor="middle" x="681.17" y="-68.7" font-family="Times,serif" font-size="14.00">1</text>
</g>
<!-- n9&#45;&gt;n18 -->
<g id="edge10" class="edge">
<title>n9&#45;&gt;n18</title>
<path fill="none" stroke="black" d="M643.07,-90.38C654.35,-116.95 671.63,-158.91 684.55,-196 693.77,-222.49 690.25,-231.28 702.55,-256.5 702.72,-256.85 702.89,-257.19 703.06,-257.54"/>
<polygon fill="black" stroke="black" points="700.01,-259.26 707.99,-266.23 706.1,-255.81 700.01,-259.26"/>
<text text-anchor="middle" x="681.17" y="-199.7" font-family="Times,serif" font-size="14.00">1</text>
</g>
<!-- n21 -->
<g id="node21" class="node">
<title>n21</title>
<polygon fill="#e28f41" stroke="#e28f41" points="1155.37,-344.38 1093.62,-344.38 1093.62,-282.62 1155.37,-282.62 1155.37,-344.38"/>
<text text-anchor="middle" x="1124.5" y="-308.45" font-family="Times,serif" font-size="14.00">β_a1_a1</text>
</g>
<!-- n9&#45;&gt;n21 -->
<g id="edge23" class="edge">
<title>n9&#45;&gt;n21</title>
<path fill="none" stroke="black" d="M659.48,-57.63C667.63,-56.79 676.5,-56.72 684.55,-58.5 722.7,-66.92 731.62,-74.08 764.3,-95.5 825.87,-135.87 814.53,-205.5 888.16,-205.5 888.16,-205.5 888.16,-205.5 1024.58,-205.5 1062.27,-205.5 1089.48,-241.71 1105.71,-272.2"/>
<polygon fill="black" stroke="black" points="1102.47,-273.56 1110.11,-280.91 1108.72,-270.41 1102.47,-273.56"/>
<text text-anchor="middle" x="889.16" y="-208.7" font-family="Times,serif" font-size="14.00">1</text>
</g>
<!-- n10 -->
<g id="node10" class="node">
<title>n10</title>
<ellipse fill="#6c9ac3" stroke="#6c9ac3" cx="1023.58" cy="-449.5" rx="27.3" ry="27.3"/>
<text text-anchor="middle" x="1023.58" y="-444.45" font-family="Times,serif" font-size="14.00">I_a1</text>
</g>
<!-- n10&#45;&gt;n19 -->
<g id="edge41" class="edge">
<title>n10&#45;&gt;n19</title>
<path fill="none" stroke="black" d="M1032.43,-475.69C1039.83,-498.02 1052.26,-530.38 1068.87,-555.5 1073.67,-562.75 1079.48,-569.87 1085.5,-576.48"/>
<polygon fill="black" stroke="black" points="1082.7,-578.62 1092.13,-583.45 1087.77,-573.79 1082.7,-578.62"/>
<text text-anchor="middle" x="1072.25" y="-566.7" font-family="Times,serif" font-size="14.00">1</text>
</g>
<!-- n10&#45;&gt;n20 -->
<g id="edge47" class="edge">
<title>n10&#45;&gt;n20</title>
<path fill="none" stroke="black" d="M1050.6,-454.72C1059.08,-457.23 1068.2,-460.85 1075.62,-466 1083.61,-471.55 1090.92,-478.81 1097.29,-486.38"/>
<polygon fill="black" stroke="black" points="1094.45,-488.43 1103.38,-494.12 1099.95,-484.1 1094.45,-488.43"/>
<text text-anchor="middle" x="1072.25" y="-468.7" font-family="Times,serif" font-size="14.00">1</text>
</g>
<!-- n10&#45;&gt;n21 -->
<g id="edge17" class="edge">
<title>n10&#45;&gt;n21</title>
<path fill="none" stroke="black" d="M1040.47,-427.65C1054.89,-407.83 1076.51,-378.11 1094.07,-353.96"/>
<polygon fill="black" stroke="black" points="1096.88,-356.04 1099.93,-345.9 1091.22,-351.93 1096.88,-356.04"/>
<text text-anchor="middle" x="1072.25" y="-388.7" font-family="Times,serif" font-size="14.00">1</text>
</g>
<!-- n27 -->
<g id="node27" class="node">
<title>n27</title>
<polygon fill="#e28f41" stroke="#e28f41" points="1145.25,-449.25 1103.75,-449.25 1103.75,-407.75 1145.25,-407.75 1145.25,-449.25"/>
<text text-anchor="middle" x="1124.5" y="-423.45" font-family="Times,serif" font-size="14.00">γ_a1</text>
</g>
<!-- n10&#45;&gt;n27 -->
<g id="edge5" class="edge">
<title>n10&#45;&gt;n27</title>
<path fill="none" stroke="black" d="M1048.37,-437.02C1054.85,-434.18 1061.99,-431.55 1068.87,-430 1076.22,-428.35 1084.27,-427.58 1091.87,-427.3"/>
<polygon fill="black" stroke="black" points="1091.81,-430.8 1101.78,-427.22 1091.75,-423.8 1091.81,-430.8"/>
<text text-anchor="middle" x="1072.25" y="-432.7" font-family="Times,serif" font-size="14.00">1</text>
</g>
<!-- n11 -->
<g id="node11" class="node">
<title>n11</title>
<ellipse fill="#6c9ac3" stroke="#6c9ac3" cx="837.41" cy="-299.5" rx="29.86" ry="29.86"/>
<text text-anchor="middle" x="837.41" y="-294.45" font-family="Times,serif" font-size="14.00">E_a1</text>
</g>
<!-- n26 -->
<g id="node26" class="node">
<title>n26</title>
<polygon fill="#e28f41" stroke="#e28f41" points="953.53,-403 910.53,-403 910.53,-360 953.53,-360 953.53,-403"/>
<text text-anchor="middle" x="932.03" y="-376.45" font-family="Times,serif" font-size="14.00">σ_a1</text>
</g>
<!-- n11&#45;&gt;n26 -->
<g id="edge48" class="edge">
<title>n11&#45;&gt;n26</title>
<path fill="none" stroke="black" d="M860.36,-318.93C872.74,-329.89 888.36,-343.72 901.76,-355.58"/>
<polygon fill="black" stroke="black" points="899.25,-358.04 909.06,-362.05 903.89,-352.8 899.25,-358.04"/>
<text text-anchor="middle" x="889.16" y="-347.7" font-family="Times,serif" font-size="14.00">1</text>
</g>
<!-- n12 -->
<g id="node12" class="node">
<title>n12</title>
<ellipse fill="#6c9ac3" stroke="#6c9ac3" cx="1228.49" cy="-428.5" rx="30.37" ry="30.37"/>
<text text-anchor="middle" x="1228.49" y="-423.45" font-family="Times,serif" font-size="14.00">R_a1</text>
</g>
<!-- n13&#45;&gt;n2 -->
<g id="edge42" class="edge">
<title>n13&#45;&gt;n2</title>
<path fill="none" stroke="black" d="M163.43,-311.62C168.97,-307.72 174.98,-304.28 181.19,-302 185.99,-300.23 191.21,-299.16 196.43,-298.57"/>
<polygon fill="black" stroke="black" points="196.42,-302.07 206.21,-298.02 196.03,-295.08 196.42,-302.07"/>
<text text-anchor="middle" x="184.56" y="-304.7" font-family="Times,serif" font-size="14.00">1</text>
</g>
<!-- n13&#45;&gt;n3 -->
<g id="edge30" class="edge">
<title>n13&#45;&gt;n3</title>
<path fill="none" stroke="black" d="M137.35,-371.75C147.94,-447.08 179.57,-632.5 234.28,-632.5 234.28,-632.5 234.28,-632.5 682.17,-632.5 779.75,-632.5 790.57,-708.5 888.16,-708.5 888.16,-708.5 888.16,-708.5 1125.5,-708.5 1180.8,-708.5 1207.72,-638.97 1219.51,-592.75"/>
<polygon fill="black" stroke="black" points="1222.84,-593.85 1221.77,-583.31 1216.03,-592.22 1222.84,-593.85"/>
<text text-anchor="middle" x="681.17" y="-635.7" font-family="Times,serif" font-size="14.00">1</text>
</g>
<!-- n14&#45;&gt;n2 -->
<g id="edge24" class="edge">
<title>n14&#45;&gt;n2</title>
<path fill="none" stroke="black" d="M307.13,-311.62C301.59,-307.72 295.58,-304.28 289.37,-302 284.57,-300.23 279.36,-299.16 274.13,-298.57"/>
<polygon fill="black" stroke="black" points="274.53,-295.08 264.35,-298.02 274.14,-302.07 274.53,-295.08"/>
<text text-anchor="middle" x="286" y="-304.7" font-family="Times,serif" font-size="14.00">1</text>
</g>
<!-- n14&#45;&gt;n7 -->
<g id="edge37" class="edge">
<title>n14&#45;&gt;n7</title>
<path fill="none" stroke="black" d="M369.57,-340.5C379.3,-340.5 390.24,-340.5 400.58,-340.5"/>
<polygon fill="black" stroke="black" points="400.4,-344 410.4,-340.5 400.4,-337 400.4,-344"/>
<text text-anchor="middle" x="390.5" y="-343.7" font-family="Times,serif" font-size="14.00">1</text>
</g>
<!-- n15&#45;&gt;n2 -->
<g id="edge28" class="edge">
<title>n15&#45;&gt;n2</title>
<path fill="none" stroke="black" d="M702.27,-131.39C671.7,-127.58 623.02,-122.5 580.73,-122.5 337.25,-122.5 337.25,-122.5 337.25,-122.5 310.36,-122.5 300.18,-128.13 282.62,-148.5 255.16,-180.38 243.97,-228.22 239.41,-261.69"/>
<polygon fill="black" stroke="black" points="235.97,-261.03 238.24,-271.38 242.92,-261.87 235.97,-261.03"/>
<text text-anchor="middle" x="493.98" y="-125.7" font-family="Times,serif" font-size="14.00">1</text>
</g>
<!-- n15&#45;&gt;n11 -->
<g id="edge1" class="edge">
<title>n15&#45;&gt;n11</title>
<path fill="none" stroke="black" d="M757.58,-166.61C759.9,-169.92 762.17,-173.26 764.3,-176.5 783.13,-205.25 802.76,-239.01 816.77,-263.87"/>
<polygon fill="black" stroke="black" points="813.54,-265.27 821.48,-272.29 819.65,-261.85 813.54,-265.27"/>
<text text-anchor="middle" x="785.67" y="-216.7" font-family="Times,serif" font-size="14.00">1</text>
</g>
<!-- n16&#45;&gt;n3 -->
<g id="edge46" class="edge">
<title>n16&#45;&gt;n3</title>
<path fill="none" stroke="black" d="M764.78,-193.15C784.18,-180.53 810.48,-167.5 836.41,-167.5 836.41,-167.5 836.41,-167.5 1125.5,-167.5 1174.45,-167.5 1143.46,-226.02 1155.37,-273.5 1176.86,-359.14 1174.17,-382.52 1198.12,-467.5 1202.48,-482.95 1208.07,-499.69 1213.21,-514.21"/>
<polygon fill="black" stroke="black" points="1209.83,-515.16 1216.5,-523.39 1216.42,-512.79 1209.83,-515.16"/>
<text text-anchor="middle" x="974.91" y="-170.7" font-family="Times,serif" font-size="14.00">1</text>
</g>
<!-- n16&#45;&gt;n6 -->
<g id="edge14" class="edge">
<title>n16&#45;&gt;n6</title>
<path fill="none" stroke="black" d="M702.3,-212.63C693.7,-212.98 684.78,-214.9 677.8,-220 652.44,-238.53 640.95,-273.03 635.75,-300.05"/>
<polygon fill="black" stroke="black" points="632.35,-299.16 634.14,-309.61 639.25,-300.33 632.35,-299.16"/>
<text text-anchor="middle" x="681.17" y="-223.7" font-family="Times,serif" font-size="14.00">1</text>
</g>
<!-- n17&#45;&gt;n6 -->
<g id="edge29" class="edge">
<title>n17&#45;&gt;n6</title>
<path fill="none" stroke="black" d="M708.44,-439.14C692.24,-417.97 670.96,-390.16 654.89,-369.13"/>
<polygon fill="black" stroke="black" points="657.68,-367.02 648.82,-361.2 652.12,-371.27 657.68,-367.02"/>
<text text-anchor="middle" x="681.17" y="-407.7" font-family="Times,serif" font-size="14.00">1</text>
</g>
<!-- n17&#45;&gt;n7 -->
<g id="edge34" class="edge">
<title>n17&#45;&gt;n7</title>
<path fill="none" stroke="black" d="M702.09,-461.93C694.11,-459.44 685.56,-456.56 677.8,-453.5 605.42,-424.98 524.36,-383.74 478.99,-359.77"/>
<polygon fill="black" stroke="black" points="480.87,-356.81 470.4,-355.21 477.59,-362.99 480.87,-356.81"/>
<text text-anchor="middle" x="579.73" y="-414.7" font-family="Times,serif" font-size="14.00">1</text>
</g>
<!-- n18&#45;&gt;n6 -->
<g id="edge12" class="edge">
<title>n18&#45;&gt;n6</title>
<path fill="none" stroke="black" d="M702.36,-310.41C691.26,-314.81 678.58,-319.83 667.04,-324.4"/>
<polygon fill="black" stroke="black" points="665.83,-321.12 657.82,-328.05 668.4,-327.63 665.83,-321.12"/>
<text text-anchor="middle" x="681.17" y="-322.7" font-family="Times,serif" font-size="14.00">1</text>
</g>
<!-- n18&#45;&gt;n11 -->
<g id="edge22" class="edge">
<title>n18&#45;&gt;n11</title>
<path fill="none" stroke="black" d="M764.75,-298.8C774.47,-298.89 785.41,-299 795.75,-299.1"/>
<polygon fill="black" stroke="black" points="795.53,-302.6 805.57,-299.2 795.6,-295.6 795.53,-302.6"/>
<text text-anchor="middle" x="785.67" y="-301.7" font-family="Times,serif" font-size="14.00">1</text>
</g>
<!-- n19&#45;&gt;n3 -->
<g id="edge2" class="edge">
<title>n19&#45;&gt;n3</title>
<path fill="none" stroke="black" d="M1155.82,-593.96C1167.38,-587.27 1180.65,-579.6 1192.6,-572.68"/>
<polygon fill="black" stroke="black" points="1194.05,-575.89 1200.96,-567.85 1190.55,-569.83 1194.05,-575.89"/>
<text text-anchor="middle" x="1176.75" y="-586.7" font-family="Times,serif" font-size="14.00">1</text>
</g>
<!-- n19&#45;&gt;n10 -->
<g id="edge9" class="edge">
<title>n19&#45;&gt;n10</title>
<path fill="none" stroke="black" d="M1102.39,-580.17C1099.41,-575.61 1096.41,-570.95 1093.62,-566.5 1076.17,-538.64 1057.26,-506.44 1043.65,-482.88"/>
<polygon fill="black" stroke="black" points="1046.75,-481.26 1038.73,-474.34 1040.69,-484.75 1046.75,-481.26"/>
<text text-anchor="middle" x="1072.25" y="-537.7" font-family="Times,serif" font-size="14.00">1</text>
</g>
<!-- n20&#45;&gt;n7 -->
<g id="edge16" class="edge">
<title>n20&#45;&gt;n7</title>
<path fill="none" stroke="black" d="M1093.35,-533.01C1073.83,-536.66 1047.82,-540.5 1024.58,-540.5 535.86,-540.5 535.86,-540.5 535.86,-540.5 514.38,-540.5 503.91,-540.37 490.61,-523.5 450.66,-472.86 496.83,-439.28 472.61,-379.5 471.59,-376.98 470.36,-374.48 469,-372.04"/>
<polygon fill="black" stroke="black" points="471.96,-370.17 463.61,-363.65 466.07,-373.95 471.96,-370.17"/>
<text text-anchor="middle" x="785.67" y="-543.7" font-family="Times,serif" font-size="14.00">1</text>
</g>
<!-- n20&#45;&gt;n10 -->
<g id="edge8" class="edge">
<title>n20&#45;&gt;n10</title>
<path fill="none" stroke="black" d="M1093.19,-504.83C1085.2,-498.98 1076.65,-492.58 1068.87,-486.5 1063.94,-482.64 1058.78,-478.46 1053.79,-474.35"/>
<polygon fill="black" stroke="black" points="1056.17,-471.78 1046.25,-468.06 1051.69,-477.15 1056.17,-471.78"/>
<text text-anchor="middle" x="1072.25" y="-493.7" font-family="Times,serif" font-size="14.00">1</text>
</g>
<!-- n21&#45;&gt;n10 -->
<g id="edge15" class="edge">
<title>n21&#45;&gt;n10</title>
<path fill="none" stroke="black" d="M1093.2,-327.02C1084.5,-332.02 1075.56,-338.36 1068.87,-346 1052.39,-364.82 1041.32,-390.69 1034.36,-411.86"/>
<polygon fill="black" stroke="black" points="1031.05,-410.72 1031.45,-421.31 1037.74,-412.78 1031.05,-410.72"/>
<text text-anchor="middle" x="1072.25" y="-348.7" font-family="Times,serif" font-size="14.00">1</text>
</g>
<!-- n21&#45;&gt;n11 -->
<g id="edge38" class="edge">
<title>n21&#45;&gt;n11</title>
<path fill="none" stroke="black" d="M1093.3,-312.02C1041.73,-309.48 936.67,-304.32 878.83,-301.48"/>
<polygon fill="black" stroke="black" points="879.25,-298 869.09,-301.01 878.91,-304.99 879.25,-298"/>
<text text-anchor="middle" x="974.91" y="-308.7" font-family="Times,serif" font-size="14.00">1</text>
</g>
<!-- n22&#45;&gt;n2 -->
<g id="edge20" class="edge">
<title>n22&#45;&gt;n2</title>
<path fill="none" stroke="black" d="M1301.32,-15.81C1282.66,-11.22 1254.46,-5.5 1229.49,-5.5 732.42,-5.5 732.42,-5.5 732.42,-5.5 536.95,-5.5 479.56,-25.97 307.37,-118.5 256.77,-145.7 242,-216.57 237.81,-261.42"/>
<polygon fill="black" stroke="black" points="234.33,-261.02 237.04,-271.26 241.31,-261.57 234.33,-261.02"/>
<text text-anchor="middle" x="785.67" y="-8.7" font-family="Times,serif" font-size="14.00">1</text>
</g>
<!-- n23&#45;&gt;n4 -->
<g id="edge39" class="edge">
<title>n23&#45;&gt;n4</title>
<path fill="none" stroke="black" d="M359.4,-413.69C371.01,-414.37 386.04,-415.25 400.04,-416.08"/>
<polygon fill="black" stroke="black" points="399.77,-419.57 409.96,-416.66 400.18,-412.58 399.77,-419.57"/>
<text text-anchor="middle" x="390.5" y="-418.7" font-family="Times,serif" font-size="14.00">1</text>
</g>
<!-- n24&#45;&gt;n6 -->
<g id="edge27" class="edge">
<title>n24&#45;&gt;n6</title>
<path fill="none" stroke="black" d="M558.64,-339.27C568.36,-339.17 580.24,-339.04 591.47,-338.91"/>
<polygon fill="black" stroke="black" points="591.35,-342.42 601.32,-338.81 591.28,-335.42 591.35,-342.42"/>
<text text-anchor="middle" x="579.73" y="-341.7" font-family="Times,serif" font-size="14.00">1</text>
</g>
<!-- n25&#45;&gt;n8 -->
<g id="edge3" class="edge">
<title>n25&#45;&gt;n8</title>
<path fill="none" stroke="black" d="M754.57,-378.5C766.18,-378.5 781.21,-378.5 795.21,-378.5"/>
<polygon fill="black" stroke="black" points="795.13,-382 805.13,-378.5 795.13,-375 795.13,-382"/>
<text text-anchor="middle" x="785.67" y="-381.7" font-family="Times,serif" font-size="14.00">1</text>
</g>
<!-- n26&#45;&gt;n10 -->
<g id="edge6" class="edge">
<title>n26&#45;&gt;n10</title>
<path fill="none" stroke="black" d="M953.8,-397.27C965.27,-405.99 979.74,-416.97 992.43,-426.61"/>
<polygon fill="black" stroke="black" points="990.01,-429.17 1000.09,-432.43 994.25,-423.59 990.01,-429.17"/>
<text text-anchor="middle" x="974.91" y="-418.7" font-family="Times,serif" font-size="14.00">1</text>
</g>
<!-- n27&#45;&gt;n12 -->
<g id="edge32" class="edge">
<title>n27&#45;&gt;n12</title>
<path fill="none" stroke="black" d="M1145.65,-428.5C1157.26,-428.5 1172.29,-428.5 1186.29,-428.5"/>
<polygon fill="black" stroke="black" points="1186.2,-432 1196.2,-428.5 1186.2,-425 1186.2,-432"/>
<text text-anchor="middle" x="1176.75" y="-431.7" font-family="Times,serif" font-size="14.00">1</text>
</g>
</g>
</svg>
