<?xml version="1.0" encoding="UTF-8" standalone="no"?>
<!DOCTYPE svg PUBLIC "-//W3C//DTD SVG 1.1//EN"
 "http://www.w3.org/Graphics/SVG/1.1/DTD/svg11.dtd">
<!-- Generated by graphviz version 11.0.0 (20240428.1522)
 -->
<!-- Title: G Pages: 1 -->
<svg width="632pt" height="205pt"
 viewBox="0.00 0.00 632.25 205.25" xmlns="http://www.w3.org/2000/svg" xmlns:xlink="http://www.w3.org/1999/xlink">
<g id="graph0" class="graph" transform="scale(1 1) rotate(0) translate(4 201.25)">
<title>G</title>
<polygon fill="white" stroke="none" points="-4,4 -4,-201.25 628.25,-201.25 628.25,4 -4,4"/>
<!-- n1 -->
<g id="node1" class="node">
<title>n1</title>
<ellipse fill="#6c9ac3" stroke="#6c9ac3" cx="18" cy="-94.62" rx="18" ry="18"/>
<text text-anchor="middle" x="18" y="-89.58" font-family="Times,serif" font-size="14.00">S</text>
</g>
<!-- n5 -->
<g id="node5" class="node">
<title>n5</title>
<polygon fill="#e28f41" stroke="#e28f41" points="119.38,-152.62 83.38,-152.62 83.38,-116.62 119.38,-116.62 119.38,-152.62"/>
<text text-anchor="middle" x="101.38" y="-129.57" font-family="Times,serif" font-size="14.00">β</text>
</g>
<!-- n1&#45;&gt;n5 -->
<g id="edge8" class="edge">
<title>n1&#45;&gt;n5</title>
<path fill="none" stroke="black" d="M34.69,-102.34C45.51,-107.66 60.19,-114.87 72.93,-121.13"/>
<polygon fill="black" stroke="black" points="71.17,-124.17 81.68,-125.44 74.25,-117.89 71.17,-124.17"/>
<text text-anchor="middle" x="57.38" y="-117.83" font-family="Times,serif" font-size="14.00">1</text>
</g>
<!-- n8 -->
<g id="node8" class="node">
<title>n8</title>
<polygon fill="#e28f41" stroke="#e28f41" points="124,-88.25 78.75,-88.25 78.75,-43 124,-43 124,-88.25"/>
<text text-anchor="middle" x="101.38" y="-60.58" font-family="Times,serif" font-size="14.00">strata</text>
</g>
<!-- n1&#45;&gt;n8 -->
<g id="edge15" class="edge">
<title>n1&#45;&gt;n8</title>
<path fill="none" stroke="black" d="M35.47,-88.76C44.73,-85.45 56.63,-81.21 67.71,-77.27"/>
<polygon fill="black" stroke="black" points="68.71,-80.63 76.95,-73.97 66.36,-74.03 68.71,-80.63"/>
<text text-anchor="middle" x="57.38" y="-84.83" font-family="Times,serif" font-size="14.00">1</text>
</g>
<!-- n2 -->
<g id="node2" class="node">
<title>n2</title>
<ellipse fill="#6c9ac3" stroke="#6c9ac3" cx="351.5" cy="-134.62" rx="18" ry="18"/>
<text text-anchor="middle" x="351.5" y="-129.57" font-family="Times,serif" font-size="14.00">I</text>
</g>
<!-- n2&#45;&gt;n5 -->
<g id="edge1" class="edge">
<title>n2&#45;&gt;n5</title>
<path fill="none" stroke="black" d="M333.07,-134.62C290.92,-134.62 183.09,-134.62 131.17,-134.62"/>
<polygon fill="black" stroke="black" points="131.34,-131.13 121.34,-134.63 131.34,-138.13 131.34,-131.13"/>
<text text-anchor="middle" x="224.12" y="-137.82" font-family="Times,serif" font-size="14.00">1</text>
</g>
<!-- n7 -->
<g id="node7" class="node">
<title>n7</title>
<polygon fill="#e28f41" stroke="#e28f41" points="452.88,-192.62 416.88,-192.62 416.88,-156.62 452.88,-156.62 452.88,-192.62"/>
<text text-anchor="middle" x="434.88" y="-169.57" font-family="Times,serif" font-size="14.00">γ</text>
</g>
<!-- n2&#45;&gt;n7 -->
<g id="edge7" class="edge">
<title>n2&#45;&gt;n7</title>
<path fill="none" stroke="black" d="M368.19,-142.34C379.01,-147.66 393.69,-154.87 406.43,-161.13"/>
<polygon fill="black" stroke="black" points="404.67,-164.17 415.18,-165.44 407.75,-157.89 404.67,-164.17"/>
<text text-anchor="middle" x="390.88" y="-157.82" font-family="Times,serif" font-size="14.00">1</text>
</g>
<!-- n9 -->
<g id="node9" class="node">
<title>n9</title>
<polygon fill="#e28f41" stroke="#e28f41" points="457.5,-128.25 412.25,-128.25 412.25,-83 457.5,-83 457.5,-128.25"/>
<text text-anchor="middle" x="434.88" y="-100.58" font-family="Times,serif" font-size="14.00">strata</text>
</g>
<!-- n2&#45;&gt;n9 -->
<g id="edge16" class="edge">
<title>n2&#45;&gt;n9</title>
<path fill="none" stroke="black" d="M368.97,-128.76C378.23,-125.45 390.13,-121.21 401.21,-117.27"/>
<polygon fill="black" stroke="black" points="402.21,-120.63 410.45,-113.97 399.86,-114.03 402.21,-120.63"/>
<text text-anchor="middle" x="390.88" y="-124.83" font-family="Times,serif" font-size="14.00">1</text>
</g>
<!-- n3 -->
<g id="node3" class="node">
<title>n3</title>
<ellipse fill="#6c9ac3" stroke="#6c9ac3" cx="184.75" cy="-70.62" rx="18" ry="18"/>
<text text-anchor="middle" x="184.75" y="-65.58" font-family="Times,serif" font-size="14.00">E</text>
</g>
<!-- n6 -->
<g id="node6" class="node">
<title>n6</title>
<polygon fill="#e28f41" stroke="#e28f41" points="286.12,-106.62 250.12,-106.62 250.12,-70.62 286.12,-70.62 286.12,-106.62"/>
<text text-anchor="middle" x="268.12" y="-83.58" font-family="Times,serif" font-size="14.00">σ</text>
</g>
<!-- n3&#45;&gt;n6 -->
<g id="edge13" class="edge">
<title>n3&#45;&gt;n6</title>
<path fill="none" stroke="black" d="M202.61,-74.35C213.05,-76.66 226.73,-79.69 238.8,-82.36"/>
<polygon fill="black" stroke="black" points="237.73,-85.71 248.25,-84.45 239.24,-78.87 237.73,-85.71"/>
<text text-anchor="middle" x="224.12" y="-82.83" font-family="Times,serif" font-size="14.00">1</text>
</g>
<!-- n10 -->
<g id="node10" class="node">
<title>n10</title>
<polygon fill="#e28f41" stroke="#e28f41" points="290.75,-45.25 245.5,-45.25 245.5,0 290.75,0 290.75,-45.25"/>
<text text-anchor="middle" x="268.12" y="-17.57" font-family="Times,serif" font-size="14.00">strata</text>
</g>
<!-- n3&#45;&gt;n10 -->
<g id="edge5" class="edge">
<title>n3&#45;&gt;n10</title>
<path fill="none" stroke="black" d="M200.68,-61.82C210.43,-56.07 223.53,-48.34 235.52,-41.27"/>
<polygon fill="black" stroke="black" points="237.1,-44.4 243.93,-36.3 233.54,-38.37 237.1,-44.4"/>
<text text-anchor="middle" x="224.12" y="-52.83" font-family="Times,serif" font-size="14.00">1</text>
</g>
<!-- n4 -->
<g id="node4" class="node">
<title>n4</title>
<ellipse fill="#6c9ac3" stroke="#6c9ac3" cx="518.25" cy="-174.62" rx="18" ry="18"/>
<text text-anchor="middle" x="518.25" y="-169.57" font-family="Times,serif" font-size="14.00">R</text>
</g>
<!-- n11 -->
<g id="node11" class="node">
<title>n11</title>
<polygon fill="#e28f41" stroke="#e28f41" points="624.25,-197.25 579,-197.25 579,-152 624.25,-152 624.25,-197.25"/>
<text text-anchor="middle" x="601.62" y="-169.57" font-family="Times,serif" font-size="14.00">strata</text>
</g>
<!-- n4&#45;&gt;n11 -->
<g id="edge2" class="edge">
<title>n4&#45;&gt;n11</title>
<path fill="none" stroke="black" d="M536.51,-174.62C545.46,-174.62 556.7,-174.62 567.26,-174.62"/>
<polygon fill="black" stroke="black" points="567.22,-178.13 577.22,-174.63 567.22,-171.13 567.22,-178.13"/>
<text text-anchor="middle" x="557.62" y="-177.82" font-family="Times,serif" font-size="14.00">1</text>
</g>
<!-- n5&#45;&gt;n2 -->
<g id="edge12" class="edge">
<title>n5&#45;&gt;n2</title>
<path fill="none" stroke="black" d="M119.82,-142.01C126.62,-144.57 134.56,-147.15 142,-148.62 217.65,-163.58 240.13,-164.92 315.5,-148.62 318.35,-148.01 321.28,-147.18 324.16,-146.23"/>
<polygon fill="black" stroke="black" points="325.3,-149.55 333.41,-142.73 322.82,-143 325.3,-149.55"/>
<text text-anchor="middle" x="224.12" y="-162.82" font-family="Times,serif" font-size="14.00">1</text>
</g>
<!-- n5&#45;&gt;n3 -->
<g id="edge14" class="edge">
<title>n5&#45;&gt;n3</title>
<path fill="none" stroke="black" d="M119.63,-121.05C131.72,-111.54 148,-98.75 161.12,-88.42"/>
<polygon fill="black" stroke="black" points="163.13,-91.29 168.83,-82.36 158.81,-85.79 163.13,-91.29"/>
<text text-anchor="middle" x="145.38" y="-105.83" font-family="Times,serif" font-size="14.00">1</text>
</g>
<!-- n6&#45;&gt;n2 -->
<g id="edge3" class="edge">
<title>n6&#45;&gt;n2</title>
<path fill="none" stroke="black" d="M286.55,-92.69C295.56,-95.22 306.51,-98.98 315.5,-104.12 320.48,-106.98 325.41,-110.6 329.91,-114.35"/>
<polygon fill="black" stroke="black" points="327.56,-116.94 337.34,-121 332.23,-111.73 327.56,-116.94"/>
<text text-anchor="middle" x="312.12" y="-106.83" font-family="Times,serif" font-size="14.00">1</text>
</g>
<!-- n7&#45;&gt;n4 -->
<g id="edge9" class="edge">
<title>n7&#45;&gt;n4</title>
<path fill="none" stroke="black" d="M453.13,-174.62C463.49,-174.62 476.92,-174.62 488.81,-174.62"/>
<polygon fill="black" stroke="black" points="488.5,-178.13 498.5,-174.63 488.5,-171.13 488.5,-178.13"/>
<text text-anchor="middle" x="478.88" y="-177.82" font-family="Times,serif" font-size="14.00">1</text>
</g>
<!-- n8&#45;&gt;n1 -->
<g id="edge11" class="edge">
<title>n8&#45;&gt;n1</title>
<path fill="none" stroke="black" d="M78.54,-55.77C70.59,-53.55 61.67,-52.73 54,-56.12 46.78,-59.32 40.42,-64.81 35.16,-70.67"/>
<polygon fill="black" stroke="black" points="32.74,-68.1 29.23,-78.1 38.21,-72.47 32.74,-68.1"/>
<text text-anchor="middle" x="57.38" y="-58.83" font-family="Times,serif" font-size="14.00">1</text>
</g>
<!-- n9&#45;&gt;n2 -->
<g id="edge4" class="edge">
<title>n9&#45;&gt;n2</title>
<path fill="none" stroke="black" d="M412.04,-95.77C404.09,-93.55 395.17,-92.73 387.5,-96.12 380.28,-99.32 373.92,-104.81 368.66,-110.67"/>
<polygon fill="black" stroke="black" points="366.24,-108.1 362.73,-118.1 371.71,-112.47 366.24,-108.1"/>
<text text-anchor="middle" x="390.88" y="-98.83" font-family="Times,serif" font-size="14.00">1</text>
</g>
<!-- n10&#45;&gt;n3 -->
<g id="edge10" class="edge">
<title>n10&#45;&gt;n3</title>
<path fill="none" stroke="black" d="M245.33,-20.68C237.2,-20.86 228.16,-22.17 220.75,-26.12 212.46,-30.55 205.47,-37.87 199.98,-45.32"/>
<polygon fill="black" stroke="black" points="197.27,-43.07 194.67,-53.34 203.11,-46.94 197.27,-43.07"/>
<text text-anchor="middle" x="224.12" y="-29.82" font-family="Times,serif" font-size="14.00">1</text>
</g>
<!-- n11&#45;&gt;n4 -->
<g id="edge6" class="edge">
<title>n11&#45;&gt;n4</title>
<path fill="none" stroke="black" d="M578.95,-158.26C571.32,-154.34 562.58,-151.87 554.25,-154.12 550.4,-155.17 546.53,-156.76 542.85,-158.6"/>
<polygon fill="black" stroke="black" points="541.35,-155.42 534.43,-163.45 544.85,-161.49 541.35,-155.42"/>
<text text-anchor="middle" x="557.62" y="-156.82" font-family="Times,serif" font-size="14.00">1</text>
</g>
</g>
</svg>
