<?xml version="1.0" encoding="utf-8"?>
<svg xmlns="http://www.w3.org/2000/svg" xmlns:xlink="http://www.w3.org/1999/xlink" width="672" height="480" viewBox="0 0 2688 1920">
<defs>
  <clipPath id="clip930">
    <rect x="0" y="0" width="2688" height="1920"/>
  </clipPath>
</defs>
<path clip-path="url(#clip930)" d="M0 1920 L2688 1920 L2688 -4.26326e-14 L0 -4.26326e-14  Z" fill="#ffffff" fill-rule="evenodd" fill-opacity="1"/>
<defs>
  <clipPath id="clip931">
    <rect x="537" y="0" width="1883" height="1883"/>
  </clipPath>
</defs>
<path clip-path="url(#clip930)" d="M278.016 1800.78 L2640.76 1800.78 L2640.76 47.2441 L278.016 47.2441  Z" fill="#ffffff" fill-rule="evenodd" fill-opacity="1"/>
<defs>
  <clipPath id="clip932">
    <rect x="278" y="47" width="2364" height="1755"/>
  </clipPath>
</defs>
<polyline clip-path="url(#clip932)" style="stroke:#000000; stroke-linecap:round; stroke-linejoin:round; stroke-width:2; stroke-opacity:0.1; fill:none" points="344.886,1800.78 344.886,47.2441 "/>
<polyline clip-path="url(#clip932)" style="stroke:#000000; stroke-linecap:round; stroke-linejoin:round; stroke-width:2; stroke-opacity:0.1; fill:none" points="716.386,1800.78 716.386,47.2441 "/>
<polyline clip-path="url(#clip932)" style="stroke:#000000; stroke-linecap:round; stroke-linejoin:round; stroke-width:2; stroke-opacity:0.1; fill:none" points="1087.89,1800.78 1087.89,47.2441 "/>
<polyline clip-path="url(#clip932)" style="stroke:#000000; stroke-linecap:round; stroke-linejoin:round; stroke-width:2; stroke-opacity:0.1; fill:none" points="1459.39,1800.78 1459.39,47.2441 "/>
<polyline clip-path="url(#clip932)" style="stroke:#000000; stroke-linecap:round; stroke-linejoin:round; stroke-width:2; stroke-opacity:0.1; fill:none" points="1830.89,1800.78 1830.89,47.2441 "/>
<polyline clip-path="url(#clip932)" style="stroke:#000000; stroke-linecap:round; stroke-linejoin:round; stroke-width:2; stroke-opacity:0.1; fill:none" points="2202.39,1800.78 2202.39,47.2441 "/>
<polyline clip-path="url(#clip932)" style="stroke:#000000; stroke-linecap:round; stroke-linejoin:round; stroke-width:2; stroke-opacity:0.1; fill:none" points="2573.89,1800.78 2573.89,47.2441 "/>
<polyline clip-path="url(#clip930)" style="stroke:#000000; stroke-linecap:round; stroke-linejoin:round; stroke-width:4; stroke-opacity:1; fill:none" points="278.016,1800.78 2640.76,1800.78 "/>
<polyline clip-path="url(#clip930)" style="stroke:#000000; stroke-linecap:round; stroke-linejoin:round; stroke-width:4; stroke-opacity:1; fill:none" points="344.886,1800.78 344.886,1781.88 "/>
<polyline clip-path="url(#clip930)" style="stroke:#000000; stroke-linecap:round; stroke-linejoin:round; stroke-width:4; stroke-opacity:1; fill:none" points="716.386,1800.78 716.386,1781.88 "/>
<polyline clip-path="url(#clip930)" style="stroke:#000000; stroke-linecap:round; stroke-linejoin:round; stroke-width:4; stroke-opacity:1; fill:none" points="1087.89,1800.78 1087.89,1781.88 "/>
<polyline clip-path="url(#clip930)" style="stroke:#000000; stroke-linecap:round; stroke-linejoin:round; stroke-width:4; stroke-opacity:1; fill:none" points="1459.39,1800.78 1459.39,1781.88 "/>
<polyline clip-path="url(#clip930)" style="stroke:#000000; stroke-linecap:round; stroke-linejoin:round; stroke-width:4; stroke-opacity:1; fill:none" points="1830.89,1800.78 1830.89,1781.88 "/>
<polyline clip-path="url(#clip930)" style="stroke:#000000; stroke-linecap:round; stroke-linejoin:round; stroke-width:4; stroke-opacity:1; fill:none" points="2202.39,1800.78 2202.39,1781.88 "/>
<polyline clip-path="url(#clip930)" style="stroke:#000000; stroke-linecap:round; stroke-linejoin:round; stroke-width:4; stroke-opacity:1; fill:none" points="2573.89,1800.78 2573.89,1781.88 "/>
<path clip-path="url(#clip930)" d="M344.886 1834 Q341.275 1834 339.447 1837.57 Q337.641 1841.11 337.641 1848.24 Q337.641 1855.34 339.447 1858.91 Q341.275 1862.45 344.886 1862.45 Q348.521 1862.45 350.326 1858.91 Q352.155 1855.34 352.155 1848.24 Q352.155 1841.11 350.326 1837.57 Q348.521 1834 344.886 1834 M344.886 1830.3 Q350.697 1830.3 353.752 1834.9 Q356.831 1839.49 356.831 1848.24 Q356.831 1856.96 353.752 1861.57 Q350.697 1866.15 344.886 1866.15 Q339.076 1866.15 335.998 1861.57 Q332.942 1856.96 332.942 1848.24 Q332.942 1839.49 335.998 1834.9 Q339.076 1830.3 344.886 1830.3 Z" fill="#000000" fill-rule="nonzero" fill-opacity="1" /><path clip-path="url(#clip930)" d="M675.993 1861.55 L683.632 1861.55 L683.632 1835.18 L675.322 1836.85 L675.322 1832.59 L683.586 1830.92 L688.261 1830.92 L688.261 1861.55 L695.9 1861.55 L695.9 1865.48 L675.993 1865.48 L675.993 1861.55 Z" fill="#000000" fill-rule="nonzero" fill-opacity="1" /><path clip-path="url(#clip930)" d="M715.345 1834 Q711.734 1834 709.905 1837.57 Q708.099 1841.11 708.099 1848.24 Q708.099 1855.34 709.905 1858.91 Q711.734 1862.45 715.345 1862.45 Q718.979 1862.45 720.784 1858.91 Q722.613 1855.34 722.613 1848.24 Q722.613 1841.11 720.784 1837.57 Q718.979 1834 715.345 1834 M715.345 1830.3 Q721.155 1830.3 724.21 1834.9 Q727.289 1839.49 727.289 1848.24 Q727.289 1856.96 724.21 1861.57 Q721.155 1866.15 715.345 1866.15 Q709.534 1866.15 706.456 1861.57 Q703.4 1856.96 703.4 1848.24 Q703.4 1839.49 706.456 1834.9 Q709.534 1830.3 715.345 1830.3 Z" fill="#000000" fill-rule="nonzero" fill-opacity="1" /><path clip-path="url(#clip930)" d="M745.507 1834 Q741.895 1834 740.067 1837.57 Q738.261 1841.11 738.261 1848.24 Q738.261 1855.34 740.067 1858.91 Q741.895 1862.45 745.507 1862.45 Q749.141 1862.45 750.946 1858.91 Q752.775 1855.34 752.775 1848.24 Q752.775 1841.11 750.946 1837.57 Q749.141 1834 745.507 1834 M745.507 1830.3 Q751.317 1830.3 754.372 1834.9 Q757.451 1839.49 757.451 1848.24 Q757.451 1856.96 754.372 1861.57 Q751.317 1866.15 745.507 1866.15 Q739.696 1866.15 736.618 1861.57 Q733.562 1856.96 733.562 1848.24 Q733.562 1839.49 736.618 1834.9 Q739.696 1830.3 745.507 1830.3 Z" fill="#000000" fill-rule="nonzero" fill-opacity="1" /><path clip-path="url(#clip930)" d="M1051.58 1861.55 L1067.9 1861.55 L1067.9 1865.48 L1045.95 1865.48 L1045.95 1861.55 Q1048.62 1858.79 1053.2 1854.16 Q1057.81 1849.51 1058.99 1848.17 Q1061.23 1845.65 1062.11 1843.91 Q1063.01 1842.15 1063.01 1840.46 Q1063.01 1837.71 1061.07 1835.97 Q1059.15 1834.23 1056.05 1834.23 Q1053.85 1834.23 1051.39 1835 Q1048.96 1835.76 1046.19 1837.31 L1046.19 1832.59 Q1049.01 1831.46 1051.46 1830.88 Q1053.92 1830.3 1055.95 1830.3 Q1061.32 1830.3 1064.52 1832.98 Q1067.71 1835.67 1067.71 1840.16 Q1067.71 1842.29 1066.9 1844.21 Q1066.12 1846.11 1064.01 1848.7 Q1063.43 1849.37 1060.33 1852.59 Q1057.23 1855.78 1051.58 1861.55 Z" fill="#000000" fill-rule="nonzero" fill-opacity="1" /><path clip-path="url(#clip930)" d="M1087.71 1834 Q1084.1 1834 1082.27 1837.57 Q1080.47 1841.11 1080.47 1848.24 Q1080.47 1855.34 1082.27 1858.91 Q1084.1 1862.45 1087.71 1862.45 Q1091.35 1862.45 1093.15 1858.91 Q1094.98 1855.34 1094.98 1848.24 Q1094.98 1841.11 1093.15 1837.57 Q1091.35 1834 1087.71 1834 M1087.71 1830.3 Q1093.52 1830.3 1096.58 1834.9 Q1099.66 1839.49 1099.66 1848.24 Q1099.66 1856.96 1096.58 1861.57 Q1093.52 1866.15 1087.71 1866.15 Q1081.9 1866.15 1078.82 1861.57 Q1075.77 1856.96 1075.77 1848.24 Q1075.77 1839.49 1078.82 1834.9 Q1081.9 1830.3 1087.71 1830.3 Z" fill="#000000" fill-rule="nonzero" fill-opacity="1" /><path clip-path="url(#clip930)" d="M1117.87 1834 Q1114.26 1834 1112.43 1837.57 Q1110.63 1841.11 1110.63 1848.24 Q1110.63 1855.34 1112.43 1858.91 Q1114.26 1862.45 1117.87 1862.45 Q1121.51 1862.45 1123.31 1858.91 Q1125.14 1855.34 1125.14 1848.24 Q1125.14 1841.11 1123.31 1837.57 Q1121.51 1834 1117.87 1834 M1117.87 1830.3 Q1123.68 1830.3 1126.74 1834.9 Q1129.82 1839.49 1129.82 1848.24 Q1129.82 1856.96 1126.74 1861.57 Q1123.68 1866.15 1117.87 1866.15 Q1112.06 1866.15 1108.99 1861.57 Q1105.93 1856.96 1105.93 1848.24 Q1105.93 1839.49 1108.99 1834.9 Q1112.06 1830.3 1117.87 1830.3 Z" fill="#000000" fill-rule="nonzero" fill-opacity="1" /><path clip-path="url(#clip930)" d="M1433.15 1846.85 Q1436.5 1847.57 1438.38 1849.84 Q1440.28 1852.1 1440.28 1855.44 Q1440.28 1860.55 1436.76 1863.35 Q1433.24 1866.15 1426.76 1866.15 Q1424.58 1866.15 1422.27 1865.71 Q1419.98 1865.3 1417.52 1864.44 L1417.52 1859.93 Q1419.47 1861.06 1421.78 1861.64 Q1424.1 1862.22 1426.62 1862.22 Q1431.02 1862.22 1433.31 1860.48 Q1435.62 1858.75 1435.62 1855.44 Q1435.62 1852.38 1433.47 1850.67 Q1431.34 1848.93 1427.52 1848.93 L1423.5 1848.93 L1423.5 1845.09 L1427.71 1845.09 Q1431.16 1845.09 1432.99 1843.72 Q1434.81 1842.34 1434.81 1839.74 Q1434.81 1837.08 1432.92 1835.67 Q1431.04 1834.23 1427.52 1834.23 Q1425.6 1834.23 1423.4 1834.65 Q1421.2 1835.07 1418.56 1835.95 L1418.56 1831.78 Q1421.23 1831.04 1423.54 1830.67 Q1425.88 1830.3 1427.94 1830.3 Q1433.26 1830.3 1436.37 1832.73 Q1439.47 1835.14 1439.47 1839.26 Q1439.47 1842.13 1437.82 1844.12 Q1436.18 1846.09 1433.15 1846.85 Z" fill="#000000" fill-rule="nonzero" fill-opacity="1" /><path clip-path="url(#clip930)" d="M1459.14 1834 Q1455.53 1834 1453.7 1837.57 Q1451.9 1841.11 1451.9 1848.24 Q1451.9 1855.34 1453.7 1858.91 Q1455.53 1862.45 1459.14 1862.45 Q1462.78 1862.45 1464.58 1858.91 Q1466.41 1855.34 1466.41 1848.24 Q1466.41 1841.11 1464.58 1837.57 Q1462.78 1834 1459.14 1834 M1459.14 1830.3 Q1464.95 1830.3 1468.01 1834.9 Q1471.09 1839.49 1471.09 1848.24 Q1471.09 1856.96 1468.01 1861.57 Q1464.95 1866.15 1459.14 1866.15 Q1453.33 1866.15 1450.25 1861.57 Q1447.2 1856.96 1447.2 1848.24 Q1447.2 1839.49 1450.25 1834.9 Q1453.33 1830.3 1459.14 1830.3 Z" fill="#000000" fill-rule="nonzero" fill-opacity="1" /><path clip-path="url(#clip930)" d="M1489.3 1834 Q1485.69 1834 1483.87 1837.57 Q1482.06 1841.11 1482.06 1848.24 Q1482.06 1855.34 1483.87 1858.91 Q1485.69 1862.45 1489.3 1862.45 Q1492.94 1862.45 1494.74 1858.91 Q1496.57 1855.34 1496.57 1848.24 Q1496.57 1841.11 1494.74 1837.57 Q1492.94 1834 1489.3 1834 M1489.3 1830.3 Q1495.12 1830.3 1498.17 1834.9 Q1501.25 1839.49 1501.25 1848.24 Q1501.25 1856.96 1498.17 1861.57 Q1495.12 1866.15 1489.3 1866.15 Q1483.49 1866.15 1480.42 1861.57 Q1477.36 1856.96 1477.36 1848.24 Q1477.36 1839.49 1480.42 1834.9 Q1483.49 1830.3 1489.3 1830.3 Z" fill="#000000" fill-rule="nonzero" fill-opacity="1" /><path clip-path="url(#clip930)" d="M1803.98 1835 L1792.17 1853.45 L1803.98 1853.45 L1803.98 1835 M1802.75 1830.92 L1808.63 1830.92 L1808.63 1853.45 L1813.56 1853.45 L1813.56 1857.34 L1808.63 1857.34 L1808.63 1865.48 L1803.98 1865.48 L1803.98 1857.34 L1788.37 1857.34 L1788.37 1852.82 L1802.75 1830.92 Z" fill="#000000" fill-rule="nonzero" fill-opacity="1" /><path clip-path="url(#clip930)" d="M1831.29 1834 Q1827.68 1834 1825.85 1837.57 Q1824.05 1841.11 1824.05 1848.24 Q1824.05 1855.34 1825.85 1858.91 Q1827.68 1862.45 1831.29 1862.45 Q1834.93 1862.45 1836.73 1858.91 Q1838.56 1855.34 1838.56 1848.24 Q1838.56 1841.11 1836.73 1837.57 Q1834.93 1834 1831.29 1834 M1831.29 1830.3 Q1837.1 1830.3 1840.16 1834.9 Q1843.24 1839.49 1843.24 1848.24 Q1843.24 1856.96 1840.16 1861.57 Q1837.1 1866.15 1831.29 1866.15 Q1825.48 1866.15 1822.4 1861.57 Q1819.35 1856.96 1819.35 1848.24 Q1819.35 1839.49 1822.4 1834.9 Q1825.48 1830.3 1831.29 1830.3 Z" fill="#000000" fill-rule="nonzero" fill-opacity="1" /><path clip-path="url(#clip930)" d="M1861.45 1834 Q1857.84 1834 1856.01 1837.57 Q1854.21 1841.11 1854.21 1848.24 Q1854.21 1855.34 1856.01 1858.91 Q1857.84 1862.45 1861.45 1862.45 Q1865.09 1862.45 1866.89 1858.91 Q1868.72 1855.34 1868.72 1848.24 Q1868.72 1841.11 1866.89 1837.57 Q1865.09 1834 1861.45 1834 M1861.45 1830.3 Q1867.26 1830.3 1870.32 1834.9 Q1873.4 1839.49 1873.4 1848.24 Q1873.4 1856.96 1870.32 1861.57 Q1867.26 1866.15 1861.45 1866.15 Q1855.64 1866.15 1852.56 1861.57 Q1849.51 1856.96 1849.51 1848.24 Q1849.51 1839.49 1852.56 1834.9 Q1855.64 1830.3 1861.45 1830.3 Z" fill="#000000" fill-rule="nonzero" fill-opacity="1" /><path clip-path="url(#clip930)" d="M2162 1830.92 L2180.36 1830.92 L2180.36 1834.86 L2166.29 1834.86 L2166.29 1843.33 Q2167.31 1842.98 2168.32 1842.82 Q2169.34 1842.64 2170.36 1842.64 Q2176.15 1842.64 2179.53 1845.81 Q2182.91 1848.98 2182.91 1854.4 Q2182.91 1859.97 2179.43 1863.08 Q2175.96 1866.15 2169.64 1866.15 Q2167.47 1866.15 2165.2 1865.78 Q2162.95 1865.41 2160.55 1864.67 L2160.55 1859.97 Q2162.63 1861.11 2164.85 1861.66 Q2167.07 1862.22 2169.55 1862.22 Q2173.56 1862.22 2175.89 1860.11 Q2178.23 1858.01 2178.23 1854.4 Q2178.23 1850.78 2175.89 1848.68 Q2173.56 1846.57 2169.55 1846.57 Q2167.68 1846.57 2165.8 1846.99 Q2163.95 1847.4 2162 1848.28 L2162 1830.92 Z" fill="#000000" fill-rule="nonzero" fill-opacity="1" /><path clip-path="url(#clip930)" d="M2202.12 1834 Q2198.51 1834 2196.68 1837.57 Q2194.87 1841.11 2194.87 1848.24 Q2194.87 1855.34 2196.68 1858.91 Q2198.51 1862.45 2202.12 1862.45 Q2205.75 1862.45 2207.56 1858.91 Q2209.39 1855.34 2209.39 1848.24 Q2209.39 1841.11 2207.56 1837.57 Q2205.75 1834 2202.12 1834 M2202.12 1830.3 Q2207.93 1830.3 2210.99 1834.9 Q2214.06 1839.49 2214.06 1848.24 Q2214.06 1856.96 2210.99 1861.57 Q2207.93 1866.15 2202.12 1866.15 Q2196.31 1866.15 2193.23 1861.57 Q2190.18 1856.96 2190.18 1848.24 Q2190.18 1839.49 2193.23 1834.9 Q2196.31 1830.3 2202.12 1830.3 Z" fill="#000000" fill-rule="nonzero" fill-opacity="1" /><path clip-path="url(#clip930)" d="M2232.28 1834 Q2228.67 1834 2226.84 1837.57 Q2225.04 1841.11 2225.04 1848.24 Q2225.04 1855.34 2226.84 1858.91 Q2228.67 1862.45 2232.28 1862.45 Q2235.92 1862.45 2237.72 1858.91 Q2239.55 1855.34 2239.55 1848.24 Q2239.55 1841.11 2237.72 1837.57 Q2235.92 1834 2232.28 1834 M2232.28 1830.3 Q2238.09 1830.3 2241.15 1834.9 Q2244.23 1839.49 2244.23 1848.24 Q2244.23 1856.96 2241.15 1861.57 Q2238.09 1866.15 2232.28 1866.15 Q2226.47 1866.15 2223.39 1861.57 Q2220.34 1856.96 2220.34 1848.24 Q2220.34 1839.49 2223.39 1834.9 Q2226.47 1830.3 2232.28 1830.3 Z" fill="#000000" fill-rule="nonzero" fill-opacity="1" /><path clip-path="url(#clip930)" d="M2544.21 1846.34 Q2541.06 1846.34 2539.21 1848.49 Q2537.38 1850.65 2537.38 1854.4 Q2537.38 1858.12 2539.21 1860.3 Q2541.06 1862.45 2544.21 1862.45 Q2547.36 1862.45 2549.19 1860.3 Q2551.04 1858.12 2551.04 1854.4 Q2551.04 1850.65 2549.19 1848.49 Q2547.36 1846.34 2544.21 1846.34 M2553.49 1831.69 L2553.49 1835.95 Q2551.73 1835.11 2549.93 1834.67 Q2548.15 1834.23 2546.39 1834.23 Q2541.76 1834.23 2539.3 1837.36 Q2536.87 1840.48 2536.53 1846.8 Q2537.89 1844.79 2539.95 1843.72 Q2542.01 1842.64 2544.49 1842.64 Q2549.7 1842.64 2552.71 1845.81 Q2555.74 1848.96 2555.74 1854.4 Q2555.74 1859.72 2552.59 1862.94 Q2549.44 1866.15 2544.21 1866.15 Q2538.21 1866.15 2535.04 1861.57 Q2531.87 1856.96 2531.87 1848.24 Q2531.87 1840.04 2535.76 1835.18 Q2539.65 1830.3 2546.2 1830.3 Q2547.96 1830.3 2549.74 1830.65 Q2551.55 1830.99 2553.49 1831.69 Z" fill="#000000" fill-rule="nonzero" fill-opacity="1" /><path clip-path="url(#clip930)" d="M2573.79 1834 Q2570.18 1834 2568.35 1837.57 Q2566.55 1841.11 2566.55 1848.24 Q2566.55 1855.34 2568.35 1858.91 Q2570.18 1862.45 2573.79 1862.45 Q2577.43 1862.45 2579.23 1858.91 Q2581.06 1855.34 2581.06 1848.24 Q2581.06 1841.11 2579.23 1837.57 Q2577.43 1834 2573.79 1834 M2573.79 1830.3 Q2579.6 1830.3 2582.66 1834.9 Q2585.74 1839.49 2585.74 1848.24 Q2585.74 1856.96 2582.66 1861.57 Q2579.6 1866.15 2573.79 1866.15 Q2567.98 1866.15 2564.9 1861.57 Q2561.85 1856.96 2561.85 1848.24 Q2561.85 1839.49 2564.9 1834.9 Q2567.98 1830.3 2573.79 1830.3 Z" fill="#000000" fill-rule="nonzero" fill-opacity="1" /><path clip-path="url(#clip930)" d="M2603.96 1834 Q2600.34 1834 2598.52 1837.57 Q2596.71 1841.11 2596.71 1848.24 Q2596.71 1855.34 2598.52 1858.91 Q2600.34 1862.45 2603.96 1862.45 Q2607.59 1862.45 2609.39 1858.91 Q2611.22 1855.34 2611.22 1848.24 Q2611.22 1841.11 2609.39 1837.57 Q2607.59 1834 2603.96 1834 M2603.96 1830.3 Q2609.77 1830.3 2612.82 1834.9 Q2615.9 1839.49 2615.9 1848.24 Q2615.9 1856.96 2612.82 1861.57 Q2609.77 1866.15 2603.96 1866.15 Q2598.15 1866.15 2595.07 1861.57 Q2592.01 1856.96 2592.01 1848.24 Q2592.01 1839.49 2595.07 1834.9 Q2598.15 1830.3 2603.96 1830.3 Z" fill="#000000" fill-rule="nonzero" fill-opacity="1" /><polyline clip-path="url(#clip932)" style="stroke:#000000; stroke-linecap:round; stroke-linejoin:round; stroke-width:2; stroke-opacity:0.1; fill:none" points="278.016,1800.78 2640.76,1800.78 "/>
<polyline clip-path="url(#clip932)" style="stroke:#000000; stroke-linecap:round; stroke-linejoin:round; stroke-width:2; stroke-opacity:0.1; fill:none" points="278.016,1450.07 2640.76,1450.07 "/>
<polyline clip-path="url(#clip932)" style="stroke:#000000; stroke-linecap:round; stroke-linejoin:round; stroke-width:2; stroke-opacity:0.1; fill:none" points="278.016,1099.37 2640.76,1099.37 "/>
<polyline clip-path="url(#clip932)" style="stroke:#000000; stroke-linecap:round; stroke-linejoin:round; stroke-width:2; stroke-opacity:0.1; fill:none" points="278.016,748.658 2640.76,748.658 "/>
<polyline clip-path="url(#clip932)" style="stroke:#000000; stroke-linecap:round; stroke-linejoin:round; stroke-width:2; stroke-opacity:0.1; fill:none" points="278.016,397.951 2640.76,397.951 "/>
<polyline clip-path="url(#clip932)" style="stroke:#000000; stroke-linecap:round; stroke-linejoin:round; stroke-width:2; stroke-opacity:0.1; fill:none" points="278.016,47.2441 2640.76,47.2441 "/>
<polyline clip-path="url(#clip930)" style="stroke:#000000; stroke-linecap:round; stroke-linejoin:round; stroke-width:4; stroke-opacity:1; fill:none" points="278.016,1800.78 278.016,47.2441 "/>
<polyline clip-path="url(#clip930)" style="stroke:#000000; stroke-linecap:round; stroke-linejoin:round; stroke-width:4; stroke-opacity:1; fill:none" points="278.016,1800.78 296.914,1800.78 "/>
<polyline clip-path="url(#clip930)" style="stroke:#000000; stroke-linecap:round; stroke-linejoin:round; stroke-width:4; stroke-opacity:1; fill:none" points="278.016,1450.07 296.914,1450.07 "/>
<polyline clip-path="url(#clip930)" style="stroke:#000000; stroke-linecap:round; stroke-linejoin:round; stroke-width:4; stroke-opacity:1; fill:none" points="278.016,1099.37 296.914,1099.37 "/>
<polyline clip-path="url(#clip930)" style="stroke:#000000; stroke-linecap:round; stroke-linejoin:round; stroke-width:4; stroke-opacity:1; fill:none" points="278.016,748.658 296.914,748.658 "/>
<polyline clip-path="url(#clip930)" style="stroke:#000000; stroke-linecap:round; stroke-linejoin:round; stroke-width:4; stroke-opacity:1; fill:none" points="278.016,397.951 296.914,397.951 "/>
<polyline clip-path="url(#clip930)" style="stroke:#000000; stroke-linecap:round; stroke-linejoin:round; stroke-width:4; stroke-opacity:1; fill:none" points="278.016,47.2441 296.914,47.2441 "/>
<path clip-path="url(#clip930)" d="M225.752 1786.58 Q222.141 1786.58 220.312 1790.14 Q218.507 1793.68 218.507 1800.81 Q218.507 1807.92 220.312 1811.49 Q222.141 1815.03 225.752 1815.03 Q229.386 1815.03 231.192 1811.49 Q233.02 1807.92 233.02 1800.81 Q233.02 1793.68 231.192 1790.14 Q229.386 1786.58 225.752 1786.58 M225.752 1782.87 Q231.562 1782.87 234.618 1787.48 Q237.696 1792.06 237.696 1800.81 Q237.696 1809.54 234.618 1814.15 Q231.562 1818.73 225.752 1818.73 Q219.942 1818.73 216.863 1814.15 Q213.808 1809.54 213.808 1800.81 Q213.808 1792.06 216.863 1787.48 Q219.942 1782.87 225.752 1782.87 Z" fill="#000000" fill-rule="nonzero" fill-opacity="1" /><path clip-path="url(#clip930)" d="M53.1169 1469.86 L60.7558 1469.86 L60.7558 1443.5 L52.4456 1445.17 L52.4456 1440.91 L60.7095 1439.24 L65.3854 1439.24 L65.3854 1469.86 L73.0242 1469.86 L73.0242 1473.8 L53.1169 1473.8 L53.1169 1469.86 Z" fill="#000000" fill-rule="nonzero" fill-opacity="1" /><path clip-path="url(#clip930)" d="M82.4686 1467.92 L87.3528 1467.92 L87.3528 1473.8 L82.4686 1473.8 L82.4686 1467.92 Z" fill="#000000" fill-rule="nonzero" fill-opacity="1" /><path clip-path="url(#clip930)" d="M107.538 1442.32 Q103.927 1442.32 102.098 1445.88 Q100.293 1449.42 100.293 1456.55 Q100.293 1463.66 102.098 1467.23 Q103.927 1470.77 107.538 1470.77 Q111.172 1470.77 112.978 1467.23 Q114.806 1463.66 114.806 1456.55 Q114.806 1449.42 112.978 1445.88 Q111.172 1442.32 107.538 1442.32 M107.538 1438.61 Q113.348 1438.61 116.404 1443.22 Q119.482 1447.8 119.482 1456.55 Q119.482 1465.28 116.404 1469.89 Q113.348 1474.47 107.538 1474.47 Q101.728 1474.47 98.6491 1469.89 Q95.5935 1465.28 95.5935 1456.55 Q95.5935 1447.8 98.6491 1443.22 Q101.728 1438.61 107.538 1438.61 Z" fill="#000000" fill-rule="nonzero" fill-opacity="1" /><path clip-path="url(#clip930)" d="M155.871 1448.34 L145.292 1458.96 L155.871 1469.54 L153.116 1472.34 L142.491 1461.72 L131.866 1472.34 L129.135 1469.54 L139.691 1458.96 L129.135 1448.34 L131.866 1445.54 L142.491 1456.16 L153.116 1445.54 L155.871 1448.34 Z" fill="#000000" fill-rule="nonzero" fill-opacity="1" /><path clip-path="url(#clip930)" d="M168.232 1469.86 L175.871 1469.86 L175.871 1443.5 L167.561 1445.17 L167.561 1440.91 L175.825 1439.24 L180.5 1439.24 L180.5 1469.86 L188.139 1469.86 L188.139 1473.8 L168.232 1473.8 L168.232 1469.86 Z" fill="#000000" fill-rule="nonzero" fill-opacity="1" /><path clip-path="url(#clip930)" d="M207.584 1442.32 Q203.973 1442.32 202.144 1445.88 Q200.338 1449.42 200.338 1456.55 Q200.338 1463.66 202.144 1467.23 Q203.973 1470.77 207.584 1470.77 Q211.218 1470.77 213.023 1467.23 Q214.852 1463.66 214.852 1456.55 Q214.852 1449.42 213.023 1445.88 Q211.218 1442.32 207.584 1442.32 M207.584 1438.61 Q213.394 1438.61 216.449 1443.22 Q219.528 1447.8 219.528 1456.55 Q219.528 1465.28 216.449 1469.89 Q213.394 1474.47 207.584 1474.47 Q201.774 1474.47 198.695 1469.89 Q195.639 1465.28 195.639 1456.55 Q195.639 1447.8 198.695 1443.22 Q201.774 1438.61 207.584 1438.61 Z" fill="#000000" fill-rule="nonzero" fill-opacity="1" /><path clip-path="url(#clip930)" d="M220.713 1418.31 L235.628 1418.31 L235.628 1421.51 L224.192 1421.51 L224.192 1428.39 Q225.02 1428.11 225.847 1427.98 Q226.675 1427.83 227.503 1427.83 Q232.205 1427.83 234.95 1430.4 Q237.696 1432.98 237.696 1437.38 Q237.696 1441.91 234.875 1444.43 Q232.054 1446.93 226.92 1446.93 Q225.152 1446.93 223.308 1446.63 Q221.484 1446.33 219.528 1445.73 L219.528 1441.91 Q221.221 1442.83 223.026 1443.29 Q224.832 1443.74 226.844 1443.74 Q230.098 1443.74 231.998 1442.03 Q233.897 1440.31 233.897 1437.38 Q233.897 1434.45 231.998 1432.74 Q230.098 1431.02 226.844 1431.02 Q225.321 1431.02 223.797 1431.36 Q222.293 1431.7 220.713 1432.42 L220.713 1418.31 Z" fill="#000000" fill-rule="nonzero" fill-opacity="1" /><path clip-path="url(#clip930)" d="M56.3345 1119.16 L72.6539 1119.16 L72.6539 1123.09 L50.7095 1123.09 L50.7095 1119.16 Q53.3715 1116.4 57.9549 1111.77 Q62.5613 1107.12 63.7419 1105.78 Q65.9872 1103.25 66.8668 1101.52 Q67.7696 1099.76 67.7696 1098.07 Q67.7696 1095.32 65.8252 1093.58 Q63.9039 1091.84 60.8021 1091.84 Q58.603 1091.84 56.1493 1092.61 Q53.7188 1093.37 50.941 1094.92 L50.941 1090.2 Q53.7651 1089.07 56.2188 1088.49 Q58.6724 1087.91 60.7095 1087.91 Q66.0798 1087.91 69.2742 1090.59 Q72.4687 1093.28 72.4687 1097.77 Q72.4687 1099.9 71.6585 1101.82 Q70.8715 1103.72 68.765 1106.31 Q68.1863 1106.98 65.0845 1110.2 Q61.9826 1113.39 56.3345 1119.16 Z" fill="#000000" fill-rule="nonzero" fill-opacity="1" /><path clip-path="url(#clip930)" d="M82.4686 1117.21 L87.3528 1117.21 L87.3528 1123.09 L82.4686 1123.09 L82.4686 1117.21 Z" fill="#000000" fill-rule="nonzero" fill-opacity="1" /><path clip-path="url(#clip930)" d="M107.538 1091.61 Q103.927 1091.61 102.098 1095.18 Q100.293 1098.72 100.293 1105.85 Q100.293 1112.95 102.098 1116.52 Q103.927 1120.06 107.538 1120.06 Q111.172 1120.06 112.978 1116.52 Q114.806 1112.95 114.806 1105.85 Q114.806 1098.72 112.978 1095.18 Q111.172 1091.61 107.538 1091.61 M107.538 1087.91 Q113.348 1087.91 116.404 1092.51 Q119.482 1097.1 119.482 1105.85 Q119.482 1114.57 116.404 1119.18 Q113.348 1123.76 107.538 1123.76 Q101.728 1123.76 98.6491 1119.18 Q95.5935 1114.57 95.5935 1105.85 Q95.5935 1097.1 98.6491 1092.51 Q101.728 1087.91 107.538 1087.91 Z" fill="#000000" fill-rule="nonzero" fill-opacity="1" /><path clip-path="url(#clip930)" d="M155.871 1097.63 L145.292 1108.25 L155.871 1118.83 L153.116 1121.63 L142.491 1111.01 L131.866 1121.63 L129.135 1118.83 L139.691 1108.25 L129.135 1097.63 L131.866 1094.83 L142.491 1105.45 L153.116 1094.83 L155.871 1097.63 Z" fill="#000000" fill-rule="nonzero" fill-opacity="1" /><path clip-path="url(#clip930)" d="M168.232 1119.16 L175.871 1119.16 L175.871 1092.79 L167.561 1094.46 L167.561 1090.2 L175.825 1088.53 L180.5 1088.53 L180.5 1119.16 L188.139 1119.16 L188.139 1123.09 L168.232 1123.09 L168.232 1119.16 Z" fill="#000000" fill-rule="nonzero" fill-opacity="1" /><path clip-path="url(#clip930)" d="M207.584 1091.61 Q203.973 1091.61 202.144 1095.18 Q200.338 1098.72 200.338 1105.85 Q200.338 1112.95 202.144 1116.52 Q203.973 1120.06 207.584 1120.06 Q211.218 1120.06 213.023 1116.52 Q214.852 1112.95 214.852 1105.85 Q214.852 1098.72 213.023 1095.18 Q211.218 1091.61 207.584 1091.61 M207.584 1087.91 Q213.394 1087.91 216.449 1092.51 Q219.528 1097.1 219.528 1105.85 Q219.528 1114.57 216.449 1119.18 Q213.394 1123.76 207.584 1123.76 Q201.774 1123.76 198.695 1119.18 Q195.639 1114.57 195.639 1105.85 Q195.639 1097.1 198.695 1092.51 Q201.774 1087.91 207.584 1087.91 Z" fill="#000000" fill-rule="nonzero" fill-opacity="1" /><path clip-path="url(#clip930)" d="M220.713 1067.6 L235.628 1067.6 L235.628 1070.8 L224.192 1070.8 L224.192 1077.68 Q225.02 1077.4 225.847 1077.27 Q226.675 1077.12 227.503 1077.12 Q232.205 1077.12 234.95 1079.7 Q237.696 1082.27 237.696 1086.67 Q237.696 1091.21 234.875 1093.73 Q232.054 1096.23 226.92 1096.23 Q225.152 1096.23 223.308 1095.93 Q221.484 1095.63 219.528 1095.02 L219.528 1091.21 Q221.221 1092.13 223.026 1092.58 Q224.832 1093.03 226.844 1093.03 Q230.098 1093.03 231.998 1091.32 Q233.897 1089.61 233.897 1086.67 Q233.897 1083.74 231.998 1082.03 Q230.098 1080.32 226.844 1080.32 Q225.321 1080.32 223.797 1080.66 Q222.293 1080.99 220.713 1081.71 L220.713 1067.6 Z" fill="#000000" fill-rule="nonzero" fill-opacity="1" /><path clip-path="url(#clip930)" d="M66.4733 753.752 Q69.8298 754.469 71.7048 756.738 Q73.6029 759.006 73.6029 762.34 Q73.6029 767.455 70.0844 770.256 Q66.5659 773.057 60.0845 773.057 Q57.9086 773.057 55.5938 772.617 Q53.3021 772.201 50.8484 771.344 L50.8484 766.83 Q52.7928 767.965 55.1077 768.543 Q57.4225 769.122 59.9456 769.122 Q64.3437 769.122 66.6354 767.386 Q68.9502 765.65 68.9502 762.34 Q68.9502 759.284 66.7974 757.571 Q64.6678 755.835 60.8484 755.835 L56.8206 755.835 L56.8206 751.992 L61.0335 751.992 Q64.4826 751.992 66.3113 750.627 Q68.14 749.238 68.14 746.645 Q68.14 743.983 66.2419 742.571 Q64.3669 741.136 60.8484 741.136 Q58.9271 741.136 56.728 741.553 Q54.529 741.969 51.8901 742.849 L51.8901 738.682 Q54.5521 737.942 56.8669 737.571 Q59.2049 737.201 61.265 737.201 Q66.5891 737.201 69.6909 739.631 Q72.7927 742.039 72.7927 746.159 Q72.7927 749.029 71.1492 751.02 Q69.5057 752.988 66.4733 753.752 Z" fill="#000000" fill-rule="nonzero" fill-opacity="1" /><path clip-path="url(#clip930)" d="M82.4686 766.506 L87.3528 766.506 L87.3528 772.386 L82.4686 772.386 L82.4686 766.506 Z" fill="#000000" fill-rule="nonzero" fill-opacity="1" /><path clip-path="url(#clip930)" d="M107.538 740.904 Q103.927 740.904 102.098 744.469 Q100.293 748.011 100.293 755.14 Q100.293 762.247 102.098 765.812 Q103.927 769.353 107.538 769.353 Q111.172 769.353 112.978 765.812 Q114.806 762.247 114.806 755.14 Q114.806 748.011 112.978 744.469 Q111.172 740.904 107.538 740.904 M107.538 737.201 Q113.348 737.201 116.404 741.807 Q119.482 746.391 119.482 755.14 Q119.482 763.867 116.404 768.474 Q113.348 773.057 107.538 773.057 Q101.728 773.057 98.6491 768.474 Q95.5935 763.867 95.5935 755.14 Q95.5935 746.391 98.6491 741.807 Q101.728 737.201 107.538 737.201 Z" fill="#000000" fill-rule="nonzero" fill-opacity="1" /><path clip-path="url(#clip930)" d="M155.871 746.923 L145.292 757.548 L155.871 768.127 L153.116 770.927 L142.491 760.303 L131.866 770.927 L129.135 768.127 L139.691 757.548 L129.135 746.923 L131.866 744.122 L142.491 754.747 L153.116 744.122 L155.871 746.923 Z" fill="#000000" fill-rule="nonzero" fill-opacity="1" /><path clip-path="url(#clip930)" d="M168.232 768.451 L175.871 768.451 L175.871 742.085 L167.561 743.752 L167.561 739.492 L175.825 737.826 L180.5 737.826 L180.5 768.451 L188.139 768.451 L188.139 772.386 L168.232 772.386 L168.232 768.451 Z" fill="#000000" fill-rule="nonzero" fill-opacity="1" /><path clip-path="url(#clip930)" d="M207.584 740.904 Q203.973 740.904 202.144 744.469 Q200.338 748.011 200.338 755.14 Q200.338 762.247 202.144 765.812 Q203.973 769.353 207.584 769.353 Q211.218 769.353 213.023 765.812 Q214.852 762.247 214.852 755.14 Q214.852 748.011 213.023 744.469 Q211.218 740.904 207.584 740.904 M207.584 737.201 Q213.394 737.201 216.449 741.807 Q219.528 746.391 219.528 755.14 Q219.528 763.867 216.449 768.474 Q213.394 773.057 207.584 773.057 Q201.774 773.057 198.695 768.474 Q195.639 763.867 195.639 755.14 Q195.639 746.391 198.695 741.807 Q201.774 737.201 207.584 737.201 Z" fill="#000000" fill-rule="nonzero" fill-opacity="1" /><path clip-path="url(#clip930)" d="M220.713 716.895 L235.628 716.895 L235.628 720.093 L224.192 720.093 L224.192 726.976 Q225.02 726.694 225.847 726.563 Q226.675 726.412 227.503 726.412 Q232.205 726.412 234.95 728.989 Q237.696 731.565 237.696 735.966 Q237.696 740.499 234.875 743.019 Q232.054 745.521 226.92 745.521 Q225.152 745.521 223.308 745.22 Q221.484 744.919 219.528 744.317 L219.528 740.499 Q221.221 741.421 223.026 741.872 Q224.832 742.323 226.844 742.323 Q230.098 742.323 231.998 740.612 Q233.897 738.9 233.897 735.966 Q233.897 733.032 231.998 731.321 Q230.098 729.609 226.844 729.609 Q225.321 729.609 223.797 729.948 Q222.293 730.287 220.713 731.001 L220.713 716.895 Z" fill="#000000" fill-rule="nonzero" fill-opacity="1" /><path clip-path="url(#clip930)" d="M65.1539 391.193 L53.3484 409.642 L65.1539 409.642 L65.1539 391.193 M63.927 387.119 L69.8066 387.119 L69.8066 409.642 L74.7372 409.642 L74.7372 413.531 L69.8066 413.531 L69.8066 421.679 L65.1539 421.679 L65.1539 413.531 L49.5521 413.531 L49.5521 409.017 L63.927 387.119 Z" fill="#000000" fill-rule="nonzero" fill-opacity="1" /><path clip-path="url(#clip930)" d="M82.4686 415.799 L87.3528 415.799 L87.3528 421.679 L82.4686 421.679 L82.4686 415.799 Z" fill="#000000" fill-rule="nonzero" fill-opacity="1" /><path clip-path="url(#clip930)" d="M107.538 390.197 Q103.927 390.197 102.098 393.762 Q100.293 397.304 100.293 404.433 Q100.293 411.54 102.098 415.105 Q103.927 418.646 107.538 418.646 Q111.172 418.646 112.978 415.105 Q114.806 411.54 114.806 404.433 Q114.806 397.304 112.978 393.762 Q111.172 390.197 107.538 390.197 M107.538 386.494 Q113.348 386.494 116.404 391.1 Q119.482 395.684 119.482 404.433 Q119.482 413.16 116.404 417.767 Q113.348 422.35 107.538 422.35 Q101.728 422.35 98.6491 417.767 Q95.5935 413.16 95.5935 404.433 Q95.5935 395.684 98.6491 391.1 Q101.728 386.494 107.538 386.494 Z" fill="#000000" fill-rule="nonzero" fill-opacity="1" /><path clip-path="url(#clip930)" d="M155.871 396.216 L145.292 406.841 L155.871 417.419 L153.116 420.22 L142.491 409.595 L131.866 420.22 L129.135 417.419 L139.691 406.841 L129.135 396.216 L131.866 393.415 L142.491 404.04 L153.116 393.415 L155.871 396.216 Z" fill="#000000" fill-rule="nonzero" fill-opacity="1" /><path clip-path="url(#clip930)" d="M168.232 417.744 L175.871 417.744 L175.871 391.378 L167.561 393.045 L167.561 388.785 L175.825 387.119 L180.5 387.119 L180.5 417.744 L188.139 417.744 L188.139 421.679 L168.232 421.679 L168.232 417.744 Z" fill="#000000" fill-rule="nonzero" fill-opacity="1" /><path clip-path="url(#clip930)" d="M207.584 390.197 Q203.973 390.197 202.144 393.762 Q200.338 397.304 200.338 404.433 Q200.338 411.54 202.144 415.105 Q203.973 418.646 207.584 418.646 Q211.218 418.646 213.023 415.105 Q214.852 411.54 214.852 404.433 Q214.852 397.304 213.023 393.762 Q211.218 390.197 207.584 390.197 M207.584 386.494 Q213.394 386.494 216.449 391.1 Q219.528 395.684 219.528 404.433 Q219.528 413.16 216.449 417.767 Q213.394 422.35 207.584 422.35 Q201.774 422.35 198.695 417.767 Q195.639 413.16 195.639 404.433 Q195.639 395.684 198.695 391.1 Q201.774 386.494 207.584 386.494 Z" fill="#000000" fill-rule="nonzero" fill-opacity="1" /><path clip-path="url(#clip930)" d="M220.713 366.188 L235.628 366.188 L235.628 369.386 L224.192 369.386 L224.192 376.269 Q225.02 375.987 225.847 375.856 Q226.675 375.705 227.503 375.705 Q232.205 375.705 234.95 378.282 Q237.696 380.858 237.696 385.259 Q237.696 389.792 234.875 392.312 Q232.054 394.814 226.92 394.814 Q225.152 394.814 223.308 394.513 Q221.484 394.212 219.528 393.61 L219.528 389.792 Q221.221 390.714 223.026 391.165 Q224.832 391.616 226.844 391.616 Q230.098 391.616 231.998 389.905 Q233.897 388.193 233.897 385.259 Q233.897 382.325 231.998 380.614 Q230.098 378.902 226.844 378.902 Q225.321 378.902 223.797 379.241 Q222.293 379.579 220.713 380.294 L220.713 366.188 Z" fill="#000000" fill-rule="nonzero" fill-opacity="1" /><path clip-path="url(#clip930)" d="M52.353 36.4117 L70.7094 36.4117 L70.7094 40.3469 L56.6354 40.3469 L56.6354 48.819 Q57.6539 48.4718 58.6724 48.3098 Q59.691 48.1246 60.7095 48.1246 Q66.4965 48.1246 69.8761 51.2959 Q73.2557 54.4672 73.2557 59.8838 Q73.2557 65.4625 69.7835 68.5643 Q66.3113 71.643 59.9919 71.643 Q57.816 71.643 55.5475 71.2726 Q53.3021 70.9023 50.8947 70.1615 L50.8947 65.4625 Q52.978 66.5967 55.2002 67.1523 Q57.4225 67.7078 59.8993 67.7078 Q63.9039 67.7078 66.2419 65.6014 Q68.5798 63.4949 68.5798 59.8838 Q68.5798 56.2727 66.2419 54.1662 Q63.9039 52.0598 59.8993 52.0598 Q58.0243 52.0598 56.1493 52.4764 Q54.2975 52.8931 52.353 53.7727 L52.353 36.4117 Z" fill="#000000" fill-rule="nonzero" fill-opacity="1" /><path clip-path="url(#clip930)" d="M82.4686 65.0921 L87.3528 65.0921 L87.3528 70.9717 L82.4686 70.9717 L82.4686 65.0921 Z" fill="#000000" fill-rule="nonzero" fill-opacity="1" /><path clip-path="url(#clip930)" d="M107.538 39.4904 Q103.927 39.4904 102.098 43.0552 Q100.293 46.5968 100.293 53.7264 Q100.293 60.8329 102.098 64.3977 Q103.927 67.9393 107.538 67.9393 Q111.172 67.9393 112.978 64.3977 Q114.806 60.8329 114.806 53.7264 Q114.806 46.5968 112.978 43.0552 Q111.172 39.4904 107.538 39.4904 M107.538 35.7867 Q113.348 35.7867 116.404 40.3932 Q119.482 44.9765 119.482 53.7264 Q119.482 62.4532 116.404 67.0597 Q113.348 71.643 107.538 71.643 Q101.728 71.643 98.6491 67.0597 Q95.5935 62.4532 95.5935 53.7264 Q95.5935 44.9765 98.6491 40.3932 Q101.728 35.7867 107.538 35.7867 Z" fill="#000000" fill-rule="nonzero" fill-opacity="1" /><path clip-path="url(#clip930)" d="M155.871 45.5089 L145.292 56.1338 L155.871 66.7125 L153.116 69.5134 L142.491 58.8884 L131.866 69.5134 L129.135 66.7125 L139.691 56.1338 L129.135 45.5089 L131.866 42.708 L142.491 53.3329 L153.116 42.708 L155.871 45.5089 Z" fill="#000000" fill-rule="nonzero" fill-opacity="1" /><path clip-path="url(#clip930)" d="M168.232 67.0365 L175.871 67.0365 L175.871 40.6709 L167.561 42.3376 L167.561 38.0784 L175.825 36.4117 L180.5 36.4117 L180.5 67.0365 L188.139 67.0365 L188.139 70.9717 L168.232 70.9717 L168.232 67.0365 Z" fill="#000000" fill-rule="nonzero" fill-opacity="1" /><path clip-path="url(#clip930)" d="M207.584 39.4904 Q203.973 39.4904 202.144 43.0552 Q200.338 46.5968 200.338 53.7264 Q200.338 60.8329 202.144 64.3977 Q203.973 67.9393 207.584 67.9393 Q211.218 67.9393 213.023 64.3977 Q214.852 60.8329 214.852 53.7264 Q214.852 46.5968 213.023 43.0552 Q211.218 39.4904 207.584 39.4904 M207.584 35.7867 Q213.394 35.7867 216.449 40.3932 Q219.528 44.9765 219.528 53.7264 Q219.528 62.4532 216.449 67.0597 Q213.394 71.643 207.584 71.643 Q201.774 71.643 198.695 67.0597 Q195.639 62.4532 195.639 53.7264 Q195.639 44.9765 198.695 40.3932 Q201.774 35.7867 207.584 35.7867 Z" fill="#000000" fill-rule="nonzero" fill-opacity="1" /><path clip-path="url(#clip930)" d="M220.713 15.4813 L235.628 15.4813 L235.628 18.6786 L224.192 18.6786 L224.192 25.5623 Q225.02 25.2801 225.847 25.1485 Q226.675 24.998 227.503 24.998 Q232.205 24.998 234.95 27.5747 Q237.696 30.1514 237.696 34.5524 Q237.696 39.085 234.875 41.6053 Q232.054 44.1067 226.92 44.1067 Q225.152 44.1067 223.308 43.8058 Q221.484 43.5049 219.528 42.903 L219.528 39.085 Q221.221 40.0066 223.026 40.458 Q224.832 40.9094 226.844 40.9094 Q230.098 40.9094 231.998 39.1979 Q233.897 37.4864 233.897 34.5524 Q233.897 31.6184 231.998 29.9069 Q230.098 28.1953 226.844 28.1953 Q225.321 28.1953 223.797 28.5339 Q222.293 28.8724 220.713 29.5871 L220.713 15.4813 Z" fill="#000000" fill-rule="nonzero" fill-opacity="1" /><polyline clip-path="url(#clip932)" style="stroke:#009af9; stroke-linecap:round; stroke-linejoin:round; stroke-width:4; stroke-opacity:1; fill:none" points="344.886,1800.73 344.887,1800.73 344.899,1800.73 345.011,1800.73 345.551,1800.73 346.635,1800.73 348.159,1800.73 350.131,1800.73 352.636,1800.73 355.71,1800.73 359.437,1800.73 363.903,1800.73 369.252,1800.73 375.685,1800.72 383.518,1800.72 393.244,1800.71 405.669,1800.7 422.13,1800.68 444.343,1800.66 471.102,1800.63 497.503,1800.59 520.804,1800.55 541.228,1800.5 560.059,1800.45 578.493,1800.4 597.26,1800.33 616.621,1800.25 636.493,1800.15 656.63,1800.03 676.784,1799.89 696.816,1799.73 716.705,1799.53 736.495,1799.31 756.251,1799.03 776.02,1798.71 795.821,1798.33 815.652,1797.88 835.498,1797.35 855.346,1796.71 875.188,1795.96 895.022,1795.07 914.85,1794.02 934.674,1792.78 954.497,1791.3 974.321,1789.56 994.145,1787.5 1013.97,1785.06 1033.79,1782.18 1053.61,1778.77 1073.42,1774.75 1093.23,1770 1113.04,1764.41 1132.84,1757.81 1152.64,1750.04 1172.43,1740.9 1192.21,1730.17 1211.99,1717.59 1231.75,1702.86 1251.5,1685.66 1271.24,1665.62 1290.96,1642.35 1310.67,1615.42 1330.35,1584.39 1350.02,1548.79 1369.66,1508.2 1389.27,1462.19 1408.85,1410.44 1428.4,1352.75 1447.92,1289.07 1467.41,1219.58 1486.87,1144.77 1506.3,1065.45 1525.71,982.832 1545.1,898.553 1564.48,814.646 1583.86,733.51 1603.25,657.815 1622.68,590.363 1642.17,533.912 1661.72,490.982 1681.38,463.653 1701.18,453.382 1721.14,460.882 1741.32,486.072 1761.74,528.041 1782.42,585.036 1803.35,654.584 1824.52,733.683 1845.89,819.038 1867.41,907.317 1888.98,995.433 1910.54,1080.8 1932.02,1161.53 1953.38,1236.44 1974.64,1304.98 1995.83,1367.05 2016.97,1422.78 2038.08,1472.45 2059.17,1516.4 2080.23,1555.04 2101.24,1588.83 2122.2,1618.25 2143.11,1643.78 2163.98,1665.88 2184.82,1684.98 2205.64,1701.46 2226.45,1715.66 2247.24,1727.87 2268.02,1738.36 2288.78,1747.36 2309.53,1755.08 2330.26,1761.69 2350.99,1767.36 2371.71,1772.21 2392.42,1776.36 2413.13,1779.91 2433.84,1782.95 2454.54,1785.55 2475.23,1787.77 2495.93,1789.66 2516.62,1791.28 2537.31,1792.67 2557.99,1793.85 2573.89,1794.64 "/>
<polyline clip-path="url(#clip932)" style="stroke:#e26f46; stroke-linecap:round; stroke-linejoin:round; stroke-width:4; stroke-opacity:1; fill:none" points="344.886,1800.72 344.887,1800.72 344.899,1800.72 345.011,1800.72 345.551,1800.72 346.635,1800.72 348.159,1800.73 350.131,1800.73 352.636,1800.73 355.71,1800.73 359.437,1800.73 363.903,1800.73 369.252,1800.72 375.685,1800.72 383.518,1800.72 393.244,1800.71 405.669,1800.7 422.13,1800.69 444.343,1800.68 471.102,1800.65 497.503,1800.62 520.804,1800.58 541.228,1800.55 560.059,1800.51 578.493,1800.46 597.26,1800.41 616.621,1800.34 636.493,1800.26 656.63,1800.16 676.784,1800.04 696.816,1799.9 716.705,1799.74 736.495,1799.55 756.251,1799.33 776.02,1799.06 795.821,1798.74 815.652,1798.37 835.498,1797.92 855.346,1797.39 875.188,1796.77 895.022,1796.03 914.85,1795.15 934.674,1794.11 954.497,1792.88 974.321,1791.43 994.145,1789.71 1013.97,1787.68 1033.79,1785.28 1053.61,1782.44 1073.42,1779.08 1093.23,1775.12 1113.04,1770.45 1132.84,1764.93 1152.64,1758.44 1172.43,1750.8 1192.21,1741.82 1211.99,1731.28 1231.75,1718.93 1251.5,1704.5 1271.24,1687.65 1290.96,1668.06 1310.67,1645.34 1330.35,1619.1 1350.02,1588.91 1369.66,1554.37 1389.27,1515.08 1408.85,1470.69 1428.4,1420.93 1447.92,1365.67 1467.41,1304.93 1486.87,1238.97 1506.3,1168.33 1525.71,1093.87 1545.1,1016.83 1564.48,938.795 1583.86,861.739 1603.25,787.925 1622.68,719.83 1642.17,660.01 1661.72,610.939 1681.38,574.829 1701.18,553.457 1721.14,548.014 1741.32,559.019 1761.74,586.249 1782.42,628.662 1803.35,684.448 1824.52,751.155 1845.89,825.875 1867.41,905.486 1888.98,986.928 1910.54,1067.49 1932.02,1145.05 1953.38,1218.14 1974.64,1285.92 1995.83,1348.03 2016.97,1404.37 2038.08,1455.03 2059.17,1500.22 2080.23,1540.22 2101.24,1575.41 2122.2,1606.22 2143.11,1633.07 2163.98,1656.41 2184.82,1676.65 2205.64,1694.17 2226.45,1709.29 2247.24,1722.33 2268.02,1733.56 2288.78,1743.2 2309.53,1751.49 2330.26,1758.6 2350.99,1764.7 2371.71,1769.92 2392.42,1774.39 2413.13,1778.22 2433.84,1781.5 2454.54,1784.31 2475.23,1786.7 2495.93,1788.75 2516.62,1790.51 2537.31,1792 2557.99,1793.28 2573.89,1794.14 "/>
<polyline clip-path="url(#clip932)" style="stroke:#3da44d; stroke-linecap:round; stroke-linejoin:round; stroke-width:4; stroke-opacity:1; fill:none" points="344.886,1800.68 344.887,1800.68 344.899,1800.68 345.011,1800.68 345.551,1800.68 346.635,1800.68 348.159,1800.69 350.131,1800.69 352.636,1800.69 355.71,1800.7 359.437,1800.7 363.903,1800.7 369.252,1800.7 375.685,1800.7 383.518,1800.69 393.244,1800.69 405.669,1800.68 422.13,1800.67 444.343,1800.65 471.102,1800.62 497.503,1800.58 520.804,1800.54 541.228,1800.5 560.059,1800.45 578.493,1800.39 597.26,1800.32 616.621,1800.24 636.493,1800.14 656.63,1800.02 676.784,1799.88 696.816,1799.71 716.705,1799.52 736.495,1799.28 756.251,1799.01 776.02,1798.68 795.821,1798.3 815.652,1797.84 835.498,1797.29 855.346,1796.65 875.188,1795.89 895.022,1794.99 914.85,1793.92 934.674,1792.65 954.497,1791.16 974.321,1789.39 994.145,1787.29 1013.97,1784.81 1033.79,1781.88 1053.61,1778.42 1073.42,1774.32 1093.23,1769.49 1113.04,1763.78 1132.84,1757.05 1152.64,1749.12 1172.43,1739.79 1192.21,1728.81 1211.99,1715.92 1231.75,1700.8 1251.5,1683.11 1271.24,1662.45 1290.96,1638.39 1310.67,1610.45 1330.35,1578.12 1350.02,1540.86 1369.66,1498.13 1389.27,1449.39 1408.85,1394.15 1428.4,1332 1447.92,1262.66 1467.41,1186.06 1486.87,1102.38 1506.3,1012.11 1525.71,916.165 1545.1,815.891 1564.48,713.119 1583.86,610.162 1603.25,509.774 1622.68,415.053 1642.17,329.304 1661.72,255.851 1681.38,197.823 1701.18,157.92 1721.14,138.193 1741.32,139.904 1761.74,163.393 1782.42,207.928 1803.35,271.686 1824.52,351.863 1845.89,444.881 1867.41,546.678 1888.98,653.088 1910.54,760.255 1932.02,865 1953.38,965.008 1974.64,1058.81 1995.83,1145.59 2016.97,1224.99 2038.08,1296.92 2059.17,1361.49 2080.23,1418.98 2101.24,1469.81 2122.2,1514.48 2143.11,1553.58 2163.98,1587.67 2184.82,1617.31 2205.64,1643.02 2226.45,1665.27 2247.24,1684.49 2268.02,1701.06 2288.78,1715.32 2309.53,1727.58 2330.26,1738.11 2350.99,1747.15 2371.71,1754.9 2392.42,1761.54 2413.13,1767.23 2433.84,1772.09 2454.54,1776.26 2475.23,1779.83 2495.93,1782.88 2516.62,1785.48 2537.31,1787.71 2557.99,1789.62 2573.89,1790.89 "/>
<polyline clip-path="url(#clip932)" style="stroke:#c271d2; stroke-linecap:round; stroke-linejoin:round; stroke-width:4; stroke-opacity:1; fill:none" points="344.886,1800.78 344.887,1800.78 344.899,1800.78 345.011,1800.78 345.551,1800.78 346.635,1800.77 348.159,1800.77 350.131,1800.77 352.636,1800.77 355.71,1800.76 359.437,1800.76 363.903,1800.76 369.252,1800.76 375.685,1800.76 383.518,1800.76 393.244,1800.75 405.669,1800.75 422.13,1800.74 444.343,1800.74 471.102,1800.73 497.503,1800.71 520.804,1800.7 541.228,1800.68 560.059,1800.67 578.493,1800.65 597.26,1800.62 616.621,1800.59 636.493,1800.56 656.63,1800.52 676.784,1800.47 696.816,1800.41 716.705,1800.35 736.495,1800.26 756.251,1800.17 776.02,1800.06 795.821,1799.93 815.652,1799.77 835.498,1799.58 855.346,1799.36 875.188,1799.1 895.022,1798.79 914.85,1798.42 934.674,1797.99 954.497,1797.47 974.321,1796.87 994.145,1796.15 1013.97,1795.3 1033.79,1794.3 1053.61,1793.11 1073.42,1791.71 1093.23,1790.06 1113.04,1788.12 1132.84,1785.83 1152.64,1783.13 1172.43,1779.97 1192.21,1776.26 1211.99,1771.92 1231.75,1766.84 1251.5,1760.93 1271.24,1754.07 1290.96,1746.12 1310.67,1736.96 1330.35,1726.45 1350.02,1714.47 1369.66,1700.88 1389.27,1685.61 1408.85,1668.58 1428.4,1649.79 1447.92,1629.31 1467.41,1607.29 1486.87,1583.99 1506.3,1559.78 1525.71,1535.18 1545.1,1510.82 1564.48,1487.44 1583.86,1465.84 1603.25,1446.87 1622.68,1431.35 1642.17,1419.99 1661.72,1413.36 1681.38,1411.83 1701.18,1415.5 1721.14,1424.25 1741.32,1437.72 1761.74,1455.35 1782.42,1476.36 1803.35,1499.87 1824.52,1524.95 1845.89,1550.67 1867.41,1576.19 1888.98,1600.79 1910.54,1623.93 1932.02,1645.27 1953.38,1664.65 1974.64,1682.07 1995.83,1697.6 2016.97,1711.36 2038.08,1723.48 2059.17,1734.11 2080.23,1743.37 2101.24,1751.42 2122.2,1758.38 2143.11,1764.39 2163.98,1769.58 2184.82,1774.04 2205.64,1777.88 2226.45,1781.17 2247.24,1784 2268.02,1786.43 2288.78,1788.51 2309.53,1790.29 2330.26,1791.81 2350.99,1793.11 2371.71,1794.23 2392.42,1795.18 2413.13,1796 2433.84,1796.69 2454.54,1797.29 2475.23,1797.8 2495.93,1798.23 2516.62,1798.61 2537.31,1798.92 2557.99,1799.19 2573.89,1799.37 "/>
<polyline clip-path="url(#clip932)" style="stroke:#ac8d18; stroke-linecap:round; stroke-linejoin:round; stroke-width:4; stroke-opacity:1; fill:none" points="344.886,1800.78 344.887,1800.78 344.899,1800.78 345.011,1800.78 345.551,1800.78 346.635,1800.77 348.159,1800.77 350.131,1800.77 352.636,1800.77 355.71,1800.76 359.437,1800.76 363.903,1800.76 369.252,1800.76 375.685,1800.76 383.518,1800.76 393.244,1800.76 405.669,1800.75 422.13,1800.75 444.343,1800.74 471.102,1800.73 497.503,1800.72 520.804,1800.71 541.228,1800.7 560.059,1800.68 578.493,1800.67 597.26,1800.65 616.621,1800.63 636.493,1800.6 656.63,1800.56 676.784,1800.52 696.816,1800.47 716.705,1800.42 736.495,1800.35 756.251,1800.27 776.02,1800.18 795.821,1800.07 815.652,1799.94 835.498,1799.78 855.346,1799.6 875.188,1799.38 895.022,1799.12 914.85,1798.82 934.674,1798.45 954.497,1798.03 974.321,1797.52 994.145,1796.92 1013.97,1796.21 1033.79,1795.38 1053.61,1794.39 1073.42,1793.22 1093.23,1791.84 1113.04,1790.22 1132.84,1788.3 1152.64,1786.05 1172.43,1783.4 1192.21,1780.3 1211.99,1776.65 1231.75,1772.4 1251.5,1767.43 1271.24,1761.65 1290.96,1754.94 1310.67,1747.19 1330.35,1738.28 1350.02,1728.08 1369.66,1716.48 1389.27,1703.37 1408.85,1688.68 1428.4,1672.37 1447.92,1654.46 1467.41,1635.02 1486.87,1614.24 1506.3,1592.39 1525.71,1569.85 1545.1,1547.12 1564.48,1524.81 1583.86,1503.61 1603.25,1484.27 1622.68,1467.55 1642.17,1454.18 1661.72,1444.77 1681.38,1439.8 1701.18,1439.54 1721.14,1444.07 1741.32,1453.22 1761.74,1466.63 1782.42,1483.73 1803.35,1503.77 1824.52,1525.92 1845.89,1549.3 1867.41,1573.06 1888.98,1596.43 1910.54,1618.8 1932.02,1639.74 1953.38,1659.02 1974.64,1676.53 1995.83,1692.3 2016.97,1706.4 2038.08,1718.92 2059.17,1729.96 2080.23,1739.64 2101.24,1748.09 2122.2,1755.43 2143.11,1761.79 2163.98,1767.3 2184.82,1772.05 2205.64,1776.14 2226.45,1779.67 2247.24,1782.7 2268.02,1785.3 2288.78,1787.54 2309.53,1789.45 2330.26,1791.09 2350.99,1792.5 2371.71,1793.7 2392.42,1794.73 2413.13,1795.61 2433.84,1796.36 2454.54,1797.01 2475.23,1797.56 2495.93,1798.03 2516.62,1798.43 2537.31,1798.77 2557.99,1799.06 2573.89,1799.26 "/>
<polyline clip-path="url(#clip932)" style="stroke:#00a9ad; stroke-linecap:round; stroke-linejoin:round; stroke-width:4; stroke-opacity:1; fill:none" points="344.886,1800.78 344.887,1800.78 344.899,1800.78 345.011,1800.78 345.551,1800.78 346.635,1800.77 348.159,1800.77 350.131,1800.77 352.636,1800.76 355.71,1800.76 359.437,1800.76 363.903,1800.76 369.252,1800.75 375.685,1800.75 383.518,1800.75 393.244,1800.75 405.669,1800.75 422.13,1800.74 444.343,1800.74 471.102,1800.72 497.503,1800.71 520.804,1800.7 541.228,1800.68 560.059,1800.66 578.493,1800.64 597.26,1800.62 616.621,1800.59 636.493,1800.56 656.63,1800.52 676.784,1800.47 696.816,1800.41 716.705,1800.34 736.495,1800.26 756.251,1800.16 776.02,1800.05 795.821,1799.91 815.652,1799.75 835.498,1799.56 855.346,1799.34 875.188,1799.07 895.022,1798.76 914.85,1798.39 934.674,1797.94 954.497,1797.42 974.321,1796.81 994.145,1796.08 1013.97,1795.21 1033.79,1794.19 1053.61,1792.98 1073.42,1791.56 1093.23,1789.88 1113.04,1787.9 1132.84,1785.56 1152.64,1782.81 1172.43,1779.57 1192.21,1775.77 1211.99,1771.31 1231.75,1766.09 1251.5,1760 1271.24,1752.9 1290.96,1744.65 1310.67,1735.11 1330.35,1724.11 1350.02,1711.49 1369.66,1697.09 1389.27,1680.78 1408.85,1662.43 1428.4,1641.96 1447.92,1619.35 1467.41,1594.68 1486.87,1568.11 1506.3,1539.92 1525.71,1510.53 1545.1,1480.53 1564.48,1450.63 1583.86,1421.68 1603.25,1394.62 1622.68,1370.43 1642.17,1350.11 1661.72,1334.54 1681.38,1324.46 1701.18,1320.41 1721.14,1322.63 1741.32,1331.13 1761.74,1345.59 1782.42,1365.41 1803.35,1389.73 1824.52,1417.52 1845.89,1447.6 1867.41,1478.82 1888.98,1510.07 1910.54,1540.44 1932.02,1569.23 1953.38,1596.02 1974.64,1620.6 1995.83,1642.91 2016.97,1662.99 2038.08,1680.94 2059.17,1696.85 2080.23,1710.87 2101.24,1723.15 2122.2,1733.87 2143.11,1743.18 2163.98,1751.25 2184.82,1758.23 2205.64,1764.27 2226.45,1769.47 2247.24,1773.95 2268.02,1777.8 2288.78,1781.11 2309.53,1783.94 2330.26,1786.38 2350.99,1788.46 2371.71,1790.25 2392.42,1791.78 2413.13,1793.08 2433.84,1794.2 2454.54,1795.16 2475.23,1795.98 2495.93,1796.68 2516.62,1797.28 2537.31,1797.79 2557.99,1798.22 2573.89,1798.51 "/>
<path clip-path="url(#clip930)" d="M2101.23 468.575 L2562 468.575 L2562 105.695 L2101.23 105.695  Z" fill="#ffffff" fill-rule="evenodd" fill-opacity="1"/>
<polyline clip-path="url(#clip930)" style="stroke:#000000; stroke-linecap:round; stroke-linejoin:round; stroke-width:4; stroke-opacity:1; fill:none" points="2101.23,468.575 2562,468.575 2562,105.695 2101.23,105.695 2101.23,468.575 "/>
<polyline clip-path="url(#clip930)" style="stroke:#009af9; stroke-linecap:round; stroke-linejoin:round; stroke-width:4; stroke-opacity:1; fill:none" points="2127.49,157.535 2285,157.535 "/>
<path clip-path="url(#clip930)" d="M2311.26 140.255 L2315.93 140.255 L2315.93 174.815 L2311.26 174.815 L2311.26 140.255 Z" fill="#000000" fill-rule="nonzero" fill-opacity="1" /><path clip-path="url(#clip930)" d="M2346.6 159.167 L2346.6 174.815 L2342.34 174.815 L2342.34 159.306 Q2342.34 155.626 2340.91 153.797 Q2339.47 151.968 2336.6 151.968 Q2333.15 151.968 2331.16 154.167 Q2329.17 156.366 2329.17 160.163 L2329.17 174.815 L2324.89 174.815 L2324.89 148.889 L2329.17 148.889 L2329.17 152.917 Q2330.7 150.579 2332.76 149.422 Q2334.84 148.264 2337.55 148.264 Q2342.02 148.264 2344.31 151.042 Q2346.6 153.797 2346.6 159.167 Z" fill="#000000" fill-rule="nonzero" fill-opacity="1" /><path clip-path="url(#clip930)" d="M2368.22 138.797 L2368.22 142.339 L2364.15 142.339 Q2361.86 142.339 2360.95 143.265 Q2360.07 144.19 2360.07 146.598 L2360.07 148.889 L2367.09 148.889 L2367.09 152.2 L2360.07 152.2 L2360.07 174.815 L2355.79 174.815 L2355.79 152.2 L2351.72 152.2 L2351.72 148.889 L2355.79 148.889 L2355.79 147.084 Q2355.79 142.755 2357.81 140.788 Q2359.82 138.797 2364.2 138.797 L2368.22 138.797 Z" fill="#000000" fill-rule="nonzero" fill-opacity="1" /><path clip-path="url(#clip930)" d="M2393.96 160.788 L2393.96 162.871 L2374.38 162.871 Q2374.66 167.269 2377.02 169.584 Q2379.4 171.875 2383.64 171.875 Q2386.09 171.875 2388.38 171.274 Q2390.7 170.672 2392.97 169.468 L2392.97 173.496 Q2390.68 174.468 2388.27 174.977 Q2385.86 175.487 2383.38 175.487 Q2377.18 175.487 2373.55 171.875 Q2369.94 168.264 2369.94 162.107 Q2369.94 155.741 2373.36 152.014 Q2376.81 148.264 2382.64 148.264 Q2387.88 148.264 2390.91 151.644 Q2393.96 155.001 2393.96 160.788 M2389.7 159.538 Q2389.66 156.042 2387.74 153.959 Q2385.84 151.876 2382.69 151.876 Q2379.13 151.876 2376.97 153.889 Q2374.84 155.903 2374.52 159.561 L2389.7 159.538 Z" fill="#000000" fill-rule="nonzero" fill-opacity="1" /><path clip-path="url(#clip930)" d="M2419.61 149.885 L2419.61 153.866 Q2417.81 152.871 2415.98 152.385 Q2414.17 151.876 2412.32 151.876 Q2408.18 151.876 2405.88 154.514 Q2403.59 157.13 2403.59 161.876 Q2403.59 166.621 2405.88 169.26 Q2408.18 171.875 2412.32 171.875 Q2414.17 171.875 2415.98 171.389 Q2417.81 170.88 2419.61 169.885 L2419.61 173.82 Q2417.83 174.653 2415.91 175.07 Q2414.01 175.487 2411.86 175.487 Q2406 175.487 2402.55 171.806 Q2399.1 168.125 2399.1 161.876 Q2399.1 155.533 2402.57 151.899 Q2406.07 148.264 2412.13 148.264 Q2414.1 148.264 2415.98 148.681 Q2417.85 149.075 2419.61 149.885 Z" fill="#000000" fill-rule="nonzero" fill-opacity="1" /><path clip-path="url(#clip930)" d="M2431.23 141.528 L2431.23 148.889 L2440.01 148.889 L2440.01 152.2 L2431.23 152.2 L2431.23 166.274 Q2431.23 169.445 2432.09 170.348 Q2432.97 171.25 2435.63 171.25 L2440.01 171.25 L2440.01 174.815 L2435.63 174.815 Q2430.7 174.815 2428.82 172.987 Q2426.95 171.135 2426.95 166.274 L2426.95 152.2 L2423.82 152.2 L2423.82 148.889 L2426.95 148.889 L2426.95 141.528 L2431.23 141.528 Z" fill="#000000" fill-rule="nonzero" fill-opacity="1" /><path clip-path="url(#clip930)" d="M2445.61 148.889 L2449.87 148.889 L2449.87 174.815 L2445.61 174.815 L2445.61 148.889 M2445.61 138.797 L2449.87 138.797 L2449.87 144.19 L2445.61 144.19 L2445.61 138.797 Z" fill="#000000" fill-rule="nonzero" fill-opacity="1" /><path clip-path="url(#clip930)" d="M2468.82 151.876 Q2465.4 151.876 2463.41 154.561 Q2461.42 157.223 2461.42 161.876 Q2461.42 166.528 2463.38 169.213 Q2465.38 171.875 2468.82 171.875 Q2472.23 171.875 2474.22 169.19 Q2476.21 166.505 2476.21 161.876 Q2476.21 157.269 2474.22 154.584 Q2472.23 151.876 2468.82 151.876 M2468.82 148.264 Q2474.38 148.264 2477.55 151.876 Q2480.72 155.487 2480.72 161.876 Q2480.72 168.241 2477.55 171.875 Q2474.38 175.487 2468.82 175.487 Q2463.25 175.487 2460.07 171.875 Q2456.93 168.241 2456.93 161.876 Q2456.93 155.487 2460.07 151.876 Q2463.25 148.264 2468.82 148.264 Z" fill="#000000" fill-rule="nonzero" fill-opacity="1" /><path clip-path="url(#clip930)" d="M2487.34 164.584 L2487.34 148.889 L2491.6 148.889 L2491.6 164.422 Q2491.6 168.102 2493.04 169.954 Q2494.47 171.783 2497.34 171.783 Q2500.79 171.783 2502.78 169.584 Q2504.8 167.385 2504.8 163.588 L2504.8 148.889 L2509.06 148.889 L2509.06 174.815 L2504.8 174.815 L2504.8 170.834 Q2503.25 173.195 2501.19 174.352 Q2499.15 175.487 2496.44 175.487 Q2491.97 175.487 2489.66 172.709 Q2487.34 169.931 2487.34 164.584 M2498.06 148.264 L2498.06 148.264 Z" fill="#000000" fill-rule="nonzero" fill-opacity="1" /><path clip-path="url(#clip930)" d="M2534.36 149.653 L2534.36 153.681 Q2532.55 152.755 2530.61 152.292 Q2528.66 151.829 2526.58 151.829 Q2523.41 151.829 2521.81 152.801 Q2520.24 153.774 2520.24 155.718 Q2520.24 157.2 2521.37 158.056 Q2522.5 158.889 2525.93 159.653 L2527.39 159.977 Q2531.93 160.95 2533.82 162.732 Q2535.75 164.491 2535.75 167.663 Q2535.75 171.274 2532.87 173.38 Q2530.03 175.487 2525.03 175.487 Q2522.94 175.487 2520.68 175.07 Q2518.43 174.676 2515.93 173.866 L2515.93 169.468 Q2518.29 170.695 2520.58 171.32 Q2522.87 171.922 2525.12 171.922 Q2528.13 171.922 2529.75 170.903 Q2531.37 169.862 2531.37 167.987 Q2531.37 166.25 2530.19 165.325 Q2529.03 164.399 2525.07 163.542 L2523.59 163.195 Q2519.63 162.362 2517.87 160.649 Q2516.12 158.913 2516.12 155.903 Q2516.12 152.246 2518.71 150.255 Q2521.3 148.264 2526.07 148.264 Q2528.43 148.264 2530.51 148.612 Q2532.6 148.959 2534.36 149.653 Z" fill="#000000" fill-rule="nonzero" fill-opacity="1" /><polyline clip-path="url(#clip930)" style="stroke:#e26f46; stroke-linecap:round; stroke-linejoin:round; stroke-width:4; stroke-opacity:1; fill:none" points="2127.49,209.375 2285,209.375 "/>
<path clip-path="url(#clip930)" d="M2311.26 192.095 L2315.93 192.095 L2315.93 226.655 L2311.26 226.655 L2311.26 192.095 Z" fill="#000000" fill-rule="nonzero" fill-opacity="1" /><path clip-path="url(#clip930)" d="M2346.6 211.007 L2346.6 226.655 L2342.34 226.655 L2342.34 211.146 Q2342.34 207.466 2340.91 205.637 Q2339.47 203.808 2336.6 203.808 Q2333.15 203.808 2331.16 206.007 Q2329.17 208.206 2329.17 212.003 L2329.17 226.655 L2324.89 226.655 L2324.89 200.729 L2329.17 200.729 L2329.17 204.757 Q2330.7 202.419 2332.76 201.262 Q2334.84 200.104 2337.55 200.104 Q2342.02 200.104 2344.31 202.882 Q2346.6 205.637 2346.6 211.007 Z" fill="#000000" fill-rule="nonzero" fill-opacity="1" /><path clip-path="url(#clip930)" d="M2368.22 190.637 L2368.22 194.179 L2364.15 194.179 Q2361.86 194.179 2360.95 195.105 Q2360.07 196.03 2360.07 198.438 L2360.07 200.729 L2367.09 200.729 L2367.09 204.04 L2360.07 204.04 L2360.07 226.655 L2355.79 226.655 L2355.79 204.04 L2351.72 204.04 L2351.72 200.729 L2355.79 200.729 L2355.79 198.924 Q2355.79 194.595 2357.81 192.628 Q2359.82 190.637 2364.2 190.637 L2368.22 190.637 Z" fill="#000000" fill-rule="nonzero" fill-opacity="1" /><path clip-path="url(#clip930)" d="M2393.96 212.628 L2393.96 214.711 L2374.38 214.711 Q2374.66 219.109 2377.02 221.424 Q2379.4 223.715 2383.64 223.715 Q2386.09 223.715 2388.38 223.114 Q2390.7 222.512 2392.97 221.308 L2392.97 225.336 Q2390.68 226.308 2388.27 226.817 Q2385.86 227.327 2383.38 227.327 Q2377.18 227.327 2373.55 223.715 Q2369.94 220.104 2369.94 213.947 Q2369.94 207.581 2373.36 203.854 Q2376.81 200.104 2382.64 200.104 Q2387.88 200.104 2390.91 203.484 Q2393.96 206.841 2393.96 212.628 M2389.7 211.378 Q2389.66 207.882 2387.74 205.799 Q2385.84 203.716 2382.69 203.716 Q2379.13 203.716 2376.97 205.729 Q2374.84 207.743 2374.52 211.401 L2389.7 211.378 Z" fill="#000000" fill-rule="nonzero" fill-opacity="1" /><path clip-path="url(#clip930)" d="M2419.61 201.725 L2419.61 205.706 Q2417.81 204.711 2415.98 204.225 Q2414.17 203.716 2412.32 203.716 Q2408.18 203.716 2405.88 206.354 Q2403.59 208.97 2403.59 213.716 Q2403.59 218.461 2405.88 221.1 Q2408.18 223.715 2412.32 223.715 Q2414.17 223.715 2415.98 223.229 Q2417.81 222.72 2419.61 221.725 L2419.61 225.66 Q2417.83 226.493 2415.91 226.91 Q2414.01 227.327 2411.86 227.327 Q2406 227.327 2402.55 223.646 Q2399.1 219.965 2399.1 213.716 Q2399.1 207.373 2402.57 203.739 Q2406.07 200.104 2412.13 200.104 Q2414.1 200.104 2415.98 200.521 Q2417.85 200.915 2419.61 201.725 Z" fill="#000000" fill-rule="nonzero" fill-opacity="1" /><path clip-path="url(#clip930)" d="M2431.23 193.368 L2431.23 200.729 L2440.01 200.729 L2440.01 204.04 L2431.23 204.04 L2431.23 218.114 Q2431.23 221.285 2432.09 222.188 Q2432.97 223.09 2435.63 223.09 L2440.01 223.09 L2440.01 226.655 L2435.63 226.655 Q2430.7 226.655 2428.82 224.827 Q2426.95 222.975 2426.95 218.114 L2426.95 204.04 L2423.82 204.04 L2423.82 200.729 L2426.95 200.729 L2426.95 193.368 L2431.23 193.368 Z" fill="#000000" fill-rule="nonzero" fill-opacity="1" /><path clip-path="url(#clip930)" d="M2445.61 200.729 L2449.87 200.729 L2449.87 226.655 L2445.61 226.655 L2445.61 200.729 M2445.61 190.637 L2449.87 190.637 L2449.87 196.03 L2445.61 196.03 L2445.61 190.637 Z" fill="#000000" fill-rule="nonzero" fill-opacity="1" /><path clip-path="url(#clip930)" d="M2468.82 203.716 Q2465.4 203.716 2463.41 206.401 Q2461.42 209.063 2461.42 213.716 Q2461.42 218.368 2463.38 221.053 Q2465.38 223.715 2468.82 223.715 Q2472.23 223.715 2474.22 221.03 Q2476.21 218.345 2476.21 213.716 Q2476.21 209.109 2474.22 206.424 Q2472.23 203.716 2468.82 203.716 M2468.82 200.104 Q2474.38 200.104 2477.55 203.716 Q2480.72 207.327 2480.72 213.716 Q2480.72 220.081 2477.55 223.715 Q2474.38 227.327 2468.82 227.327 Q2463.25 227.327 2460.07 223.715 Q2456.93 220.081 2456.93 213.716 Q2456.93 207.327 2460.07 203.716 Q2463.25 200.104 2468.82 200.104 Z" fill="#000000" fill-rule="nonzero" fill-opacity="1" /><path clip-path="url(#clip930)" d="M2487.34 216.424 L2487.34 200.729 L2491.6 200.729 L2491.6 216.262 Q2491.6 219.942 2493.04 221.794 Q2494.47 223.623 2497.34 223.623 Q2500.79 223.623 2502.78 221.424 Q2504.8 219.225 2504.8 215.428 L2504.8 200.729 L2509.06 200.729 L2509.06 226.655 L2504.8 226.655 L2504.8 222.674 Q2503.25 225.035 2501.19 226.192 Q2499.15 227.327 2496.44 227.327 Q2491.97 227.327 2489.66 224.549 Q2487.34 221.771 2487.34 216.424 M2498.06 200.104 L2498.06 200.104 Z" fill="#000000" fill-rule="nonzero" fill-opacity="1" /><path clip-path="url(#clip930)" d="M2534.36 201.493 L2534.36 205.521 Q2532.55 204.595 2530.61 204.132 Q2528.66 203.669 2526.58 203.669 Q2523.41 203.669 2521.81 204.641 Q2520.24 205.614 2520.24 207.558 Q2520.24 209.04 2521.37 209.896 Q2522.5 210.729 2525.93 211.493 L2527.39 211.817 Q2531.93 212.79 2533.82 214.572 Q2535.75 216.331 2535.75 219.503 Q2535.75 223.114 2532.87 225.22 Q2530.03 227.327 2525.03 227.327 Q2522.94 227.327 2520.68 226.91 Q2518.43 226.516 2515.93 225.706 L2515.93 221.308 Q2518.29 222.535 2520.58 223.16 Q2522.87 223.762 2525.12 223.762 Q2528.13 223.762 2529.75 222.743 Q2531.37 221.702 2531.37 219.827 Q2531.37 218.09 2530.19 217.165 Q2529.03 216.239 2525.07 215.382 L2523.59 215.035 Q2519.63 214.202 2517.87 212.489 Q2516.12 210.753 2516.12 207.743 Q2516.12 204.086 2518.71 202.095 Q2521.3 200.104 2526.07 200.104 Q2528.43 200.104 2530.51 200.452 Q2532.6 200.799 2534.36 201.493 Z" fill="#000000" fill-rule="nonzero" fill-opacity="1" /><polyline clip-path="url(#clip930)" style="stroke:#3da44d; stroke-linecap:round; stroke-linejoin:round; stroke-width:4; stroke-opacity:1; fill:none" points="2127.49,261.215 2285,261.215 "/>
<path clip-path="url(#clip930)" d="M2311.26 243.935 L2315.93 243.935 L2315.93 278.495 L2311.26 278.495 L2311.26 243.935 Z" fill="#000000" fill-rule="nonzero" fill-opacity="1" /><path clip-path="url(#clip930)" d="M2346.6 262.847 L2346.6 278.495 L2342.34 278.495 L2342.34 262.986 Q2342.34 259.306 2340.91 257.477 Q2339.47 255.648 2336.6 255.648 Q2333.15 255.648 2331.16 257.847 Q2329.17 260.046 2329.17 263.843 L2329.17 278.495 L2324.89 278.495 L2324.89 252.569 L2329.17 252.569 L2329.17 256.597 Q2330.7 254.259 2332.76 253.102 Q2334.84 251.944 2337.55 251.944 Q2342.02 251.944 2344.31 254.722 Q2346.6 257.477 2346.6 262.847 Z" fill="#000000" fill-rule="nonzero" fill-opacity="1" /><path clip-path="url(#clip930)" d="M2368.22 242.477 L2368.22 246.019 L2364.15 246.019 Q2361.86 246.019 2360.95 246.945 Q2360.07 247.87 2360.07 250.278 L2360.07 252.569 L2367.09 252.569 L2367.09 255.88 L2360.07 255.88 L2360.07 278.495 L2355.79 278.495 L2355.79 255.88 L2351.72 255.88 L2351.72 252.569 L2355.79 252.569 L2355.79 250.764 Q2355.79 246.435 2357.81 244.468 Q2359.82 242.477 2364.2 242.477 L2368.22 242.477 Z" fill="#000000" fill-rule="nonzero" fill-opacity="1" /><path clip-path="url(#clip930)" d="M2393.96 264.468 L2393.96 266.551 L2374.38 266.551 Q2374.66 270.949 2377.02 273.264 Q2379.4 275.555 2383.64 275.555 Q2386.09 275.555 2388.38 274.954 Q2390.7 274.352 2392.97 273.148 L2392.97 277.176 Q2390.68 278.148 2388.27 278.657 Q2385.86 279.167 2383.38 279.167 Q2377.18 279.167 2373.55 275.555 Q2369.94 271.944 2369.94 265.787 Q2369.94 259.421 2373.36 255.694 Q2376.81 251.944 2382.64 251.944 Q2387.88 251.944 2390.91 255.324 Q2393.96 258.681 2393.96 264.468 M2389.7 263.218 Q2389.66 259.722 2387.74 257.639 Q2385.84 255.556 2382.69 255.556 Q2379.13 255.556 2376.97 257.569 Q2374.84 259.583 2374.52 263.241 L2389.7 263.218 Z" fill="#000000" fill-rule="nonzero" fill-opacity="1" /><path clip-path="url(#clip930)" d="M2419.61 253.565 L2419.61 257.546 Q2417.81 256.551 2415.98 256.065 Q2414.17 255.556 2412.32 255.556 Q2408.18 255.556 2405.88 258.194 Q2403.59 260.81 2403.59 265.556 Q2403.59 270.301 2405.88 272.94 Q2408.18 275.555 2412.32 275.555 Q2414.17 275.555 2415.98 275.069 Q2417.81 274.56 2419.61 273.565 L2419.61 277.5 Q2417.83 278.333 2415.91 278.75 Q2414.01 279.167 2411.86 279.167 Q2406 279.167 2402.55 275.486 Q2399.1 271.805 2399.1 265.556 Q2399.1 259.213 2402.57 255.579 Q2406.07 251.944 2412.13 251.944 Q2414.1 251.944 2415.98 252.361 Q2417.85 252.755 2419.61 253.565 Z" fill="#000000" fill-rule="nonzero" fill-opacity="1" /><path clip-path="url(#clip930)" d="M2431.23 245.208 L2431.23 252.569 L2440.01 252.569 L2440.01 255.88 L2431.23 255.88 L2431.23 269.954 Q2431.23 273.125 2432.09 274.028 Q2432.97 274.93 2435.63 274.93 L2440.01 274.93 L2440.01 278.495 L2435.63 278.495 Q2430.7 278.495 2428.82 276.667 Q2426.95 274.815 2426.95 269.954 L2426.95 255.88 L2423.82 255.88 L2423.82 252.569 L2426.95 252.569 L2426.95 245.208 L2431.23 245.208 Z" fill="#000000" fill-rule="nonzero" fill-opacity="1" /><path clip-path="url(#clip930)" d="M2445.61 252.569 L2449.87 252.569 L2449.87 278.495 L2445.61 278.495 L2445.61 252.569 M2445.61 242.477 L2449.87 242.477 L2449.87 247.87 L2445.61 247.87 L2445.61 242.477 Z" fill="#000000" fill-rule="nonzero" fill-opacity="1" /><path clip-path="url(#clip930)" d="M2468.82 255.556 Q2465.4 255.556 2463.41 258.241 Q2461.42 260.903 2461.42 265.556 Q2461.42 270.208 2463.38 272.893 Q2465.38 275.555 2468.82 275.555 Q2472.23 275.555 2474.22 272.87 Q2476.21 270.185 2476.21 265.556 Q2476.21 260.949 2474.22 258.264 Q2472.23 255.556 2468.82 255.556 M2468.82 251.944 Q2474.38 251.944 2477.55 255.556 Q2480.72 259.167 2480.72 265.556 Q2480.72 271.921 2477.55 275.555 Q2474.38 279.167 2468.82 279.167 Q2463.25 279.167 2460.07 275.555 Q2456.93 271.921 2456.93 265.556 Q2456.93 259.167 2460.07 255.556 Q2463.25 251.944 2468.82 251.944 Z" fill="#000000" fill-rule="nonzero" fill-opacity="1" /><path clip-path="url(#clip930)" d="M2487.34 268.264 L2487.34 252.569 L2491.6 252.569 L2491.6 268.102 Q2491.6 271.782 2493.04 273.634 Q2494.47 275.463 2497.34 275.463 Q2500.79 275.463 2502.78 273.264 Q2504.8 271.065 2504.8 267.268 L2504.8 252.569 L2509.06 252.569 L2509.06 278.495 L2504.8 278.495 L2504.8 274.514 Q2503.25 276.875 2501.19 278.032 Q2499.15 279.167 2496.44 279.167 Q2491.97 279.167 2489.66 276.389 Q2487.34 273.611 2487.34 268.264 M2498.06 251.944 L2498.06 251.944 Z" fill="#000000" fill-rule="nonzero" fill-opacity="1" /><path clip-path="url(#clip930)" d="M2534.36 253.333 L2534.36 257.361 Q2532.55 256.435 2530.61 255.972 Q2528.66 255.509 2526.58 255.509 Q2523.41 255.509 2521.81 256.481 Q2520.24 257.454 2520.24 259.398 Q2520.24 260.88 2521.37 261.736 Q2522.5 262.569 2525.93 263.333 L2527.39 263.657 Q2531.93 264.63 2533.82 266.412 Q2535.75 268.171 2535.75 271.343 Q2535.75 274.954 2532.87 277.06 Q2530.03 279.167 2525.03 279.167 Q2522.94 279.167 2520.68 278.75 Q2518.43 278.356 2515.93 277.546 L2515.93 273.148 Q2518.29 274.375 2520.58 275 Q2522.87 275.602 2525.12 275.602 Q2528.13 275.602 2529.75 274.583 Q2531.37 273.542 2531.37 271.667 Q2531.37 269.93 2530.19 269.005 Q2529.03 268.079 2525.07 267.222 L2523.59 266.875 Q2519.63 266.042 2517.87 264.329 Q2516.12 262.593 2516.12 259.583 Q2516.12 255.926 2518.71 253.935 Q2521.3 251.944 2526.07 251.944 Q2528.43 251.944 2530.51 252.292 Q2532.6 252.639 2534.36 253.333 Z" fill="#000000" fill-rule="nonzero" fill-opacity="1" /><polyline clip-path="url(#clip930)" style="stroke:#c271d2; stroke-linecap:round; stroke-linejoin:round; stroke-width:4; stroke-opacity:1; fill:none" points="2127.49,313.055 2285,313.055 "/>
<path clip-path="url(#clip930)" d="M2311.26 295.775 L2333.11 295.775 L2333.11 299.71 L2315.93 299.71 L2315.93 309.942 L2332.39 309.942 L2332.39 313.877 L2315.93 313.877 L2315.93 326.4 L2333.52 326.4 L2333.52 330.335 L2311.26 330.335 L2311.26 295.775 Z" fill="#000000" fill-rule="nonzero" fill-opacity="1" /><path clip-path="url(#clip930)" d="M2362.57 304.409 L2353.2 317.025 L2363.06 330.335 L2358.04 330.335 L2350.49 320.15 L2342.95 330.335 L2337.92 330.335 L2347.99 316.771 L2338.78 304.409 L2343.8 304.409 L2350.68 313.646 L2357.55 304.409 L2362.57 304.409 Z" fill="#000000" fill-rule="nonzero" fill-opacity="1" /><path clip-path="url(#clip930)" d="M2373.2 326.446 L2373.2 340.196 L2368.92 340.196 L2368.92 304.409 L2373.2 304.409 L2373.2 308.345 Q2374.54 306.03 2376.58 304.919 Q2378.64 303.784 2381.49 303.784 Q2386.21 303.784 2389.15 307.534 Q2392.11 311.284 2392.11 317.396 Q2392.11 323.507 2389.15 327.257 Q2386.21 331.007 2381.49 331.007 Q2378.64 331.007 2376.58 329.895 Q2374.54 328.761 2373.2 326.446 M2387.69 317.396 Q2387.69 312.696 2385.75 310.034 Q2383.82 307.349 2380.45 307.349 Q2377.07 307.349 2375.12 310.034 Q2373.2 312.696 2373.2 317.396 Q2373.2 322.095 2375.12 324.78 Q2377.07 327.442 2380.45 327.442 Q2383.82 327.442 2385.75 324.78 Q2387.69 322.095 2387.69 317.396 Z" fill="#000000" fill-rule="nonzero" fill-opacity="1" /><path clip-path="url(#clip930)" d="M2409.22 307.396 Q2405.79 307.396 2403.8 310.081 Q2401.81 312.743 2401.81 317.396 Q2401.81 322.048 2403.78 324.733 Q2405.77 327.395 2409.22 327.395 Q2412.62 327.395 2414.61 324.71 Q2416.6 322.025 2416.6 317.396 Q2416.6 312.789 2414.61 310.104 Q2412.62 307.396 2409.22 307.396 M2409.22 303.784 Q2414.77 303.784 2417.94 307.396 Q2421.12 311.007 2421.12 317.396 Q2421.12 323.761 2417.94 327.395 Q2414.77 331.007 2409.22 331.007 Q2403.64 331.007 2400.47 327.395 Q2397.32 323.761 2397.32 317.396 Q2397.32 311.007 2400.47 307.396 Q2403.64 303.784 2409.22 303.784 Z" fill="#000000" fill-rule="nonzero" fill-opacity="1" /><path clip-path="url(#clip930)" d="M2444.7 305.173 L2444.7 309.201 Q2442.9 308.275 2440.95 307.812 Q2439.01 307.349 2436.93 307.349 Q2433.76 307.349 2432.16 308.321 Q2430.58 309.294 2430.58 311.238 Q2430.58 312.72 2431.72 313.576 Q2432.85 314.409 2436.28 315.173 L2437.74 315.497 Q2442.27 316.47 2444.17 318.252 Q2446.09 320.011 2446.09 323.183 Q2446.09 326.794 2443.22 328.9 Q2440.38 331.007 2435.38 331.007 Q2433.29 331.007 2431.02 330.59 Q2428.78 330.196 2426.28 329.386 L2426.28 324.988 Q2428.64 326.215 2430.93 326.84 Q2433.22 327.442 2435.47 327.442 Q2438.48 327.442 2440.1 326.423 Q2441.72 325.382 2441.72 323.507 Q2441.72 321.77 2440.54 320.845 Q2439.38 319.919 2435.42 319.062 L2433.94 318.715 Q2429.98 317.882 2428.22 316.169 Q2426.46 314.433 2426.46 311.423 Q2426.46 307.766 2429.06 305.775 Q2431.65 303.784 2436.42 303.784 Q2438.78 303.784 2440.86 304.132 Q2442.94 304.479 2444.7 305.173 Z" fill="#000000" fill-rule="nonzero" fill-opacity="1" /><path clip-path="url(#clip930)" d="M2475.05 316.308 L2475.05 318.391 L2455.47 318.391 Q2455.75 322.789 2458.11 325.104 Q2460.49 327.395 2464.73 327.395 Q2467.18 327.395 2469.47 326.794 Q2471.79 326.192 2474.06 324.988 L2474.06 329.016 Q2471.76 329.988 2469.36 330.497 Q2466.95 331.007 2464.47 331.007 Q2458.27 331.007 2454.63 327.395 Q2451.02 323.784 2451.02 317.627 Q2451.02 311.261 2454.45 307.534 Q2457.9 303.784 2463.73 303.784 Q2468.96 303.784 2472 307.164 Q2475.05 310.521 2475.05 316.308 M2470.79 315.058 Q2470.75 311.562 2468.82 309.479 Q2466.93 307.396 2463.78 307.396 Q2460.21 307.396 2458.06 309.409 Q2455.93 311.423 2455.61 315.081 L2470.79 315.058 Z" fill="#000000" fill-rule="nonzero" fill-opacity="1" /><path clip-path="url(#clip930)" d="M2499.1 308.345 L2499.1 294.317 L2503.36 294.317 L2503.36 330.335 L2499.1 330.335 L2499.1 326.446 Q2497.76 328.761 2495.7 329.895 Q2493.66 331.007 2490.79 331.007 Q2486.09 331.007 2483.13 327.257 Q2480.19 323.507 2480.19 317.396 Q2480.19 311.284 2483.13 307.534 Q2486.09 303.784 2490.79 303.784 Q2493.66 303.784 2495.7 304.919 Q2497.76 306.03 2499.1 308.345 M2484.59 317.396 Q2484.59 322.095 2486.51 324.78 Q2488.45 327.442 2491.83 327.442 Q2495.21 327.442 2497.16 324.78 Q2499.1 322.095 2499.1 317.396 Q2499.1 312.696 2497.16 310.034 Q2495.21 307.349 2491.83 307.349 Q2488.45 307.349 2486.51 310.034 Q2484.59 312.696 2484.59 317.396 Z" fill="#000000" fill-rule="nonzero" fill-opacity="1" /><polyline clip-path="url(#clip930)" style="stroke:#ac8d18; stroke-linecap:round; stroke-linejoin:round; stroke-width:4; stroke-opacity:1; fill:none" points="2127.49,364.895 2285,364.895 "/>
<path clip-path="url(#clip930)" d="M2311.26 347.615 L2333.11 347.615 L2333.11 351.55 L2315.93 351.55 L2315.93 361.782 L2332.39 361.782 L2332.39 365.717 L2315.93 365.717 L2315.93 378.24 L2333.52 378.24 L2333.52 382.175 L2311.26 382.175 L2311.26 347.615 Z" fill="#000000" fill-rule="nonzero" fill-opacity="1" /><path clip-path="url(#clip930)" d="M2362.57 356.249 L2353.2 368.865 L2363.06 382.175 L2358.04 382.175 L2350.49 371.99 L2342.95 382.175 L2337.92 382.175 L2347.99 368.611 L2338.78 356.249 L2343.8 356.249 L2350.68 365.486 L2357.55 356.249 L2362.57 356.249 Z" fill="#000000" fill-rule="nonzero" fill-opacity="1" /><path clip-path="url(#clip930)" d="M2373.2 378.286 L2373.2 392.036 L2368.92 392.036 L2368.92 356.249 L2373.2 356.249 L2373.2 360.185 Q2374.54 357.87 2376.58 356.759 Q2378.64 355.624 2381.49 355.624 Q2386.21 355.624 2389.15 359.374 Q2392.11 363.124 2392.11 369.236 Q2392.11 375.347 2389.15 379.097 Q2386.21 382.847 2381.49 382.847 Q2378.64 382.847 2376.58 381.735 Q2374.54 380.601 2373.2 378.286 M2387.69 369.236 Q2387.69 364.536 2385.75 361.874 Q2383.82 359.189 2380.45 359.189 Q2377.07 359.189 2375.12 361.874 Q2373.2 364.536 2373.2 369.236 Q2373.2 373.935 2375.12 376.62 Q2377.07 379.282 2380.45 379.282 Q2383.82 379.282 2385.75 376.62 Q2387.69 373.935 2387.69 369.236 Z" fill="#000000" fill-rule="nonzero" fill-opacity="1" /><path clip-path="url(#clip930)" d="M2409.22 359.236 Q2405.79 359.236 2403.8 361.921 Q2401.81 364.583 2401.81 369.236 Q2401.81 373.888 2403.78 376.573 Q2405.77 379.235 2409.22 379.235 Q2412.62 379.235 2414.61 376.55 Q2416.6 373.865 2416.6 369.236 Q2416.6 364.629 2414.61 361.944 Q2412.62 359.236 2409.22 359.236 M2409.22 355.624 Q2414.77 355.624 2417.94 359.236 Q2421.12 362.847 2421.12 369.236 Q2421.12 375.601 2417.94 379.235 Q2414.77 382.847 2409.22 382.847 Q2403.64 382.847 2400.47 379.235 Q2397.32 375.601 2397.32 369.236 Q2397.32 362.847 2400.47 359.236 Q2403.64 355.624 2409.22 355.624 Z" fill="#000000" fill-rule="nonzero" fill-opacity="1" /><path clip-path="url(#clip930)" d="M2444.7 357.013 L2444.7 361.041 Q2442.9 360.115 2440.95 359.652 Q2439.01 359.189 2436.93 359.189 Q2433.76 359.189 2432.16 360.161 Q2430.58 361.134 2430.58 363.078 Q2430.58 364.56 2431.72 365.416 Q2432.85 366.249 2436.28 367.013 L2437.74 367.337 Q2442.27 368.31 2444.17 370.092 Q2446.09 371.851 2446.09 375.023 Q2446.09 378.634 2443.22 380.74 Q2440.38 382.847 2435.38 382.847 Q2433.29 382.847 2431.02 382.43 Q2428.78 382.036 2426.28 381.226 L2426.28 376.828 Q2428.64 378.055 2430.93 378.68 Q2433.22 379.282 2435.47 379.282 Q2438.48 379.282 2440.1 378.263 Q2441.72 377.222 2441.72 375.347 Q2441.72 373.61 2440.54 372.685 Q2439.38 371.759 2435.42 370.902 L2433.94 370.555 Q2429.98 369.722 2428.22 368.009 Q2426.46 366.273 2426.46 363.263 Q2426.46 359.606 2429.06 357.615 Q2431.65 355.624 2436.42 355.624 Q2438.78 355.624 2440.86 355.972 Q2442.94 356.319 2444.7 357.013 Z" fill="#000000" fill-rule="nonzero" fill-opacity="1" /><path clip-path="url(#clip930)" d="M2475.05 368.148 L2475.05 370.231 L2455.47 370.231 Q2455.75 374.629 2458.11 376.944 Q2460.49 379.235 2464.73 379.235 Q2467.18 379.235 2469.47 378.634 Q2471.79 378.032 2474.06 376.828 L2474.06 380.856 Q2471.76 381.828 2469.36 382.337 Q2466.95 382.847 2464.47 382.847 Q2458.27 382.847 2454.63 379.235 Q2451.02 375.624 2451.02 369.467 Q2451.02 363.101 2454.45 359.374 Q2457.9 355.624 2463.73 355.624 Q2468.96 355.624 2472 359.004 Q2475.05 362.361 2475.05 368.148 M2470.79 366.898 Q2470.75 363.402 2468.82 361.319 Q2466.93 359.236 2463.78 359.236 Q2460.21 359.236 2458.06 361.249 Q2455.93 363.263 2455.61 366.921 L2470.79 366.898 Z" fill="#000000" fill-rule="nonzero" fill-opacity="1" /><path clip-path="url(#clip930)" d="M2499.1 360.185 L2499.1 346.157 L2503.36 346.157 L2503.36 382.175 L2499.1 382.175 L2499.1 378.286 Q2497.76 380.601 2495.7 381.735 Q2493.66 382.847 2490.79 382.847 Q2486.09 382.847 2483.13 379.097 Q2480.19 375.347 2480.19 369.236 Q2480.19 363.124 2483.13 359.374 Q2486.09 355.624 2490.79 355.624 Q2493.66 355.624 2495.7 356.759 Q2497.76 357.87 2499.1 360.185 M2484.59 369.236 Q2484.59 373.935 2486.51 376.62 Q2488.45 379.282 2491.83 379.282 Q2495.21 379.282 2497.16 376.62 Q2499.1 373.935 2499.1 369.236 Q2499.1 364.536 2497.16 361.874 Q2495.21 359.189 2491.83 359.189 Q2488.45 359.189 2486.51 361.874 Q2484.59 364.536 2484.59 369.236 Z" fill="#000000" fill-rule="nonzero" fill-opacity="1" /><polyline clip-path="url(#clip930)" style="stroke:#00a9ad; stroke-linecap:round; stroke-linejoin:round; stroke-width:4; stroke-opacity:1; fill:none" points="2127.49,416.735 2285,416.735 "/>
<path clip-path="url(#clip930)" d="M2311.26 399.455 L2333.11 399.455 L2333.11 403.39 L2315.93 403.39 L2315.93 413.622 L2332.39 413.622 L2332.39 417.557 L2315.93 417.557 L2315.93 430.08 L2333.52 430.08 L2333.52 434.015 L2311.26 434.015 L2311.26 399.455 Z" fill="#000000" fill-rule="nonzero" fill-opacity="1" /><path clip-path="url(#clip930)" d="M2362.57 408.089 L2353.2 420.705 L2363.06 434.015 L2358.04 434.015 L2350.49 423.83 L2342.95 434.015 L2337.92 434.015 L2347.99 420.451 L2338.78 408.089 L2343.8 408.089 L2350.68 417.326 L2357.55 408.089 L2362.57 408.089 Z" fill="#000000" fill-rule="nonzero" fill-opacity="1" /><path clip-path="url(#clip930)" d="M2373.2 430.126 L2373.2 443.876 L2368.92 443.876 L2368.92 408.089 L2373.2 408.089 L2373.2 412.025 Q2374.54 409.71 2376.58 408.599 Q2378.64 407.464 2381.49 407.464 Q2386.21 407.464 2389.15 411.214 Q2392.11 414.964 2392.11 421.076 Q2392.11 427.187 2389.15 430.937 Q2386.21 434.687 2381.49 434.687 Q2378.64 434.687 2376.58 433.575 Q2374.54 432.441 2373.2 430.126 M2387.69 421.076 Q2387.69 416.376 2385.75 413.714 Q2383.82 411.029 2380.45 411.029 Q2377.07 411.029 2375.12 413.714 Q2373.2 416.376 2373.2 421.076 Q2373.2 425.775 2375.12 428.46 Q2377.07 431.122 2380.45 431.122 Q2383.82 431.122 2385.75 428.46 Q2387.69 425.775 2387.69 421.076 Z" fill="#000000" fill-rule="nonzero" fill-opacity="1" /><path clip-path="url(#clip930)" d="M2409.22 411.076 Q2405.79 411.076 2403.8 413.761 Q2401.81 416.423 2401.81 421.076 Q2401.81 425.728 2403.78 428.413 Q2405.77 431.075 2409.22 431.075 Q2412.62 431.075 2414.61 428.39 Q2416.6 425.705 2416.6 421.076 Q2416.6 416.469 2414.61 413.784 Q2412.62 411.076 2409.22 411.076 M2409.22 407.464 Q2414.77 407.464 2417.94 411.076 Q2421.12 414.687 2421.12 421.076 Q2421.12 427.441 2417.94 431.075 Q2414.77 434.687 2409.22 434.687 Q2403.64 434.687 2400.47 431.075 Q2397.32 427.441 2397.32 421.076 Q2397.32 414.687 2400.47 411.076 Q2403.64 407.464 2409.22 407.464 Z" fill="#000000" fill-rule="nonzero" fill-opacity="1" /><path clip-path="url(#clip930)" d="M2444.7 408.853 L2444.7 412.881 Q2442.9 411.955 2440.95 411.492 Q2439.01 411.029 2436.93 411.029 Q2433.76 411.029 2432.16 412.001 Q2430.58 412.974 2430.58 414.918 Q2430.58 416.4 2431.72 417.256 Q2432.85 418.089 2436.28 418.853 L2437.74 419.177 Q2442.27 420.15 2444.17 421.932 Q2446.09 423.691 2446.09 426.863 Q2446.09 430.474 2443.22 432.58 Q2440.38 434.687 2435.38 434.687 Q2433.29 434.687 2431.02 434.27 Q2428.78 433.876 2426.28 433.066 L2426.28 428.668 Q2428.64 429.895 2430.93 430.52 Q2433.22 431.122 2435.47 431.122 Q2438.48 431.122 2440.1 430.103 Q2441.72 429.062 2441.72 427.187 Q2441.72 425.45 2440.54 424.525 Q2439.38 423.599 2435.42 422.742 L2433.94 422.395 Q2429.98 421.562 2428.22 419.849 Q2426.46 418.113 2426.46 415.103 Q2426.46 411.446 2429.06 409.455 Q2431.65 407.464 2436.42 407.464 Q2438.78 407.464 2440.86 407.812 Q2442.94 408.159 2444.7 408.853 Z" fill="#000000" fill-rule="nonzero" fill-opacity="1" /><path clip-path="url(#clip930)" d="M2475.05 419.988 L2475.05 422.071 L2455.47 422.071 Q2455.75 426.469 2458.11 428.784 Q2460.49 431.075 2464.73 431.075 Q2467.18 431.075 2469.47 430.474 Q2471.79 429.872 2474.06 428.668 L2474.06 432.696 Q2471.76 433.668 2469.36 434.177 Q2466.95 434.687 2464.47 434.687 Q2458.27 434.687 2454.63 431.075 Q2451.02 427.464 2451.02 421.307 Q2451.02 414.941 2454.45 411.214 Q2457.9 407.464 2463.73 407.464 Q2468.96 407.464 2472 410.844 Q2475.05 414.201 2475.05 419.988 M2470.79 418.738 Q2470.75 415.242 2468.82 413.159 Q2466.93 411.076 2463.78 411.076 Q2460.21 411.076 2458.06 413.089 Q2455.93 415.103 2455.61 418.761 L2470.79 418.738 Z" fill="#000000" fill-rule="nonzero" fill-opacity="1" /><path clip-path="url(#clip930)" d="M2499.1 412.025 L2499.1 397.997 L2503.36 397.997 L2503.36 434.015 L2499.1 434.015 L2499.1 430.126 Q2497.76 432.441 2495.7 433.575 Q2493.66 434.687 2490.79 434.687 Q2486.09 434.687 2483.13 430.937 Q2480.19 427.187 2480.19 421.076 Q2480.19 414.964 2483.13 411.214 Q2486.09 407.464 2490.79 407.464 Q2493.66 407.464 2495.7 408.599 Q2497.76 409.71 2499.1 412.025 M2484.59 421.076 Q2484.59 425.775 2486.51 428.46 Q2488.45 431.122 2491.83 431.122 Q2495.21 431.122 2497.16 428.46 Q2499.1 425.775 2499.1 421.076 Q2499.1 416.376 2497.16 413.714 Q2495.21 411.029 2491.83 411.029 Q2488.45 411.029 2486.51 413.714 Q2484.59 416.376 2484.59 421.076 Z" fill="#000000" fill-rule="nonzero" fill-opacity="1" /></svg>
