<?xml version="1.0" encoding="UTF-8" standalone="no"?>
<!DOCTYPE svg PUBLIC "-//W3C//DTD SVG 1.1//EN"
 "http://www.w3.org/Graphics/SVG/1.1/DTD/svg11.dtd">
<!-- Generated by graphviz version 11.0.0 (20240428.1522)
 -->
<!-- Title: G Pages: 1 -->
<svg width="517pt" height="114pt"
 viewBox="0.00 0.00 516.50 113.50" xmlns="http://www.w3.org/2000/svg" xmlns:xlink="http://www.w3.org/1999/xlink">
<g id="graph0" class="graph" transform="scale(1 1) rotate(0) translate(4 109.5)">
<title>G</title>
<polygon fill="white" stroke="none" points="-4,4 -4,-109.5 512.5,-109.5 512.5,4 -4,4"/>
<!-- n1 -->
<g id="node1" class="node">
<title>n1</title>
<ellipse fill="#6c9ac3" stroke="#6c9ac3" cx="18" cy="-64" rx="18" ry="18"/>
<text text-anchor="middle" x="18" y="-58.95" font-family="Times,serif" font-size="14.00">S</text>
</g>
<!-- n5 -->
<g id="node5" class="node">
<title>n5</title>
<polygon fill="#e28f41" stroke="#e28f41" points="114.75,-82 78.75,-82 78.75,-46 114.75,-46 114.75,-82"/>
<text text-anchor="middle" x="96.75" y="-58.95" font-family="Times,serif" font-size="14.00">β</text>
</g>
<!-- n1&#45;&gt;n5 -->
<g id="edge8" class="edge">
<title>n1&#45;&gt;n5</title>
<path fill="none" stroke="black" d="M36.42,-64C45.44,-64 56.7,-64 66.98,-64"/>
<polygon fill="black" stroke="black" points="66.89,-67.5 76.89,-64 66.89,-60.5 66.89,-67.5"/>
<text text-anchor="middle" x="57.38" y="-67.2" font-family="Times,serif" font-size="14.00">1</text>
</g>
<!-- n2 -->
<g id="node2" class="node">
<title>n2</title>
<ellipse fill="#6c9ac3" stroke="#6c9ac3" cx="333" cy="-64" rx="18" ry="18"/>
<text text-anchor="middle" x="333" y="-58.95" font-family="Times,serif" font-size="14.00">I</text>
</g>
<!-- n2&#45;&gt;n5 -->
<g id="edge2" class="edge">
<title>n2&#45;&gt;n5</title>
<path fill="none" stroke="black" d="M314.75,-64C274.79,-64 175.54,-64 126.34,-64"/>
<polygon fill="black" stroke="black" points="126.49,-60.5 116.49,-64 126.49,-67.5 126.49,-60.5"/>
<text text-anchor="middle" x="214.88" y="-67.2" font-family="Times,serif" font-size="14.00">1</text>
</g>
<!-- n7 -->
<g id="node7" class="node">
<title>n7</title>
<polygon fill="#e28f41" stroke="#e28f41" points="429.75,-82 393.75,-82 393.75,-46 429.75,-46 429.75,-82"/>
<text text-anchor="middle" x="411.75" y="-58.95" font-family="Times,serif" font-size="14.00">γ</text>
</g>
<!-- n2&#45;&gt;n7 -->
<g id="edge7" class="edge">
<title>n2&#45;&gt;n7</title>
<path fill="none" stroke="black" d="M351.42,-64C360.44,-64 371.7,-64 381.98,-64"/>
<polygon fill="black" stroke="black" points="381.89,-67.5 391.89,-64 381.89,-60.5 381.89,-67.5"/>
<text text-anchor="middle" x="372.38" y="-67.2" font-family="Times,serif" font-size="14.00">1</text>
</g>
<!-- n3 -->
<g id="node3" class="node">
<title>n3</title>
<ellipse fill="#6c9ac3" stroke="#6c9ac3" cx="175.5" cy="-18" rx="18" ry="18"/>
<text text-anchor="middle" x="175.5" y="-12.95" font-family="Times,serif" font-size="14.00">E</text>
</g>
<!-- n6 -->
<g id="node6" class="node">
<title>n6</title>
<polygon fill="#e28f41" stroke="#e28f41" points="272.25,-36 236.25,-36 236.25,0 272.25,0 272.25,-36"/>
<text text-anchor="middle" x="254.25" y="-12.95" font-family="Times,serif" font-size="14.00">σ</text>
</g>
<!-- n3&#45;&gt;n6 -->
<g id="edge5" class="edge">
<title>n3&#45;&gt;n6</title>
<path fill="none" stroke="black" d="M193.92,-18C202.94,-18 214.2,-18 224.48,-18"/>
<polygon fill="black" stroke="black" points="224.39,-21.5 234.39,-18 224.39,-14.5 224.39,-21.5"/>
<text text-anchor="middle" x="214.88" y="-21.2" font-family="Times,serif" font-size="14.00">1</text>
</g>
<!-- n4 -->
<g id="node4" class="node">
<title>n4</title>
<ellipse fill="#6c9ac3" stroke="#6c9ac3" cx="490.5" cy="-64" rx="18" ry="18"/>
<text text-anchor="middle" x="490.5" y="-58.95" font-family="Times,serif" font-size="14.00">R</text>
</g>
<!-- n5&#45;&gt;n2 -->
<g id="edge3" class="edge">
<title>n5&#45;&gt;n2</title>
<path fill="none" stroke="black" d="M115.2,-72.29C120.69,-74.54 126.87,-76.71 132.75,-78 204.06,-93.62 225.69,-93.62 297,-78 299.85,-77.38 302.77,-76.54 305.65,-75.59"/>
<polygon fill="black" stroke="black" points="306.79,-78.91 314.91,-72.09 304.31,-72.36 306.79,-78.91"/>
<text text-anchor="middle" x="214.88" y="-92.2" font-family="Times,serif" font-size="14.00">1</text>
</g>
<!-- n5&#45;&gt;n3 -->
<g id="edge6" class="edge">
<title>n5&#45;&gt;n3</title>
<path fill="none" stroke="black" d="M114.95,-46.83C120.34,-42.08 126.51,-37.21 132.75,-33.5 137.21,-30.85 142.19,-28.53 147.13,-26.54"/>
<polygon fill="black" stroke="black" points="147.99,-29.95 156.19,-23.24 145.6,-23.37 147.99,-29.95"/>
<text text-anchor="middle" x="136.12" y="-36.2" font-family="Times,serif" font-size="14.00">1</text>
</g>
<!-- n6&#45;&gt;n2 -->
<g id="edge4" class="edge">
<title>n6&#45;&gt;n2</title>
<path fill="none" stroke="black" d="M272.54,-22.86C280.31,-25.43 289.42,-29 297,-33.5 301.94,-36.43 306.84,-40.1 311.34,-43.86"/>
<polygon fill="black" stroke="black" points="308.98,-46.45 318.77,-50.5 313.65,-41.22 308.98,-46.45"/>
<text text-anchor="middle" x="293.62" y="-36.2" font-family="Times,serif" font-size="14.00">1</text>
</g>
<!-- n7&#45;&gt;n4 -->
<g id="edge1" class="edge">
<title>n7&#45;&gt;n4</title>
<path fill="none" stroke="black" d="M430.17,-64C439.19,-64 450.45,-64 460.73,-64"/>
<polygon fill="black" stroke="black" points="460.64,-67.5 470.64,-64 460.64,-60.5 460.64,-67.5"/>
<text text-anchor="middle" x="451.12" y="-67.2" font-family="Times,serif" font-size="14.00">1</text>
</g>
</g>
</svg>
