<?xml version="1.0" encoding="UTF-8" standalone="no"?>
<!DOCTYPE svg PUBLIC "-//W3C//DTD SVG 1.1//EN"
 "http://www.w3.org/Graphics/SVG/1.1/DTD/svg11.dtd">
<!-- Generated by graphviz version 11.0.0 (20240428.1522)
 -->
<!-- Title: G Pages: 1 -->
<svg width="577pt" height="490pt"
 viewBox="0.00 0.00 576.81 490.17" xmlns="http://www.w3.org/2000/svg" xmlns:xlink="http://www.w3.org/1999/xlink">
<g id="graph0" class="graph" transform="scale(1 1) rotate(0) translate(4 486.17)">
<title>G</title>
<polygon fill="white" stroke="none" points="-4,4 -4,-486.17 572.81,-486.17 572.81,4 -4,4"/>
<!-- n1 -->
<g id="node1" class="node">
<title>n1</title>
<ellipse fill="#6c9ac3" stroke="#6c9ac3" cx="306.22" cy="-118.79" rx="19.62" ry="19.62"/>
<text text-anchor="middle" x="306.22" y="-113.74" font-family="Times,serif" font-size="14.00">a2</text>
</g>
<!-- n4 -->
<g id="node4" class="node">
<title>n4</title>
<polygon fill="#e28f41" stroke="#e28f41" points="347.04,-48.25 298.79,-48.25 298.79,0 347.04,0 347.04,-48.25"/>
<text text-anchor="middle" x="322.91" y="-19.07" font-family="Times,serif" font-size="14.00">a2_a2</text>
</g>
<!-- n1&#45;&gt;n4 -->
<g id="edge8" class="edge">
<title>n1&#45;&gt;n4</title>
<path fill="none" stroke="black" d="M314.94,-101.04C318.18,-89.46 321.26,-73.94 323.24,-59.87"/>
<polygon fill="black" stroke="black" points="326.7,-60.37 324.43,-50.02 319.76,-59.52 326.7,-60.37"/>
<text text-anchor="middle" x="315.71" y="-83.66" font-family="Times,serif" font-size="14.00">2</text>
</g>
<!-- n5 -->
<g id="node5" class="node">
<title>n5</title>
<polygon fill="#e28f41" stroke="#e28f41" points="214.31,-163.37 166.06,-163.37 166.06,-115.12 214.31,-115.12 214.31,-163.37"/>
<text text-anchor="middle" x="190.19" y="-134.2" font-family="Times,serif" font-size="14.00">a3_a2</text>
</g>
<!-- n1&#45;&gt;n5 -->
<g id="edge19" class="edge">
<title>n1&#45;&gt;n5</title>
<path fill="none" stroke="black" d="M286.43,-117.06C269.83,-118.34 245.71,-122.19 225.77,-126.55"/>
<polygon fill="black" stroke="black" points="225.01,-123.13 216.07,-128.82 226.61,-129.95 225.01,-123.13"/>
<text text-anchor="middle" x="252.72" y="-125.01" font-family="Times,serif" font-size="14.00">1</text>
</g>
<!-- n6 -->
<g id="node6" class="node">
<title>n6</title>
<polygon fill="#e28f41" stroke="#e28f41" points="432.38,-201.83 384.13,-201.83 384.13,-153.58 432.38,-153.58 432.38,-201.83"/>
<text text-anchor="middle" x="408.26" y="-172.65" font-family="Times,serif" font-size="14.00">a1_a2</text>
</g>
<!-- n1&#45;&gt;n6 -->
<g id="edge22" class="edge">
<title>n1&#45;&gt;n6</title>
<path fill="none" stroke="black" d="M320.06,-132.68C333.79,-142.54 355.31,-155.42 373.67,-164.99"/>
<polygon fill="black" stroke="black" points="371.89,-168.01 382.4,-169.38 375.04,-161.76 371.89,-168.01"/>
<text text-anchor="middle" x="343.49" y="-152.04" font-family="Times,serif" font-size="14.00">1</text>
</g>
<!-- n7 -->
<g id="node7" class="node">
<title>n7</title>
<polygon fill="#e28f41" stroke="#e28f41" points="138.58,-253.63 90.33,-253.63 90.33,-205.38 138.58,-205.38 138.58,-253.63"/>
<text text-anchor="middle" x="114.45" y="-224.46" font-family="Times,serif" font-size="14.00">a2_a3</text>
</g>
<!-- n1&#45;&gt;n7 -->
<g id="edge27" class="edge">
<title>n1&#45;&gt;n7</title>
<path fill="none" stroke="black" d="M287.18,-125.11C254.83,-140.26 188.88,-177.8 148.46,-203.58"/>
<polygon fill="black" stroke="black" points="146.78,-200.5 140.29,-208.88 150.58,-206.38 146.78,-200.5"/>
<text text-anchor="middle" x="214.45" y="-167.55" font-family="Times,serif" font-size="14.00">1</text>
</g>
<!-- n10 -->
<g id="node10" class="node">
<title>n10</title>
<polygon fill="#e28f41" stroke="#e28f41" points="330.35,-482.17 282.1,-482.17 282.1,-433.92 330.35,-433.92 330.35,-482.17"/>
<text text-anchor="middle" x="306.22" y="-453" font-family="Times,serif" font-size="14.00">a2_a1</text>
</g>
<!-- n1&#45;&gt;n10 -->
<g id="edge30" class="edge">
<title>n1&#45;&gt;n10</title>
<path fill="none" stroke="black" d="M302.85,-138.5C298.69,-193.84 298.37,-351.28 301.88,-422.4"/>
<polygon fill="black" stroke="black" points="298.39,-422.54 302.44,-432.33 305.37,-422.15 298.39,-422.54"/>
<text text-anchor="middle" x="298.99" y="-283.65" font-family="Times,serif" font-size="14.00">1</text>
</g>
<!-- n2 -->
<g id="node2" class="node">
<title>n2</title>
<ellipse fill="#6c9ac3" stroke="#6c9ac3" cx="114.45" cy="-347.33" rx="19.62" ry="19.62"/>
<text text-anchor="middle" x="114.45" y="-342.28" font-family="Times,serif" font-size="14.00">a3</text>
</g>
<!-- n2&#45;&gt;n5 -->
<g id="edge4" class="edge">
<title>n2&#45;&gt;n5</title>
<path fill="none" stroke="black" d="M124.98,-330.25C140.77,-296.23 169.08,-219.49 182.86,-174.31"/>
<polygon fill="black" stroke="black" points="186.14,-175.58 185.61,-165 179.42,-173.6 186.14,-175.58"/>
<text text-anchor="middle" x="150.54" y="-255.48" font-family="Times,serif" font-size="14.00">1</text>
</g>
<!-- n2&#45;&gt;n7 -->
<g id="edge17" class="edge">
<title>n2&#45;&gt;n7</title>
<path fill="none" stroke="black" d="M119.59,-328.14C121.26,-311.16 121.63,-285.95 120.72,-265.26"/>
<polygon fill="black" stroke="black" points="124.22,-265.3 120.14,-255.52 117.24,-265.71 124.22,-265.3"/>
<text text-anchor="middle" x="116.78" y="-299.9" font-family="Times,serif" font-size="14.00">1</text>
</g>
<!-- n8 -->
<g id="node8" class="node">
<title>n8</title>
<polygon fill="#e28f41" stroke="#e28f41" points="48.25,-404.33 0,-404.33 0,-356.08 48.25,-356.08 48.25,-404.33"/>
<text text-anchor="middle" x="24.13" y="-375.16" font-family="Times,serif" font-size="14.00">a3_a3</text>
</g>
<!-- n2&#45;&gt;n8 -->
<g id="edge20" class="edge">
<title>n2&#45;&gt;n8</title>
<path fill="none" stroke="black" d="M94.72,-348.65C84.37,-351.31 71.37,-355.62 59.36,-360.29"/>
<polygon fill="black" stroke="black" points="58.05,-357.04 50.12,-364.06 60.7,-363.53 58.05,-357.04"/>
<text text-anchor="middle" x="73.67" y="-357.67" font-family="Times,serif" font-size="14.00">2</text>
</g>
<!-- n9 -->
<g id="node9" class="node">
<title>n9</title>
<polygon fill="#e28f41" stroke="#e28f41" points="214.31,-461.71 166.06,-461.71 166.06,-413.46 214.31,-413.46 214.31,-461.71"/>
<text text-anchor="middle" x="190.19" y="-432.54" font-family="Times,serif" font-size="14.00">a1_a3</text>
</g>
<!-- n2&#45;&gt;n9 -->
<g id="edge1" class="edge">
<title>n2&#45;&gt;n9</title>
<path fill="none" stroke="black" d="M122.7,-365.12C131.39,-377.84 145.3,-395.13 158.27,-409.66"/>
<polygon fill="black" stroke="black" points="155.4,-411.7 164.74,-416.72 160.57,-406.98 155.4,-411.7"/>
<text text-anchor="middle" x="137.11" y="-390.59" font-family="Times,serif" font-size="14.00">1</text>
</g>
<!-- n11 -->
<g id="node11" class="node">
<title>n11</title>
<polygon fill="#e28f41" stroke="#e28f41" points="432.38,-423.26 384.13,-423.26 384.13,-375.01 432.38,-375.01 432.38,-423.26"/>
<text text-anchor="middle" x="408.26" y="-394.09" font-family="Times,serif" font-size="14.00">a3_a1</text>
</g>
<!-- n2&#45;&gt;n11 -->
<g id="edge5" class="edge">
<title>n2&#45;&gt;n11</title>
<path fill="none" stroke="black" d="M133.11,-354.23C181.13,-366.65 309.57,-389.64 372.51,-397.46"/>
<polygon fill="black" stroke="black" points="371.98,-400.92 382.32,-398.6 372.79,-393.97 371.98,-400.92"/>
<text text-anchor="middle" x="249.43" y="-379.05" font-family="Times,serif" font-size="14.00">1</text>
</g>
<!-- n3 -->
<g id="node3" class="node">
<title>n3</title>
<ellipse fill="#6c9ac3" stroke="#6c9ac3" cx="448.56" cy="-288.42" rx="19.62" ry="19.62"/>
<text text-anchor="middle" x="448.56" y="-283.37" font-family="Times,serif" font-size="14.00">a1</text>
</g>
<!-- n3&#45;&gt;n6 -->
<g id="edge28" class="edge">
<title>n3&#45;&gt;n6</title>
<path fill="none" stroke="black" d="M446.82,-268.63C442.82,-253.03 435.22,-230.93 427.71,-212.41"/>
<polygon fill="black" stroke="black" points="431.02,-211.25 423.91,-203.4 424.57,-213.97 431.02,-211.25"/>
<text text-anchor="middle" x="433.89" y="-243.72" font-family="Times,serif" font-size="14.00">1</text>
</g>
<!-- n3&#45;&gt;n9 -->
<g id="edge23" class="edge">
<title>n3&#45;&gt;n9</title>
<path fill="none" stroke="black" d="M429.82,-295.12C386.53,-315.77 279.28,-377.2 224.1,-412.39"/>
<polygon fill="black" stroke="black" points="222.53,-409.24 216.03,-417.61 226.33,-415.12 222.53,-409.24"/>
<text text-anchor="middle" x="323.59" y="-356.95" font-family="Times,serif" font-size="14.00">1</text>
</g>
<!-- n3&#45;&gt;n10 -->
<g id="edge11" class="edge">
<title>n3&#45;&gt;n10</title>
<path fill="none" stroke="black" d="M432.82,-300.87C407.11,-326.67 356.52,-386.31 327.6,-424.29"/>
<polygon fill="black" stroke="black" points="324.85,-422.14 321.65,-432.24 330.45,-426.33 324.85,-422.14"/>
<text text-anchor="middle" x="376.84" y="-365.78" font-family="Times,serif" font-size="14.00">1</text>
</g>
<!-- n3&#45;&gt;n11 -->
<g id="edge25" class="edge">
<title>n3&#45;&gt;n11</title>
<path fill="none" stroke="black" d="M437.28,-304.46C429.81,-320 420.66,-344.03 414.41,-364.01"/>
<polygon fill="black" stroke="black" points="411.09,-362.87 411.61,-373.46 417.81,-364.86 411.09,-362.87"/>
<text text-anchor="middle" x="422.47" y="-337.43" font-family="Times,serif" font-size="14.00">1</text>
</g>
<!-- n12 -->
<g id="node12" class="node">
<title>n12</title>
<polygon fill="#e28f41" stroke="#e28f41" points="568.81,-312.54 520.56,-312.54 520.56,-264.29 568.81,-264.29 568.81,-312.54"/>
<text text-anchor="middle" x="544.68" y="-283.37" font-family="Times,serif" font-size="14.00">a1_a1</text>
</g>
<!-- n3&#45;&gt;n12 -->
<g id="edge14" class="edge">
<title>n3&#45;&gt;n12</title>
<path fill="none" stroke="black" d="M467.55,-293.92C479.35,-295.09 494.89,-295.43 508.93,-294.97"/>
<polygon fill="black" stroke="black" points="508.93,-298.47 518.74,-294.46 508.57,-291.48 508.93,-298.47"/>
<text text-anchor="middle" x="484.86" y="-297.64" font-family="Times,serif" font-size="14.00">2</text>
</g>
<!-- n4&#45;&gt;n1 -->
<g id="edge15" class="edge">
<title>n4&#45;&gt;n1</title>
<path fill="none" stroke="black" d="M312.47,-48.44C309.52,-60.46 306.85,-75.09 305.25,-87.89"/>
<polygon fill="black" stroke="black" points="301.8,-87.19 304.26,-97.5 308.77,-87.91 301.8,-87.19"/>
<text text-anchor="middle" x="305.49" y="-71.37" font-family="Times,serif" font-size="14.00">2</text>
</g>
<!-- n5&#45;&gt;n1 -->
<g id="edge21" class="edge">
<title>n5&#45;&gt;n1</title>
<path fill="none" stroke="black" d="M214.63,-140.57C232.87,-138.81 257.85,-134.56 277.11,-130.02"/>
<polygon fill="black" stroke="black" points="277.97,-133.41 286.79,-127.55 276.24,-126.63 277.97,-133.41"/>
<text text-anchor="middle" x="242.5" y="-138.5" font-family="Times,serif" font-size="14.00">1</text>
</g>
<!-- n5&#45;&gt;n2 -->
<g id="edge26" class="edge">
<title>n5&#45;&gt;n2</title>
<path fill="none" stroke="black" d="M176.39,-163.59C159.6,-201.69 132.75,-275.28 120.4,-316.84"/>
<polygon fill="black" stroke="black" points="117.11,-315.63 117.74,-326.21 123.84,-317.55 117.11,-315.63"/>
<text text-anchor="middle" x="145.02" y="-226.92" font-family="Times,serif" font-size="14.00">1</text>
</g>
<!-- n6&#45;&gt;n1 -->
<g id="edge29" class="edge">
<title>n6&#45;&gt;n1</title>
<path fill="none" stroke="black" d="M383.68,-156.5C369.18,-147.06 350.78,-136.46 335.53,-128.79"/>
<polygon fill="black" stroke="black" points="337.46,-125.84 326.93,-124.66 334.43,-132.15 337.46,-125.84"/>
<text text-anchor="middle" x="356.23" y="-145.85" font-family="Times,serif" font-size="14.00">1</text>
</g>
<!-- n6&#45;&gt;n3 -->
<g id="edge9" class="edge">
<title>n6&#45;&gt;n3</title>
<path fill="none" stroke="black" d="M411.28,-202.28C416.17,-219.84 424.6,-243.44 432.36,-261.5"/>
<polygon fill="black" stroke="black" points="429.14,-262.88 436.44,-270.55 435.52,-260 429.14,-262.88"/>
<text text-anchor="middle" x="418.44" y="-235.09" font-family="Times,serif" font-size="14.00">1</text>
</g>
<!-- n7&#45;&gt;n1 -->
<g id="edge6" class="edge">
<title>n7&#45;&gt;n1</title>
<path fill="none" stroke="black" d="M138.7,-220.7C175.57,-202.74 245.21,-162.67 282.05,-138.34"/>
<polygon fill="black" stroke="black" points="283.94,-141.28 290.26,-132.77 280.02,-135.48 283.94,-141.28"/>
<text text-anchor="middle" x="207" y="-182.72" font-family="Times,serif" font-size="14.00">1</text>
</g>
<!-- n7&#45;&gt;n2 -->
<g id="edge16" class="edge">
<title>n7&#45;&gt;n2</title>
<path fill="none" stroke="black" d="M108.86,-253.92C107.47,-272.12 107.33,-297.09 108.44,-316.64"/>
<polygon fill="black" stroke="black" points="104.95,-316.78 109.19,-326.49 111.93,-316.26 104.95,-316.78"/>
<text text-anchor="middle" x="105.28" y="-288.48" font-family="Times,serif" font-size="14.00">1</text>
</g>
<!-- n8&#45;&gt;n2 -->
<g id="edge2" class="edge">
<title>n8&#45;&gt;n2</title>
<path fill="none" stroke="black" d="M48.48,-377.64C60.68,-374.21 75.47,-368.97 87.96,-363.71"/>
<polygon fill="black" stroke="black" points="89.13,-367.02 96.83,-359.75 86.27,-360.63 89.13,-367.02"/>
<text text-anchor="middle" x="64.84" y="-373.88" font-family="Times,serif" font-size="14.00">2</text>
</g>
<!-- n9&#45;&gt;n2 -->
<g id="edge10" class="edge">
<title>n9&#45;&gt;n2</title>
<path fill="none" stroke="black" d="M177.42,-413.4C166.83,-398.88 151.68,-380.69 138.83,-367.03"/>
<polygon fill="black" stroke="black" points="141.34,-364.59 131.85,-359.88 136.33,-369.48 141.34,-364.59"/>
<text text-anchor="middle" x="154.75" y="-393.42" font-family="Times,serif" font-size="14.00">1</text>
</g>
<!-- n9&#45;&gt;n3 -->
<g id="edge13" class="edge">
<title>n9&#45;&gt;n3</title>
<path fill="none" stroke="black" d="M214.67,-428.09C264,-403.7 374.64,-339.94 424.02,-307.56"/>
<polygon fill="black" stroke="black" points="425.69,-310.65 432.05,-302.18 421.79,-304.84 425.69,-310.65"/>
<text text-anchor="middle" x="315.97" y="-371.02" font-family="Times,serif" font-size="14.00">1</text>
</g>
<!-- n10&#45;&gt;n1 -->
<g id="edge18" class="edge">
<title>n10&#45;&gt;n1</title>
<path fill="none" stroke="black" d="M309.92,-433.65C313.85,-373.29 313.98,-217.04 310.33,-150.04"/>
<polygon fill="black" stroke="black" points="313.83,-149.88 309.7,-140.12 306.84,-150.32 313.83,-149.88"/>
<text text-anchor="middle" x="306.75" y="-295.04" font-family="Times,serif" font-size="14.00">1</text>
</g>
<!-- n10&#45;&gt;n3 -->
<g id="edge24" class="edge">
<title>n10&#45;&gt;n3</title>
<path fill="none" stroke="black" d="M330.69,-436.55C359.95,-405.52 407.81,-348.43 432.67,-314.86"/>
<polygon fill="black" stroke="black" points="435.41,-317.04 438.43,-306.88 429.74,-312.94 435.41,-317.04"/>
<text text-anchor="middle" x="385.05" y="-362.41" font-family="Times,serif" font-size="14.00">1</text>
</g>
<!-- n11&#45;&gt;n2 -->
<g id="edge7" class="edge">
<title>n11&#45;&gt;n2</title>
<path fill="none" stroke="black" d="M383.65,-390.74C330.36,-377.72 204.38,-355.4 145.62,-348.45"/>
<polygon fill="black" stroke="black" points="146.31,-345 135.99,-347.4 145.55,-351.96 146.31,-345"/>
<text text-anchor="middle" x="261.26" y="-372.79" font-family="Times,serif" font-size="14.00">1</text>
</g>
<!-- n11&#45;&gt;n3 -->
<g id="edge12" class="edge">
<title>n11&#45;&gt;n3</title>
<path fill="none" stroke="black" d="M423.42,-374.62C430.6,-358.22 438.54,-336.53 443.8,-319"/>
<polygon fill="black" stroke="black" points="447.09,-320.21 446.42,-309.64 440.35,-318.32 447.09,-320.21"/>
<text text-anchor="middle" x="430.23" y="-350.01" font-family="Times,serif" font-size="14.00">1</text>
</g>
<!-- n12&#45;&gt;n3 -->
<g id="edge3" class="edge">
<title>n12&#45;&gt;n3</title>
<path fill="none" stroke="black" d="M520.18,-282.45C507.74,-281.55 492.51,-281.43 479.3,-282.07"/>
<polygon fill="black" stroke="black" points="479.1,-278.58 469.38,-282.78 479.6,-285.56 479.1,-278.58"/>
<text text-anchor="middle" x="496.36" y="-285.46" font-family="Times,serif" font-size="14.00">2</text>
</g>
</g>
</svg>
