<?xml version="1.0" encoding="UTF-8" standalone="no"?>
<!DOCTYPE svg PUBLIC "-//W3C//DTD SVG 1.1//EN"
 "http://www.w3.org/Graphics/SVG/1.1/DTD/svg11.dtd">
<!-- Generated by graphviz version 11.0.0 (20240428.1522)
 -->
<!-- Title: G Pages: 1 -->
<svg width="1638pt" height="734pt"
 viewBox="0.00 0.00 1638.16 734.12" xmlns="http://www.w3.org/2000/svg" xmlns:xlink="http://www.w3.org/1999/xlink">
<g id="graph0" class="graph" transform="scale(1 1) rotate(0) translate(4 730.12)">
<title>G</title>
<polygon fill="white" stroke="none" points="-4,4 -4,-730.12 1634.16,-730.12 1634.16,4 -4,4"/>
<!-- n1 -->
<g id="node1" class="node">
<title>n1</title>
<ellipse fill="#6c9ac3" stroke="#6c9ac3" cx="41.12" cy="-353.12" rx="41.12" ry="41.12"/>
<text text-anchor="middle" x="41.12" y="-348.07" font-family="Times,serif" font-size="14.00">(:S, :a2)</text>
</g>
<!-- n13 -->
<g id="node13" class="node">
<title>n13</title>
<polygon fill="#e28f41" stroke="#e28f41" points="203.98,-392.62 124.98,-392.62 124.98,-313.62 203.98,-313.62 203.98,-392.62"/>
<text text-anchor="middle" x="164.48" y="-348.07" font-family="Times,serif" font-size="14.00">(:β, :a2_a2)</text>
</g>
<!-- n1&#45;&gt;n13 -->
<g id="edge11" class="edge">
<title>n1&#45;&gt;n13</title>
<path fill="none" stroke="black" d="M82.53,-353.12C92.45,-353.12 103.18,-353.12 113.5,-353.12"/>
<polygon fill="black" stroke="black" points="113.38,-356.63 123.38,-353.13 113.38,-349.63 113.38,-356.63"/>
<text text-anchor="middle" x="103.61" y="-356.32" font-family="Times,serif" font-size="14.00">1</text>
</g>
<!-- n16 -->
<g id="node16" class="node">
<title>n16</title>
<polygon fill="#e28f41" stroke="#e28f41" points="927.47,-258.62 848.47,-258.62 848.47,-179.62 927.47,-179.62 927.47,-258.62"/>
<text text-anchor="middle" x="887.97" y="-214.07" font-family="Times,serif" font-size="14.00">(:β, :a2_a3)</text>
</g>
<!-- n1&#45;&gt;n16 -->
<g id="edge13" class="edge">
<title>n1&#45;&gt;n16</title>
<path fill="none" stroke="black" d="M42.12,-311.66C44.53,-234.38 61.89,-76.12 163.48,-76.12 163.48,-76.12 163.48,-76.12 351.34,-76.12 465.51,-76.12 494.58,-92.83 602.49,-130.12 659.04,-149.67 666.65,-170.44 723.49,-189.12 760.64,-201.34 804.27,-209.03 837.11,-213.56"/>
<polygon fill="black" stroke="black" points="836.37,-216.99 846.75,-214.84 837.29,-210.05 836.37,-216.99"/>
<text text-anchor="middle" x="472.09" y="-91.33" font-family="Times,serif" font-size="14.00">1</text>
</g>
<!-- n19 -->
<g id="node19" class="node">
<title>n19</title>
<polygon fill="#e28f41" stroke="#e28f41" points="1400.13,-688.62 1321.13,-688.62 1321.13,-609.62 1400.13,-609.62 1400.13,-688.62"/>
<text text-anchor="middle" x="1360.63" y="-644.08" font-family="Times,serif" font-size="14.00">(:β, :a2_a1)</text>
</g>
<!-- n1&#45;&gt;n19 -->
<g id="edge7" class="edge">
<title>n1&#45;&gt;n19</title>
<path fill="none" stroke="black" d="M48.06,-393.87C62.24,-483.15 101.54,-688.12 163.48,-688.12 163.48,-688.12 163.48,-688.12 1240.31,-688.12 1264.07,-688.12 1289.23,-681.05 1310.29,-672.93"/>
<polygon fill="black" stroke="black" points="1311.55,-676.2 1319.49,-669.19 1308.91,-669.72 1311.55,-676.2"/>
<text text-anchor="middle" x="702.11" y="-691.33" font-family="Times,serif" font-size="14.00">1</text>
</g>
<!-- n2 -->
<g id="node2" class="node">
<title>n2</title>
<ellipse fill="#6c9ac3" stroke="#6c9ac3" cx="287.85" cy="-313.12" rx="39.07" ry="39.07"/>
<text text-anchor="middle" x="287.85" y="-308.07" font-family="Times,serif" font-size="14.00">(:I, :a2)</text>
</g>
<!-- n2&#45;&gt;n13 -->
<g id="edge43" class="edge">
<title>n2&#45;&gt;n13</title>
<path fill="none" stroke="black" d="M250.54,-325.09C239.36,-328.78 226.84,-332.9 214.93,-336.83"/>
<polygon fill="black" stroke="black" points="214.05,-333.43 205.65,-339.88 216.25,-340.08 214.05,-333.43"/>
<text text-anchor="middle" x="225.36" y="-337.32" font-family="Times,serif" font-size="14.00">1</text>
</g>
<!-- n14 -->
<g id="node14" class="node">
<title>n14</title>
<polygon fill="#e28f41" stroke="#e28f41" points="450.71,-392.62 371.71,-392.62 371.71,-313.62 450.71,-313.62 450.71,-392.62"/>
<text text-anchor="middle" x="411.21" y="-348.07" font-family="Times,serif" font-size="14.00">(:β, :a3_a2)</text>
</g>
<!-- n2&#45;&gt;n14 -->
<g id="edge44" class="edge">
<title>n2&#45;&gt;n14</title>
<path fill="none" stroke="black" d="M325.26,-325.13C336.38,-328.79 348.8,-332.88 360.64,-336.79"/>
<polygon fill="black" stroke="black" points="359.26,-340.02 369.85,-339.82 361.45,-333.37 359.26,-340.02"/>
<text text-anchor="middle" x="350.34" y="-337.32" font-family="Times,serif" font-size="14.00">1</text>
</g>
<!-- n15 -->
<g id="node15" class="node">
<title>n15</title>
<polygon fill="#e28f41" stroke="#e28f41" points="927.47,-161.62 848.47,-161.62 848.47,-82.62 927.47,-82.62 927.47,-161.62"/>
<text text-anchor="middle" x="887.97" y="-117.08" font-family="Times,serif" font-size="14.00">(:β, :a1_a2)</text>
</g>
<!-- n2&#45;&gt;n15 -->
<g id="edge33" class="edge">
<title>n2&#45;&gt;n15</title>
<path fill="none" stroke="black" d="M325.93,-302.68C410.99,-278.65 626.57,-217.24 805.72,-162.12 816.77,-158.73 819.89,-158.78 830.47,-154.12 832.91,-153.05 835.38,-151.91 837.85,-150.71"/>
<polygon fill="black" stroke="black" points="839.31,-153.9 846.63,-146.24 836.13,-147.66 839.31,-153.9"/>
<text text-anchor="middle" x="599.11" y="-228.32" font-family="Times,serif" font-size="14.00">1</text>
</g>
<!-- n23 -->
<g id="node23" class="node">
<title>n23</title>
<polygon fill="#e28f41" stroke="#e28f41" points="440.59,-469.5 381.84,-469.5 381.84,-410.75 440.59,-410.75 440.59,-469.5"/>
<text text-anchor="middle" x="411.21" y="-435.07" font-family="Times,serif" font-size="14.00">(:γ, :a2)</text>
</g>
<!-- n2&#45;&gt;n23 -->
<g id="edge25" class="edge">
<title>n2&#45;&gt;n23</title>
<path fill="none" stroke="black" d="M314.67,-341.47C330.87,-359.1 352.29,-382.13 371.71,-402.12 372.3,-402.73 372.89,-403.34 373.5,-403.96"/>
<polygon fill="black" stroke="black" points="370.9,-406.31 380.42,-410.96 375.88,-401.39 370.9,-406.31"/>
<text text-anchor="middle" x="350.34" y="-385.32" font-family="Times,serif" font-size="14.00">1</text>
</g>
<!-- n3 -->
<g id="node3" class="node">
<title>n3</title>
<ellipse fill="#6c9ac3" stroke="#6c9ac3" cx="1485.02" cy="-572.12" rx="41.63" ry="41.63"/>
<text text-anchor="middle" x="1485.02" y="-567.08" font-family="Times,serif" font-size="14.00">(:E, :a2)</text>
</g>
<!-- n22 -->
<g id="node22" class="node">
<title>n22</title>
<polygon fill="#e28f41" stroke="#e28f41" points="1630.16,-60.25 1569.91,-60.25 1569.91,0 1630.16,0 1630.16,-60.25"/>
<text text-anchor="middle" x="1600.04" y="-25.07" font-family="Times,serif" font-size="14.00">(:σ, :a2)</text>
</g>
<!-- n3&#45;&gt;n22 -->
<g id="edge18" class="edge">
<title>n3&#45;&gt;n22</title>
<path fill="none" stroke="black" d="M1508.34,-537.43C1515.36,-525.13 1522.48,-510.91 1527.16,-497.12 1578.42,-346.09 1593.28,-155.08 1597.46,-71.95"/>
<polygon fill="black" stroke="black" points="1600.95,-72.15 1597.93,-62 1593.96,-71.82 1600.95,-72.15"/>
<text text-anchor="middle" x="1548.54" y="-438.32" font-family="Times,serif" font-size="14.00">1</text>
</g>
<!-- n4 -->
<g id="node4" class="node">
<title>n4</title>
<ellipse fill="#6c9ac3" stroke="#6c9ac3" cx="535.6" cy="-458.12" rx="42.14" ry="42.14"/>
<text text-anchor="middle" x="535.6" y="-453.07" font-family="Times,serif" font-size="14.00">(:R, :a2)</text>
</g>
<!-- n5 -->
<g id="node5" class="node">
<title>n5</title>
<ellipse fill="#6c9ac3" stroke="#6c9ac3" cx="287.85" cy="-497.12" rx="41.12" ry="41.12"/>
<text text-anchor="middle" x="287.85" y="-492.07" font-family="Times,serif" font-size="14.00">(:S, :a3)</text>
</g>
<!-- n5&#45;&gt;n14 -->
<g id="edge19" class="edge">
<title>n5&#45;&gt;n14</title>
<path fill="none" stroke="black" d="M315.18,-465.88C330.99,-447.12 351.43,-422.86 369.31,-401.65"/>
<polygon fill="black" stroke="black" points="371.79,-404.14 375.56,-394.24 366.44,-399.63 371.79,-404.14"/>
<text text-anchor="middle" x="350.34" y="-428.32" font-family="Times,serif" font-size="14.00">1</text>
</g>
<!-- n17 -->
<g id="node17" class="node">
<title>n17</title>
<polygon fill="#e28f41" stroke="#e28f41" points="927.47,-529.62 848.47,-529.62 848.47,-450.62 927.47,-450.62 927.47,-529.62"/>
<text text-anchor="middle" x="887.97" y="-485.07" font-family="Times,serif" font-size="14.00">(:β, :a3_a3)</text>
</g>
<!-- n5&#45;&gt;n17 -->
<g id="edge31" class="edge">
<title>n5&#45;&gt;n17</title>
<path fill="none" stroke="black" d="M328.01,-507.89C334.3,-509.23 340.78,-510.39 346.96,-511.12 349.94,-511.48 350.71,-511.14 353.71,-511.12 453.28,-510.68 478.23,-512.62 577.74,-509.12 669.39,-505.9 776.14,-498.54 837.21,-493.99"/>
<polygon fill="black" stroke="black" points="837.21,-497.5 846.92,-493.26 836.69,-490.52 837.21,-497.5"/>
<text text-anchor="middle" x="599.11" y="-511.32" font-family="Times,serif" font-size="14.00">1</text>
</g>
<!-- n20 -->
<g id="node20" class="node">
<title>n20</title>
<polygon fill="#e28f41" stroke="#e28f41" points="1400.13,-584.62 1321.13,-584.62 1321.13,-505.62 1400.13,-505.62 1400.13,-584.62"/>
<text text-anchor="middle" x="1360.63" y="-540.08" font-family="Times,serif" font-size="14.00">(:β, :a3_a1)</text>
</g>
<!-- n5&#45;&gt;n20 -->
<g id="edge21" class="edge">
<title>n5&#45;&gt;n20</title>
<path fill="none" stroke="black" d="M328.33,-505.47C336.72,-507.29 345.52,-509.24 353.71,-511.12 508.62,-546.78 542.16,-596.12 701.11,-596.12 701.11,-596.12 701.11,-596.12 1179.87,-596.12 1225.29,-596.12 1274.8,-580.87 1310.34,-567.04"/>
<polygon fill="black" stroke="black" points="1311.51,-570.35 1319.5,-563.38 1308.91,-563.85 1311.51,-570.35"/>
<text text-anchor="middle" x="827.09" y="-599.33" font-family="Times,serif" font-size="14.00">1</text>
</g>
<!-- n6 -->
<g id="node6" class="node">
<title>n6</title>
<ellipse fill="#6c9ac3" stroke="#6c9ac3" cx="764.6" cy="-356.12" rx="39.07" ry="39.07"/>
<text text-anchor="middle" x="764.6" y="-351.07" font-family="Times,serif" font-size="14.00">(:I, :a3)</text>
</g>
<!-- n6&#45;&gt;n16 -->
<g id="edge26" class="edge">
<title>n6&#45;&gt;n16</title>
<path fill="none" stroke="black" d="M791.34,-327.07C806.69,-309.75 826.55,-287.33 844.19,-267.41"/>
<polygon fill="black" stroke="black" points="846.59,-269.99 850.6,-260.18 841.35,-265.35 846.59,-269.99"/>
<text text-anchor="middle" x="827.09" y="-290.32" font-family="Times,serif" font-size="14.00">1</text>
</g>
<!-- n6&#45;&gt;n17 -->
<g id="edge35" class="edge">
<title>n6&#45;&gt;n17</title>
<path fill="none" stroke="black" d="M782.96,-390.92C793.2,-409.26 807.34,-431.37 823.72,-448.12 828.32,-452.84 833.54,-457.31 838.95,-461.45"/>
<polygon fill="black" stroke="black" points="836.8,-464.21 846.95,-467.22 840.89,-458.53 836.8,-464.21"/>
<text text-anchor="middle" x="827.09" y="-456.32" font-family="Times,serif" font-size="14.00">1</text>
</g>
<!-- n18 -->
<g id="node18" class="node">
<title>n18</title>
<polygon fill="#e28f41" stroke="#e28f41" points="927.47,-355.62 848.47,-355.62 848.47,-276.62 927.47,-276.62 927.47,-355.62"/>
<text text-anchor="middle" x="887.97" y="-311.07" font-family="Times,serif" font-size="14.00">(:β, :a1_a3)</text>
</g>
<!-- n6&#45;&gt;n18 -->
<g id="edge36" class="edge">
<title>n6&#45;&gt;n18</title>
<path fill="none" stroke="black" d="M794.03,-329.87C802.9,-323.27 813.14,-317.08 823.72,-313.62 827.95,-312.24 832.42,-311.36 836.95,-310.86"/>
<polygon fill="black" stroke="black" points="836.91,-314.36 846.73,-310.38 836.57,-307.37 836.91,-314.36"/>
<text text-anchor="middle" x="827.09" y="-316.32" font-family="Times,serif" font-size="14.00">1</text>
</g>
<!-- n25 -->
<g id="node25" class="node">
<title>n25</title>
<polygon fill="#e28f41" stroke="#e28f41" points="917.34,-432.5 858.59,-432.5 858.59,-373.75 917.34,-373.75 917.34,-432.5"/>
<text text-anchor="middle" x="887.97" y="-398.07" font-family="Times,serif" font-size="14.00">(:γ, :a3)</text>
</g>
<!-- n6&#45;&gt;n25 -->
<g id="edge45" class="edge">
<title>n6&#45;&gt;n25</title>
<path fill="none" stroke="black" d="M801.36,-369.97C815.99,-375.64 832.96,-382.21 847.91,-388"/>
<polygon fill="black" stroke="black" points="846.38,-391.16 856.97,-391.51 848.91,-384.63 846.38,-391.16"/>
<text text-anchor="middle" x="827.09" y="-383.32" font-family="Times,serif" font-size="14.00">1</text>
</g>
<!-- n7 -->
<g id="node7" class="node">
<title>n7</title>
<ellipse fill="#6c9ac3" stroke="#6c9ac3" cx="535.6" cy="-356.12" rx="41.63" ry="41.63"/>
<text text-anchor="middle" x="535.6" y="-351.07" font-family="Times,serif" font-size="14.00">(:E, :a3)</text>
</g>
<!-- n24 -->
<g id="node24" class="node">
<title>n24</title>
<polygon fill="#e28f41" stroke="#e28f41" points="680.74,-386.25 620.49,-386.25 620.49,-326 680.74,-326 680.74,-386.25"/>
<text text-anchor="middle" x="650.61" y="-351.07" font-family="Times,serif" font-size="14.00">(:σ, :a3)</text>
</g>
<!-- n7&#45;&gt;n24 -->
<g id="edge4" class="edge">
<title>n7&#45;&gt;n24</title>
<path fill="none" stroke="black" d="M577.72,-356.12C587.79,-356.12 598.57,-356.12 608.63,-356.12"/>
<polygon fill="black" stroke="black" points="608.52,-359.63 618.52,-356.13 608.52,-352.63 608.52,-359.63"/>
<text text-anchor="middle" x="599.11" y="-359.32" font-family="Times,serif" font-size="14.00">1</text>
</g>
<!-- n8 -->
<g id="node8" class="node">
<title>n8</title>
<ellipse fill="#6c9ac3" stroke="#6c9ac3" cx="1012.36" cy="-418.12" rx="42.14" ry="42.14"/>
<text text-anchor="middle" x="1012.36" y="-413.07" font-family="Times,serif" font-size="14.00">(:R, :a3)</text>
</g>
<!-- n9 -->
<g id="node9" class="node">
<title>n9</title>
<ellipse fill="#6c9ac3" stroke="#6c9ac3" cx="764.6" cy="-83.12" rx="41.12" ry="41.12"/>
<text text-anchor="middle" x="764.6" y="-78.08" font-family="Times,serif" font-size="14.00">(:S, :a1)</text>
</g>
<!-- n9&#45;&gt;n15 -->
<g id="edge40" class="edge">
<title>n9&#45;&gt;n15</title>
<path fill="none" stroke="black" d="M805.98,-78.95C814.22,-79.16 822.74,-80.19 830.47,-82.62 833.02,-83.43 835.56,-84.39 838.07,-85.48"/>
<polygon fill="black" stroke="black" points="836.29,-88.51 846.8,-89.91 839.46,-82.27 836.29,-88.51"/>
<text text-anchor="middle" x="827.09" y="-86.33" font-family="Times,serif" font-size="14.00">1</text>
</g>
<!-- n9&#45;&gt;n18 -->
<g id="edge10" class="edge">
<title>n9&#45;&gt;n18</title>
<path fill="none" stroke="black" d="M785.41,-119.01C799.1,-144.63 817.17,-180.17 830.47,-212.62 839.15,-233.81 836.94,-243.06 848.1,-266.24"/>
<polygon fill="black" stroke="black" points="844.9,-267.66 852.61,-274.92 851.11,-264.43 844.9,-267.66"/>
<text text-anchor="middle" x="827.09" y="-216.32" font-family="Times,serif" font-size="14.00">1</text>
</g>
<!-- n21 -->
<g id="node21" class="node">
<title>n21</title>
<polygon fill="#e28f41" stroke="#e28f41" points="1400.13,-385.62 1321.13,-385.62 1321.13,-306.62 1400.13,-306.62 1400.13,-385.62"/>
<text text-anchor="middle" x="1360.63" y="-341.07" font-family="Times,serif" font-size="14.00">(:β, :a1_a1)</text>
</g>
<!-- n9&#45;&gt;n21 -->
<g id="edge23" class="edge">
<title>n9&#45;&gt;n21</title>
<path fill="none" stroke="black" d="M804.73,-72.31C838.27,-64.99 887.38,-58.96 927.47,-73.12 1006.86,-101.17 990.68,-192.12 1074.87,-192.12 1074.87,-192.12 1074.87,-192.12 1240.31,-192.12 1293.75,-192.12 1326.67,-250.77 1344.05,-295.68"/>
<polygon fill="black" stroke="black" points="1340.76,-296.88 1347.51,-305.05 1347.33,-294.45 1340.76,-296.88"/>
<text text-anchor="middle" x="1075.87" y="-195.32" font-family="Times,serif" font-size="14.00">1</text>
</g>
<!-- n10 -->
<g id="node10" class="node">
<title>n10</title>
<ellipse fill="#6c9ac3" stroke="#6c9ac3" cx="1239.31" cy="-466.12" rx="39.07" ry="39.07"/>
<text text-anchor="middle" x="1239.31" y="-461.07" font-family="Times,serif" font-size="14.00">(:I, :a1)</text>
</g>
<!-- n10&#45;&gt;n19 -->
<g id="edge41" class="edge">
<title>n10&#45;&gt;n19</title>
<path fill="none" stroke="black" d="M1253.33,-502.91C1263.1,-527.9 1277.96,-561.02 1296.38,-587.12 1301.31,-594.1 1307.07,-600.97 1313.08,-607.45"/>
<polygon fill="black" stroke="black" points="1310.27,-609.57 1319.73,-614.34 1315.3,-604.71 1310.27,-609.57"/>
<text text-anchor="middle" x="1299.76" y="-597.33" font-family="Times,serif" font-size="14.00">1</text>
</g>
<!-- n10&#45;&gt;n20 -->
<g id="edge47" class="edge">
<title>n10&#45;&gt;n20</title>
<path fill="none" stroke="black" d="M1278.27,-473.05C1286.83,-475.58 1295.6,-479.01 1303.13,-483.62 1309.45,-487.49 1315.49,-492.26 1321.12,-497.43"/>
<polygon fill="black" stroke="black" points="1318.38,-499.64 1327.97,-504.15 1323.28,-494.65 1318.38,-499.64"/>
<text text-anchor="middle" x="1299.76" y="-486.32" font-family="Times,serif" font-size="14.00">1</text>
</g>
<!-- n10&#45;&gt;n21 -->
<g id="edge17" class="edge">
<title>n10&#45;&gt;n21</title>
<path fill="none" stroke="black" d="M1267.69,-438.59C1281.16,-425.04 1297.78,-408.33 1313.17,-392.85"/>
<polygon fill="black" stroke="black" points="1315.45,-395.53 1320.02,-385.97 1310.48,-390.59 1315.45,-395.53"/>
<text text-anchor="middle" x="1299.76" y="-412.32" font-family="Times,serif" font-size="14.00">1</text>
</g>
<!-- n27 -->
<g id="node27" class="node">
<title>n27</title>
<polygon fill="#e28f41" stroke="#e28f41" points="1390.01,-475.5 1331.26,-475.5 1331.26,-416.75 1390.01,-416.75 1390.01,-475.5"/>
<text text-anchor="middle" x="1360.63" y="-441.07" font-family="Times,serif" font-size="14.00">(:γ, :a1)</text>
</g>
<!-- n10&#45;&gt;n27 -->
<g id="edge5" class="edge">
<title>n10&#45;&gt;n27</title>
<path fill="none" stroke="black" d="M1276.41,-452.49C1282.97,-450.51 1289.82,-448.76 1296.38,-447.62 1303.79,-446.34 1311.75,-445.64 1319.44,-445.3"/>
<polygon fill="black" stroke="black" points="1319.38,-448.8 1329.29,-445.06 1319.21,-441.8 1319.38,-448.8"/>
<text text-anchor="middle" x="1299.76" y="-450.32" font-family="Times,serif" font-size="14.00">1</text>
</g>
<!-- n11 -->
<g id="node11" class="node">
<title>n11</title>
<ellipse fill="#6c9ac3" stroke="#6c9ac3" cx="1012.36" cy="-316.12" rx="41.63" ry="41.63"/>
<text text-anchor="middle" x="1012.36" y="-311.07" font-family="Times,serif" font-size="14.00">(:E, :a1)</text>
</g>
<!-- n26 -->
<g id="node26" class="node">
<title>n26</title>
<polygon fill="#e28f41" stroke="#e28f41" points="1157.5,-437.25 1097.25,-437.25 1097.25,-377 1157.5,-377 1157.5,-437.25"/>
<text text-anchor="middle" x="1127.37" y="-402.07" font-family="Times,serif" font-size="14.00">(:σ, :a1)</text>
</g>
<!-- n11&#45;&gt;n26 -->
<g id="edge48" class="edge">
<title>n11&#45;&gt;n26</title>
<path fill="none" stroke="black" d="M1045.44,-341.96C1058.72,-352.65 1074.22,-365.13 1088.08,-376.3"/>
<polygon fill="black" stroke="black" points="1085.76,-378.91 1095.74,-382.46 1090.15,-373.46 1085.76,-378.91"/>
<text text-anchor="middle" x="1075.87" y="-369.32" font-family="Times,serif" font-size="14.00">1</text>
</g>
<!-- n12 -->
<g id="node12" class="node">
<title>n12</title>
<ellipse fill="#6c9ac3" stroke="#6c9ac3" cx="1485.02" cy="-446.12" rx="42.14" ry="42.14"/>
<text text-anchor="middle" x="1485.02" y="-441.07" font-family="Times,serif" font-size="14.00">(:R, :a1)</text>
</g>
<!-- n13&#45;&gt;n2 -->
<g id="edge42" class="edge">
<title>n13&#45;&gt;n2</title>
<path fill="none" stroke="black" d="M204.42,-322.52C210.06,-319.32 215.99,-316.55 221.98,-314.62 226.82,-313.07 231.96,-312.02 237.16,-311.34"/>
<polygon fill="black" stroke="black" points="237.33,-314.84 247,-310.52 236.75,-307.86 237.33,-314.84"/>
<text text-anchor="middle" x="225.36" y="-317.32" font-family="Times,serif" font-size="14.00">1</text>
</g>
<!-- n13&#45;&gt;n3 -->
<g id="edge30" class="edge">
<title>n13&#45;&gt;n3</title>
<path fill="none" stroke="black" d="M173.04,-392.87C189.58,-473.8 231.91,-650.12 286.85,-650.12 286.85,-650.12 286.85,-650.12 828.09,-650.12 942.86,-650.12 960.11,-726.12 1074.87,-726.12 1074.87,-726.12 1074.87,-726.12 1361.63,-726.12 1415.7,-726.12 1449.7,-667.23 1467.78,-622.29"/>
<polygon fill="black" stroke="black" points="1470.95,-623.79 1471.27,-613.2 1464.42,-621.27 1470.95,-623.79"/>
<text text-anchor="middle" x="827.09" y="-653.33" font-family="Times,serif" font-size="14.00">1</text>
</g>
<!-- n14&#45;&gt;n2 -->
<g id="edge24" class="edge">
<title>n14&#45;&gt;n2</title>
<path fill="none" stroke="black" d="M371.27,-322.52C365.63,-319.32 359.7,-316.55 353.71,-314.62 348.87,-313.07 343.73,-312.02 338.53,-311.34"/>
<polygon fill="black" stroke="black" points="338.95,-307.86 328.69,-310.52 338.37,-314.84 338.95,-307.86"/>
<text text-anchor="middle" x="350.34" y="-317.32" font-family="Times,serif" font-size="14.00">1</text>
</g>
<!-- n14&#45;&gt;n7 -->
<g id="edge37" class="edge">
<title>n14&#45;&gt;n7</title>
<path fill="none" stroke="black" d="M450.94,-354.07C460.91,-354.32 471.82,-354.59 482.36,-354.84"/>
<polygon fill="black" stroke="black" points="481.99,-358.34 492.08,-355.08 482.17,-351.34 481.99,-358.34"/>
<text text-anchor="middle" x="472.09" y="-357.32" font-family="Times,serif" font-size="14.00">1</text>
</g>
<!-- n15&#45;&gt;n2 -->
<g id="edge28" class="edge">
<title>n15&#45;&gt;n2</title>
<path fill="none" stroke="black" d="M848,-134.9C842.17,-136.51 836.2,-137.98 830.47,-139.12 774.67,-150.26 760.01,-152.12 703.11,-152.12 410.21,-152.12 410.21,-152.12 410.21,-152.12 379.82,-152.12 368.63,-156.81 346.96,-178.12 323.35,-201.35 308.75,-235.72 300.08,-263.96"/>
<polygon fill="black" stroke="black" points="296.77,-262.82 297.36,-273.4 303.49,-264.76 296.77,-262.82"/>
<text text-anchor="middle" x="599.11" y="-155.32" font-family="Times,serif" font-size="14.00">1</text>
</g>
<!-- n15&#45;&gt;n11 -->
<g id="edge1" class="edge">
<title>n15&#45;&gt;n11</title>
<path fill="none" stroke="black" d="M921.78,-162.11C923.75,-164.79 925.66,-167.48 927.47,-170.12 949.28,-202.09 970.97,-240.04 986.83,-269.24"/>
<polygon fill="black" stroke="black" points="983.64,-270.7 991.47,-277.84 989.8,-267.38 983.64,-270.7"/>
<text text-anchor="middle" x="948.84" y="-208.32" font-family="Times,serif" font-size="14.00">1</text>
</g>
<!-- n16&#45;&gt;n3 -->
<g id="edge46" class="edge">
<title>n16&#45;&gt;n3</title>
<path fill="none" stroke="black" d="M927.88,-186.05C950.68,-170 980.92,-154.12 1011.36,-154.12 1011.36,-154.12 1011.36,-154.12 1361.63,-154.12 1427.88,-154.12 1384.62,-233.72 1400.13,-298.12 1421.32,-386.07 1411.3,-412.36 1442.88,-497.12 1446.58,-507.04 1451.4,-517.24 1456.44,-526.81"/>
<polygon fill="black" stroke="black" points="1453.36,-528.46 1461.22,-535.56 1459.5,-525.11 1453.36,-528.46"/>
<text text-anchor="middle" x="1178.87" y="-157.32" font-family="Times,serif" font-size="14.00">1</text>
</g>
<!-- n16&#45;&gt;n6 -->
<g id="edge14" class="edge">
<title>n16&#45;&gt;n6</title>
<path fill="none" stroke="black" d="M847.99,-225.08C839.3,-227.81 830.63,-231.8 823.72,-237.62 802.36,-255.6 788.17,-283.31 779.16,-307.41"/>
<polygon fill="black" stroke="black" points="775.89,-306.16 775.88,-316.76 782.49,-308.48 775.89,-306.16"/>
<text text-anchor="middle" x="827.09" y="-240.32" font-family="Times,serif" font-size="14.00">1</text>
</g>
<!-- n17&#45;&gt;n6 -->
<g id="edge29" class="edge">
<title>n17&#45;&gt;n6</title>
<path fill="none" stroke="black" d="M850.85,-450.24C834.5,-432.19 815.28,-410.97 799.23,-393.26"/>
<polygon fill="black" stroke="black" points="801.96,-391.06 792.66,-385.99 796.77,-395.75 801.96,-391.06"/>
<text text-anchor="middle" x="827.09" y="-430.32" font-family="Times,serif" font-size="14.00">1</text>
</g>
<!-- n17&#45;&gt;n7 -->
<g id="edge34" class="edge">
<title>n17&#45;&gt;n7</title>
<path fill="none" stroke="black" d="M848.29,-481.14C840.12,-479.02 831.6,-476.64 823.72,-474.12 731.41,-444.63 709.64,-433.13 620.49,-395.12 608.49,-390.01 595.66,-384.22 583.74,-378.69"/>
<polygon fill="black" stroke="black" points="585.45,-375.62 574.91,-374.56 582.49,-381.97 585.45,-375.62"/>
<text text-anchor="middle" x="702.11" y="-434.32" font-family="Times,serif" font-size="14.00">1</text>
</g>
<!-- n18&#45;&gt;n6 -->
<g id="edge12" class="edge">
<title>n18&#45;&gt;n6</title>
<path fill="none" stroke="black" d="M848.05,-328.95C836.86,-332.64 824.53,-336.7 812.9,-340.54"/>
<polygon fill="black" stroke="black" points="811.86,-337.2 803.46,-343.65 814.05,-343.84 811.86,-337.2"/>
<text text-anchor="middle" x="827.09" y="-339.32" font-family="Times,serif" font-size="14.00">1</text>
</g>
<!-- n18&#45;&gt;n11 -->
<g id="edge22" class="edge">
<title>n18&#45;&gt;n11</title>
<path fill="none" stroke="black" d="M927.69,-316.12C937.67,-316.12 948.57,-316.12 959.11,-316.12"/>
<polygon fill="black" stroke="black" points="958.84,-319.63 968.84,-316.13 958.84,-312.63 958.84,-319.63"/>
<text text-anchor="middle" x="948.84" y="-319.32" font-family="Times,serif" font-size="14.00">1</text>
</g>
<!-- n19&#45;&gt;n3 -->
<g id="edge2" class="edge">
<title>n19&#45;&gt;n3</title>
<path fill="none" stroke="black" d="M1400.36,-624.76C1412.86,-616.9 1426.81,-608.12 1439.69,-600.02"/>
<polygon fill="black" stroke="black" points="1441.4,-603.08 1448,-594.79 1437.67,-597.15 1441.4,-603.08"/>
<text text-anchor="middle" x="1421.51" y="-615.33" font-family="Times,serif" font-size="14.00">1</text>
</g>
<!-- n19&#45;&gt;n10 -->
<g id="edge9" class="edge">
<title>n19&#45;&gt;n10</title>
<path fill="none" stroke="black" d="M1331.44,-609.33C1327.93,-604.23 1324.43,-599.07 1321.13,-594.12 1302.44,-566.02 1282.16,-533.89 1266.59,-508.85"/>
<polygon fill="black" stroke="black" points="1269.7,-507.22 1261.45,-500.57 1263.75,-510.91 1269.7,-507.22"/>
<text text-anchor="middle" x="1299.76" y="-569.33" font-family="Times,serif" font-size="14.00">1</text>
</g>
<!-- n20&#45;&gt;n7 -->
<g id="edge16" class="edge">
<title>n20&#45;&gt;n7</title>
<path fill="none" stroke="black" d="M1320.79,-551.51C1297.52,-554.8 1267.3,-558.12 1240.31,-558.12 649.61,-558.12 649.61,-558.12 649.61,-558.12 622.42,-558.12 611.36,-551.39 595.74,-529.12 564.26,-484.26 599.72,-457.33 577.74,-407.12 575.97,-403.08 573.79,-399.09 571.36,-395.23"/>
<polygon fill="black" stroke="black" points="574.36,-393.41 565.79,-387.18 568.61,-397.4 574.36,-393.41"/>
<text text-anchor="middle" x="948.84" y="-561.33" font-family="Times,serif" font-size="14.00">1</text>
</g>
<!-- n20&#45;&gt;n10 -->
<g id="edge8" class="edge">
<title>n20&#45;&gt;n10</title>
<path fill="none" stroke="black" d="M1320.75,-520.1C1312.68,-514.85 1304.24,-509.33 1296.38,-504.12 1291.6,-500.96 1286.61,-497.62 1281.66,-494.29"/>
<polygon fill="black" stroke="black" points="1283.76,-491.48 1273.52,-488.79 1279.85,-497.28 1283.76,-491.48"/>
<text text-anchor="middle" x="1299.76" y="-510.32" font-family="Times,serif" font-size="14.00">1</text>
</g>
<!-- n21&#45;&gt;n10 -->
<g id="edge15" class="edge">
<title>n21&#45;&gt;n10</title>
<path fill="none" stroke="black" d="M1320.85,-353.01C1312.16,-355.87 1303.44,-359.91 1296.38,-365.62 1279.22,-379.52 1266.42,-400.15 1257.42,-419.11"/>
<polygon fill="black" stroke="black" points="1254.32,-417.48 1253.43,-428.04 1260.71,-420.34 1254.32,-417.48"/>
<text text-anchor="middle" x="1299.76" y="-368.32" font-family="Times,serif" font-size="14.00">1</text>
</g>
<!-- n21&#45;&gt;n11 -->
<g id="edge38" class="edge">
<title>n21&#45;&gt;n11</title>
<path fill="none" stroke="black" d="M1320.64,-342.75C1258.07,-337.33 1135.19,-326.68 1065.26,-320.62"/>
<polygon fill="black" stroke="black" points="1065.87,-317.16 1055.61,-319.79 1065.27,-324.14 1065.87,-317.16"/>
<text text-anchor="middle" x="1178.87" y="-333.32" font-family="Times,serif" font-size="14.00">1</text>
</g>
<!-- n22&#45;&gt;n2 -->
<g id="edge20" class="edge">
<title>n22&#45;&gt;n2</title>
<path fill="none" stroke="black" d="M1569.45,-23.62C1546.75,-19.19 1514.56,-14.12 1486.02,-14.12 826.09,-14.12 826.09,-14.12 826.09,-14.12 720.82,-14.12 463.6,-96.75 371.71,-148.12 329.86,-171.52 308.62,-223.91 298.2,-263.43"/>
<polygon fill="black" stroke="black" points="294.84,-262.43 295.84,-272.98 301.64,-264.11 294.84,-262.43"/>
<text text-anchor="middle" x="948.84" y="-17.32" font-family="Times,serif" font-size="14.00">1</text>
</g>
<!-- n23&#45;&gt;n4 -->
<g id="edge39" class="edge">
<title>n23&#45;&gt;n4</title>
<path fill="none" stroke="black" d="M440.91,-444.35C453.28,-446.17 468.16,-448.35 482.37,-450.44"/>
<polygon fill="black" stroke="black" points="481.67,-453.88 492.07,-451.87 482.69,-446.95 481.67,-453.88"/>
<text text-anchor="middle" x="472.09" y="-452.32" font-family="Times,serif" font-size="14.00">1</text>
</g>
<!-- n24&#45;&gt;n6 -->
<g id="edge27" class="edge">
<title>n24&#45;&gt;n6</title>
<path fill="none" stroke="black" d="M681.04,-356.12C691.04,-356.12 702.52,-356.12 713.67,-356.12"/>
<polygon fill="black" stroke="black" points="713.59,-359.63 723.59,-356.13 713.59,-352.63 713.59,-359.63"/>
<text text-anchor="middle" x="702.11" y="-359.32" font-family="Times,serif" font-size="14.00">1</text>
</g>
<!-- n25&#45;&gt;n8 -->
<g id="edge3" class="edge">
<title>n25&#45;&gt;n8</title>
<path fill="none" stroke="black" d="M917.66,-406.64C930.04,-408.16 944.92,-409.98 959.13,-411.72"/>
<polygon fill="black" stroke="black" points="958.48,-415.17 968.83,-412.91 959.33,-408.22 958.48,-415.17"/>
<text text-anchor="middle" x="948.84" y="-413.32" font-family="Times,serif" font-size="14.00">1</text>
</g>
<!-- n26&#45;&gt;n10 -->
<g id="edge6" class="edge">
<title>n26&#45;&gt;n10</title>
<path fill="none" stroke="black" d="M1157.83,-422.94C1169.07,-428.96 1182.12,-435.97 1194.41,-442.56"/>
<polygon fill="black" stroke="black" points="1192.69,-445.61 1203.16,-447.26 1196,-439.44 1192.69,-445.61"/>
<text text-anchor="middle" x="1178.87" y="-437.32" font-family="Times,serif" font-size="14.00">1</text>
</g>
<!-- n27&#45;&gt;n12 -->
<g id="edge32" class="edge">
<title>n27&#45;&gt;n12</title>
<path fill="none" stroke="black" d="M1390.33,-446.12C1402.59,-446.12 1417.31,-446.12 1431.41,-446.12"/>
<polygon fill="black" stroke="black" points="1431.01,-449.63 1441.01,-446.13 1431.01,-442.63 1431.01,-449.63"/>
<text text-anchor="middle" x="1421.51" y="-449.32" font-family="Times,serif" font-size="14.00">1</text>
</g>
</g>
</svg>
