<?xml version="1.0" encoding="UTF-8" standalone="no"?>
<!DOCTYPE svg PUBLIC "-//W3C//DTD SVG 1.1//EN"
 "http://www.w3.org/Graphics/SVG/1.1/DTD/svg11.dtd">
<!-- Generated by graphviz version 11.0.0 (20240428.1522)
 -->
<!-- Title: G Pages: 1 -->
<svg width="1165pt" height="200pt"
 viewBox="0.00 0.00 1165.15 199.79" xmlns="http://www.w3.org/2000/svg" xmlns:xlink="http://www.w3.org/1999/xlink">
<g id="graph0" class="graph" transform="scale(1 1) rotate(0) translate(4 195.79)">
<title>G</title>
<polygon fill="white" stroke="none" points="-4,4 -4,-195.79 1161.15,-195.79 1161.15,4 -4,4"/>
<!-- n1 -->
<g id="node1" class="node">
<title>n1</title>
<path fill="#e28f41" stroke="#e28f41" d="M906,-115.49C906,-115.49 876,-115.49 876,-115.49 870,-115.49 864,-109.49 864,-103.49 864,-103.49 864,-91.49 864,-91.49 864,-85.49 870,-79.49 876,-79.49 876,-79.49 906,-79.49 906,-79.49 912,-79.49 918,-85.49 918,-91.49 918,-91.49 918,-103.49 918,-103.49 918,-109.49 912,-115.49 906,-115.49"/>
<text text-anchor="middle" x="891" y="-92.44" font-family="Times,serif" font-size="14.00">β_a2_a2</text>
</g>
<!-- n28 -->
<g id="node28" class="node">
<title>n28</title>
<ellipse fill="#80be63" stroke="#80be63" cx="747" cy="-21.74" rx="20.68" ry="20.68"/>
<text text-anchor="middle" x="747" y="-16.69" font-family="Times,serif" font-size="14.00">S_a2&#39;</text>
</g>
<!-- n1&#45;&gt;n28 -->
<g id="edge49" class="edge">
<title>n1&#45;&gt;n28</title>
<path fill="none" stroke="red" d="M863.54,-83.36C841.81,-72.86 810.77,-57.61 784,-43.49 779.51,-41.12 774.76,-38.52 770.21,-35.99"/>
<polygon fill="red" stroke="red" points="771.13,-34.5 765.91,-33.59 769.42,-37.56 771.13,-34.5"/>
</g>
<!-- n29 -->
<g id="node29" class="node">
<title>n29</title>
<ellipse fill="#80be63" stroke="#80be63" cx="878" cy="-21.74" rx="18.56" ry="18.56"/>
<text text-anchor="middle" x="878" y="-16.69" font-family="Times,serif" font-size="14.00">I_a2&#39;</text>
</g>
<!-- n1&#45;&gt;n29 -->
<g id="edge26" class="edge">
<title>n1&#45;&gt;n29</title>
<path fill="none" stroke="black" d="M887.92,-79.01C886.22,-69.35 884.07,-57.2 882.22,-46.66"/>
<polygon fill="black" stroke="black" points="883.96,-46.46 881.37,-41.84 880.51,-47.07 883.96,-46.46"/>
</g>
<!-- n1&#45;&gt;n29 -->
<g id="edge50" class="edge">
<title>n1&#45;&gt;n29</title>
<path fill="none" stroke="red" d="M887.92,-79.01C886.22,-69.35 884.07,-57.2 882.22,-46.66"/>
<polygon fill="red" stroke="red" points="883.96,-46.46 881.37,-41.84 880.51,-47.07 883.96,-46.46"/>
</g>
<!-- n30 -->
<g id="node30" class="node">
<title>n30</title>
<ellipse fill="#80be63" stroke="#80be63" cx="814" cy="-21.74" rx="21.21" ry="21.21"/>
<text text-anchor="middle" x="814" y="-16.69" font-family="Times,serif" font-size="14.00">E_a2&#39;</text>
</g>
<!-- n1&#45;&gt;n30 -->
<g id="edge25" class="edge">
<title>n1&#45;&gt;n30</title>
<path fill="none" stroke="black" d="M872.75,-79.01C860.97,-67.73 845.66,-53.06 833.62,-41.53"/>
<polygon fill="black" stroke="black" points="834.93,-40.36 830.11,-38.17 832.51,-42.89 834.93,-40.36"/>
</g>
<!-- n2 -->
<g id="node2" class="node">
<title>n2</title>
<path fill="#e28f41" stroke="#e28f41" d="M690,-115.49C690,-115.49 660,-115.49 660,-115.49 654,-115.49 648,-109.49 648,-103.49 648,-103.49 648,-91.49 648,-91.49 648,-85.49 654,-79.49 660,-79.49 660,-79.49 690,-79.49 690,-79.49 696,-79.49 702,-85.49 702,-91.49 702,-91.49 702,-103.49 702,-103.49 702,-109.49 696,-115.49 690,-115.49"/>
<text text-anchor="middle" x="675" y="-92.44" font-family="Times,serif" font-size="14.00">β_a3_a2</text>
</g>
<!-- n2&#45;&gt;n29 -->
<g id="edge28" class="edge">
<title>n2&#45;&gt;n29</title>
<path fill="none" stroke="black" d="M702.3,-82.98C705.21,-81.73 708.15,-80.54 711,-79.49 768.47,-58.33 787.74,-67.68 844,-43.49 848.56,-41.53 853.23,-39.04 857.59,-36.47"/>
<polygon fill="black" stroke="black" points="858.28,-38.1 861.63,-34 856.46,-35.11 858.28,-38.1"/>
</g>
<!-- n2&#45;&gt;n29 -->
<g id="edge52" class="edge">
<title>n2&#45;&gt;n29</title>
<path fill="none" stroke="red" d="M702.3,-82.98C705.21,-81.73 708.15,-80.54 711,-79.49 768.47,-58.33 787.74,-67.68 844,-43.49 848.56,-41.53 853.23,-39.04 857.59,-36.47"/>
<polygon fill="red" stroke="red" points="858.28,-38.1 861.63,-34 856.46,-35.11 858.28,-38.1"/>
</g>
<!-- n32 -->
<g id="node32" class="node">
<title>n32</title>
<ellipse fill="#80be63" stroke="#80be63" cx="289" cy="-21.74" rx="20.68" ry="20.68"/>
<text text-anchor="middle" x="289" y="-16.69" font-family="Times,serif" font-size="14.00">S_a3&#39;</text>
</g>
<!-- n2&#45;&gt;n32 -->
<g id="edge51" class="edge">
<title>n2&#45;&gt;n32</title>
<path fill="none" stroke="red" d="M647.83,-82.57C644.9,-81.4 641.92,-80.34 639,-79.49 517.28,-43.98 479.92,-70.34 356,-43.49 341.99,-40.45 326.69,-35.82 314.26,-31.7"/>
<polygon fill="red" stroke="red" points="315.14,-30.15 309.84,-30.22 314.02,-33.47 315.14,-30.15"/>
</g>
<!-- n34 -->
<g id="node34" class="node">
<title>n34</title>
<ellipse fill="#80be63" stroke="#80be63" cx="229" cy="-21.74" rx="21.21" ry="21.21"/>
<text text-anchor="middle" x="229" y="-16.69" font-family="Times,serif" font-size="14.00">E_a3&#39;</text>
</g>
<!-- n2&#45;&gt;n34 -->
<g id="edge27" class="edge">
<title>n2&#45;&gt;n34</title>
<path fill="none" stroke="black" d="M647.86,-82.48C644.92,-81.32 641.93,-80.29 639,-79.49 475.4,-34.59 418.38,-101.61 259,-43.49 256.1,-42.43 253.22,-41.03 250.46,-39.44"/>
<polygon fill="black" stroke="black" points="251.42,-37.98 246.26,-36.81 249.56,-40.95 251.42,-37.98"/>
</g>
<!-- n3 -->
<g id="node3" class="node">
<title>n3</title>
<path fill="#e28f41" stroke="#e28f41" d="M834,-115.49C834,-115.49 804,-115.49 804,-115.49 798,-115.49 792,-109.49 792,-103.49 792,-103.49 792,-91.49 792,-91.49 792,-85.49 798,-79.49 804,-79.49 804,-79.49 834,-79.49 834,-79.49 840,-79.49 846,-85.49 846,-91.49 846,-91.49 846,-103.49 846,-103.49 846,-109.49 840,-115.49 834,-115.49"/>
<text text-anchor="middle" x="819" y="-92.44" font-family="Times,serif" font-size="14.00">β_a1_a2</text>
</g>
<!-- n3&#45;&gt;n29 -->
<g id="edge30" class="edge">
<title>n3&#45;&gt;n29</title>
<path fill="none" stroke="black" d="M832.98,-79.01C841.97,-67.78 853.63,-53.2 862.84,-41.69"/>
<polygon fill="black" stroke="black" points="864.17,-42.83 865.93,-37.83 861.44,-40.64 864.17,-42.83"/>
</g>
<!-- n3&#45;&gt;n29 -->
<g id="edge54" class="edge">
<title>n3&#45;&gt;n29</title>
<path fill="none" stroke="red" d="M832.98,-79.01C841.97,-67.78 853.63,-53.2 862.84,-41.69"/>
<polygon fill="red" stroke="red" points="864.17,-42.83 865.93,-37.83 861.44,-40.64 864.17,-42.83"/>
</g>
<!-- n36 -->
<g id="node36" class="node">
<title>n36</title>
<ellipse fill="#80be63" stroke="#80be63" cx="516" cy="-21.74" rx="20.68" ry="20.68"/>
<text text-anchor="middle" x="516" y="-16.69" font-family="Times,serif" font-size="14.00">S_a1&#39;</text>
</g>
<!-- n3&#45;&gt;n36 -->
<g id="edge53" class="edge">
<title>n3&#45;&gt;n36</title>
<path fill="none" stroke="red" d="M791.8,-82.67C788.87,-81.48 785.9,-80.39 783,-79.49 687.11,-49.76 655.9,-73.18 560,-43.49 553.21,-41.38 546.12,-38.42 539.67,-35.39"/>
<polygon fill="red" stroke="red" points="540.57,-33.88 535.31,-33.27 539.04,-37.03 540.57,-33.88"/>
</g>
<!-- n38 -->
<g id="node38" class="node">
<title>n38</title>
<ellipse fill="#80be63" stroke="#80be63" cx="590" cy="-21.74" rx="21.21" ry="21.21"/>
<text text-anchor="middle" x="590" y="-16.69" font-family="Times,serif" font-size="14.00">E_a1&#39;</text>
</g>
<!-- n3&#45;&gt;n38 -->
<g id="edge29" class="edge">
<title>n3&#45;&gt;n38</title>
<path fill="none" stroke="black" d="M791.67,-83.05C788.77,-81.78 785.84,-80.57 783,-79.49 724.99,-57.41 654.51,-38.64 616.83,-29.22"/>
<polygon fill="black" stroke="black" points="617.37,-27.56 612.1,-28.05 616.53,-30.95 617.37,-27.56"/>
</g>
<!-- n4 -->
<g id="node4" class="node">
<title>n4</title>
<path fill="#e28f41" stroke="#e28f41" d="M546,-115.49C546,-115.49 516,-115.49 516,-115.49 510,-115.49 504,-109.49 504,-103.49 504,-103.49 504,-91.49 504,-91.49 504,-85.49 510,-79.49 516,-79.49 516,-79.49 546,-79.49 546,-79.49 552,-79.49 558,-85.49 558,-91.49 558,-91.49 558,-103.49 558,-103.49 558,-109.49 552,-115.49 546,-115.49"/>
<text text-anchor="middle" x="531" y="-92.44" font-family="Times,serif" font-size="14.00">β_a2_a3</text>
</g>
<!-- n4&#45;&gt;n28 -->
<g id="edge55" class="edge">
<title>n4&#45;&gt;n28</title>
<path fill="none" stroke="red" d="M558.35,-83.1C561.25,-81.83 564.17,-80.6 567,-79.49 620.57,-58.51 685.32,-39.62 720.73,-29.81"/>
<polygon fill="red" stroke="red" points="721.17,-31.51 725.53,-28.49 720.24,-28.13 721.17,-31.51"/>
</g>
<!-- n4&#45;&gt;n30 -->
<g id="edge31" class="edge">
<title>n4&#45;&gt;n30</title>
<path fill="none" stroke="black" d="M558.21,-82.7C561.13,-81.5 564.1,-80.4 567,-79.49 657.31,-51.01 687.74,-75.1 777,-43.49 781.69,-41.83 786.47,-39.6 790.98,-37.22"/>
<polygon fill="black" stroke="black" points="791.67,-38.84 795.19,-34.89 789.97,-35.78 791.67,-38.84"/>
</g>
<!-- n33 -->
<g id="node33" class="node">
<title>n33</title>
<ellipse fill="#80be63" stroke="#80be63" cx="171" cy="-21.74" rx="18.56" ry="18.56"/>
<text text-anchor="middle" x="171" y="-16.69" font-family="Times,serif" font-size="14.00">I_a3&#39;</text>
</g>
<!-- n4&#45;&gt;n33 -->
<g id="edge32" class="edge">
<title>n4&#45;&gt;n33</title>
<path fill="none" stroke="black" d="M503.84,-82.56C500.9,-81.39 497.92,-80.33 495,-79.49 367.68,-42.72 322.1,-92.56 199,-43.49 195.77,-42.2 192.58,-40.44 189.57,-38.49"/>
<polygon fill="black" stroke="black" points="190.72,-37.16 185.62,-35.71 188.7,-40.02 190.72,-37.16"/>
</g>
<!-- n4&#45;&gt;n33 -->
<g id="edge56" class="edge">
<title>n4&#45;&gt;n33</title>
<path fill="none" stroke="red" d="M503.84,-82.56C500.9,-81.39 497.92,-80.33 495,-79.49 367.68,-42.72 322.1,-92.56 199,-43.49 195.77,-42.2 192.58,-40.44 189.57,-38.49"/>
<polygon fill="red" stroke="red" points="190.72,-37.16 185.62,-35.71 188.7,-40.02 190.72,-37.16"/>
</g>
<!-- n5 -->
<g id="node5" class="node">
<title>n5</title>
<path fill="#e28f41" stroke="#e28f41" d="M186,-115.49C186,-115.49 156,-115.49 156,-115.49 150,-115.49 144,-109.49 144,-103.49 144,-103.49 144,-91.49 144,-91.49 144,-85.49 150,-79.49 156,-79.49 156,-79.49 186,-79.49 186,-79.49 192,-79.49 198,-85.49 198,-91.49 198,-91.49 198,-103.49 198,-103.49 198,-109.49 192,-115.49 186,-115.49"/>
<text text-anchor="middle" x="171" y="-92.44" font-family="Times,serif" font-size="14.00">β_a3_a3</text>
</g>
<!-- n5&#45;&gt;n32 -->
<g id="edge57" class="edge">
<title>n5&#45;&gt;n32</title>
<path fill="none" stroke="red" d="M198.23,-80.68C215.76,-70.37 238.93,-56.45 259,-43.49 261.59,-41.81 264.28,-40.03 266.94,-38.23"/>
<polygon fill="red" stroke="red" points="267.92,-39.68 271.06,-35.41 265.94,-36.79 267.92,-39.68"/>
</g>
<!-- n5&#45;&gt;n33 -->
<g id="edge34" class="edge">
<title>n5&#45;&gt;n33</title>
<path fill="none" stroke="black" d="M171,-79.01C171,-69.42 171,-57.37 171,-46.89"/>
<polygon fill="black" stroke="black" points="172.75,-47.12 171,-42.12 169.25,-47.12 172.75,-47.12"/>
</g>
<!-- n5&#45;&gt;n33 -->
<g id="edge58" class="edge">
<title>n5&#45;&gt;n33</title>
<path fill="none" stroke="red" d="M171,-79.01C171,-69.42 171,-57.37 171,-46.89"/>
<polygon fill="red" stroke="red" points="172.75,-47.12 171,-42.12 169.25,-47.12 172.75,-47.12"/>
</g>
<!-- n5&#45;&gt;n34 -->
<g id="edge33" class="edge">
<title>n5&#45;&gt;n34</title>
<path fill="none" stroke="black" d="M184.75,-79.01C193,-68.52 203.55,-55.1 212.28,-44"/>
<polygon fill="black" stroke="black" points="213.5,-45.29 215.21,-40.27 210.75,-43.12 213.5,-45.29"/>
</g>
<!-- n6 -->
<g id="node6" class="node">
<title>n6</title>
<path fill="#e28f41" stroke="#e28f41" d="M330,-115.49C330,-115.49 300,-115.49 300,-115.49 294,-115.49 288,-109.49 288,-103.49 288,-103.49 288,-91.49 288,-91.49 288,-85.49 294,-79.49 300,-79.49 300,-79.49 330,-79.49 330,-79.49 336,-79.49 342,-85.49 342,-91.49 342,-91.49 342,-103.49 342,-103.49 342,-109.49 336,-115.49 330,-115.49"/>
<text text-anchor="middle" x="315" y="-92.44" font-family="Times,serif" font-size="14.00">β_a1_a3</text>
</g>
<!-- n6&#45;&gt;n33 -->
<g id="edge36" class="edge">
<title>n6&#45;&gt;n33</title>
<path fill="none" stroke="black" d="M287.51,-83.44C284.64,-82.1 281.76,-80.76 279,-79.49 243.59,-63.16 232.64,-63.21 199,-43.49 196.06,-41.77 193.07,-39.8 190.18,-37.78"/>
<polygon fill="black" stroke="black" points="191.43,-36.53 186.35,-35.01 189.38,-39.36 191.43,-36.53"/>
</g>
<!-- n6&#45;&gt;n33 -->
<g id="edge60" class="edge">
<title>n6&#45;&gt;n33</title>
<path fill="none" stroke="red" d="M287.51,-83.44C284.64,-82.1 281.76,-80.76 279,-79.49 243.59,-63.16 232.64,-63.21 199,-43.49 196.06,-41.77 193.07,-39.8 190.18,-37.78"/>
<polygon fill="red" stroke="red" points="191.43,-36.53 186.35,-35.01 189.38,-39.36 191.43,-36.53"/>
</g>
<!-- n6&#45;&gt;n36 -->
<g id="edge59" class="edge">
<title>n6&#45;&gt;n36</title>
<path fill="none" stroke="red" d="M342.3,-82.97C345.2,-81.72 348.14,-80.53 351,-79.49 409.74,-58.05 430.43,-70.11 487,-43.49 489.66,-42.24 492.33,-40.73 494.92,-39.12"/>
<polygon fill="red" stroke="red" points="495.63,-40.75 498.82,-36.52 493.69,-37.84 495.63,-40.75"/>
</g>
<!-- n6&#45;&gt;n38 -->
<g id="edge35" class="edge">
<title>n6&#45;&gt;n38</title>
<path fill="none" stroke="black" d="M342.22,-82.74C345.14,-81.53 348.11,-80.42 351,-79.49 434.88,-52.45 462.11,-70.5 546,-43.49 552.65,-41.35 559.59,-38.42 565.95,-35.45"/>
<polygon fill="black" stroke="black" points="566.49,-37.13 570.23,-33.38 564.96,-33.98 566.49,-37.13"/>
</g>
<!-- n7 -->
<g id="node7" class="node">
<title>n7</title>
<path fill="#e28f41" stroke="#e28f41" d="M762,-115.49C762,-115.49 732,-115.49 732,-115.49 726,-115.49 720,-109.49 720,-103.49 720,-103.49 720,-91.49 720,-91.49 720,-85.49 726,-79.49 732,-79.49 732,-79.49 762,-79.49 762,-79.49 768,-79.49 774,-85.49 774,-91.49 774,-91.49 774,-103.49 774,-103.49 774,-109.49 768,-115.49 762,-115.49"/>
<text text-anchor="middle" x="747" y="-92.44" font-family="Times,serif" font-size="14.00">β_a2_a1</text>
</g>
<!-- n7&#45;&gt;n28 -->
<g id="edge61" class="edge">
<title>n7&#45;&gt;n28</title>
<path fill="none" stroke="red" d="M747,-79.01C747,-70.07 747,-58.99 747,-49.04"/>
<polygon fill="red" stroke="red" points="748.75,-49.21 747,-44.21 745.25,-49.21 748.75,-49.21"/>
</g>
<!-- n7&#45;&gt;n30 -->
<g id="edge37" class="edge">
<title>n7&#45;&gt;n30</title>
<path fill="none" stroke="black" d="M762.88,-79.01C772.77,-68.13 785.52,-54.1 795.81,-42.77"/>
<polygon fill="black" stroke="black" points="796.97,-44.09 799.04,-39.21 794.38,-41.74 796.97,-44.09"/>
</g>
<!-- n37 -->
<g id="node37" class="node">
<title>n37</title>
<ellipse fill="#80be63" stroke="#80be63" cx="459" cy="-21.74" rx="18.56" ry="18.56"/>
<text text-anchor="middle" x="459" y="-16.69" font-family="Times,serif" font-size="14.00">I_a1&#39;</text>
</g>
<!-- n7&#45;&gt;n37 -->
<g id="edge38" class="edge">
<title>n7&#45;&gt;n37</title>
<path fill="none" stroke="black" d="M719.8,-82.67C716.88,-81.48 713.91,-80.39 711,-79.49 614.25,-49.57 579,-83.56 486,-43.49 483.16,-42.26 480.36,-40.68 477.69,-38.92"/>
<polygon fill="black" stroke="black" points="478.76,-37.54 473.68,-36.04 476.72,-40.38 478.76,-37.54"/>
</g>
<!-- n7&#45;&gt;n37 -->
<g id="edge62" class="edge">
<title>n7&#45;&gt;n37</title>
<path fill="none" stroke="red" d="M719.8,-82.67C716.88,-81.48 713.91,-80.39 711,-79.49 614.25,-49.57 579,-83.56 486,-43.49 483.16,-42.26 480.36,-40.68 477.69,-38.92"/>
<polygon fill="red" stroke="red" points="478.76,-37.54 473.68,-36.04 476.72,-40.38 478.76,-37.54"/>
</g>
<!-- n8 -->
<g id="node8" class="node">
<title>n8</title>
<path fill="#e28f41" stroke="#e28f41" d="M258,-115.49C258,-115.49 228,-115.49 228,-115.49 222,-115.49 216,-109.49 216,-103.49 216,-103.49 216,-91.49 216,-91.49 216,-85.49 222,-79.49 228,-79.49 228,-79.49 258,-79.49 258,-79.49 264,-79.49 270,-85.49 270,-91.49 270,-91.49 270,-103.49 270,-103.49 270,-109.49 264,-115.49 258,-115.49"/>
<text text-anchor="middle" x="243" y="-92.44" font-family="Times,serif" font-size="14.00">β_a3_a1</text>
</g>
<!-- n8&#45;&gt;n32 -->
<g id="edge63" class="edge">
<title>n8&#45;&gt;n32</title>
<path fill="none" stroke="red" d="M253.9,-79.01C260.19,-68.93 268.17,-56.14 274.93,-45.3"/>
<polygon fill="red" stroke="red" points="276.37,-46.29 277.53,-41.12 273.4,-44.44 276.37,-46.29"/>
</g>
<!-- n8&#45;&gt;n34 -->
<g id="edge39" class="edge">
<title>n8&#45;&gt;n34</title>
<path fill="none" stroke="black" d="M239.68,-79.01C238,-70.14 235.91,-59.17 234.04,-49.28"/>
<polygon fill="black" stroke="black" points="235.77,-49.04 233.12,-44.45 232.33,-49.69 235.77,-49.04"/>
</g>
<!-- n8&#45;&gt;n37 -->
<g id="edge40" class="edge">
<title>n8&#45;&gt;n37</title>
<path fill="none" stroke="black" d="M270.29,-82.95C273.2,-81.7 276.14,-80.52 279,-79.49 339.01,-57.77 358.3,-66.02 418,-43.49 424.51,-41.03 431.35,-37.84 437.54,-34.69"/>
<polygon fill="black" stroke="black" points="438.04,-36.41 441.66,-32.55 436.42,-33.3 438.04,-36.41"/>
</g>
<!-- n8&#45;&gt;n37 -->
<g id="edge64" class="edge">
<title>n8&#45;&gt;n37</title>
<path fill="none" stroke="red" d="M270.29,-82.95C273.2,-81.7 276.14,-80.52 279,-79.49 339.01,-57.77 358.3,-66.02 418,-43.49 424.51,-41.03 431.35,-37.84 437.54,-34.69"/>
<polygon fill="red" stroke="red" points="438.04,-36.41 441.66,-32.55 436.42,-33.3 438.04,-36.41"/>
</g>
<!-- n9 -->
<g id="node9" class="node">
<title>n9</title>
<path fill="#e28f41" stroke="#e28f41" d="M474,-115.49C474,-115.49 444,-115.49 444,-115.49 438,-115.49 432,-109.49 432,-103.49 432,-103.49 432,-91.49 432,-91.49 432,-85.49 438,-79.49 444,-79.49 444,-79.49 474,-79.49 474,-79.49 480,-79.49 486,-85.49 486,-91.49 486,-91.49 486,-103.49 486,-103.49 486,-109.49 480,-115.49 474,-115.49"/>
<text text-anchor="middle" x="459" y="-92.44" font-family="Times,serif" font-size="14.00">β_a1_a1</text>
</g>
<!-- n9&#45;&gt;n36 -->
<g id="edge65" class="edge">
<title>n9&#45;&gt;n36</title>
<path fill="none" stroke="red" d="M472.51,-79.01C480.67,-68.45 491.13,-54.91 499.75,-43.77"/>
<polygon fill="red" stroke="red" points="500.96,-45.06 502.64,-40.03 498.19,-42.92 500.96,-45.06"/>
</g>
<!-- n9&#45;&gt;n37 -->
<g id="edge42" class="edge">
<title>n9&#45;&gt;n37</title>
<path fill="none" stroke="black" d="M459,-79.01C459,-69.42 459,-57.37 459,-46.89"/>
<polygon fill="black" stroke="black" points="460.75,-47.12 459,-42.12 457.25,-47.12 460.75,-47.12"/>
</g>
<!-- n9&#45;&gt;n37 -->
<g id="edge66" class="edge">
<title>n9&#45;&gt;n37</title>
<path fill="none" stroke="red" d="M459,-79.01C459,-69.42 459,-57.37 459,-46.89"/>
<polygon fill="red" stroke="red" points="460.75,-47.12 459,-42.12 457.25,-47.12 460.75,-47.12"/>
</g>
<!-- n9&#45;&gt;n38 -->
<g id="edge41" class="edge">
<title>n9&#45;&gt;n38</title>
<path fill="none" stroke="black" d="M486.46,-81.03C510.12,-67.71 543.9,-48.69 566.37,-36.05"/>
<polygon fill="black" stroke="black" points="567.01,-37.7 570.5,-33.72 565.29,-34.65 567.01,-37.7"/>
</g>
<!-- n10 -->
<g id="node10" class="node">
<title>n10</title>
<path fill="#e28f41" stroke="#e28f41" d="M978,-115.49C978,-115.49 948,-115.49 948,-115.49 942,-115.49 936,-109.49 936,-103.49 936,-103.49 936,-91.49 936,-91.49 936,-85.49 942,-79.49 948,-79.49 948,-79.49 978,-79.49 978,-79.49 984,-79.49 990,-85.49 990,-91.49 990,-91.49 990,-103.49 990,-103.49 990,-109.49 984,-115.49 978,-115.49"/>
<text text-anchor="middle" x="963" y="-92.44" font-family="Times,serif" font-size="14.00">σ_a2</text>
</g>
<!-- n10&#45;&gt;n29 -->
<g id="edge43" class="edge">
<title>n10&#45;&gt;n29</title>
<path fill="none" stroke="black" d="M942.86,-79.01C928.78,-66.8 910.12,-50.61 896.43,-38.74"/>
<polygon fill="black" stroke="black" points="897.7,-37.52 892.78,-35.56 895.41,-40.16 897.7,-37.52"/>
</g>
<!-- n10&#45;&gt;n30 -->
<g id="edge67" class="edge">
<title>n10&#45;&gt;n30</title>
<path fill="none" stroke="red" d="M935.88,-83.67C932.88,-82.25 929.88,-80.84 927,-79.49 892.81,-63.42 883.51,-60.93 850,-43.49 845.95,-41.38 841.71,-39.05 837.61,-36.73"/>
<polygon fill="red" stroke="red" points="838.67,-35.32 833.46,-34.35 836.93,-38.36 838.67,-35.32"/>
</g>
<!-- n11 -->
<g id="node11" class="node">
<title>n11</title>
<path fill="#e28f41" stroke="#e28f41" d="M1050,-115.49C1050,-115.49 1020,-115.49 1020,-115.49 1014,-115.49 1008,-109.49 1008,-103.49 1008,-103.49 1008,-91.49 1008,-91.49 1008,-85.49 1014,-79.49 1020,-79.49 1020,-79.49 1050,-79.49 1050,-79.49 1056,-79.49 1062,-85.49 1062,-91.49 1062,-91.49 1062,-103.49 1062,-103.49 1062,-109.49 1056,-115.49 1050,-115.49"/>
<text text-anchor="middle" x="1035" y="-92.44" font-family="Times,serif" font-size="14.00">γ_a2</text>
</g>
<!-- n11&#45;&gt;n29 -->
<g id="edge68" class="edge">
<title>n11&#45;&gt;n29</title>
<path fill="none" stroke="red" d="M1007.88,-83.67C1004.88,-82.26 1001.88,-80.84 999,-79.49 964.74,-63.37 925,-44.74 900.68,-33.36"/>
<polygon fill="red" stroke="red" points="901.48,-31.8 896.21,-31.27 900,-34.97 901.48,-31.8"/>
</g>
<!-- n31 -->
<g id="node31" class="node">
<title>n31</title>
<ellipse fill="#80be63" stroke="#80be63" cx="1035" cy="-21.74" rx="21.74" ry="21.74"/>
<text text-anchor="middle" x="1035" y="-16.69" font-family="Times,serif" font-size="14.00">R_a2&#39;</text>
</g>
<!-- n11&#45;&gt;n31 -->
<g id="edge44" class="edge">
<title>n11&#45;&gt;n31</title>
<path fill="none" stroke="black" d="M1035,-79.01C1035,-70.43 1035,-59.89 1035,-50.26"/>
<polygon fill="black" stroke="black" points="1036.75,-50.28 1035,-45.28 1033.25,-50.28 1036.75,-50.28"/>
</g>
<!-- n12 -->
<g id="node12" class="node">
<title>n12</title>
<path fill="#e28f41" stroke="#e28f41" d="M114,-115.49C114,-115.49 84,-115.49 84,-115.49 78,-115.49 72,-109.49 72,-103.49 72,-103.49 72,-91.49 72,-91.49 72,-85.49 78,-79.49 84,-79.49 84,-79.49 114,-79.49 114,-79.49 120,-79.49 126,-85.49 126,-91.49 126,-91.49 126,-103.49 126,-103.49 126,-109.49 120,-115.49 114,-115.49"/>
<text text-anchor="middle" x="99" y="-92.44" font-family="Times,serif" font-size="14.00">σ_a3</text>
</g>
<!-- n12&#45;&gt;n33 -->
<g id="edge45" class="edge">
<title>n12&#45;&gt;n33</title>
<path fill="none" stroke="black" d="M116.06,-79.01C127.52,-67.28 142.55,-51.89 153.99,-40.17"/>
<polygon fill="black" stroke="black" points="155.04,-41.59 157.28,-36.79 152.54,-39.15 155.04,-41.59"/>
</g>
<!-- n12&#45;&gt;n34 -->
<g id="edge69" class="edge">
<title>n12&#45;&gt;n34</title>
<path fill="none" stroke="red" d="M126.22,-83.15C146.6,-72.91 174.99,-58.08 199,-43.49 201.57,-41.92 204.22,-40.23 206.83,-38.5"/>
<polygon fill="red" stroke="red" points="207.68,-40.04 210.84,-35.79 205.72,-37.14 207.68,-40.04"/>
</g>
<!-- n13 -->
<g id="node13" class="node">
<title>n13</title>
<path fill="#e28f41" stroke="#e28f41" d="M42,-115.49C42,-115.49 12,-115.49 12,-115.49 6,-115.49 0,-109.49 0,-103.49 0,-103.49 0,-91.49 0,-91.49 0,-85.49 6,-79.49 12,-79.49 12,-79.49 42,-79.49 42,-79.49 48,-79.49 54,-85.49 54,-91.49 54,-91.49 54,-103.49 54,-103.49 54,-109.49 48,-115.49 42,-115.49"/>
<text text-anchor="middle" x="27" y="-92.44" font-family="Times,serif" font-size="14.00">γ_a3</text>
</g>
<!-- n13&#45;&gt;n33 -->
<g id="edge70" class="edge">
<title>n13&#45;&gt;n33</title>
<path fill="none" stroke="red" d="M54.42,-82.44C81.92,-68.36 123.72,-46.95 149.09,-33.97"/>
<polygon fill="red" stroke="red" points="149.86,-35.54 153.51,-31.7 148.26,-32.42 149.86,-35.54"/>
</g>
<!-- n35 -->
<g id="node35" class="node">
<title>n35</title>
<ellipse fill="#80be63" stroke="#80be63" cx="27" cy="-21.74" rx="21.74" ry="21.74"/>
<text text-anchor="middle" x="27" y="-16.69" font-family="Times,serif" font-size="14.00">R_a3&#39;</text>
</g>
<!-- n13&#45;&gt;n35 -->
<g id="edge46" class="edge">
<title>n13&#45;&gt;n35</title>
<path fill="none" stroke="black" d="M27,-79.01C27,-70.43 27,-59.89 27,-50.26"/>
<polygon fill="black" stroke="black" points="28.75,-50.28 27,-45.28 25.25,-50.28 28.75,-50.28"/>
</g>
<!-- n14 -->
<g id="node14" class="node">
<title>n14</title>
<path fill="#e28f41" stroke="#e28f41" d="M618,-115.49C618,-115.49 588,-115.49 588,-115.49 582,-115.49 576,-109.49 576,-103.49 576,-103.49 576,-91.49 576,-91.49 576,-85.49 582,-79.49 588,-79.49 588,-79.49 618,-79.49 618,-79.49 624,-79.49 630,-85.49 630,-91.49 630,-91.49 630,-103.49 630,-103.49 630,-109.49 624,-115.49 618,-115.49"/>
<text text-anchor="middle" x="603" y="-92.44" font-family="Times,serif" font-size="14.00">σ_a1</text>
</g>
<!-- n14&#45;&gt;n37 -->
<g id="edge47" class="edge">
<title>n14&#45;&gt;n37</title>
<path fill="none" stroke="black" d="M575.51,-83.43C572.64,-82.09 569.76,-80.75 567,-79.49 531.19,-63.07 519.86,-63.63 486,-43.49 483.35,-41.91 480.65,-40.11 478.04,-38.25"/>
<polygon fill="black" stroke="black" points="479.12,-36.87 474.06,-35.29 477.03,-39.67 479.12,-36.87"/>
</g>
<!-- n14&#45;&gt;n38 -->
<g id="edge71" class="edge">
<title>n14&#45;&gt;n38</title>
<path fill="none" stroke="red" d="M599.92,-79.01C598.35,-70.14 596.42,-59.17 594.68,-49.28"/>
<polygon fill="red" stroke="red" points="596.42,-49.08 593.83,-44.46 592.97,-49.68 596.42,-49.08"/>
</g>
<!-- n15 -->
<g id="node15" class="node">
<title>n15</title>
<path fill="#e28f41" stroke="#e28f41" d="M402,-115.49C402,-115.49 372,-115.49 372,-115.49 366,-115.49 360,-109.49 360,-103.49 360,-103.49 360,-91.49 360,-91.49 360,-85.49 366,-79.49 372,-79.49 372,-79.49 402,-79.49 402,-79.49 408,-79.49 414,-85.49 414,-91.49 414,-91.49 414,-103.49 414,-103.49 414,-109.49 408,-115.49 402,-115.49"/>
<text text-anchor="middle" x="387" y="-92.44" font-family="Times,serif" font-size="14.00">γ_a1</text>
</g>
<!-- n15&#45;&gt;n37 -->
<g id="edge72" class="edge">
<title>n15&#45;&gt;n37</title>
<path fill="none" stroke="red" d="M404.06,-79.01C415.52,-67.28 430.55,-51.89 441.99,-40.17"/>
<polygon fill="red" stroke="red" points="443.04,-41.59 445.28,-36.79 440.54,-39.15 443.04,-41.59"/>
</g>
<!-- n39 -->
<g id="node39" class="node">
<title>n39</title>
<ellipse fill="#80be63" stroke="#80be63" cx="387" cy="-21.74" rx="21.74" ry="21.74"/>
<text text-anchor="middle" x="387" y="-16.69" font-family="Times,serif" font-size="14.00">R_a1&#39;</text>
</g>
<!-- n15&#45;&gt;n39 -->
<g id="edge48" class="edge">
<title>n15&#45;&gt;n39</title>
<path fill="none" stroke="black" d="M387,-79.01C387,-70.43 387,-59.89 387,-50.26"/>
<polygon fill="black" stroke="black" points="388.75,-50.28 387,-45.28 385.25,-50.28 388.75,-50.28"/>
</g>
<!-- n16 -->
<g id="node16" class="node">
<title>n16</title>
<ellipse fill="#6c9ac3" stroke="#6c9ac3" cx="747" cy="-171.64" rx="19.09" ry="19.09"/>
<text text-anchor="middle" x="747" y="-166.59" font-family="Times,serif" font-size="14.00">S_a2</text>
</g>
<!-- n16&#45;&gt;n1 -->
<g id="edge1" class="edge">
<title>n16&#45;&gt;n1</title>
<path fill="none" stroke="black" stroke-dasharray="5,2" d="M764.08,-162.08C787.13,-150.53 828.67,-129.72 857.93,-115.06"/>
<polygon fill="black" stroke="black" points="858.57,-116.69 862.26,-112.89 857,-113.56 858.57,-116.69"/>
</g>
<!-- n16&#45;&gt;n4 -->
<g id="edge7" class="edge">
<title>n16&#45;&gt;n4</title>
<path fill="none" stroke="black" stroke-dasharray="5,2" d="M728.3,-165.87C695.27,-157.22 624.61,-137.78 567,-115.49 566.11,-115.14 565.22,-114.79 564.32,-114.42"/>
<polygon fill="black" stroke="black" points="565.02,-112.82 559.73,-112.48 563.66,-116.04 565.02,-112.82"/>
</g>
<!-- n16&#45;&gt;n7 -->
<g id="edge13" class="edge">
<title>n16&#45;&gt;n7</title>
<path fill="none" stroke="black" stroke-dasharray="5,2" d="M747,-152.06C747,-142.97 747,-131.92 747,-122.22"/>
<polygon fill="black" stroke="black" points="748.75,-122.28 747,-117.28 745.25,-122.28 748.75,-122.28"/>
</g>
<!-- n17 -->
<g id="node17" class="node">
<title>n17</title>
<ellipse fill="#6c9ac3" stroke="#6c9ac3" cx="855" cy="-171.64" rx="16.97" ry="16.97"/>
<text text-anchor="middle" x="855" y="-166.59" font-family="Times,serif" font-size="14.00">I_a2</text>
</g>
<!-- n17&#45;&gt;n1 -->
<g id="edge2" class="edge">
<title>n17&#45;&gt;n1</title>
<path fill="none" stroke="black" stroke-dasharray="5,2" d="M862.29,-156.04C867.22,-146.15 873.84,-132.88 879.48,-121.57"/>
<polygon fill="black" stroke="black" points="880.99,-122.47 881.65,-117.22 877.86,-120.91 880.99,-122.47"/>
</g>
<!-- n17&#45;&gt;n2 -->
<g id="edge4" class="edge">
<title>n17&#45;&gt;n2</title>
<path fill="none" stroke="black" stroke-dasharray="5,2" d="M839.29,-165.06C812.66,-155.51 757.04,-135.14 711,-115.49 710.13,-115.11 709.24,-114.73 708.35,-114.34"/>
<polygon fill="black" stroke="black" points="709.08,-112.75 703.8,-112.31 707.66,-115.95 709.08,-112.75"/>
</g>
<!-- n17&#45;&gt;n3 -->
<g id="edge6" class="edge">
<title>n17&#45;&gt;n3</title>
<path fill="none" stroke="black" stroke-dasharray="5,2" d="M847.71,-156.04C842.78,-146.15 836.16,-132.88 830.52,-121.57"/>
<polygon fill="black" stroke="black" points="832.14,-120.91 828.35,-117.22 829.01,-122.47 832.14,-120.91"/>
</g>
<!-- n17&#45;&gt;n11 -->
<g id="edge20" class="edge">
<title>n17&#45;&gt;n11</title>
<path fill="none" stroke="black" stroke-dasharray="5,2" d="M870.71,-165.06C897.34,-155.51 952.96,-135.14 999,-115.49 999.87,-115.11 1000.76,-114.73 1001.65,-114.34"/>
<polygon fill="black" stroke="black" points="1002.34,-115.95 1006.2,-112.31 1000.92,-112.75 1002.34,-115.95"/>
</g>
<!-- n18 -->
<g id="node18" class="node">
<title>n18</title>
<ellipse fill="#6c9ac3" stroke="#6c9ac3" cx="963" cy="-171.64" rx="19.62" ry="19.62"/>
<text text-anchor="middle" x="963" y="-166.59" font-family="Times,serif" font-size="14.00">E_a2</text>
</g>
<!-- n18&#45;&gt;n10 -->
<g id="edge19" class="edge">
<title>n18&#45;&gt;n10</title>
<path fill="none" stroke="black" stroke-dasharray="5,2" d="M963,-151.68C963,-142.59 963,-131.61 963,-121.99"/>
<polygon fill="black" stroke="black" points="964.75,-122.11 963,-117.11 961.25,-122.11 964.75,-122.11"/>
</g>
<!-- n19 -->
<g id="node19" class="node">
<title>n19</title>
<ellipse fill="#6c9ac3" stroke="#6c9ac3" cx="1021" cy="-171.64" rx="20.15" ry="20.15"/>
<text text-anchor="middle" x="1021" y="-166.59" font-family="Times,serif" font-size="14.00">R_a2</text>
</g>
<!-- n20 -->
<g id="node20" class="node">
<title>n20</title>
<ellipse fill="#6c9ac3" stroke="#6c9ac3" cx="243" cy="-171.64" rx="19.09" ry="19.09"/>
<text text-anchor="middle" x="243" y="-166.59" font-family="Times,serif" font-size="14.00">S_a3</text>
</g>
<!-- n20&#45;&gt;n2 -->
<g id="edge3" class="edge">
<title>n20&#45;&gt;n2</title>
<path fill="none" stroke="black" stroke-dasharray="5,2" d="M261.92,-167.69C286.72,-163.84 331.59,-156.95 370,-151.49 489.42,-134.49 523.32,-149.64 639,-115.49 639.91,-115.22 640.83,-114.93 641.75,-114.62"/>
<polygon fill="black" stroke="black" points="642.32,-116.28 646.41,-112.9 641.11,-112.99 642.32,-116.28"/>
</g>
<!-- n20&#45;&gt;n5 -->
<g id="edge9" class="edge">
<title>n20&#45;&gt;n5</title>
<path fill="none" stroke="black" stroke-dasharray="5,2" d="M229.79,-157.41C219.38,-146.97 204.65,-132.2 192.53,-120.06"/>
<polygon fill="black" stroke="black" points="194.04,-119.1 189.27,-116.79 191.56,-121.57 194.04,-119.1"/>
</g>
<!-- n20&#45;&gt;n8 -->
<g id="edge15" class="edge">
<title>n20&#45;&gt;n8</title>
<path fill="none" stroke="black" stroke-dasharray="5,2" d="M243,-152.06C243,-142.97 243,-131.92 243,-122.22"/>
<polygon fill="black" stroke="black" points="244.75,-122.28 243,-117.28 241.25,-122.28 244.75,-122.28"/>
</g>
<!-- n21 -->
<g id="node21" class="node">
<title>n21</title>
<ellipse fill="#6c9ac3" stroke="#6c9ac3" cx="180" cy="-171.64" rx="16.97" ry="16.97"/>
<text text-anchor="middle" x="180" y="-166.59" font-family="Times,serif" font-size="14.00">I_a3</text>
</g>
<!-- n21&#45;&gt;n4 -->
<g id="edge8" class="edge">
<title>n21&#45;&gt;n4</title>
<path fill="none" stroke="black" stroke-dasharray="5,2" d="M194.1,-161.36C200.27,-157.71 207.75,-153.84 215,-151.49 334.32,-112.7 374.58,-150.71 495,-115.49 495.91,-115.22 496.83,-114.93 497.75,-114.63"/>
<polygon fill="black" stroke="black" points="498.32,-116.28 502.41,-112.92 497.11,-113 498.32,-116.28"/>
</g>
<!-- n21&#45;&gt;n5 -->
<g id="edge10" class="edge">
<title>n21&#45;&gt;n5</title>
<path fill="none" stroke="black" stroke-dasharray="5,2" d="M178,-154.63C176.82,-145.14 175.3,-132.93 173.97,-122.33"/>
<polygon fill="black" stroke="black" points="175.72,-122.22 173.37,-117.47 172.25,-122.65 175.72,-122.22"/>
</g>
<!-- n21&#45;&gt;n6 -->
<g id="edge12" class="edge">
<title>n21&#45;&gt;n6</title>
<path fill="none" stroke="black" stroke-dasharray="5,2" d="M194.62,-162.58C200.89,-159.14 208.29,-155.1 215,-151.49 237.36,-139.45 262.63,-126.05 282.17,-115.74"/>
<polygon fill="black" stroke="black" points="282.84,-117.37 286.45,-113.49 281.21,-114.28 282.84,-117.37"/>
</g>
<!-- n21&#45;&gt;n13 -->
<g id="edge22" class="edge">
<title>n21&#45;&gt;n13</title>
<path fill="none" stroke="black" stroke-dasharray="5,2" d="M164.85,-163.5C142.55,-152.99 99.56,-132.73 63,-115.49 62.01,-115.02 61.01,-114.55 59.99,-114.07"/>
<polygon fill="black" stroke="black" points="60.76,-112.5 55.49,-111.94 59.27,-115.66 60.76,-112.5"/>
</g>
<!-- n22 -->
<g id="node22" class="node">
<title>n22</title>
<ellipse fill="#6c9ac3" stroke="#6c9ac3" cx="99" cy="-171.64" rx="19.62" ry="19.62"/>
<text text-anchor="middle" x="99" y="-166.59" font-family="Times,serif" font-size="14.00">E_a3</text>
</g>
<!-- n22&#45;&gt;n12 -->
<g id="edge21" class="edge">
<title>n22&#45;&gt;n12</title>
<path fill="none" stroke="black" stroke-dasharray="5,2" d="M99,-151.68C99,-142.59 99,-131.61 99,-121.99"/>
<polygon fill="black" stroke="black" points="100.75,-122.11 99,-117.11 97.25,-122.11 100.75,-122.11"/>
</g>
<!-- n23 -->
<g id="node23" class="node">
<title>n23</title>
<ellipse fill="#6c9ac3" stroke="#6c9ac3" cx="1079" cy="-171.64" rx="20.15" ry="20.15"/>
<text text-anchor="middle" x="1079" y="-166.59" font-family="Times,serif" font-size="14.00">R_a3</text>
</g>
<!-- n24 -->
<g id="node24" class="node">
<title>n24</title>
<ellipse fill="#6c9ac3" stroke="#6c9ac3" cx="459" cy="-171.64" rx="19.09" ry="19.09"/>
<text text-anchor="middle" x="459" y="-166.59" font-family="Times,serif" font-size="14.00">S_a1</text>
</g>
<!-- n24&#45;&gt;n3 -->
<g id="edge5" class="edge">
<title>n24&#45;&gt;n3</title>
<path fill="none" stroke="black" stroke-dasharray="5,2" d="M477.81,-167.51C545.85,-156.17 775.58,-117.82 783,-115.49 783.91,-115.2 784.82,-114.9 785.74,-114.58"/>
<polygon fill="black" stroke="black" points="786.33,-116.23 790.38,-112.81 785.08,-112.95 786.33,-116.23"/>
</g>
<!-- n24&#45;&gt;n6 -->
<g id="edge11" class="edge">
<title>n24&#45;&gt;n6</title>
<path fill="none" stroke="black" stroke-dasharray="5,2" d="M442.09,-161.8C435.79,-158.54 428.58,-154.82 422,-151.49 397.32,-138.99 369.29,-125.12 348.12,-114.7"/>
<polygon fill="black" stroke="black" points="348.95,-113.16 343.69,-112.53 347.41,-116.3 348.95,-113.16"/>
</g>
<!-- n24&#45;&gt;n9 -->
<g id="edge17" class="edge">
<title>n24&#45;&gt;n9</title>
<path fill="none" stroke="black" stroke-dasharray="5,2" d="M459,-152.06C459,-142.97 459,-131.92 459,-122.22"/>
<polygon fill="black" stroke="black" points="460.75,-122.28 459,-117.28 457.25,-122.28 460.75,-122.28"/>
</g>
<!-- n25 -->
<g id="node25" class="node">
<title>n25</title>
<ellipse fill="#6c9ac3" stroke="#6c9ac3" cx="396" cy="-171.64" rx="16.97" ry="16.97"/>
<text text-anchor="middle" x="396" y="-166.59" font-family="Times,serif" font-size="14.00">I_a1</text>
</g>
<!-- n25&#45;&gt;n7 -->
<g id="edge14" class="edge">
<title>n25&#45;&gt;n7</title>
<path fill="none" stroke="black" stroke-dasharray="5,2" d="M410.1,-161.36C416.27,-157.71 423.75,-153.84 431,-151.49 550.32,-112.7 590.58,-150.71 711,-115.49 711.91,-115.22 712.83,-114.93 713.75,-114.63"/>
<polygon fill="black" stroke="black" points="714.32,-116.28 718.41,-112.92 713.11,-113 714.32,-116.28"/>
</g>
<!-- n25&#45;&gt;n8 -->
<g id="edge16" class="edge">
<title>n25&#45;&gt;n8</title>
<path fill="none" stroke="black" stroke-dasharray="5,2" d="M380.85,-163.5C358.55,-152.99 315.56,-132.73 279,-115.49 278.01,-115.02 277.01,-114.55 275.99,-114.07"/>
<polygon fill="black" stroke="black" points="276.76,-112.5 271.49,-111.94 275.27,-115.66 276.76,-112.5"/>
</g>
<!-- n25&#45;&gt;n9 -->
<g id="edge18" class="edge">
<title>n25&#45;&gt;n9</title>
<path fill="none" stroke="black" stroke-dasharray="5,2" d="M406.97,-158.07C416,-147.73 429.01,-132.84 439.76,-120.53"/>
<polygon fill="black" stroke="black" points="440.94,-121.83 442.91,-116.92 438.3,-119.53 440.94,-121.83"/>
</g>
<!-- n25&#45;&gt;n15 -->
<g id="edge24" class="edge">
<title>n25&#45;&gt;n15</title>
<path fill="none" stroke="black" stroke-dasharray="5,2" d="M394,-154.63C392.82,-145.14 391.3,-132.93 389.97,-122.33"/>
<polygon fill="black" stroke="black" points="391.72,-122.22 389.37,-117.47 388.25,-122.65 391.72,-122.22"/>
</g>
<!-- n26 -->
<g id="node26" class="node">
<title>n26</title>
<ellipse fill="#6c9ac3" stroke="#6c9ac3" cx="603" cy="-171.64" rx="19.62" ry="19.62"/>
<text text-anchor="middle" x="603" y="-166.59" font-family="Times,serif" font-size="14.00">E_a1</text>
</g>
<!-- n26&#45;&gt;n14 -->
<g id="edge23" class="edge">
<title>n26&#45;&gt;n14</title>
<path fill="none" stroke="black" stroke-dasharray="5,2" d="M603,-151.68C603,-142.59 603,-131.61 603,-121.99"/>
<polygon fill="black" stroke="black" points="604.75,-122.11 603,-117.11 601.25,-122.11 604.75,-122.11"/>
</g>
<!-- n27 -->
<g id="node27" class="node">
<title>n27</title>
<ellipse fill="#6c9ac3" stroke="#6c9ac3" cx="1137" cy="-171.64" rx="20.15" ry="20.15"/>
<text text-anchor="middle" x="1137" y="-166.59" font-family="Times,serif" font-size="14.00">R_a1</text>
</g>
</g>
</svg>
