<?xml version="1.0" encoding="UTF-8" standalone="no"?>
<!DOCTYPE svg PUBLIC "-//W3C//DTD SVG 1.1//EN"
 "http://www.w3.org/Graphics/SVG/1.1/DTD/svg11.dtd">
<!-- Generated by graphviz version 11.0.0 (20240428.1522)
 -->
<!-- Title: G Pages: 1 -->
<svg width="166pt" height="330pt"
 viewBox="0.00 0.00 166.00 329.62" xmlns="http://www.w3.org/2000/svg" xmlns:xlink="http://www.w3.org/1999/xlink">
<g id="graph0" class="graph" transform="scale(1 1) rotate(0) translate(4 325.62)">
<title>G</title>
<polygon fill="white" stroke="none" points="-4,4 -4,-325.62 162,-325.62 162,4 -4,4"/>
<!-- n1 -->
<g id="node1" class="node">
<title>n1</title>
<ellipse fill="#6c9ac3" stroke="#6c9ac3" cx="25.25" cy="-154.62" rx="25.25" ry="25.25"/>
<text text-anchor="middle" x="25.25" y="-149.57" font-family="Times,serif" font-size="14.00">Pop</text>
</g>
<!-- n2 -->
<g id="node2" class="node">
<title>n2</title>
<polygon fill="#e28f41" stroke="#e28f41" points="157.62,-321.62 93.62,-321.62 93.62,-257.62 157.62,-257.62 157.62,-321.62"/>
<text text-anchor="middle" x="125.62" y="-284.57" font-family="Times,serif" font-size="14.00">infection</text>
</g>
<!-- n1&#45;&gt;n2 -->
<g id="edge1" class="edge">
<title>n1&#45;&gt;n2</title>
<path fill="none" stroke="black" d="M28.68,-179.86C32.58,-206.52 42.65,-248.03 68.5,-272.62 72.53,-276.46 77.39,-279.43 82.55,-281.73"/>
<polygon fill="black" stroke="black" points="81.37,-285.03 91.96,-285.08 83.71,-278.43 81.37,-285.03"/>
<text text-anchor="middle" x="71.87" y="-279.82" font-family="Times,serif" font-size="14.00">2</text>
</g>
<!-- n3 -->
<g id="node3" class="node">
<title>n3</title>
<polygon fill="#e28f41" stroke="#e28f41" points="158,-231 93.25,-231 93.25,-166.25 158,-166.25 158,-231"/>
<text text-anchor="middle" x="125.62" y="-193.57" font-family="Times,serif" font-size="14.00">exposure</text>
</g>
<!-- n1&#45;&gt;n3 -->
<g id="edge4" class="edge">
<title>n1&#45;&gt;n3</title>
<path fill="none" stroke="black" d="M42.53,-173.69C49.73,-180.84 58.77,-188.29 68.5,-192.62 72.61,-194.46 77.05,-195.83 81.58,-196.84"/>
<polygon fill="black" stroke="black" points="80.91,-200.28 91.35,-198.44 82.04,-193.37 80.91,-200.28"/>
<text text-anchor="middle" x="71.87" y="-197.82" font-family="Times,serif" font-size="14.00">1</text>
</g>
<!-- n4 -->
<g id="node4" class="node">
<title>n4</title>
<polygon fill="#e28f41" stroke="#e28f41" points="157.25,-130.25 94,-130.25 94,-67 157.25,-67 157.25,-130.25"/>
<text text-anchor="middle" x="125.62" y="-93.58" font-family="Times,serif" font-size="14.00">recovery</text>
</g>
<!-- n1&#45;&gt;n4 -->
<g id="edge7" class="edge">
<title>n1&#45;&gt;n4</title>
<path fill="none" stroke="black" d="M47.59,-142.47C58.21,-136.43 71.4,-128.92 83.85,-121.84"/>
<polygon fill="black" stroke="black" points="85.33,-125.02 92.29,-117.03 81.87,-118.93 85.33,-125.02"/>
<text text-anchor="middle" x="71.87" y="-132.82" font-family="Times,serif" font-size="14.00">1</text>
</g>
<!-- n5 -->
<g id="node5" class="node">
<title>n5</title>
<polygon fill="#e28f41" stroke="#e28f41" points="148.25,-45.25 103,-45.25 103,0 148.25,0 148.25,-45.25"/>
<text text-anchor="middle" x="125.62" y="-17.57" font-family="Times,serif" font-size="14.00">strata</text>
</g>
<!-- n1&#45;&gt;n5 -->
<g id="edge8" class="edge">
<title>n1&#45;&gt;n5</title>
<path fill="none" stroke="black" d="M35.69,-131.18C43.17,-114.15 54.66,-91.03 68.5,-73.12 75.83,-63.64 85.1,-54.48 93.97,-46.63"/>
<polygon fill="black" stroke="black" points="96.14,-49.38 101.48,-40.23 91.6,-44.05 96.14,-49.38"/>
<text text-anchor="middle" x="71.87" y="-75.83" font-family="Times,serif" font-size="14.00">1</text>
</g>
<!-- n2&#45;&gt;n1 -->
<g id="edge6" class="edge">
<title>n2&#45;&gt;n1</title>
<path fill="none" stroke="black" d="M99.73,-257.43C89.88,-244.53 78.53,-229.46 68.5,-215.62 61.3,-205.69 53.6,-194.7 46.78,-184.82"/>
<polygon fill="black" stroke="black" points="49.71,-182.9 41.16,-176.64 43.94,-186.86 49.71,-182.9"/>
<text text-anchor="middle" x="71.87" y="-226.82" font-family="Times,serif" font-size="14.00">2</text>
</g>
<!-- n3&#45;&gt;n1 -->
<g id="edge2" class="edge">
<title>n3&#45;&gt;n1</title>
<path fill="none" stroke="black" d="M92.78,-184.03C86.95,-181.39 80.92,-178.66 75.25,-176.12 69.98,-173.77 64.38,-171.29 58.92,-168.88"/>
<polygon fill="black" stroke="black" points="60.67,-165.83 50.11,-165.01 57.86,-172.24 60.67,-165.83"/>
<text text-anchor="middle" x="71.87" y="-178.82" font-family="Times,serif" font-size="14.00">1</text>
</g>
<!-- n4&#45;&gt;n1 -->
<g id="edge5" class="edge">
<title>n4&#45;&gt;n1</title>
<path fill="none" stroke="black" d="M93.71,-91.76C85.16,-91.29 76.14,-92.22 68.5,-96.12 57.51,-101.74 48.72,-111.7 42.07,-121.83"/>
<polygon fill="black" stroke="black" points="39.22,-119.77 37.11,-130.15 45.24,-123.35 39.22,-119.77"/>
<text text-anchor="middle" x="71.87" y="-98.83" font-family="Times,serif" font-size="14.00">1</text>
</g>
<!-- n5&#45;&gt;n1 -->
<g id="edge3" class="edge">
<title>n5&#45;&gt;n1</title>
<path fill="none" stroke="black" d="M102.77,-13.37C91.53,-10.17 78.19,-8.95 68.5,-16.12 37.19,-39.31 28.3,-85.18 26.17,-117.77"/>
<polygon fill="black" stroke="black" points="22.68,-117.45 25.72,-127.6 29.67,-117.77 22.68,-117.45"/>
<text text-anchor="middle" x="71.87" y="-18.82" font-family="Times,serif" font-size="14.00">1</text>
</g>
</g>
</svg>
