<?xml version="1.0" encoding="UTF-8" standalone="no"?>
<!DOCTYPE svg PUBLIC "-//W3C//DTD SVG 1.1//EN"
 "http://www.w3.org/Graphics/SVG/1.1/DTD/svg11.dtd">
<!-- Generated by graphviz version 11.0.0 (20240428.1522)
 -->
<!-- Title: G Pages: 1 -->
<svg width="628pt" height="548pt"
 viewBox="0.00 0.00 627.61 548.48" xmlns="http://www.w3.org/2000/svg" xmlns:xlink="http://www.w3.org/1999/xlink">
<g id="graph0" class="graph" transform="scale(1 1) rotate(0) translate(4 544.48)">
<title>G</title>
<polygon fill="white" stroke="none" points="-4,4 -4,-544.48 623.61,-544.48 623.61,4 -4,4"/>
<!-- n1 -->
<g id="node1" class="node">
<title>n1</title>
<ellipse fill="#6c9ac3" stroke="#6c9ac3" cx="336.31" cy="-140.61" rx="19.62" ry="19.62"/>
<text text-anchor="middle" x="336.31" y="-135.56" font-family="Times,serif" font-size="14.00">a2</text>
</g>
<!-- n4 -->
<g id="node4" class="node">
<title>n4</title>
<polygon fill="#e28f41" stroke="#e28f41" points="244.94,-66.79 196.69,-66.79 196.69,-18.54 244.94,-18.54 244.94,-66.79"/>
<text text-anchor="middle" x="220.82" y="-37.62" font-family="Times,serif" font-size="14.00">a2_a2</text>
</g>
<!-- n1&#45;&gt;n4 -->
<g id="edge10" class="edge">
<title>n1&#45;&gt;n4</title>
<path fill="none" stroke="black" d="M324.71,-124.64C308.26,-107.76 277.8,-81.36 254.06,-63.03"/>
<polygon fill="black" stroke="black" points="256.31,-60.34 246.22,-57.11 252.09,-65.93 256.31,-60.34"/>
<text text-anchor="middle" x="286.01" y="-97.04" font-family="Times,serif" font-size="14.00">2</text>
</g>
<!-- n5 -->
<g id="node5" class="node">
<title>n5</title>
<polygon fill="#e28f41" stroke="#e28f41" points="244.41,-185.2 196.16,-185.2 196.16,-136.95 244.41,-136.95 244.41,-185.2"/>
<text text-anchor="middle" x="220.28" y="-156.02" font-family="Times,serif" font-size="14.00">a3_a2</text>
</g>
<!-- n1&#45;&gt;n5 -->
<g id="edge26" class="edge">
<title>n1&#45;&gt;n5</title>
<path fill="none" stroke="black" d="M316.52,-138.88C299.92,-140.16 275.8,-144.01 255.86,-148.37"/>
<polygon fill="black" stroke="black" points="255.11,-144.95 246.17,-150.64 256.7,-151.77 255.11,-144.95"/>
<text text-anchor="middle" x="282.82" y="-146.83" font-family="Times,serif" font-size="14.00">1</text>
</g>
<!-- n6 -->
<g id="node6" class="node">
<title>n6</title>
<polygon fill="#e28f41" stroke="#e28f41" points="462.48,-223.65 414.23,-223.65 414.23,-175.4 462.48,-175.4 462.48,-223.65"/>
<text text-anchor="middle" x="438.35" y="-194.47" font-family="Times,serif" font-size="14.00">a1_a2</text>
</g>
<!-- n1&#45;&gt;n6 -->
<g id="edge30" class="edge">
<title>n1&#45;&gt;n6</title>
<path fill="none" stroke="black" d="M350.15,-154.51C363.89,-164.36 385.4,-177.24 403.76,-186.81"/>
<polygon fill="black" stroke="black" points="401.98,-189.83 412.49,-191.2 405.13,-183.58 401.98,-189.83"/>
<text text-anchor="middle" x="373.58" y="-173.86" font-family="Times,serif" font-size="14.00">1</text>
</g>
<!-- n7 -->
<g id="node7" class="node">
<title>n7</title>
<polygon fill="#e28f41" stroke="#e28f41" points="168.67,-275.45 120.42,-275.45 120.42,-227.2 168.67,-227.2 168.67,-275.45"/>
<text text-anchor="middle" x="144.55" y="-246.28" font-family="Times,serif" font-size="14.00">a2_a3</text>
</g>
<!-- n1&#45;&gt;n7 -->
<g id="edge37" class="edge">
<title>n1&#45;&gt;n7</title>
<path fill="none" stroke="black" d="M317.27,-146.93C284.92,-162.08 218.97,-199.62 178.55,-225.4"/>
<polygon fill="black" stroke="black" points="176.87,-222.33 170.38,-230.7 180.68,-228.2 176.87,-222.33"/>
<text text-anchor="middle" x="244.54" y="-189.37" font-family="Times,serif" font-size="14.00">1</text>
</g>
<!-- n10 -->
<g id="node10" class="node">
<title>n10</title>
<polygon fill="#e28f41" stroke="#e28f41" points="360.44,-503.99 312.19,-503.99 312.19,-455.74 360.44,-455.74 360.44,-503.99"/>
<text text-anchor="middle" x="336.31" y="-474.82" font-family="Times,serif" font-size="14.00">a2_a1</text>
</g>
<!-- n1&#45;&gt;n10 -->
<g id="edge42" class="edge">
<title>n1&#45;&gt;n10</title>
<path fill="none" stroke="black" d="M332.94,-160.32C328.79,-215.66 328.47,-373.1 331.98,-444.22"/>
<polygon fill="black" stroke="black" points="328.48,-444.37 332.54,-454.15 335.47,-443.97 328.48,-444.37"/>
<text text-anchor="middle" x="329.08" y="-305.47" font-family="Times,serif" font-size="14.00">1</text>
</g>
<!-- n13 -->
<g id="node13" class="node">
<title>n13</title>
<polygon fill="#e28f41" stroke="#e28f41" points="380.16,-64.75 315.41,-64.75 315.41,0 380.16,0 380.16,-64.75"/>
<text text-anchor="middle" x="347.78" y="-27.33" font-family="Times,serif" font-size="14.00">exposure</text>
</g>
<!-- n1&#45;&gt;n13 -->
<g id="edge11" class="edge">
<title>n1&#45;&gt;n13</title>
<path fill="none" stroke="black" d="M343.55,-122.31C346.15,-109.77 348.43,-92.58 349.77,-76.58"/>
<polygon fill="black" stroke="black" points="353.25,-76.96 350.46,-66.74 346.27,-76.47 353.25,-76.96"/>
<text text-anchor="middle" x="343.28" y="-102.65" font-family="Times,serif" font-size="14.00">1</text>
</g>
<!-- n14 -->
<g id="node14" class="node">
<title>n14</title>
<polygon fill="#e28f41" stroke="#e28f41" points="503.98,-115.19 440.73,-115.19 440.73,-51.94 503.98,-51.94 503.98,-115.19"/>
<text text-anchor="middle" x="472.35" y="-78.51" font-family="Times,serif" font-size="14.00">recovery</text>
</g>
<!-- n1&#45;&gt;n14 -->
<g id="edge12" class="edge">
<title>n1&#45;&gt;n14</title>
<path fill="none" stroke="black" d="M355.93,-137.52C375.26,-131.49 405.38,-119.46 430.14,-108.19"/>
<polygon fill="black" stroke="black" points="431.42,-111.45 439.01,-104.06 428.47,-105.11 431.42,-111.45"/>
<text text-anchor="middle" x="389.66" y="-126.05" font-family="Times,serif" font-size="14.00">1</text>
</g>
<!-- n2 -->
<g id="node2" class="node">
<title>n2</title>
<ellipse fill="#6c9ac3" stroke="#6c9ac3" cx="144.55" cy="-369.15" rx="19.62" ry="19.62"/>
<text text-anchor="middle" x="144.55" y="-364.1" font-family="Times,serif" font-size="14.00">a3</text>
</g>
<!-- n2&#45;&gt;n5 -->
<g id="edge5" class="edge">
<title>n2&#45;&gt;n5</title>
<path fill="none" stroke="black" d="M155.07,-352.07C170.86,-318.05 199.17,-241.31 212.96,-196.13"/>
<polygon fill="black" stroke="black" points="216.23,-197.4 215.7,-186.82 209.52,-195.42 216.23,-197.4"/>
<text text-anchor="middle" x="180.64" y="-277.3" font-family="Times,serif" font-size="14.00">1</text>
</g>
<!-- n2&#45;&gt;n7 -->
<g id="edge24" class="edge">
<title>n2&#45;&gt;n7</title>
<path fill="none" stroke="black" d="M149.69,-349.96C151.35,-332.98 151.72,-307.77 150.81,-287.08"/>
<polygon fill="black" stroke="black" points="154.32,-287.12 150.23,-277.34 147.33,-287.53 154.32,-287.12"/>
<text text-anchor="middle" x="146.87" y="-321.72" font-family="Times,serif" font-size="14.00">1</text>
</g>
<!-- n8 -->
<g id="node8" class="node">
<title>n8</title>
<polygon fill="#e28f41" stroke="#e28f41" points="146.04,-540.48 97.79,-540.48 97.79,-492.23 146.04,-492.23 146.04,-540.48"/>
<text text-anchor="middle" x="121.92" y="-511.3" font-family="Times,serif" font-size="14.00">a3_a3</text>
</g>
<!-- n2&#45;&gt;n8 -->
<g id="edge27" class="edge">
<title>n2&#45;&gt;n8</title>
<path fill="none" stroke="black" d="M136.91,-387.68C131.07,-410.9 124.5,-451.2 121.51,-480.52"/>
<polygon fill="black" stroke="black" points="118.03,-480.17 120.63,-490.44 125,-480.79 118.03,-480.17"/>
<text text-anchor="middle" x="125.84" y="-437.3" font-family="Times,serif" font-size="14.00">2</text>
</g>
<!-- n9 -->
<g id="node9" class="node">
<title>n9</title>
<polygon fill="#e28f41" stroke="#e28f41" points="244.41,-483.53 196.16,-483.53 196.16,-435.28 244.41,-435.28 244.41,-483.53"/>
<text text-anchor="middle" x="220.28" y="-454.36" font-family="Times,serif" font-size="14.00">a1_a3</text>
</g>
<!-- n2&#45;&gt;n9 -->
<g id="edge1" class="edge">
<title>n2&#45;&gt;n9</title>
<path fill="none" stroke="black" d="M152.8,-386.94C161.49,-399.66 175.39,-416.95 188.37,-431.48"/>
<polygon fill="black" stroke="black" points="185.5,-433.53 194.83,-438.54 190.66,-428.8 185.5,-433.53"/>
<text text-anchor="middle" x="167.21" y="-412.41" font-family="Times,serif" font-size="14.00">1</text>
</g>
<!-- n11 -->
<g id="node11" class="node">
<title>n11</title>
<polygon fill="#e28f41" stroke="#e28f41" points="462.48,-445.08 414.23,-445.08 414.23,-396.83 462.48,-396.83 462.48,-445.08"/>
<text text-anchor="middle" x="438.35" y="-415.91" font-family="Times,serif" font-size="14.00">a3_a1</text>
</g>
<!-- n2&#45;&gt;n11 -->
<g id="edge7" class="edge">
<title>n2&#45;&gt;n11</title>
<path fill="none" stroke="black" d="M163.2,-376.06C211.22,-388.47 339.66,-411.46 402.6,-419.28"/>
<polygon fill="black" stroke="black" points="402.07,-422.74 412.41,-420.42 402.88,-415.79 402.07,-422.74"/>
<text text-anchor="middle" x="279.53" y="-400.87" font-family="Times,serif" font-size="14.00">1</text>
</g>
<!-- n15 -->
<g id="node15" class="node">
<title>n15</title>
<polygon fill="#e28f41" stroke="#e28f41" points="81.5,-444.24 16.75,-444.24 16.75,-379.49 81.5,-379.49 81.5,-444.24"/>
<text text-anchor="middle" x="49.13" y="-406.81" font-family="Times,serif" font-size="14.00">exposure</text>
</g>
<!-- n2&#45;&gt;n15 -->
<g id="edge32" class="edge">
<title>n2&#45;&gt;n15</title>
<path fill="none" stroke="black" d="M124.85,-372.09C115.31,-375.28 103.46,-380.08 91.99,-385.29"/>
<polygon fill="black" stroke="black" points="90.57,-382.09 83,-389.5 93.54,-388.42 90.57,-382.09"/>
<text text-anchor="middle" x="105.04" y="-381.89" font-family="Times,serif" font-size="14.00">1</text>
</g>
<!-- n16 -->
<g id="node16" class="node">
<title>n16</title>
<polygon fill="#e28f41" stroke="#e28f41" points="63.25,-309.99 0,-309.99 0,-246.74 63.25,-246.74 63.25,-309.99"/>
<text text-anchor="middle" x="31.62" y="-273.32" font-family="Times,serif" font-size="14.00">recovery</text>
</g>
<!-- n2&#45;&gt;n16 -->
<g id="edge41" class="edge">
<title>n2&#45;&gt;n16</title>
<path fill="none" stroke="black" d="M132.32,-353.18C117.97,-339.23 93.64,-318.99 72.46,-303.02"/>
<polygon fill="black" stroke="black" points="74.65,-300.28 64.53,-297.15 70.48,-305.91 74.65,-300.28"/>
<text text-anchor="middle" x="99.01" y="-331.3" font-family="Times,serif" font-size="14.00">1</text>
</g>
<!-- n3 -->
<g id="node3" class="node">
<title>n3</title>
<ellipse fill="#6c9ac3" stroke="#6c9ac3" cx="478.65" cy="-310.24" rx="19.62" ry="19.62"/>
<text text-anchor="middle" x="478.65" y="-305.19" font-family="Times,serif" font-size="14.00">a1</text>
</g>
<!-- n3&#45;&gt;n6 -->
<g id="edge39" class="edge">
<title>n3&#45;&gt;n6</title>
<path fill="none" stroke="black" d="M476.92,-290.45C472.91,-274.85 465.31,-252.75 457.8,-234.23"/>
<polygon fill="black" stroke="black" points="461.11,-233.08 454,-225.22 454.66,-235.79 461.11,-233.08"/>
<text text-anchor="middle" x="463.98" y="-265.54" font-family="Times,serif" font-size="14.00">1</text>
</g>
<!-- n3&#45;&gt;n9 -->
<g id="edge31" class="edge">
<title>n3&#45;&gt;n9</title>
<path fill="none" stroke="black" d="M459.92,-316.94C416.63,-337.59 309.37,-399.02 254.2,-434.21"/>
<polygon fill="black" stroke="black" points="252.62,-431.06 246.12,-439.43 256.42,-436.94 252.62,-431.06"/>
<text text-anchor="middle" x="353.68" y="-378.78" font-family="Times,serif" font-size="14.00">1</text>
</g>
<!-- n3&#45;&gt;n10 -->
<g id="edge13" class="edge">
<title>n3&#45;&gt;n10</title>
<path fill="none" stroke="black" d="M462.92,-322.69C437.2,-348.5 386.61,-408.13 357.7,-446.11"/>
<polygon fill="black" stroke="black" points="354.94,-443.96 351.75,-454.06 360.54,-448.15 354.94,-443.96"/>
<text text-anchor="middle" x="406.93" y="-387.6" font-family="Times,serif" font-size="14.00">1</text>
</g>
<!-- n3&#45;&gt;n11 -->
<g id="edge35" class="edge">
<title>n3&#45;&gt;n11</title>
<path fill="none" stroke="black" d="M467.37,-326.28C459.9,-341.82 450.75,-365.86 444.5,-385.83"/>
<polygon fill="black" stroke="black" points="441.19,-384.69 441.7,-395.28 447.9,-386.68 441.19,-384.69"/>
<text text-anchor="middle" x="452.56" y="-359.25" font-family="Times,serif" font-size="14.00">1</text>
</g>
<!-- n12 -->
<g id="node12" class="node">
<title>n12</title>
<polygon fill="#e28f41" stroke="#e28f41" points="579.18,-203.61 530.93,-203.61 530.93,-155.36 579.18,-155.36 579.18,-203.61"/>
<text text-anchor="middle" x="555.05" y="-174.44" font-family="Times,serif" font-size="14.00">a1_a1</text>
</g>
<!-- n3&#45;&gt;n12 -->
<g id="edge20" class="edge">
<title>n3&#45;&gt;n12</title>
<path fill="none" stroke="black" d="M492.54,-295.79C506.58,-276.22 527.72,-240.84 541.58,-214.2"/>
<polygon fill="black" stroke="black" points="544.61,-215.96 546.01,-205.46 538.37,-212.8 544.61,-215.96"/>
<text text-anchor="middle" x="513.69" y="-258.19" font-family="Times,serif" font-size="14.00">2</text>
</g>
<!-- n17 -->
<g id="node17" class="node">
<title>n17</title>
<polygon fill="#e28f41" stroke="#e28f41" points="619.61,-335.11 554.86,-335.11 554.86,-270.36 619.61,-270.36 619.61,-335.11"/>
<text text-anchor="middle" x="587.23" y="-297.69" font-family="Times,serif" font-size="14.00">exposure</text>
</g>
<!-- n3&#45;&gt;n17 -->
<g id="edge8" class="edge">
<title>n3&#45;&gt;n17</title>
<path fill="none" stroke="black" d="M498.18,-314.19C510.8,-314.56 527.76,-313.84 543.49,-312.42"/>
<polygon fill="black" stroke="black" points="543.55,-315.93 553.14,-311.43 542.83,-308.97 543.55,-315.93"/>
<text text-anchor="middle" x="517.46" y="-316.51" font-family="Times,serif" font-size="14.00">1</text>
</g>
<!-- n18 -->
<g id="node18" class="node">
<title>n18</title>
<polygon fill="#e28f41" stroke="#e28f41" points="590.08,-465.93 526.83,-465.93 526.83,-402.68 590.08,-402.68 590.08,-465.93"/>
<text text-anchor="middle" x="558.45" y="-429.25" font-family="Times,serif" font-size="14.00">recovery</text>
</g>
<!-- n3&#45;&gt;n18 -->
<g id="edge14" class="edge">
<title>n3&#45;&gt;n18</title>
<path fill="none" stroke="black" d="M485.1,-329.02C493.85,-345.96 509.5,-371.39 524.16,-393.03"/>
<polygon fill="black" stroke="black" points="521.16,-394.85 529.71,-401.1 526.93,-390.88 521.16,-394.85"/>
<text text-anchor="middle" x="501.25" y="-364.22" font-family="Times,serif" font-size="14.00">1</text>
</g>
<!-- n4&#45;&gt;n1 -->
<g id="edge21" class="edge">
<title>n4&#45;&gt;n1</title>
<path fill="none" stroke="black" d="M241.13,-67.22C260.09,-85.34 288.39,-109.32 309.24,-124.94"/>
<polygon fill="black" stroke="black" points="307.15,-127.75 317.3,-130.79 311.26,-122.08 307.15,-127.75"/>
<text text-anchor="middle" x="271.81" y="-99.28" font-family="Times,serif" font-size="14.00">2</text>
</g>
<!-- n5&#45;&gt;n1 -->
<g id="edge28" class="edge">
<title>n5&#45;&gt;n1</title>
<path fill="none" stroke="black" d="M244.73,-162.39C262.96,-160.63 287.94,-156.38 307.21,-151.84"/>
<polygon fill="black" stroke="black" points="308.06,-155.23 316.89,-149.37 306.33,-148.45 308.06,-155.23"/>
<text text-anchor="middle" x="272.59" y="-160.32" font-family="Times,serif" font-size="14.00">1</text>
</g>
<!-- n5&#45;&gt;n2 -->
<g id="edge36" class="edge">
<title>n5&#45;&gt;n2</title>
<path fill="none" stroke="black" d="M206.48,-185.41C189.69,-223.51 162.84,-297.1 150.49,-338.66"/>
<polygon fill="black" stroke="black" points="147.2,-337.45 147.83,-348.03 153.93,-339.37 147.2,-337.45"/>
<text text-anchor="middle" x="175.11" y="-248.74" font-family="Times,serif" font-size="14.00">1</text>
</g>
<!-- n6&#45;&gt;n1 -->
<g id="edge40" class="edge">
<title>n6&#45;&gt;n1</title>
<path fill="none" stroke="black" d="M413.78,-178.32C399.28,-168.88 380.87,-158.28 365.62,-150.62"/>
<polygon fill="black" stroke="black" points="367.55,-147.66 357.02,-146.48 364.52,-153.97 367.55,-147.66"/>
<text text-anchor="middle" x="386.32" y="-167.67" font-family="Times,serif" font-size="14.00">1</text>
</g>
<!-- n6&#45;&gt;n3 -->
<g id="edge15" class="edge">
<title>n6&#45;&gt;n3</title>
<path fill="none" stroke="black" d="M441.37,-224.1C446.26,-241.66 454.69,-265.26 462.45,-283.32"/>
<polygon fill="black" stroke="black" points="459.23,-284.7 466.53,-292.37 465.61,-281.82 459.23,-284.7"/>
<text text-anchor="middle" x="448.53" y="-256.91" font-family="Times,serif" font-size="14.00">1</text>
</g>
<!-- n7&#45;&gt;n1 -->
<g id="edge9" class="edge">
<title>n7&#45;&gt;n1</title>
<path fill="none" stroke="black" d="M168.79,-242.52C205.67,-224.56 275.31,-184.49 312.14,-160.16"/>
<polygon fill="black" stroke="black" points="314.04,-163.1 320.35,-154.59 310.11,-157.3 314.04,-163.1"/>
<text text-anchor="middle" x="237.09" y="-204.54" font-family="Times,serif" font-size="14.00">1</text>
</g>
<!-- n7&#45;&gt;n2 -->
<g id="edge22" class="edge">
<title>n7&#45;&gt;n2</title>
<path fill="none" stroke="black" d="M138.95,-275.74C137.56,-293.94 137.43,-318.92 138.54,-338.46"/>
<polygon fill="black" stroke="black" points="135.04,-338.61 139.28,-348.32 142.02,-338.08 135.04,-338.61"/>
<text text-anchor="middle" x="135.37" y="-310.3" font-family="Times,serif" font-size="14.00">1</text>
</g>
<!-- n8&#45;&gt;n2 -->
<g id="edge2" class="edge">
<title>n8&#45;&gt;n2</title>
<path fill="none" stroke="black" d="M130.99,-491.85C136.78,-466.64 142.93,-427.33 145.43,-400.02"/>
<polygon fill="black" stroke="black" points="148.9,-400.51 146.17,-390.28 141.92,-399.98 148.9,-400.51"/>
<text text-anchor="middle" x="134.83" y="-449.13" font-family="Times,serif" font-size="14.00">2</text>
</g>
<!-- n9&#45;&gt;n2 -->
<g id="edge17" class="edge">
<title>n9&#45;&gt;n2</title>
<path fill="none" stroke="black" d="M207.51,-435.22C196.92,-420.7 181.77,-402.51 168.93,-388.85"/>
<polygon fill="black" stroke="black" points="171.44,-386.41 161.95,-381.7 166.43,-391.3 171.44,-386.41"/>
<text text-anchor="middle" x="184.84" y="-415.24" font-family="Times,serif" font-size="14.00">1</text>
</g>
<!-- n9&#45;&gt;n3 -->
<g id="edge16" class="edge">
<title>n9&#45;&gt;n3</title>
<path fill="none" stroke="black" d="M244.76,-449.91C294.09,-425.53 404.74,-361.76 454.11,-329.38"/>
<polygon fill="black" stroke="black" points="455.78,-332.48 462.14,-324 451.89,-326.66 455.78,-332.48"/>
<text text-anchor="middle" x="346.06" y="-392.84" font-family="Times,serif" font-size="14.00">1</text>
</g>
<!-- n10&#45;&gt;n1 -->
<g id="edge25" class="edge">
<title>n10&#45;&gt;n1</title>
<path fill="none" stroke="black" d="M340.02,-455.47C343.94,-395.11 344.07,-238.86 340.42,-171.86"/>
<polygon fill="black" stroke="black" points="343.92,-171.7 339.79,-161.94 336.93,-172.15 343.92,-171.7"/>
<text text-anchor="middle" x="336.85" y="-316.86" font-family="Times,serif" font-size="14.00">1</text>
</g>
<!-- n10&#45;&gt;n3 -->
<g id="edge33" class="edge">
<title>n10&#45;&gt;n3</title>
<path fill="none" stroke="black" d="M360.79,-458.37C390.04,-427.34 437.9,-370.25 462.76,-336.68"/>
<polygon fill="black" stroke="black" points="465.5,-338.86 468.52,-328.7 459.83,-334.76 465.5,-338.86"/>
<text text-anchor="middle" x="413.46" y="-384.23" font-family="Times,serif" font-size="14.00">1</text>
</g>
<!-- n11&#45;&gt;n2 -->
<g id="edge18" class="edge">
<title>n11&#45;&gt;n2</title>
<path fill="none" stroke="black" d="M413.74,-412.56C360.45,-399.54 234.47,-377.22 175.72,-370.27"/>
<polygon fill="black" stroke="black" points="176.4,-366.82 166.08,-369.22 175.64,-373.78 176.4,-366.82"/>
<text text-anchor="middle" x="291.35" y="-394.61" font-family="Times,serif" font-size="14.00">1</text>
</g>
<!-- n11&#45;&gt;n3 -->
<g id="edge19" class="edge">
<title>n11&#45;&gt;n3</title>
<path fill="none" stroke="black" d="M453.51,-396.44C460.7,-380.04 468.64,-358.35 473.89,-340.82"/>
<polygon fill="black" stroke="black" points="477.19,-342.03 476.52,-331.46 470.45,-340.14 477.19,-342.03"/>
<text text-anchor="middle" x="460.33" y="-371.83" font-family="Times,serif" font-size="14.00">1</text>
</g>
<!-- n12&#45;&gt;n3 -->
<g id="edge3" class="edge">
<title>n12&#45;&gt;n3</title>
<path fill="none" stroke="black" d="M534.19,-204.07C519.64,-225.92 501.01,-257.84 489.31,-280.99"/>
<polygon fill="black" stroke="black" points="486.21,-279.37 484.98,-289.9 492.5,-282.44 486.21,-279.37"/>
<text text-anchor="middle" x="508.37" y="-229.23" font-family="Times,serif" font-size="14.00">2</text>
</g>
<!-- n13&#45;&gt;n1 -->
<g id="edge23" class="edge">
<title>n13&#45;&gt;n1</title>
<path fill="none" stroke="black" d="M338,-65.07C335.84,-79.12 334.16,-95.48 333.44,-109.37"/>
<polygon fill="black" stroke="black" points="329.95,-109.2 333.13,-119.31 336.94,-109.42 329.95,-109.2"/>
<text text-anchor="middle" x="332.34" y="-90.42" font-family="Times,serif" font-size="14.00">1</text>
</g>
<!-- n14&#45;&gt;n1 -->
<g id="edge4" class="edge">
<title>n14&#45;&gt;n1</title>
<path fill="none" stroke="black" d="M440.29,-90.83C416.48,-99.25 384.44,-112.73 362.23,-123.68"/>
<polygon fill="black" stroke="black" points="360.85,-120.46 353.55,-128.14 364.04,-126.69 360.85,-120.46"/>
<text text-anchor="middle" x="397.89" y="-110.46" font-family="Times,serif" font-size="14.00">1</text>
</g>
<!-- n15&#45;&gt;n2 -->
<g id="edge29" class="edge">
<title>n15&#45;&gt;n2</title>
<path fill="none" stroke="black" d="M81.9,-404.12C94.19,-399.29 107.94,-393.08 119.43,-387.17"/>
<polygon fill="black" stroke="black" points="120.77,-390.43 127.9,-382.6 117.44,-384.27 120.77,-390.43"/>
<text text-anchor="middle" x="97.29" y="-398.85" font-family="Times,serif" font-size="14.00">1</text>
</g>
<!-- n16&#45;&gt;n2 -->
<g id="edge38" class="edge">
<title>n16&#45;&gt;n2</title>
<path fill="none" stroke="black" d="M61.59,-310.47C78.88,-325.45 100.41,-342.49 117.23,-354.41"/>
<polygon fill="black" stroke="black" points="115.05,-357.16 125.28,-359.92 119.01,-351.38 115.05,-357.16"/>
<text text-anchor="middle" x="86.04" y="-335.64" font-family="Times,serif" font-size="14.00">1</text>
</g>
<!-- n17&#45;&gt;n3 -->
<g id="edge6" class="edge">
<title>n17&#45;&gt;n3</title>
<path fill="none" stroke="black" d="M554.52,-298.75C539.91,-299.04 522.82,-300.25 508.56,-302.03"/>
<polygon fill="black" stroke="black" points="508.26,-298.54 498.86,-303.43 509.26,-305.47 508.26,-298.54"/>
<text text-anchor="middle" x="528.17" y="-303.59" font-family="Times,serif" font-size="14.00">1</text>
</g>
<!-- n18&#45;&gt;n3 -->
<g id="edge34" class="edge">
<title>n18&#45;&gt;n3</title>
<path fill="none" stroke="black" d="M544.82,-402.39C532.39,-380.6 514.11,-352.31 499.82,-332.83"/>
<polygon fill="black" stroke="black" points="502.71,-330.84 493.88,-324.99 497.13,-335.07 502.71,-330.84"/>
<text text-anchor="middle" x="518.95" y="-370.81" font-family="Times,serif" font-size="14.00">1</text>
</g>
</g>
</svg>
