<?xml version="1.0" encoding="UTF-8" standalone="no"?>
<!DOCTYPE svg PUBLIC "-//W3C//DTD SVG 1.1//EN"
 "http://www.w3.org/Graphics/SVG/1.1/DTD/svg11.dtd">
<!-- Generated by graphviz version 8.0.5 (20230430.1635)
 -->
<!-- Title: G Pages: 1 -->
<svg width="773pt" height="417pt"
 viewBox="0.00 0.00 772.79 417.14" xmlns="http://www.w3.org/2000/svg" xmlns:xlink="http://www.w3.org/1999/xlink">
<g id="graph0" class="graph" transform="scale(1 1) rotate(0) translate(4 413.14)">
<title>G</title>
<polygon fill="white" stroke="none" points="-4,4 -4,-413.14 768.79,-413.14 768.79,4 -4,4"/>
<!-- s1 -->
<g id="node1" class="node">
<title>s1</title>
<ellipse fill="#6c9ac3" stroke="#6c9ac3" cx="39.07" cy="-39.07" rx="39.07" ry="39.07"/>
<text text-anchor="middle" x="39.07" y="-34.02" font-family="Times,serif" font-size="14.00">(:S, :H)</text>
</g>
<!-- t1 -->
<g id="node7" class="node">
<title>t1</title>
<polygon fill="#e28f41" stroke="#e28f41" points="187.14,-152.19 120.89,-152.19 120.89,-85.94 187.14,-85.94 187.14,-152.19"/>
<text text-anchor="middle" x="154.01" y="-114.02" font-family="Times,serif" font-size="14.00">(:β, :HH)</text>
</g>
<!-- s1&#45;&gt;t1 -->
<g id="edge14" class="edge">
<title>s1&#45;&gt;t1</title>
<path fill="none" stroke="black" d="M71.53,-61.35C83.94,-70.14 98.37,-80.36 111.61,-89.74"/>
<polygon fill="black" stroke="black" points="109.36,-93.14 119.54,-96.07 113.4,-87.43 109.36,-93.14"/>
<text text-anchor="middle" x="99.51" y="-85.27" font-family="Times,serif" font-size="14.00">1</text>
</g>
<!-- t2 -->
<g id="node8" class="node">
<title>t2</title>
<polygon fill="#e28f41" stroke="#e28f41" points="643.91,-208.44 579.16,-208.44 579.16,-143.69 643.91,-143.69 643.91,-208.44"/>
<text text-anchor="middle" x="611.53" y="-171.02" font-family="Times,serif" font-size="14.00">(:β, :HL)</text>
</g>
<!-- s1&#45;&gt;t2 -->
<g id="edge5" class="edge">
<title>s1&#45;&gt;t2</title>
<path fill="none" stroke="black" d="M77.78,-31.02C99.65,-27.04 127.76,-23.07 153.01,-23.07 153.01,-23.07 153.01,-23.07 497.32,-23.07 552.23,-23.07 583.56,-87.54 598.78,-132.78"/>
<polygon fill="black" stroke="black" points="595.75,-133.79 602.14,-142.25 602.42,-131.65 595.75,-133.79"/>
<text text-anchor="middle" x="327.35" y="-26.27" font-family="Times,serif" font-size="14.00">1</text>
</g>
<!-- s2 -->
<g id="node2" class="node">
<title>s2</title>
<ellipse fill="#6c9ac3" stroke="#6c9ac3" cx="267.93" cy="-159.07" rx="37.02" ry="37.02"/>
<text text-anchor="middle" x="267.93" y="-154.02" font-family="Times,serif" font-size="14.00">(:I, :H)</text>
</g>
<!-- s2&#45;&gt;t1 -->
<g id="edge17" class="edge">
<title>s2&#45;&gt;t1</title>
<path fill="none" stroke="black" d="M240.77,-133.28C232.25,-126.51 222.28,-120.12 211.89,-116.57 207.57,-115.1 202.97,-114.24 198.31,-113.81"/>
<polygon fill="black" stroke="black" points="198.57,-110.3 188.49,-113.55 198.4,-117.29 198.57,-110.3"/>
<text text-anchor="middle" x="208.51" y="-120.27" font-family="Times,serif" font-size="14.00">1</text>
</g>
<!-- t3 -->
<g id="node9" class="node">
<title>t3</title>
<polygon fill="#e28f41" stroke="#e28f41" points="413.47,-291.44 348.72,-291.44 348.72,-226.69 413.47,-226.69 413.47,-291.44"/>
<text text-anchor="middle" x="381.1" y="-254.02" font-family="Times,serif" font-size="14.00">(:β, :LH)</text>
</g>
<!-- s2&#45;&gt;t3 -->
<g id="edge2" class="edge">
<title>s2&#45;&gt;t3</title>
<path fill="none" stroke="black" d="M294.02,-185.99C303.19,-195.45 313.81,-205.98 323.97,-215.07 329,-219.56 334.43,-224.14 339.86,-228.55"/>
<polygon fill="black" stroke="black" points="337.35,-231.82 347.35,-235.33 341.72,-226.35 337.35,-231.82"/>
<text text-anchor="middle" x="327.35" y="-223.27" font-family="Times,serif" font-size="14.00">1</text>
</g>
<!-- t5 -->
<g id="node11" class="node">
<title>t5</title>
<polygon fill="#e28f41" stroke="#e28f41" points="408.97,-124.94 353.22,-124.94 353.22,-69.19 408.97,-69.19 408.97,-124.94"/>
<text text-anchor="middle" x="381.1" y="-92.02" font-family="Times,serif" font-size="14.00">(:γ, :H)</text>
</g>
<!-- s2&#45;&gt;t5 -->
<g id="edge10" class="edge">
<title>s2&#45;&gt;t5</title>
<path fill="none" stroke="black" d="M300.79,-141.3C314.13,-133.86 329.72,-125.16 343.54,-117.46"/>
<polygon fill="black" stroke="black" points="344.73,-120.24 351.76,-112.31 341.32,-114.13 344.73,-120.24"/>
<text text-anchor="middle" x="327.35" y="-131.27" font-family="Times,serif" font-size="14.00">1</text>
</g>
<!-- s3 -->
<g id="node3" class="node">
<title>s3</title>
<ellipse fill="#6c9ac3" stroke="#6c9ac3" cx="496.32" cy="-91.07" rx="40.09" ry="40.09"/>
<text text-anchor="middle" x="496.32" y="-86.02" font-family="Times,serif" font-size="14.00">(:R, :H)</text>
</g>
<!-- s4 -->
<g id="node4" class="node">
<title>s4</title>
<ellipse fill="#6c9ac3" stroke="#6c9ac3" cx="267.93" cy="-349.07" rx="38.04" ry="38.04"/>
<text text-anchor="middle" x="267.93" y="-344.02" font-family="Times,serif" font-size="14.00">(:S, :L)</text>
</g>
<!-- s4&#45;&gt;t3 -->
<g id="edge6" class="edge">
<title>s4&#45;&gt;t3</title>
<path fill="none" stroke="black" d="M298.14,-325.42C310.92,-315.07 326.13,-302.76 339.96,-291.56"/>
<polygon fill="black" stroke="black" points="341.78,-293.78 347.35,-284.77 337.38,-288.34 341.78,-293.78"/>
<text text-anchor="middle" x="327.35" y="-307.27" font-family="Times,serif" font-size="14.00">1</text>
</g>
<!-- t4 -->
<g id="node10" class="node">
<title>t4</title>
<polygon fill="#e28f41" stroke="#e28f41" points="643.16,-324.69 579.91,-324.69 579.91,-261.44 643.16,-261.44 643.16,-324.69"/>
<text text-anchor="middle" x="611.53" y="-288.02" font-family="Times,serif" font-size="14.00">(:β, :LL)</text>
</g>
<!-- s4&#45;&gt;t4 -->
<g id="edge4" class="edge">
<title>s4&#45;&gt;t4</title>
<path fill="none" stroke="black" d="M305.03,-357.68C362.21,-369.44 475.86,-385 561.16,-347.07 565.55,-345.12 571.65,-339.6 578.08,-332.8"/>
<polygon fill="black" stroke="black" points="580,-335.79 584.11,-326.03 574.81,-331.1 580,-335.79"/>
<text text-anchor="middle" x="434.85" y="-373.27" font-family="Times,serif" font-size="14.00">1</text>
</g>
<!-- s5 -->
<g id="node5" class="node">
<title>s5</title>
<ellipse fill="#6c9ac3" stroke="#6c9ac3" cx="496.32" cy="-271.07" rx="36" ry="36"/>
<text text-anchor="middle" x="496.32" y="-266.02" font-family="Times,serif" font-size="14.00">(:I, :L)</text>
</g>
<!-- s5&#45;&gt;t2 -->
<g id="edge15" class="edge">
<title>s5&#45;&gt;t2</title>
<path fill="none" stroke="black" d="M524.43,-248.31C538.23,-236.73 555.28,-222.43 570.55,-209.62"/>
<polygon fill="black" stroke="black" points="572.41,-211.79 577.82,-202.68 567.91,-206.43 572.41,-211.79"/>
<text text-anchor="middle" x="557.78" y="-223.27" font-family="Times,serif" font-size="14.00">1</text>
</g>
<!-- s5&#45;&gt;t4 -->
<g id="edge16" class="edge">
<title>s5&#45;&gt;t4</title>
<path fill="none" stroke="black" d="M530.43,-283.75C538.19,-286.25 546.51,-288.57 554.41,-290.07 559.06,-290.95 563.97,-291.61 568.87,-292.09"/>
<polygon fill="black" stroke="black" points="568.24,-295.63 578.48,-292.89 568.77,-288.65 568.24,-295.63"/>
<text text-anchor="middle" x="557.78" y="-293.27" font-family="Times,serif" font-size="14.00">1</text>
</g>
<!-- t6 -->
<g id="node12" class="node">
<title>t6</title>
<polygon fill="#e28f41" stroke="#e28f41" points="638.66,-397.19 584.41,-397.19 584.41,-342.94 638.66,-342.94 638.66,-397.19"/>
<text text-anchor="middle" x="611.53" y="-365.02" font-family="Times,serif" font-size="14.00">(:γ, :L)</text>
</g>
<!-- s5&#45;&gt;t6 -->
<g id="edge18" class="edge">
<title>s5&#45;&gt;t6</title>
<path fill="none" stroke="black" d="M524.15,-294.53C539.77,-308.19 559.62,-325.55 576.35,-340.18"/>
<polygon fill="black" stroke="black" points="573.45,-343.17 583.29,-347.12 578.06,-337.9 573.45,-343.17"/>
<text text-anchor="middle" x="557.78" y="-329.27" font-family="Times,serif" font-size="14.00">1</text>
</g>
<!-- s6 -->
<g id="node6" class="node">
<title>s6</title>
<ellipse fill="#6c9ac3" stroke="#6c9ac3" cx="725.73" cy="-370.07" rx="39.07" ry="39.07"/>
<text text-anchor="middle" x="725.73" y="-365.02" font-family="Times,serif" font-size="14.00">(:R, :L)</text>
</g>
<!-- t1&#45;&gt;s2 -->
<g id="edge9" class="edge">
<title>t1&#45;&gt;s2</title>
<path fill="none" stroke="black" d="M187.63,-130.8C193.46,-132.89 199.48,-135.04 205.14,-137.07 210.7,-139.06 216.54,-141.14 222.33,-143.21"/>
<polygon fill="black" stroke="black" points="221.01,-146.81 231.6,-146.87 223.36,-140.21 221.01,-146.81"/>
<text text-anchor="middle" x="208.51" y="-142.27" font-family="Times,serif" font-size="14.00">2</text>
</g>
<!-- t2&#45;&gt;s2 -->
<g id="edge11" class="edge">
<title>t2&#45;&gt;s2</title>
<path fill="none" stroke="black" d="M578.68,-174.48C518.22,-171.47 386.59,-164.92 315.96,-161.41"/>
<polygon fill="black" stroke="black" points="316.33,-157.87 306.16,-160.87 315.98,-164.86 316.33,-157.87"/>
<text text-anchor="middle" x="434.85" y="-170.27" font-family="Times,serif" font-size="14.00">1</text>
</g>
<!-- t2&#45;&gt;s5 -->
<g id="edge7" class="edge">
<title>t2&#45;&gt;s5</title>
<path fill="none" stroke="black" d="M578.9,-182.14C570.44,-184.74 561.64,-188.42 554.41,-193.57 540.92,-203.18 529.31,-216.97 520.16,-230.26"/>
<polygon fill="black" stroke="black" points="516.77,-228.04 514.22,-238.32 522.63,-231.87 516.77,-228.04"/>
<text text-anchor="middle" x="557.78" y="-196.27" font-family="Times,serif" font-size="14.00">1</text>
</g>
<!-- t3&#45;&gt;s2 -->
<g id="edge12" class="edge">
<title>t3&#45;&gt;s2</title>
<path fill="none" stroke="black" d="M359.01,-226.43C350.99,-215.5 341.23,-203.77 330.72,-194.57 324.77,-189.36 317.94,-184.53 311.04,-180.23"/>
<polygon fill="black" stroke="black" points="313.05,-176.76 302.66,-174.69 309.49,-182.79 313.05,-176.76"/>
<text text-anchor="middle" x="327.35" y="-197.27" font-family="Times,serif" font-size="14.00">1</text>
</g>
<!-- t3&#45;&gt;s5 -->
<g id="edge1" class="edge">
<title>t3&#45;&gt;s5</title>
<path fill="none" stroke="black" d="M413.94,-262.44C424.95,-263.61 437.53,-264.94 449.45,-266.21"/>
<polygon fill="black" stroke="black" points="448.83,-269.77 459.14,-267.34 449.57,-262.81 448.83,-269.77"/>
<text text-anchor="middle" x="434.85" y="-267.27" font-family="Times,serif" font-size="14.00">1</text>
</g>
<!-- t4&#45;&gt;s5 -->
<g id="edge3" class="edge">
<title>t4&#45;&gt;s5</title>
<path fill="none" stroke="black" d="M579.41,-278.96C573.46,-276.78 567.2,-274.84 561.16,-273.57 555.46,-272.37 549.41,-271.55 543.4,-271.02"/>
<polygon fill="black" stroke="black" points="543.9,-267.48 533.7,-270.34 543.46,-274.47 543.9,-267.48"/>
<text text-anchor="middle" x="557.78" y="-276.27" font-family="Times,serif" font-size="14.00">2</text>
</g>
<!-- t5&#45;&gt;s3 -->
<g id="edge8" class="edge">
<title>t5&#45;&gt;s3</title>
<path fill="none" stroke="black" d="M409.22,-95.63C420.05,-95.06 432.87,-94.38 445.27,-93.72"/>
<polygon fill="black" stroke="black" points="445.19,-97.18 455,-93.15 444.82,-90.19 445.19,-97.18"/>
<text text-anchor="middle" x="434.85" y="-98.27" font-family="Times,serif" font-size="14.00">1</text>
</g>
<!-- t6&#45;&gt;s6 -->
<g id="edge13" class="edge">
<title>t6&#45;&gt;s6</title>
<path fill="none" stroke="black" d="M639.12,-370.07C650.05,-370.07 663.06,-370.07 675.6,-370.07"/>
<polygon fill="black" stroke="black" points="675.44,-373.57 685.44,-370.07 675.44,-366.57 675.44,-373.57"/>
<text text-anchor="middle" x="665.28" y="-373.27" font-family="Times,serif" font-size="14.00">1</text>
</g>
</g>
</svg>
