<?xml version="1.0" encoding="UTF-8" standalone="no"?>
<!DOCTYPE svg PUBLIC "-//W3C//DTD SVG 1.1//EN"
 "http://www.w3.org/Graphics/SVG/1.1/DTD/svg11.dtd">
<!-- Generated by graphviz version 8.0.5 (20230430.1635)
 -->
<!-- Title: G Pages: 1 -->
<svg width="627pt" height="362pt"
 viewBox="0.00 0.00 626.87 361.59" xmlns="http://www.w3.org/2000/svg" xmlns:xlink="http://www.w3.org/1999/xlink">
<g id="graph0" class="graph" transform="scale(1 1) rotate(0) translate(4 357.59)">
<title>G</title>
<polygon fill="white" stroke="none" points="-4,4 -4,-357.59 622.87,-357.59 622.87,4 -4,4"/>
<!-- s1 -->
<g id="node1" class="node">
<title>s1</title>
<ellipse fill="#6c9ac3" stroke="#6c9ac3" cx="27.3" cy="-27.3" rx="27.3" ry="27.3"/>
<text text-anchor="middle" x="27.3" y="-22.25" font-family="Times,serif" font-size="14.00">S_H</text>
</g>
<!-- t1 -->
<g id="node7" class="node">
<title>t1</title>
<polygon fill="#e28f41" stroke="#e28f41" points="146.34,-107.8 97.34,-107.8 97.34,-58.8 146.34,-58.8 146.34,-107.8"/>
<text text-anchor="middle" x="121.84" y="-78.25" font-family="Times,serif" font-size="14.00">β_HH</text>
</g>
<!-- s1&#45;&gt;t1 -->
<g id="edge14" class="edge">
<title>s1&#45;&gt;t1</title>
<path fill="none" stroke="black" d="M51.17,-41.14C62.15,-47.78 75.52,-55.87 87.6,-63.18"/>
<polygon fill="black" stroke="black" points="85.57,-66.65 95.94,-68.83 89.19,-60.66 85.57,-66.65"/>
<text text-anchor="middle" x="75.97" y="-60.5" font-family="Times,serif" font-size="14.00">1</text>
</g>
<!-- t2 -->
<g id="node8" class="node">
<title>t2</title>
<polygon fill="#e28f41" stroke="#e28f41" points="521.53,-164.05 474.03,-164.05 474.03,-116.55 521.53,-116.55 521.53,-164.05"/>
<text text-anchor="middle" x="497.78" y="-135.25" font-family="Times,serif" font-size="14.00">β_HL</text>
</g>
<!-- s1&#45;&gt;t2 -->
<g id="edge5" class="edge">
<title>s1&#45;&gt;t2</title>
<path fill="none" stroke="black" d="M54.02,-20.42C72.48,-16.08 98.02,-11.3 120.84,-11.3 120.84,-11.3 120.84,-11.3 403.96,-11.3 450.74,-11.3 476.27,-67.89 488.18,-106.11"/>
<polygon fill="black" stroke="black" points="485.01,-106.73 491.18,-115.33 491.72,-104.75 485.01,-106.73"/>
<text text-anchor="middle" x="263.01" y="-14.5" font-family="Times,serif" font-size="14.00">1</text>
</g>
<!-- s2 -->
<g id="node2" class="node">
<title>s2</title>
<ellipse fill="#6c9ac3" stroke="#6c9ac3" cx="215.37" cy="-123.3" rx="25.25" ry="25.25"/>
<text text-anchor="middle" x="215.37" y="-118.25" font-family="Times,serif" font-size="14.00">I_H</text>
</g>
<!-- s2&#45;&gt;t1 -->
<g id="edge17" class="edge">
<title>s2&#45;&gt;t1</title>
<path fill="none" stroke="black" d="M199.84,-103.22C192.34,-94.58 182.4,-85.42 171.09,-80.8 166.81,-79.05 162.14,-78.17 157.44,-77.86"/>
<polygon fill="black" stroke="black" points="157.53,-74.38 147.6,-78.06 157.66,-81.38 157.53,-74.38"/>
<text text-anchor="middle" x="167.72" y="-84.5" font-family="Times,serif" font-size="14.00">1</text>
</g>
<!-- t3 -->
<g id="node9" class="node">
<title>t3</title>
<polygon fill="#e28f41" stroke="#e28f41" points="331.89,-256.05 284.39,-256.05 284.39,-208.55 331.89,-208.55 331.89,-256.05"/>
<text text-anchor="middle" x="308.14" y="-227.25" font-family="Times,serif" font-size="14.00">β_LH</text>
</g>
<!-- s2&#45;&gt;t3 -->
<g id="edge2" class="edge">
<title>s2&#45;&gt;t3</title>
<path fill="none" stroke="black" d="M231.53,-143.11C239.72,-153.66 250.08,-166.81 259.64,-178.3 265.55,-185.4 272.02,-192.91 278.22,-200"/>
<polygon fill="black" stroke="black" points="275.1,-201.89 284.33,-207.08 280.35,-197.26 275.1,-201.89"/>
<text text-anchor="middle" x="263.01" y="-188.5" font-family="Times,serif" font-size="14.00">1</text>
</g>
<!-- t5 -->
<g id="node11" class="node">
<title>t5</title>
<polygon fill="#e28f41" stroke="#e28f41" points="327.39,-90.55 288.89,-90.55 288.89,-52.05 327.39,-52.05 327.39,-90.55"/>
<text text-anchor="middle" x="308.14" y="-66.25" font-family="Times,serif" font-size="14.00">γ_H</text>
</g>
<!-- s2&#45;&gt;t5 -->
<g id="edge10" class="edge">
<title>s2&#45;&gt;t5</title>
<path fill="none" stroke="black" d="M236.1,-108.21C243.31,-103.01 251.66,-97.36 259.64,-92.8 265.72,-89.32 272.47,-85.97 278.93,-83.01"/>
<polygon fill="black" stroke="black" points="279.97,-85.93 287.69,-78.68 277.13,-79.53 279.97,-85.93"/>
<text text-anchor="middle" x="263.01" y="-95.5" font-family="Times,serif" font-size="14.00">1</text>
</g>
<!-- s3 -->
<g id="node3" class="node">
<title>s3</title>
<ellipse fill="#6c9ac3" stroke="#6c9ac3" cx="402.96" cy="-67.3" rx="28.32" ry="28.32"/>
<text text-anchor="middle" x="402.96" y="-62.25" font-family="Times,serif" font-size="14.00">R_H</text>
</g>
<!-- s4 -->
<g id="node4" class="node">
<title>s4</title>
<ellipse fill="#6c9ac3" stroke="#6c9ac3" cx="215.37" cy="-300.3" rx="26.27" ry="26.27"/>
<text text-anchor="middle" x="215.37" y="-295.25" font-family="Times,serif" font-size="14.00">S_L</text>
</g>
<!-- s4&#45;&gt;t3 -->
<g id="edge6" class="edge">
<title>s4&#45;&gt;t3</title>
<path fill="none" stroke="black" d="M236.96,-284.87C248.35,-276.33 262.75,-265.55 275.53,-255.97"/>
<polygon fill="black" stroke="black" points="277.16,-258.38 283.07,-249.58 272.97,-252.77 277.16,-258.38"/>
<text text-anchor="middle" x="263.01" y="-269.5" font-family="Times,serif" font-size="14.00">1</text>
</g>
<!-- t4 -->
<g id="node10" class="node">
<title>t4</title>
<polygon fill="#e28f41" stroke="#e28f41" points="520.78,-289.3 474.78,-289.3 474.78,-243.3 520.78,-243.3 520.78,-289.3"/>
<text text-anchor="middle" x="497.78" y="-261.25" font-family="Times,serif" font-size="14.00">β_LL</text>
</g>
<!-- s4&#45;&gt;t4 -->
<g id="edge4" class="edge">
<title>s4&#45;&gt;t4</title>
<path fill="none" stroke="black" d="M240.99,-307.17C285.76,-318.33 382.64,-336.3 456.03,-306.3 461.53,-304.05 466.7,-300.65 471.38,-296.78"/>
<polygon fill="black" stroke="black" points="473.33,-299.81 478.25,-290.42 468.55,-294.69 473.33,-299.81"/>
<text text-anchor="middle" x="353.26" y="-325.5" font-family="Times,serif" font-size="14.00">1</text>
</g>
<!-- s5 -->
<g id="node5" class="node">
<title>s5</title>
<ellipse fill="#6c9ac3" stroke="#6c9ac3" cx="402.96" cy="-235.3" rx="24.23" ry="24.23"/>
<text text-anchor="middle" x="402.96" y="-230.25" font-family="Times,serif" font-size="14.00">I_L</text>
</g>
<!-- s5&#45;&gt;t2 -->
<g id="edge15" class="edge">
<title>s5&#45;&gt;t2</title>
<path fill="none" stroke="black" d="M420.55,-218.31C433.16,-205.41 450.87,-187.28 466.04,-171.76"/>
<polygon fill="black" stroke="black" points="468.22,-174.51 472.7,-164.91 463.21,-169.62 468.22,-174.51"/>
<text text-anchor="middle" x="452.65" y="-190.5" font-family="Times,serif" font-size="14.00">1</text>
</g>
<!-- s5&#45;&gt;t4 -->
<g id="edge16" class="edge">
<title>s5&#45;&gt;t4</title>
<path fill="none" stroke="black" d="M425.38,-245.05C432.85,-248.24 441.35,-251.65 449.28,-254.3 453.94,-255.85 458.92,-257.32 463.84,-258.66"/>
<polygon fill="black" stroke="black" points="462.79,-262.26 473.35,-261.36 464.54,-255.48 462.79,-262.26"/>
<text text-anchor="middle" x="452.65" y="-259.5" font-family="Times,serif" font-size="14.00">1</text>
</g>
<!-- t6 -->
<g id="node12" class="node">
<title>t6</title>
<polygon fill="#e28f41" stroke="#e28f41" points="516.28,-344.8 479.28,-344.8 479.28,-307.8 516.28,-307.8 516.28,-344.8"/>
<text text-anchor="middle" x="497.78" y="-321.25" font-family="Times,serif" font-size="14.00">γ_L</text>
</g>
<!-- s5&#45;&gt;t6 -->
<g id="edge18" class="edge">
<title>s5&#45;&gt;t6</title>
<path fill="none" stroke="black" d="M420.98,-251.99C435.11,-265.83 455.4,-285.73 471.43,-301.44"/>
<polygon fill="black" stroke="black" points="468.32,-303.28 477.91,-307.78 473.22,-298.28 468.32,-303.28"/>
<text text-anchor="middle" x="452.65" y="-288.5" font-family="Times,serif" font-size="14.00">1</text>
</g>
<!-- s6 -->
<g id="node6" class="node">
<title>s6</title>
<ellipse fill="#6c9ac3" stroke="#6c9ac3" cx="591.58" cy="-326.3" rx="27.3" ry="27.3"/>
<text text-anchor="middle" x="591.58" y="-321.25" font-family="Times,serif" font-size="14.00">R_L</text>
</g>
<!-- t1&#45;&gt;s2 -->
<g id="edge9" class="edge">
<title>t1&#45;&gt;s2</title>
<path fill="none" stroke="black" d="M146.41,-93.6C157.23,-98.32 170.22,-104 181.94,-109.13"/>
<polygon fill="black" stroke="black" points="180.26,-112.65 190.82,-113.44 183.06,-106.23 180.26,-112.65"/>
<text text-anchor="middle" x="167.72" y="-106.5" font-family="Times,serif" font-size="14.00">2</text>
</g>
<!-- t2&#45;&gt;s2 -->
<g id="edge11" class="edge">
<title>t2&#45;&gt;s2</title>
<path fill="none" stroke="black" d="M473.82,-138.9C424.87,-135.94 309.94,-128.97 251.63,-125.43"/>
<polygon fill="black" stroke="black" points="251.95,-121.89 241.76,-124.78 251.53,-128.87 251.95,-121.89"/>
<text text-anchor="middle" x="353.26" y="-134.5" font-family="Times,serif" font-size="14.00">1</text>
</g>
<!-- t2&#45;&gt;s5 -->
<g id="edge7" class="edge">
<title>t2&#45;&gt;s5</title>
<path fill="none" stroke="black" d="M473.84,-145.27C465.44,-147.94 456.28,-151.93 449.28,-157.8 434.97,-169.78 424.13,-187.52 416.64,-203"/>
<polygon fill="black" stroke="black" points="413.16,-201.21 412.21,-211.76 419.53,-204.1 413.16,-201.21"/>
<text text-anchor="middle" x="452.65" y="-160.5" font-family="Times,serif" font-size="14.00">1</text>
</g>
<!-- t3&#45;&gt;s2 -->
<g id="edge12" class="edge">
<title>t3&#45;&gt;s2</title>
<path fill="none" stroke="black" d="M297.52,-208.35C290.48,-192.78 279.82,-172.69 266.39,-157.8 260.73,-151.52 253.7,-145.79 246.73,-140.88"/>
<polygon fill="black" stroke="black" points="249.3,-137.72 239.03,-135.12 245.44,-143.56 249.3,-137.72"/>
<text text-anchor="middle" x="263.01" y="-160.5" font-family="Times,serif" font-size="14.00">1</text>
</g>
<!-- t3&#45;&gt;s5 -->
<g id="edge1" class="edge">
<title>t3&#45;&gt;s5</title>
<path fill="none" stroke="black" d="M332.08,-233.04C342.74,-233.38 355.64,-233.8 367.44,-234.18"/>
<polygon fill="black" stroke="black" points="367.2,-237.71 377.31,-234.53 367.43,-230.71 367.2,-237.71"/>
<text text-anchor="middle" x="353.26" y="-236.5" font-family="Times,serif" font-size="14.00">1</text>
</g>
<!-- t4&#45;&gt;s5 -->
<g id="edge3" class="edge">
<title>t4&#45;&gt;s5</title>
<path fill="none" stroke="black" d="M474.31,-247.28C468.67,-243.47 462.4,-239.97 456.03,-237.8 450.41,-235.88 444.25,-234.78 438.19,-234.2"/>
<polygon fill="black" stroke="black" points="438.71,-230.67 428.55,-233.67 438.36,-237.67 438.71,-230.67"/>
<text text-anchor="middle" x="452.65" y="-240.5" font-family="Times,serif" font-size="14.00">2</text>
</g>
<!-- t5&#45;&gt;s3 -->
<g id="edge8" class="edge">
<title>t5&#45;&gt;s3</title>
<path fill="none" stroke="black" d="M327.48,-70.51C337.86,-70.06 351.24,-69.48 363.79,-68.94"/>
<polygon fill="black" stroke="black" points="363.66,-72.41 373.5,-68.48 363.36,-65.41 363.66,-72.41"/>
<text text-anchor="middle" x="353.26" y="-73.5" font-family="Times,serif" font-size="14.00">1</text>
</g>
<!-- t6&#45;&gt;s6 -->
<g id="edge13" class="edge">
<title>t6&#45;&gt;s6</title>
<path fill="none" stroke="black" d="M516.48,-326.3C526.87,-326.3 540.42,-326.3 553.09,-326.3"/>
<polygon fill="black" stroke="black" points="552.88,-329.8 562.88,-326.3 552.88,-322.8 552.88,-329.8"/>
<text text-anchor="middle" x="542.9" y="-329.5" font-family="Times,serif" font-size="14.00">1</text>
</g>
</g>
</svg>
