<?xml version="1.0" encoding="UTF-8" standalone="no"?>
<!DOCTYPE svg PUBLIC "-//W3C//DTD SVG 1.1//EN"
 "http://www.w3.org/Graphics/SVG/1.1/DTD/svg11.dtd">
<!-- Generated by graphviz version 8.0.5 (20230430.1635)
 -->
<!-- Title: G Pages: 1 -->
<svg width="280pt" height="429pt"
 viewBox="0.00 0.00 280.25 429.00" xmlns="http://www.w3.org/2000/svg" xmlns:xlink="http://www.w3.org/1999/xlink">
<g id="graph0" class="graph" transform="scale(1 1) rotate(0) translate(4 425)">
<title>G</title>
<polygon fill="white" stroke="none" points="-4,4 -4,-425 276.25,-425 276.25,4 -4,4"/>
<!-- s1 -->
<g id="node1" class="node">
<title>s1</title>
<ellipse fill="#6c9ac3" stroke="#6c9ac3" cx="18" cy="-284" rx="18" ry="18"/>
<text text-anchor="middle" x="18" y="-278.95" font-family="Times,serif" font-size="14.00">H</text>
</g>
<!-- t1 -->
<g id="node3" class="node">
<title>t1</title>
<polygon fill="#e28f41" stroke="#e28f41" points="114.75,-421 78.75,-421 78.75,-385 114.75,-385 114.75,-421"/>
<text text-anchor="middle" x="96.75" y="-397.95" font-family="Times,serif" font-size="14.00">HH</text>
</g>
<!-- s1&#45;&gt;t1 -->
<g id="edge14" class="edge">
<title>s1&#45;&gt;t1</title>
<path fill="none" stroke="black" d="M19.31,-302.39C20.78,-327.26 27.29,-371.22 54,-395 57.93,-398.5 62.9,-400.67 68.04,-401.98"/>
<polygon fill="black" stroke="black" points="67.1,-405.53 77.52,-403.61 68.18,-398.61 67.1,-405.53"/>
<text text-anchor="middle" x="57.38" y="-402.2" font-family="Times,serif" font-size="14.00">2</text>
</g>
<!-- t2 -->
<g id="node4" class="node">
<title>t2</title>
<polygon fill="#e28f41" stroke="#e28f41" points="114.75,-289 78.75,-289 78.75,-253 114.75,-253 114.75,-289"/>
<text text-anchor="middle" x="96.75" y="-265.95" font-family="Times,serif" font-size="14.00">HL</text>
</g>
<!-- s1&#45;&gt;t2 -->
<g id="edge5" class="edge">
<title>s1&#45;&gt;t2</title>
<path fill="none" stroke="black" d="M36.17,-284.17C43.76,-283.99 52.75,-283.42 60.75,-282 63.14,-281.57 65.6,-281.03 68.05,-280.41"/>
<polygon fill="black" stroke="black" points="68.89,-283.52 77.52,-277.38 66.94,-276.8 68.89,-283.52"/>
<text text-anchor="middle" x="57.38" y="-285.2" font-family="Times,serif" font-size="14.00">1</text>
</g>
<!-- t3 -->
<g id="node5" class="node">
<title>t3</title>
<polygon fill="#e28f41" stroke="#e28f41" points="272.25,-226 236.25,-226 236.25,-190 272.25,-190 272.25,-226"/>
<text text-anchor="middle" x="254.25" y="-202.95" font-family="Times,serif" font-size="14.00">LH</text>
</g>
<!-- s1&#45;&gt;t3 -->
<g id="edge9" class="edge">
<title>s1&#45;&gt;t3</title>
<path fill="none" stroke="black" d="M33.31,-293.87C39.4,-297.49 46.76,-301.16 54,-303 91.03,-312.4 104.36,-309.01 139.5,-294 173.47,-279.49 206.48,-252.68 228.11,-232.84"/>
<polygon fill="black" stroke="black" points="230.2,-235.74 235.1,-226.35 225.41,-230.64 230.2,-235.74"/>
<text text-anchor="middle" x="136.12" y="-299.2" font-family="Times,serif" font-size="14.00">1</text>
</g>
<!-- t5 -->
<g id="node7" class="node">
<title>t5</title>
<polygon fill="#e28f41" stroke="#e28f41" points="114.75,-183 78.75,-183 78.75,-147 114.75,-147 114.75,-183"/>
<text text-anchor="middle" x="96.75" y="-159.95" font-family="Times,serif" font-size="14.00">H</text>
</g>
<!-- s1&#45;&gt;t5 -->
<g id="edge13" class="edge">
<title>s1&#45;&gt;t5</title>
<path fill="none" stroke="black" d="M22.58,-266.08C27.18,-246.58 36.73,-215.28 54,-193.5 58.29,-188.08 63.9,-183.3 69.6,-179.28"/>
<polygon fill="black" stroke="black" points="70.93,-181.94 77.46,-173.6 67.15,-176.05 70.93,-181.94"/>
<text text-anchor="middle" x="57.38" y="-197.2" font-family="Times,serif" font-size="14.00">1</text>
</g>
<!-- s2 -->
<g id="node2" class="node">
<title>s2</title>
<ellipse fill="#6c9ac3" stroke="#6c9ac3" cx="175.5" cy="-132" rx="18" ry="18"/>
<text text-anchor="middle" x="175.5" y="-126.95" font-family="Times,serif" font-size="14.00">L</text>
</g>
<!-- s2&#45;&gt;t2 -->
<g id="edge6" class="edge">
<title>s2&#45;&gt;t2</title>
<path fill="none" stroke="black" d="M172.4,-149.99C168.94,-173.21 160.21,-213.94 139.5,-242 135.3,-247.68 129.65,-252.65 123.86,-256.79"/>
<polygon fill="black" stroke="black" points="122.35,-254.24 115.84,-262.6 126.14,-260.13 122.35,-254.24"/>
<text text-anchor="middle" x="136.12" y="-252.2" font-family="Times,serif" font-size="14.00">1</text>
</g>
<!-- s2&#45;&gt;t3 -->
<g id="edge2" class="edge">
<title>s2&#45;&gt;t3</title>
<path fill="none" stroke="black" d="M188.21,-145.28C194.88,-152.7 203.49,-162.03 211.5,-170 216.73,-175.2 222.49,-180.63 228.02,-185.7"/>
<polygon fill="black" stroke="black" points="225.11,-187.68 234.87,-191.8 229.81,-182.5 225.11,-187.68"/>
<text text-anchor="middle" x="214.88" y="-180.2" font-family="Times,serif" font-size="14.00">1</text>
</g>
<!-- t4 -->
<g id="node6" class="node">
<title>t4</title>
<polygon fill="#e28f41" stroke="#e28f41" points="272.25,-103 236.25,-103 236.25,-67 272.25,-67 272.25,-103"/>
<text text-anchor="middle" x="254.25" y="-79.95" font-family="Times,serif" font-size="14.00">LL</text>
</g>
<!-- s2&#45;&gt;t4 -->
<g id="edge7" class="edge">
<title>s2&#45;&gt;t4</title>
<path fill="none" stroke="black" d="M191.3,-122.94C201.33,-116.79 214.88,-108.49 226.75,-101.23"/>
<polygon fill="black" stroke="black" points="228.11,-103.89 234.81,-95.68 224.45,-97.92 228.11,-103.89"/>
<text text-anchor="middle" x="214.88" y="-113.2" font-family="Times,serif" font-size="14.00">2</text>
</g>
<!-- t6 -->
<g id="node8" class="node">
<title>t6</title>
<polygon fill="#e28f41" stroke="#e28f41" points="272.25,-36 236.25,-36 236.25,0 272.25,0 272.25,-36"/>
<text text-anchor="middle" x="254.25" y="-12.95" font-family="Times,serif" font-size="14.00">L</text>
</g>
<!-- s2&#45;&gt;t6 -->
<g id="edge8" class="edge">
<title>s2&#45;&gt;t6</title>
<path fill="none" stroke="black" d="M181.33,-114.7C186.73,-97.48 196.7,-70.88 211.5,-51.5 216.05,-45.55 221.87,-40.02 227.72,-35.24"/>
<polygon fill="black" stroke="black" points="229.32,-37.66 235.15,-28.82 225.08,-32.09 229.32,-37.66"/>
<text text-anchor="middle" x="214.88" y="-55.2" font-family="Times,serif" font-size="14.00">1</text>
</g>
<!-- t1&#45;&gt;s1 -->
<g id="edge16" class="edge">
<title>t1&#45;&gt;s1</title>
<path fill="none" stroke="black" d="M78.31,-385.21C70.33,-376.52 61.1,-365.67 54,-355 44.72,-341.05 36.34,-324.28 30.11,-310.55"/>
<polygon fill="black" stroke="black" points="33.02,-309.47 25.78,-301.73 26.61,-312.29 33.02,-309.47"/>
<text text-anchor="middle" x="57.38" y="-366.2" font-family="Times,serif" font-size="14.00">2</text>
</g>
<!-- t2&#45;&gt;s1 -->
<g id="edge4" class="edge">
<title>t2&#45;&gt;s1</title>
<path fill="none" stroke="black" d="M78.53,-265.87C70.93,-264.34 61.95,-263.53 54,-265.5 50.46,-266.38 46.89,-267.68 43.45,-269.2"/>
<polygon fill="black" stroke="black" points="42,-266.53 34.68,-274.2 45.18,-272.76 42,-266.53"/>
<text text-anchor="middle" x="57.38" y="-268.2" font-family="Times,serif" font-size="14.00">1</text>
</g>
<!-- t2&#45;&gt;s2 -->
<g id="edge10" class="edge">
<title>t2&#45;&gt;s2</title>
<path fill="none" stroke="black" d="M115.24,-275.09C123.42,-275.96 132.81,-275.33 139.5,-270 156.4,-256.52 166.54,-197.04 171.28,-160.71"/>
<polygon fill="black" stroke="black" points="174.82,-161.61 172.57,-151.26 167.87,-160.75 174.82,-161.61"/>
<text text-anchor="middle" x="136.12" y="-276.2" font-family="Times,serif" font-size="14.00">1</text>
</g>
<!-- t3&#45;&gt;s1 -->
<g id="edge3" class="edge">
<title>t3&#45;&gt;s1</title>
<path fill="none" stroke="black" d="M235.81,-208.41C212.12,-209.32 168.62,-212.22 132.75,-221.5 107.58,-228.01 101.76,-231.89 78.75,-244 65.93,-250.74 52.46,-259.59 41.56,-267.25"/>
<polygon fill="black" stroke="black" points="39.81,-264.92 33.73,-273.59 43.89,-270.6 39.81,-264.92"/>
<text text-anchor="middle" x="136.12" y="-225.2" font-family="Times,serif" font-size="14.00">1</text>
</g>
<!-- t3&#45;&gt;s2 -->
<g id="edge11" class="edge">
<title>t3&#45;&gt;s2</title>
<path fill="none" stroke="black" d="M245.92,-189.54C240.06,-176.83 230.77,-160.35 218.25,-149.5 213.91,-145.74 208.64,-142.69 203.33,-140.27"/>
<polygon fill="black" stroke="black" points="204.88,-136.73 194.3,-136.34 202.33,-143.24 204.88,-136.73"/>
<text text-anchor="middle" x="214.88" y="-153.2" font-family="Times,serif" font-size="14.00">1</text>
</g>
<!-- t4&#45;&gt;s2 -->
<g id="edge1" class="edge">
<title>t4&#45;&gt;s2</title>
<path fill="none" stroke="black" d="M235.85,-74.41C228.05,-71.09 218.96,-69.27 211.5,-73.5 199.56,-80.27 191.25,-92.92 185.74,-104.73"/>
<polygon fill="black" stroke="black" points="182.19,-103.14 181.59,-113.72 188.66,-105.83 182.19,-103.14"/>
<text text-anchor="middle" x="214.88" y="-77.2" font-family="Times,serif" font-size="14.00">2</text>
</g>
<!-- t5&#45;&gt;s1 -->
<g id="edge15" class="edge">
<title>t5&#45;&gt;s1</title>
<path fill="none" stroke="black" d="M78.33,-161.27C70.17,-160.53 60.77,-161.26 54,-166.5 27.34,-187.13 20.27,-227.21 18.76,-254.77"/>
<polygon fill="black" stroke="black" points="15.23,-254.62 18.41,-264.73 22.22,-254.84 15.23,-254.62"/>
<text text-anchor="middle" x="57.38" y="-170.2" font-family="Times,serif" font-size="14.00">1</text>
</g>
<!-- t6&#45;&gt;s2 -->
<g id="edge12" class="edge">
<title>t6&#45;&gt;s2</title>
<path fill="none" stroke="black" d="M236.13,-16.25C227.83,-16.32 218.24,-17.88 211.5,-23.5 188.16,-42.95 180.23,-78.08 177.62,-103.1"/>
<polygon fill="black" stroke="black" points="174.07,-102.54 176.75,-112.79 181.05,-103.1 174.07,-102.54"/>
<text text-anchor="middle" x="214.88" y="-27.2" font-family="Times,serif" font-size="14.00">1</text>
</g>
</g>
</svg>
