<?xml version="1.0" encoding="UTF-8" standalone="no"?>
<!DOCTYPE svg PUBLIC "-//W3C//DTD SVG 1.1//EN"
 "http://www.w3.org/Graphics/SVG/1.1/DTD/svg11.dtd">
<!-- Generated by graphviz version 8.0.5 (20230430.1635)
 -->
<!-- Title: G Pages: 1 -->
<svg width="165pt" height="163pt"
 viewBox="0.00 0.00 165.25 162.62" xmlns="http://www.w3.org/2000/svg" xmlns:xlink="http://www.w3.org/1999/xlink">
<g id="graph0" class="graph" transform="scale(1 1) rotate(0) translate(4 158.62)">
<title>G</title>
<polygon fill="white" stroke="none" points="-4,4 -4,-158.62 161.25,-158.62 161.25,4 -4,4"/>
<!-- s1 -->
<g id="node1" class="node">
<title>s1</title>
<ellipse fill="#6c9ac3" stroke="#6c9ac3" cx="25.25" cy="-72.62" rx="25.25" ry="25.25"/>
<text text-anchor="middle" x="25.25" y="-67.58" font-family="Times,serif" font-size="14.00">Pop</text>
</g>
<!-- t1 -->
<g id="node2" class="node">
<title>t1</title>
<polygon fill="#e28f41" stroke="#e28f41" points="157.25,-154.62 93.25,-154.62 93.25,-90.62 157.25,-90.62 157.25,-154.62"/>
<text text-anchor="middle" x="125.25" y="-117.58" font-family="Times,serif" font-size="14.00">infection</text>
</g>
<!-- s1&#45;&gt;t1 -->
<g id="edge1" class="edge">
<title>s1&#45;&gt;t1</title>
<path fill="none" stroke="black" d="M42.77,-91.18C50.01,-98.26 59.01,-105.78 68.5,-110.62 72.83,-112.84 77.55,-114.64 82.36,-116.12"/>
<polygon fill="black" stroke="black" points="81.33,-119.72 91.89,-118.84 83.08,-112.95 81.33,-119.72"/>
<text text-anchor="middle" x="71.87" y="-115.83" font-family="Times,serif" font-size="14.00">2</text>
</g>
<!-- t2 -->
<g id="node3" class="node">
<title>t2</title>
<polygon fill="#e28f41" stroke="#e28f41" points="156.87,-63.25 93.62,-63.25 93.62,0 156.87,0 156.87,-63.25"/>
<text text-anchor="middle" x="125.25" y="-26.57" font-family="Times,serif" font-size="14.00">recovery</text>
</g>
<!-- s1&#45;&gt;t2 -->
<g id="edge3" class="edge">
<title>s1&#45;&gt;t2</title>
<path fill="none" stroke="black" d="M48.56,-62.71C54.98,-59.9 62,-56.86 68.5,-54.12 73.24,-52.13 78.22,-50.07 83.18,-48.04"/>
<polygon fill="black" stroke="black" points="84.27,-50.97 92.22,-43.96 81.64,-44.48 84.27,-50.97"/>
<text text-anchor="middle" x="71.87" y="-57.83" font-family="Times,serif" font-size="14.00">1</text>
</g>
<!-- t1&#45;&gt;s1 -->
<g id="edge4" class="edge">
<title>t1&#45;&gt;s1</title>
<path fill="none" stroke="black" d="M92.76,-100.14C87.07,-96.54 81.09,-93.05 75.25,-90.12 70.33,-87.66 64.97,-85.38 59.67,-83.33"/>
<polygon fill="black" stroke="black" points="61.26,-79.82 50.66,-79.69 58.87,-86.4 61.26,-79.82"/>
<text text-anchor="middle" x="71.87" y="-93.83" font-family="Times,serif" font-size="14.00">2</text>
</g>
<!-- t2&#45;&gt;s1 -->
<g id="edge2" class="edge">
<title>t2&#45;&gt;s1</title>
<path fill="none" stroke="black" d="M93.13,-13.38C84.9,-10.81 76.18,-10.2 68.5,-14.12 57.4,-19.8 48.54,-29.91 41.86,-40.14"/>
<polygon fill="black" stroke="black" points="38.43,-38.06 36.34,-48.45 44.45,-41.63 38.43,-38.06"/>
<text text-anchor="middle" x="71.87" y="-17.82" font-family="Times,serif" font-size="14.00">1</text>
</g>
</g>
</svg>
