<?xml version="1.0" encoding="UTF-8" standalone="no"?>
<!DOCTYPE svg PUBLIC "-//W3C//DTD SVG 1.1//EN"
 "http://www.w3.org/Graphics/SVG/1.1/DTD/svg11.dtd">
<!-- Generated by graphviz version 11.0.0 (20240428.1522)
 -->
<!-- Title: G Pages: 1 -->
<svg width="627pt" height="362pt"
 viewBox="0.00 0.00 626.87 361.59" xmlns="http://www.w3.org/2000/svg" xmlns:xlink="http://www.w3.org/1999/xlink">
<g id="graph0" class="graph" transform="scale(1 1) rotate(0) translate(4 357.59)">
<title>G</title>
<polygon fill="white" stroke="none" points="-4,4 -4,-357.59 622.87,-357.59 622.87,4 -4,4"/>
<!-- n1 -->
<g id="node1" class="node">
<title>n1</title>
<ellipse fill="#6c9ac3" stroke="#6c9ac3" cx="27.3" cy="-27.3" rx="27.3" ry="27.3"/>
<text text-anchor="middle" x="27.3" y="-22.25" font-family="Times,serif" font-size="14.00">S_H</text>
</g>
<!-- n7 -->
<g id="node7" class="node">
<title>n7</title>
<polygon fill="#e28f41" stroke="#e28f41" points="146.34,-107.8 97.34,-107.8 97.34,-58.8 146.34,-58.8 146.34,-107.8"/>
<text text-anchor="middle" x="121.84" y="-78.25" font-family="Times,serif" font-size="14.00">β_HH</text>
</g>
<!-- n1&#45;&gt;n7 -->
<g id="edge14" class="edge">
<title>n1&#45;&gt;n7</title>
<path fill="none" stroke="black" d="M51.17,-41.14C62.05,-47.72 75.26,-55.71 87.24,-62.96"/>
<polygon fill="black" stroke="black" points="85.28,-65.87 95.64,-68.05 88.9,-59.88 85.28,-65.87"/>
<text text-anchor="middle" x="75.97" y="-59.5" font-family="Times,serif" font-size="14.00">1</text>
</g>
<!-- n8 -->
<g id="node8" class="node">
<title>n8</title>
<polygon fill="#e28f41" stroke="#e28f41" points="521.53,-164.05 474.03,-164.05 474.03,-116.55 521.53,-116.55 521.53,-164.05"/>
<text text-anchor="middle" x="497.78" y="-135.25" font-family="Times,serif" font-size="14.00">β_HL</text>
</g>
<!-- n1&#45;&gt;n8 -->
<g id="edge17" class="edge">
<title>n1&#45;&gt;n8</title>
<path fill="none" stroke="black" d="M54.02,-20.42C72.48,-16.08 98.02,-11.3 120.84,-11.3 120.84,-11.3 120.84,-11.3 403.96,-11.3 450.54,-11.3 476.05,-67.41 488.03,-105.61"/>
<polygon fill="black" stroke="black" points="484.57,-106.28 490.75,-114.88 491.29,-104.3 484.57,-106.28"/>
<text text-anchor="middle" x="263.01" y="-14.5" font-family="Times,serif" font-size="14.00">1</text>
</g>
<!-- n2 -->
<g id="node2" class="node">
<title>n2</title>
<ellipse fill="#6c9ac3" stroke="#6c9ac3" cx="215.37" cy="-123.3" rx="25.25" ry="25.25"/>
<text text-anchor="middle" x="215.37" y="-118.25" font-family="Times,serif" font-size="14.00">I_H</text>
</g>
<!-- n2&#45;&gt;n7 -->
<g id="edge7" class="edge">
<title>n2&#45;&gt;n7</title>
<path fill="none" stroke="black" d="M199.84,-103.22C192.34,-94.58 182.4,-85.42 171.09,-80.8 166.93,-79.09 162.4,-78.22 157.83,-77.89"/>
<polygon fill="black" stroke="black" points="158.06,-74.38 148.11,-78.04 158.16,-81.38 158.06,-74.38"/>
<text text-anchor="middle" x="167.72" y="-83.5" font-family="Times,serif" font-size="14.00">1</text>
</g>
<!-- n9 -->
<g id="node9" class="node">
<title>n9</title>
<polygon fill="#e28f41" stroke="#e28f41" points="331.89,-256.05 284.39,-256.05 284.39,-208.55 331.89,-208.55 331.89,-256.05"/>
<text text-anchor="middle" x="308.14" y="-227.25" font-family="Times,serif" font-size="14.00">β_LH</text>
</g>
<!-- n2&#45;&gt;n9 -->
<g id="edge18" class="edge">
<title>n2&#45;&gt;n9</title>
<path fill="none" stroke="black" d="M229.69,-144.37C237.83,-156.7 248.73,-172.35 259.64,-185.3 264.66,-191.26 270.32,-197.33 275.93,-203.04"/>
<polygon fill="black" stroke="black" points="273.41,-205.47 282.97,-210.03 278.34,-200.5 273.41,-205.47"/>
<text text-anchor="middle" x="263.01" y="-194.5" font-family="Times,serif" font-size="14.00">1</text>
</g>
<!-- n11 -->
<g id="node11" class="node">
<title>n11</title>
<polygon fill="#e28f41" stroke="#e28f41" points="327.39,-90.55 288.89,-90.55 288.89,-52.05 327.39,-52.05 327.39,-90.55"/>
<text text-anchor="middle" x="308.14" y="-66.25" font-family="Times,serif" font-size="14.00">γ_H</text>
</g>
<!-- n2&#45;&gt;n11 -->
<g id="edge3" class="edge">
<title>n2&#45;&gt;n11</title>
<path fill="none" stroke="black" d="M236.1,-108.21C243.31,-103.01 251.66,-97.36 259.64,-92.8 265.58,-89.4 272.15,-86.13 278.47,-83.22"/>
<polygon fill="black" stroke="black" points="279.59,-86.55 287.31,-79.29 276.75,-80.15 279.59,-86.55"/>
<text text-anchor="middle" x="263.01" y="-95.5" font-family="Times,serif" font-size="14.00">1</text>
</g>
<!-- n3 -->
<g id="node3" class="node">
<title>n3</title>
<ellipse fill="#6c9ac3" stroke="#6c9ac3" cx="402.96" cy="-67.3" rx="28.32" ry="28.32"/>
<text text-anchor="middle" x="402.96" y="-62.25" font-family="Times,serif" font-size="14.00">R_H</text>
</g>
<!-- n4 -->
<g id="node4" class="node">
<title>n4</title>
<ellipse fill="#6c9ac3" stroke="#6c9ac3" cx="215.37" cy="-300.3" rx="26.27" ry="26.27"/>
<text text-anchor="middle" x="215.37" y="-295.25" font-family="Times,serif" font-size="14.00">S_L</text>
</g>
<!-- n4&#45;&gt;n9 -->
<g id="edge16" class="edge">
<title>n4&#45;&gt;n9</title>
<path fill="none" stroke="black" d="M236.96,-284.87C248.24,-276.42 262.47,-265.76 275.16,-256.25"/>
<polygon fill="black" stroke="black" points="276.95,-259.28 282.86,-250.49 272.75,-253.68 276.95,-259.28"/>
<text text-anchor="middle" x="263.01" y="-269.5" font-family="Times,serif" font-size="14.00">1</text>
</g>
<!-- n10 -->
<g id="node10" class="node">
<title>n10</title>
<polygon fill="#e28f41" stroke="#e28f41" points="520.78,-289.3 474.78,-289.3 474.78,-243.3 520.78,-243.3 520.78,-289.3"/>
<text text-anchor="middle" x="497.78" y="-261.25" font-family="Times,serif" font-size="14.00">β_LL</text>
</g>
<!-- n4&#45;&gt;n10 -->
<g id="edge9" class="edge">
<title>n4&#45;&gt;n10</title>
<path fill="none" stroke="black" d="M240.99,-307.17C285.76,-318.33 382.64,-336.3 456.03,-306.3 461.4,-304.1 466.44,-300.82 471.03,-297.07"/>
<polygon fill="black" stroke="black" points="473.2,-299.82 478.14,-290.45 468.43,-294.7 473.2,-299.82"/>
<text text-anchor="middle" x="353.26" y="-325.5" font-family="Times,serif" font-size="14.00">1</text>
</g>
<!-- n5 -->
<g id="node5" class="node">
<title>n5</title>
<ellipse fill="#6c9ac3" stroke="#6c9ac3" cx="402.96" cy="-235.3" rx="24.23" ry="24.23"/>
<text text-anchor="middle" x="402.96" y="-230.25" font-family="Times,serif" font-size="14.00">I_L</text>
</g>
<!-- n5&#45;&gt;n8 -->
<g id="edge12" class="edge">
<title>n5&#45;&gt;n8</title>
<path fill="none" stroke="black" d="M420.55,-218.31C433.16,-205.41 450.87,-187.28 466.04,-171.76"/>
<polygon fill="black" stroke="black" points="468.16,-174.59 472.65,-165 463.15,-169.7 468.16,-174.59"/>
<text text-anchor="middle" x="452.65" y="-190.5" font-family="Times,serif" font-size="14.00">1</text>
</g>
<!-- n5&#45;&gt;n10 -->
<g id="edge13" class="edge">
<title>n5&#45;&gt;n10</title>
<path fill="none" stroke="black" d="M425.38,-245.05C432.85,-248.24 441.35,-251.65 449.28,-254.3 453.82,-255.81 458.65,-257.24 463.44,-258.55"/>
<polygon fill="black" stroke="black" points="462.32,-261.87 472.88,-260.98 464.07,-255.1 462.32,-261.87"/>
<text text-anchor="middle" x="452.65" y="-259.5" font-family="Times,serif" font-size="14.00">1</text>
</g>
<!-- n12 -->
<g id="node12" class="node">
<title>n12</title>
<polygon fill="#e28f41" stroke="#e28f41" points="516.28,-344.8 479.28,-344.8 479.28,-307.8 516.28,-307.8 516.28,-344.8"/>
<text text-anchor="middle" x="497.78" y="-321.25" font-family="Times,serif" font-size="14.00">γ_L</text>
</g>
<!-- n5&#45;&gt;n12 -->
<g id="edge15" class="edge">
<title>n5&#45;&gt;n12</title>
<path fill="none" stroke="black" d="M420.98,-251.99C434.98,-265.71 455.03,-285.36 470.99,-301.01"/>
<polygon fill="black" stroke="black" points="468.24,-303.22 477.83,-307.72 473.14,-298.22 468.24,-303.22"/>
<text text-anchor="middle" x="452.65" y="-288.5" font-family="Times,serif" font-size="14.00">1</text>
</g>
<!-- n6 -->
<g id="node6" class="node">
<title>n6</title>
<ellipse fill="#6c9ac3" stroke="#6c9ac3" cx="591.58" cy="-326.3" rx="27.3" ry="27.3"/>
<text text-anchor="middle" x="591.58" y="-321.25" font-family="Times,serif" font-size="14.00">R_L</text>
</g>
<!-- n7&#45;&gt;n2 -->
<g id="edge6" class="edge">
<title>n7&#45;&gt;n2</title>
<path fill="none" stroke="black" d="M146.41,-93.6C157.12,-98.28 169.96,-103.89 181.59,-108.97"/>
<polygon fill="black" stroke="black" points="179.87,-112.04 190.44,-112.84 182.67,-105.63 179.87,-112.04"/>
<text text-anchor="middle" x="167.72" y="-106.5" font-family="Times,serif" font-size="14.00">2</text>
</g>
<!-- n8&#45;&gt;n2 -->
<g id="edge1" class="edge">
<title>n8&#45;&gt;n2</title>
<path fill="none" stroke="black" d="M473.82,-138.9C424.97,-135.94 310.42,-129 252,-125.46"/>
<polygon fill="black" stroke="black" points="252.46,-121.98 242.27,-124.87 252.04,-128.97 252.46,-121.98"/>
<text text-anchor="middle" x="353.26" y="-134.5" font-family="Times,serif" font-size="14.00">1</text>
</g>
<!-- n8&#45;&gt;n5 -->
<g id="edge8" class="edge">
<title>n8&#45;&gt;n5</title>
<path fill="none" stroke="black" d="M473.84,-145.27C465.44,-147.94 456.28,-151.93 449.28,-157.8 435.11,-169.67 424.34,-187.18 416.86,-202.55"/>
<polygon fill="black" stroke="black" points="413.8,-200.83 412.84,-211.38 420.17,-203.74 413.8,-200.83"/>
<text text-anchor="middle" x="452.65" y="-160.5" font-family="Times,serif" font-size="14.00">1</text>
</g>
<!-- n9&#45;&gt;n2 -->
<g id="edge4" class="edge">
<title>n9&#45;&gt;n2</title>
<path fill="none" stroke="black" d="M293.81,-208.35C286.44,-196 276.7,-181 266.39,-168.8 259.74,-160.93 251.78,-153.12 244.19,-146.24"/>
<polygon fill="black" stroke="black" points="246.5,-143.62 236.67,-139.65 241.88,-148.88 246.5,-143.62"/>
<text text-anchor="middle" x="263.01" y="-171.5" font-family="Times,serif" font-size="14.00">1</text>
</g>
<!-- n9&#45;&gt;n5 -->
<g id="edge11" class="edge">
<title>n9&#45;&gt;n5</title>
<path fill="none" stroke="black" d="M332.08,-233.04C342.63,-233.38 355.38,-233.79 367.08,-234.17"/>
<polygon fill="black" stroke="black" points="366.69,-237.66 376.8,-234.48 366.91,-230.66 366.69,-237.66"/>
<text text-anchor="middle" x="353.26" y="-236.5" font-family="Times,serif" font-size="14.00">1</text>
</g>
<!-- n10&#45;&gt;n5 -->
<g id="edge2" class="edge">
<title>n10&#45;&gt;n5</title>
<path fill="none" stroke="black" d="M474.31,-247.28C468.67,-243.47 462.4,-239.97 456.03,-237.8 450.55,-235.92 444.56,-234.83 438.65,-234.25"/>
<polygon fill="black" stroke="black" points="439.23,-230.77 429.06,-233.75 438.87,-237.76 439.23,-230.77"/>
<text text-anchor="middle" x="452.65" y="-240.5" font-family="Times,serif" font-size="14.00">2</text>
</g>
<!-- n11&#45;&gt;n3 -->
<g id="edge5" class="edge">
<title>n11&#45;&gt;n3</title>
<path fill="none" stroke="black" d="M327.48,-70.51C337.65,-70.07 350.7,-69.51 363.02,-68.97"/>
<polygon fill="black" stroke="black" points="363.15,-72.47 372.99,-68.54 362.85,-65.48 363.15,-72.47"/>
<text text-anchor="middle" x="353.26" y="-72.5" font-family="Times,serif" font-size="14.00">1</text>
</g>
<!-- n12&#45;&gt;n6 -->
<g id="edge10" class="edge">
<title>n12&#45;&gt;n6</title>
<path fill="none" stroke="black" d="M516.48,-326.3C526.77,-326.3 540.15,-326.3 552.7,-326.3"/>
<polygon fill="black" stroke="black" points="552.37,-329.8 562.37,-326.3 552.37,-322.8 552.37,-329.8"/>
<text text-anchor="middle" x="542.9" y="-329.5" font-family="Times,serif" font-size="14.00">1</text>
</g>
</g>
</svg>
