<?xml version="1.0" encoding="UTF-8" standalone="no"?>
<!DOCTYPE svg PUBLIC "-//W3C//DTD SVG 1.1//EN"
 "http://www.w3.org/Graphics/SVG/1.1/DTD/svg11.dtd">
<!-- Generated by graphviz version 11.0.0 (20240428.1522)
 -->
<!-- Title: G Pages: 1 -->
<svg width="773pt" height="417pt"
 viewBox="0.00 0.00 772.79 417.14" xmlns="http://www.w3.org/2000/svg" xmlns:xlink="http://www.w3.org/1999/xlink">
<g id="graph0" class="graph" transform="scale(1 1) rotate(0) translate(4 413.14)">
<title>G</title>
<polygon fill="white" stroke="none" points="-4,4 -4,-413.14 768.79,-413.14 768.79,4 -4,4"/>
<!-- n1 -->
<g id="node1" class="node">
<title>n1</title>
<ellipse fill="#6c9ac3" stroke="#6c9ac3" cx="39.07" cy="-39.07" rx="39.07" ry="39.07"/>
<text text-anchor="middle" x="39.07" y="-34.02" font-family="Times,serif" font-size="14.00">(:S, :H)</text>
</g>
<!-- n7 -->
<g id="node7" class="node">
<title>n7</title>
<polygon fill="#e28f41" stroke="#e28f41" points="187.14,-152.19 120.89,-152.19 120.89,-85.94 187.14,-85.94 187.14,-152.19"/>
<text text-anchor="middle" x="154.01" y="-114.02" font-family="Times,serif" font-size="14.00">(:β, :HH)</text>
</g>
<!-- n1&#45;&gt;n7 -->
<g id="edge16" class="edge">
<title>n1&#45;&gt;n7</title>
<path fill="none" stroke="black" d="M71.53,-61.35C83.82,-70.06 98.09,-80.17 111.22,-89.47"/>
<polygon fill="black" stroke="black" points="109.12,-92.27 119.3,-95.19 113.17,-86.56 109.12,-92.27"/>
<text text-anchor="middle" x="99.51" y="-85.27" font-family="Times,serif" font-size="14.00">1</text>
</g>
<!-- n9 -->
<g id="node9" class="node">
<title>n9</title>
<polygon fill="#e28f41" stroke="#e28f41" points="643.91,-208.44 579.16,-208.44 579.16,-143.69 643.91,-143.69 643.91,-208.44"/>
<text text-anchor="middle" x="611.53" y="-171.02" font-family="Times,serif" font-size="14.00">(:β, :HL)</text>
</g>
<!-- n1&#45;&gt;n9 -->
<g id="edge7" class="edge">
<title>n1&#45;&gt;n9</title>
<path fill="none" stroke="black" d="M77.78,-31.02C99.65,-27.04 127.76,-23.07 153.01,-23.07 153.01,-23.07 153.01,-23.07 497.32,-23.07 552.11,-23.07 583.42,-87.27 598.68,-132.49"/>
<polygon fill="black" stroke="black" points="595.28,-133.35 601.67,-141.8 601.95,-131.21 595.28,-133.35"/>
<text text-anchor="middle" x="327.35" y="-26.27" font-family="Times,serif" font-size="14.00">1</text>
</g>
<!-- n2 -->
<g id="node2" class="node">
<title>n2</title>
<ellipse fill="#6c9ac3" stroke="#6c9ac3" cx="267.93" cy="-159.07" rx="37.02" ry="37.02"/>
<text text-anchor="middle" x="267.93" y="-154.02" font-family="Times,serif" font-size="14.00">(:I, :H)</text>
</g>
<!-- n2&#45;&gt;n7 -->
<g id="edge8" class="edge">
<title>n2&#45;&gt;n7</title>
<path fill="none" stroke="black" d="M240.77,-133.28C232.25,-126.51 222.28,-120.12 211.89,-116.57 207.69,-115.14 203.22,-114.28 198.7,-113.85"/>
<polygon fill="black" stroke="black" points="199.09,-110.36 189,-113.59 198.9,-117.36 199.09,-110.36"/>
<text text-anchor="middle" x="208.51" y="-119.27" font-family="Times,serif" font-size="14.00">1</text>
</g>
<!-- n8 -->
<g id="node8" class="node">
<title>n8</title>
<polygon fill="#e28f41" stroke="#e28f41" points="413.47,-291.44 348.72,-291.44 348.72,-226.69 413.47,-226.69 413.47,-291.44"/>
<text text-anchor="middle" x="381.1" y="-254.02" font-family="Times,serif" font-size="14.00">(:β, :LH)</text>
</g>
<!-- n2&#45;&gt;n8 -->
<g id="edge12" class="edge">
<title>n2&#45;&gt;n8</title>
<path fill="none" stroke="black" d="M294.02,-185.99C303.19,-195.45 313.81,-205.98 323.97,-215.07 328.88,-219.46 334.17,-223.92 339.48,-228.24"/>
<polygon fill="black" stroke="black" points="337.17,-230.87 347.16,-234.38 341.54,-225.4 337.17,-230.87"/>
<text text-anchor="middle" x="327.35" y="-223.27" font-family="Times,serif" font-size="14.00">1</text>
</g>
<!-- n11 -->
<g id="node11" class="node">
<title>n11</title>
<polygon fill="#e28f41" stroke="#e28f41" points="408.97,-124.94 353.22,-124.94 353.22,-69.19 408.97,-69.19 408.97,-124.94"/>
<text text-anchor="middle" x="381.1" y="-92.02" font-family="Times,serif" font-size="14.00">(:γ, :H)</text>
</g>
<!-- n2&#45;&gt;n11 -->
<g id="edge2" class="edge">
<title>n2&#45;&gt;n11</title>
<path fill="none" stroke="black" d="M300.79,-141.3C313.88,-134 329.13,-125.5 342.74,-117.91"/>
<polygon fill="black" stroke="black" points="344.41,-120.98 351.44,-113.05 341,-114.87 344.41,-120.98"/>
<text text-anchor="middle" x="327.35" y="-131.27" font-family="Times,serif" font-size="14.00">1</text>
</g>
<!-- n3 -->
<g id="node3" class="node">
<title>n3</title>
<ellipse fill="#6c9ac3" stroke="#6c9ac3" cx="496.32" cy="-91.07" rx="40.09" ry="40.09"/>
<text text-anchor="middle" x="496.32" y="-86.02" font-family="Times,serif" font-size="14.00">(:R, :H)</text>
</g>
<!-- n4 -->
<g id="node4" class="node">
<title>n4</title>
<ellipse fill="#6c9ac3" stroke="#6c9ac3" cx="267.93" cy="-349.07" rx="38.04" ry="38.04"/>
<text text-anchor="middle" x="267.93" y="-344.02" font-family="Times,serif" font-size="14.00">(:S, :L)</text>
</g>
<!-- n4&#45;&gt;n8 -->
<g id="edge10" class="edge">
<title>n4&#45;&gt;n8</title>
<path fill="none" stroke="black" d="M298.14,-325.42C310.8,-315.17 325.85,-302.99 339.57,-291.88"/>
<polygon fill="black" stroke="black" points="341.61,-294.73 347.18,-285.72 337.2,-289.29 341.61,-294.73"/>
<text text-anchor="middle" x="327.35" y="-307.27" font-family="Times,serif" font-size="14.00">1</text>
</g>
<!-- n10 -->
<g id="node10" class="node">
<title>n10</title>
<polygon fill="#e28f41" stroke="#e28f41" points="643.16,-324.69 579.91,-324.69 579.91,-261.44 643.16,-261.44 643.16,-324.69"/>
<text text-anchor="middle" x="611.53" y="-288.02" font-family="Times,serif" font-size="14.00">(:β, :LL)</text>
</g>
<!-- n4&#45;&gt;n10 -->
<g id="edge11" class="edge">
<title>n4&#45;&gt;n10</title>
<path fill="none" stroke="black" d="M305.03,-357.68C362.21,-369.44 475.86,-385 561.16,-347.07 565.45,-345.16 571.4,-339.84 577.67,-333.24"/>
<polygon fill="black" stroke="black" points="579.97,-335.91 584.09,-326.15 574.78,-331.21 579.97,-335.91"/>
<text text-anchor="middle" x="434.85" y="-373.27" font-family="Times,serif" font-size="14.00">1</text>
</g>
<!-- n5 -->
<g id="node5" class="node">
<title>n5</title>
<ellipse fill="#6c9ac3" stroke="#6c9ac3" cx="496.32" cy="-271.07" rx="36" ry="36"/>
<text text-anchor="middle" x="496.32" y="-266.02" font-family="Times,serif" font-size="14.00">(:I, :L)</text>
</g>
<!-- n5&#45;&gt;n9 -->
<g id="edge3" class="edge">
<title>n5&#45;&gt;n9</title>
<path fill="none" stroke="black" d="M524.43,-248.31C538.11,-236.84 554.96,-222.7 570.12,-209.98"/>
<polygon fill="black" stroke="black" points="572.25,-212.76 577.66,-203.65 567.75,-207.4 572.25,-212.76"/>
<text text-anchor="middle" x="557.78" y="-223.27" font-family="Times,serif" font-size="14.00">1</text>
</g>
<!-- n5&#45;&gt;n10 -->
<g id="edge15" class="edge">
<title>n5&#45;&gt;n10</title>
<path fill="none" stroke="black" d="M530.43,-283.75C538.19,-286.25 546.51,-288.57 554.41,-290.07 558.81,-290.9 563.44,-291.53 568.08,-292.01"/>
<polygon fill="black" stroke="black" points="567.73,-295.49 577.97,-292.78 568.27,-288.51 567.73,-295.49"/>
<text text-anchor="middle" x="557.78" y="-293.27" font-family="Times,serif" font-size="14.00">1</text>
</g>
<!-- n12 -->
<g id="node12" class="node">
<title>n12</title>
<polygon fill="#e28f41" stroke="#e28f41" points="638.66,-397.19 584.41,-397.19 584.41,-342.94 638.66,-342.94 638.66,-397.19"/>
<text text-anchor="middle" x="611.53" y="-365.02" font-family="Times,serif" font-size="14.00">(:γ, :L)</text>
</g>
<!-- n5&#45;&gt;n12 -->
<g id="edge17" class="edge">
<title>n5&#45;&gt;n12</title>
<path fill="none" stroke="black" d="M524.15,-294.53C539.63,-308.07 559.26,-325.23 575.9,-339.78"/>
<polygon fill="black" stroke="black" points="573.31,-342.17 583.15,-346.12 577.92,-336.9 573.31,-342.17"/>
<text text-anchor="middle" x="557.78" y="-329.27" font-family="Times,serif" font-size="14.00">1</text>
</g>
<!-- n6 -->
<g id="node6" class="node">
<title>n6</title>
<ellipse fill="#6c9ac3" stroke="#6c9ac3" cx="725.73" cy="-370.07" rx="39.07" ry="39.07"/>
<text text-anchor="middle" x="725.73" y="-365.02" font-family="Times,serif" font-size="14.00">(:R, :L)</text>
</g>
<!-- n7&#45;&gt;n2 -->
<g id="edge6" class="edge">
<title>n7&#45;&gt;n2</title>
<path fill="none" stroke="black" d="M187.63,-130.8C193.46,-132.89 199.48,-135.04 205.14,-137.07 210.56,-139.01 216.25,-141.04 221.9,-143.05"/>
<polygon fill="black" stroke="black" points="220.58,-146.3 231.18,-146.36 222.93,-139.71 220.58,-146.3"/>
<text text-anchor="middle" x="208.51" y="-142.27" font-family="Times,serif" font-size="14.00">2</text>
</g>
<!-- n8&#45;&gt;n2 -->
<g id="edge18" class="edge">
<title>n8&#45;&gt;n2</title>
<path fill="none" stroke="black" d="M359.01,-226.43C350.99,-215.5 341.23,-203.77 330.72,-194.57 324.91,-189.47 318.25,-184.75 311.51,-180.52"/>
<polygon fill="black" stroke="black" points="313.35,-177.54 302.96,-175.47 309.79,-183.57 313.35,-177.54"/>
<text text-anchor="middle" x="327.35" y="-197.27" font-family="Times,serif" font-size="14.00">1</text>
</g>
<!-- n8&#45;&gt;n5 -->
<g id="edge9" class="edge">
<title>n8&#45;&gt;n5</title>
<path fill="none" stroke="black" d="M413.94,-262.44C424.73,-263.59 437.02,-264.89 448.72,-266.13"/>
<polygon fill="black" stroke="black" points="448.32,-269.61 458.64,-267.18 449.06,-262.65 448.32,-269.61"/>
<text text-anchor="middle" x="434.85" y="-267.27" font-family="Times,serif" font-size="14.00">1</text>
</g>
<!-- n9&#45;&gt;n2 -->
<g id="edge4" class="edge">
<title>n9&#45;&gt;n2</title>
<path fill="none" stroke="black" d="M578.68,-174.48C518.35,-171.48 387.13,-164.95 316.39,-161.43"/>
<polygon fill="black" stroke="black" points="316.84,-157.95 306.68,-160.95 316.49,-164.94 316.84,-157.95"/>
<text text-anchor="middle" x="434.85" y="-170.27" font-family="Times,serif" font-size="14.00">1</text>
</g>
<!-- n9&#45;&gt;n5 -->
<g id="edge14" class="edge">
<title>n9&#45;&gt;n5</title>
<path fill="none" stroke="black" d="M578.67,-184.19C570.29,-187.24 561.6,-191.29 554.41,-196.57 541.85,-205.79 530.71,-218.52 521.68,-230.85"/>
<polygon fill="black" stroke="black" points="518.92,-228.69 516.06,-238.89 524.65,-232.7 518.92,-228.69"/>
<text text-anchor="middle" x="557.78" y="-199.27" font-family="Times,serif" font-size="14.00">1</text>
</g>
<!-- n10&#45;&gt;n5 -->
<g id="edge1" class="edge">
<title>n10&#45;&gt;n5</title>
<path fill="none" stroke="black" d="M579.41,-278.96C573.46,-276.78 567.2,-274.84 561.16,-273.57 555.6,-272.4 549.72,-271.6 543.85,-271.06"/>
<polygon fill="black" stroke="black" points="544.42,-267.59 534.21,-270.43 543.96,-274.58 544.42,-267.59"/>
<text text-anchor="middle" x="557.78" y="-276.27" font-family="Times,serif" font-size="14.00">2</text>
</g>
<!-- n11&#45;&gt;n3 -->
<g id="edge5" class="edge">
<title>n11&#45;&gt;n3</title>
<path fill="none" stroke="black" d="M409.22,-95.63C419.83,-95.07 432.35,-94.4 444.52,-93.76"/>
<polygon fill="black" stroke="black" points="444.68,-97.26 454.48,-93.23 444.31,-90.27 444.68,-97.26"/>
<text text-anchor="middle" x="434.85" y="-97.27" font-family="Times,serif" font-size="14.00">1</text>
</g>
<!-- n12&#45;&gt;n6 -->
<g id="edge13" class="edge">
<title>n12&#45;&gt;n6</title>
<path fill="none" stroke="black" d="M639.12,-370.07C649.94,-370.07 662.8,-370.07 675.22,-370.07"/>
<polygon fill="black" stroke="black" points="674.92,-373.57 684.92,-370.07 674.92,-366.57 674.92,-373.57"/>
<text text-anchor="middle" x="665.28" y="-373.27" font-family="Times,serif" font-size="14.00">1</text>
</g>
</g>
</svg>
