<?xml version="1.0" encoding="UTF-8" standalone="no"?>
<!DOCTYPE svg PUBLIC "-//W3C//DTD SVG 1.1//EN"
 "http://www.w3.org/Graphics/SVG/1.1/DTD/svg11.dtd">
<!-- Generated by graphviz version 11.0.0 (20240428.1522)
 -->
<!-- Title: G Pages: 1 -->
<svg width="335pt" height="446pt"
 viewBox="0.00 0.00 334.75 445.62" xmlns="http://www.w3.org/2000/svg" xmlns:xlink="http://www.w3.org/1999/xlink">
<g id="graph0" class="graph" transform="scale(1 1) rotate(0) translate(4 441.62)">
<title>G</title>
<polygon fill="white" stroke="none" points="-4,4 -4,-441.62 330.75,-441.62 330.75,4 -4,4"/>
<!-- n1 -->
<g id="node1" class="node">
<title>n1</title>
<ellipse fill="#6c9ac3" stroke="#6c9ac3" cx="18" cy="-301.62" rx="18" ry="18"/>
<text text-anchor="middle" x="18" y="-296.57" font-family="Times,serif" font-size="14.00">H</text>
</g>
<!-- n3 -->
<g id="node3" class="node">
<title>n3</title>
<polygon fill="#e28f41" stroke="#e28f41" points="128.38,-437.62 92.38,-437.62 92.38,-401.62 128.38,-401.62 128.38,-437.62"/>
<text text-anchor="middle" x="110.38" y="-414.57" font-family="Times,serif" font-size="14.00">HH</text>
</g>
<!-- n1&#45;&gt;n3 -->
<g id="edge4" class="edge">
<title>n1&#45;&gt;n3</title>
<path fill="none" stroke="black" d="M20.8,-319.62C23.9,-341.37 32.19,-377.74 54,-399.62 61.31,-406.96 71.51,-411.63 81.17,-414.58"/>
<polygon fill="black" stroke="black" points="80.03,-417.9 90.58,-416.95 81.74,-411.12 80.03,-417.9"/>
<text text-anchor="middle" x="57.38" y="-407.82" font-family="Times,serif" font-size="14.00">2</text>
</g>
<!-- n4 -->
<g id="node4" class="node">
<title>n4</title>
<polygon fill="#e28f41" stroke="#e28f41" points="128.38,-318.62 92.38,-318.62 92.38,-282.62 128.38,-282.62 128.38,-318.62"/>
<text text-anchor="middle" x="110.38" y="-295.57" font-family="Times,serif" font-size="14.00">LH</text>
</g>
<!-- n1&#45;&gt;n4 -->
<g id="edge6" class="edge">
<title>n1&#45;&gt;n4</title>
<path fill="none" stroke="black" d="M36.43,-301.43C48.93,-301.29 66.06,-301.1 80.58,-300.94"/>
<polygon fill="black" stroke="black" points="80.53,-304.44 90.49,-300.83 80.45,-297.44 80.53,-304.44"/>
<text text-anchor="middle" x="57.38" y="-303.82" font-family="Times,serif" font-size="14.00">1</text>
</g>
<!-- n5 -->
<g id="node5" class="node">
<title>n5</title>
<polygon fill="#e28f41" stroke="#e28f41" points="313.12,-242.62 277.12,-242.62 277.12,-206.62 313.12,-206.62 313.12,-242.62"/>
<text text-anchor="middle" x="295.12" y="-219.57" font-family="Times,serif" font-size="14.00">HL</text>
</g>
<!-- n1&#45;&gt;n5 -->
<g id="edge9" class="edge">
<title>n1&#45;&gt;n5</title>
<path fill="none" stroke="black" d="M33.53,-311.15C39.65,-314.84 46.98,-318.83 54,-321.62 100.57,-340.14 121.15,-343.4 166.75,-322.62 206.1,-304.7 244.48,-272.56 268.65,-249.99"/>
<polygon fill="black" stroke="black" points="270.96,-252.62 275.79,-243.2 266.14,-247.55 270.96,-252.62"/>
<text text-anchor="middle" x="163.38" y="-327.82" font-family="Times,serif" font-size="14.00">1</text>
</g>
<!-- n7 -->
<g id="node7" class="node">
<title>n7</title>
<polygon fill="#e28f41" stroke="#e28f41" points="142,-206.25 78.75,-206.25 78.75,-143 142,-143 142,-206.25"/>
<text text-anchor="middle" x="110.38" y="-169.57" font-family="Times,serif" font-size="14.00">recovery</text>
</g>
<!-- n1&#45;&gt;n7 -->
<g id="edge15" class="edge">
<title>n1&#45;&gt;n7</title>
<path fill="none" stroke="black" d="M22.33,-283.77C26.75,-264 36.18,-232.02 54,-210.12 58.25,-204.9 63.47,-200.21 69.01,-196.07"/>
<polygon fill="black" stroke="black" points="70.92,-199 77.23,-190.48 66.99,-193.21 70.92,-199"/>
<text text-anchor="middle" x="57.38" y="-212.82" font-family="Times,serif" font-size="14.00">1</text>
</g>
<!-- n2 -->
<g id="node2" class="node">
<title>n2</title>
<ellipse fill="#6c9ac3" stroke="#6c9ac3" cx="202.75" cy="-148.62" rx="18" ry="18"/>
<text text-anchor="middle" x="202.75" y="-143.57" font-family="Times,serif" font-size="14.00">L</text>
</g>
<!-- n2&#45;&gt;n4 -->
<g id="edge13" class="edge">
<title>n2&#45;&gt;n4</title>
<path fill="none" stroke="black" d="M199.47,-166.49C195.81,-189.56 186.87,-230.14 166.75,-258.62 159.26,-269.23 148.28,-278.34 138.07,-285.34"/>
<polygon fill="black" stroke="black" points="136.46,-282.22 129.93,-290.56 140.24,-288.11 136.46,-282.22"/>
<text text-anchor="middle" x="163.38" y="-268.82" font-family="Times,serif" font-size="14.00">1</text>
</g>
<!-- n2&#45;&gt;n5 -->
<g id="edge2" class="edge">
<title>n2&#45;&gt;n5</title>
<path fill="none" stroke="black" d="M215.05,-162.35C221.6,-169.9 230.21,-179.22 238.75,-186.62 247.49,-194.19 257.76,-201.6 267.07,-207.83"/>
<polygon fill="black" stroke="black" points="265.12,-210.74 275.41,-213.26 268.94,-204.87 265.12,-210.74"/>
<text text-anchor="middle" x="242.12" y="-193.82" font-family="Times,serif" font-size="14.00">1</text>
</g>
<!-- n6 -->
<g id="node6" class="node">
<title>n6</title>
<polygon fill="#e28f41" stroke="#e28f41" points="313.12,-123.62 277.12,-123.62 277.12,-87.62 313.12,-87.62 313.12,-123.62"/>
<text text-anchor="middle" x="295.12" y="-100.58" font-family="Times,serif" font-size="14.00">LL</text>
</g>
<!-- n2&#45;&gt;n6 -->
<g id="edge7" class="edge">
<title>n2&#45;&gt;n6</title>
<path fill="none" stroke="black" d="M218.97,-140.29C225.07,-137.02 232.19,-133.3 238.75,-130.12 247.76,-125.76 257.73,-121.25 266.71,-117.31"/>
<polygon fill="black" stroke="black" points="267.85,-120.62 275.63,-113.43 265.06,-114.2 267.85,-120.62"/>
<text text-anchor="middle" x="242.12" y="-133.82" font-family="Times,serif" font-size="14.00">2</text>
</g>
<!-- n8 -->
<g id="node8" class="node">
<title>n8</title>
<polygon fill="#e28f41" stroke="#e28f41" points="326.75,-63.25 263.5,-63.25 263.5,0 326.75,0 326.75,-63.25"/>
<text text-anchor="middle" x="295.12" y="-26.57" font-family="Times,serif" font-size="14.00">recovery</text>
</g>
<!-- n2&#45;&gt;n8 -->
<g id="edge10" class="edge">
<title>n2&#45;&gt;n8</title>
<path fill="none" stroke="black" d="M208.2,-131.03C213.31,-113.57 223.06,-86.79 238.75,-68.12 243.07,-62.99 248.29,-58.3 253.79,-54.12"/>
<polygon fill="black" stroke="black" points="255.73,-57.03 261.93,-48.44 251.72,-51.29 255.73,-57.03"/>
<text text-anchor="middle" x="242.12" y="-71.83" font-family="Times,serif" font-size="14.00">1</text>
</g>
<!-- n3&#45;&gt;n1 -->
<g id="edge1" class="edge">
<title>n3&#45;&gt;n1</title>
<path fill="none" stroke="black" d="M92.04,-407.46C80.24,-398.54 64.84,-385.59 54,-371.62 43.94,-358.67 35.59,-342.36 29.56,-328.75"/>
<polygon fill="black" stroke="black" points="32.95,-327.77 25.84,-319.92 26.5,-330.5 32.95,-327.77"/>
<text text-anchor="middle" x="57.38" y="-381.82" font-family="Times,serif" font-size="14.00">2</text>
</g>
<!-- n4&#45;&gt;n1 -->
<g id="edge8" class="edge">
<title>n4&#45;&gt;n1</title>
<path fill="none" stroke="black" d="M92.15,-288.27C81.34,-282.01 67.02,-276.44 54,-280.12 50.11,-281.23 46.22,-282.89 42.53,-284.82"/>
<polygon fill="black" stroke="black" points="40.84,-281.75 34.1,-289.92 44.47,-287.74 40.84,-281.75"/>
<text text-anchor="middle" x="57.38" y="-282.82" font-family="Times,serif" font-size="14.00">1</text>
</g>
<!-- n4&#45;&gt;n2 -->
<g id="edge11" class="edge">
<title>n4&#45;&gt;n2</title>
<path fill="none" stroke="black" d="M128.78,-305.04C140.77,-306.98 156.35,-307.19 166.75,-298.62 185.08,-283.53 194.83,-217.17 199.07,-177.95"/>
<polygon fill="black" stroke="black" points="202.53,-178.55 200.06,-168.24 195.57,-177.84 202.53,-178.55"/>
<text text-anchor="middle" x="163.38" y="-304.82" font-family="Times,serif" font-size="14.00">1</text>
</g>
<!-- n5&#45;&gt;n1 -->
<g id="edge12" class="edge">
<title>n5&#45;&gt;n1</title>
<path fill="none" stroke="black" d="M276.99,-225.08C251.29,-226.06 201.38,-229.05 160,-238.12 111.33,-248.8 97.86,-250.98 54,-274.62 49.59,-277 45.16,-279.92 41,-282.95"/>
<polygon fill="black" stroke="black" points="38.85,-280.18 33.12,-289.09 43.16,-285.7 38.85,-280.18"/>
<text text-anchor="middle" x="163.38" y="-240.82" font-family="Times,serif" font-size="14.00">1</text>
</g>
<!-- n5&#45;&gt;n2 -->
<g id="edge14" class="edge">
<title>n5&#45;&gt;n2</title>
<path fill="none" stroke="black" d="M282.38,-206.25C273.51,-193.59 260.36,-177.12 245.5,-166.12 241.19,-162.94 236.21,-160.2 231.23,-157.91"/>
<polygon fill="black" stroke="black" points="232.55,-154.67 221.97,-154.16 229.92,-161.16 232.55,-154.67"/>
<text text-anchor="middle" x="242.12" y="-169.82" font-family="Times,serif" font-size="14.00">1</text>
</g>
<!-- n6&#45;&gt;n2 -->
<g id="edge3" class="edge">
<title>n6&#45;&gt;n2</title>
<path fill="none" stroke="black" d="M276.82,-94.19C265.45,-88.22 250.56,-83.43 238.75,-90.12 226.93,-96.83 218.67,-109.29 213.15,-121"/>
<polygon fill="black" stroke="black" points="210.04,-119.37 209.42,-129.95 216.5,-122.07 210.04,-119.37"/>
<text text-anchor="middle" x="242.12" y="-93.83" font-family="Times,serif" font-size="14.00">2</text>
</g>
<!-- n7&#45;&gt;n1 -->
<g id="edge5" class="edge">
<title>n7&#45;&gt;n1</title>
<path fill="none" stroke="black" d="M78.4,-164.73C69.77,-163.82 60.88,-164.83 54,-170.12 37.96,-182.46 27.71,-237.17 22.69,-272.02"/>
<polygon fill="black" stroke="black" points="19.22,-271.53 21.34,-281.91 26.16,-272.48 19.22,-271.53"/>
<text text-anchor="middle" x="57.38" y="-172.82" font-family="Times,serif" font-size="14.00">1</text>
</g>
<!-- n8&#45;&gt;n2 -->
<g id="edge16" class="edge">
<title>n8&#45;&gt;n2</title>
<path fill="none" stroke="black" d="M263.13,-31.14C254.4,-32.44 245.46,-35.32 238.75,-41.12 216.29,-60.54 208.16,-94.54 205.26,-119.11"/>
<polygon fill="black" stroke="black" points="201.8,-118.52 204.35,-128.8 208.76,-119.17 201.8,-118.52"/>
<text text-anchor="middle" x="242.12" y="-44.83" font-family="Times,serif" font-size="14.00">1</text>
</g>
</g>
</svg>
