<?xml version="1.0" encoding="UTF-8" standalone="no"?>
<!DOCTYPE svg PUBLIC "-//W3C//DTD SVG 1.1//EN"
 "http://www.w3.org/Graphics/SVG/1.1/DTD/svg11.dtd">
<!-- Generated by graphviz version 11.0.0 (20240428.1522)
 -->
<!-- Title: G Pages: 1 -->
<svg width="837pt" height="329pt"
 viewBox="0.00 0.00 837.41 328.50" xmlns="http://www.w3.org/2000/svg" xmlns:xlink="http://www.w3.org/1999/xlink">
<g id="graph0" class="graph" transform="scale(1 1) rotate(0) translate(4 324.5)">
<title>G</title>
<polygon fill="white" stroke="none" points="-4,4 -4,-324.5 833.41,-324.5 833.41,4 -4,4"/>
<!-- n1 -->
<g id="node1" class="node">
<title>n1</title>
<ellipse fill="#6c9ac3" stroke="#6c9ac3" cx="18" cy="-61" rx="18" ry="18"/>
<text text-anchor="middle" x="18" y="-55.95" font-family="Times,serif" font-size="14.00">S</text>
</g>
<!-- n7 -->
<g id="node7" class="node">
<title>n7</title>
<polygon fill="#e28f41" stroke="#e28f41" points="114.75,-102 78.75,-102 78.75,-66 114.75,-66 114.75,-102"/>
<text text-anchor="middle" x="96.75" y="-79.7" font-family="Times,serif" font-size="14.00">β₁</text>
</g>
<!-- n1&#45;&gt;n7 -->
<g id="edge19" class="edge">
<title>n1&#45;&gt;n7</title>
<path fill="none" stroke="black" d="M35.65,-65.99C44.91,-68.77 56.69,-72.29 67.36,-75.49"/>
<polygon fill="black" stroke="black" points="66.3,-78.83 76.88,-78.35 68.31,-72.12 66.3,-78.83"/>
<text text-anchor="middle" x="57.38" y="-76.2" font-family="Times,serif" font-size="14.00">1</text>
</g>
<!-- n8 -->
<g id="node8" class="node">
<title>n8</title>
<polygon fill="#e28f41" stroke="#e28f41" points="432.7,-268 396.7,-268 396.7,-232 432.7,-232 432.7,-268"/>
<text text-anchor="middle" x="414.7" y="-245.7" font-family="Times,serif" font-size="14.00">β₂</text>
</g>
<!-- n1&#45;&gt;n8 -->
<g id="edge22" class="edge">
<title>n1&#45;&gt;n8</title>
<path fill="none" stroke="black" d="M20.78,-79.26C26.79,-135.78 48.63,-304 95.75,-304 95.75,-304 95.75,-304 336.21,-304 357.6,-304 377.3,-289.99 391.49,-276.24"/>
<polygon fill="black" stroke="black" points="393.7,-278.99 398.13,-269.37 388.66,-274.13 393.7,-278.99"/>
<text text-anchor="middle" x="216.35" y="-307.2" font-family="Times,serif" font-size="14.00">1</text>
</g>
<!-- n9 -->
<g id="node9" class="node">
<title>n9</title>
<polygon fill="#e28f41" stroke="#e28f41" points="591.68,-152 555.68,-152 555.68,-116 591.68,-116 591.68,-152"/>
<text text-anchor="middle" x="573.68" y="-129.7" font-family="Times,serif" font-size="14.00">β₃</text>
</g>
<!-- n1&#45;&gt;n9 -->
<g id="edge14" class="edge">
<title>n1&#45;&gt;n9</title>
<path fill="none" stroke="black" d="M34.76,-53.34C49.99,-46.65 73.91,-38 95.75,-38 95.75,-38 95.75,-38 495.19,-38 530.17,-38 552.06,-77.07 563.32,-105.36"/>
<polygon fill="black" stroke="black" points="559.96,-106.37 566.72,-114.52 566.52,-103.93 559.96,-106.37"/>
<text text-anchor="middle" x="295.1" y="-41.2" font-family="Times,serif" font-size="14.00">1</text>
</g>
<!-- n10 -->
<g id="node10" class="node">
<title>n10</title>
<polygon fill="#e28f41" stroke="#e28f41" points="750.66,-111 714.66,-111 714.66,-75 750.66,-75 750.66,-111"/>
<text text-anchor="middle" x="732.66" y="-88.7" font-family="Times,serif" font-size="14.00">β₄</text>
</g>
<!-- n1&#45;&gt;n10 -->
<g id="edge23" class="edge">
<title>n1&#45;&gt;n10</title>
<path fill="none" stroke="black" d="M28.69,-45.92C41.61,-27.86 66.3,0 95.75,0 95.75,0 95.75,0 654.17,0 687.97,0 709.89,-36.71 721.51,-64"/>
<polygon fill="black" stroke="black" points="718.22,-65.22 725.17,-73.22 724.73,-62.63 718.22,-65.22"/>
<text text-anchor="middle" x="375.33" y="-3.2" font-family="Times,serif" font-size="14.00">1</text>
</g>
<!-- n2 -->
<g id="node2" class="node">
<title>n2</title>
<ellipse fill="#6c9ac3" stroke="#6c9ac3" cx="176.24" cy="-117" rx="18.74" ry="18.74"/>
<text text-anchor="middle" x="176.24" y="-112.7" font-family="Times,serif" font-size="14.00">I₁</text>
</g>
<!-- n2&#45;&gt;n7 -->
<g id="edge15" class="edge">
<title>n2&#45;&gt;n7</title>
<path fill="none" stroke="black" d="M158.21,-110.4C150.41,-107.33 141.08,-103.57 132.75,-100 130.4,-99 127.98,-97.93 125.55,-96.86"/>
<polygon fill="black" stroke="black" points="127.06,-93.7 116.5,-92.77 124.17,-100.07 127.06,-93.7"/>
<text text-anchor="middle" x="136.12" y="-105.2" font-family="Times,serif" font-size="14.00">1</text>
</g>
<!-- n11 -->
<g id="node11" class="node">
<title>n11</title>
<polygon fill="#e28f41" stroke="#e28f41" points="273.73,-191 237.73,-191 237.73,-155 273.73,-155 273.73,-191"/>
<text text-anchor="middle" x="255.73" y="-168.7" font-family="Times,serif" font-size="14.00">δ₁</text>
</g>
<!-- n2&#45;&gt;n11 -->
<g id="edge7" class="edge">
<title>n2&#45;&gt;n11</title>
<path fill="none" stroke="black" d="M191.81,-127.53C201.98,-134.88 215.85,-144.91 227.98,-153.67"/>
<polygon fill="black" stroke="black" points="225.85,-156.45 236.01,-159.47 229.95,-150.78 225.85,-156.45"/>
<text text-anchor="middle" x="216.35" y="-149.2" font-family="Times,serif" font-size="14.00">1</text>
</g>
<!-- n3 -->
<g id="node3" class="node">
<title>n3</title>
<ellipse fill="#6c9ac3" stroke="#6c9ac3" cx="335.21" cy="-188" rx="18.74" ry="18.74"/>
<text text-anchor="middle" x="335.21" y="-183.7" font-family="Times,serif" font-size="14.00">I₂</text>
</g>
<!-- n3&#45;&gt;n8 -->
<g id="edge9" class="edge">
<title>n3&#45;&gt;n8</title>
<path fill="none" stroke="black" d="M354.37,-188.51C362.4,-189.49 371.6,-191.7 378.7,-196.5 387.95,-202.75 395.34,-212.36 400.9,-221.71"/>
<polygon fill="black" stroke="black" points="397.68,-223.11 405.5,-230.25 403.84,-219.79 397.68,-223.11"/>
<text text-anchor="middle" x="375.33" y="-199.2" font-family="Times,serif" font-size="14.00">1</text>
</g>
<!-- n12 -->
<g id="node12" class="node">
<title>n12</title>
<polygon fill="#e28f41" stroke="#e28f41" points="432.7,-191 396.7,-191 396.7,-155 432.7,-155 432.7,-191"/>
<text text-anchor="middle" x="414.7" y="-168.7" font-family="Times,serif" font-size="14.00">δ₂</text>
</g>
<!-- n3&#45;&gt;n12 -->
<g id="edge12" class="edge">
<title>n3&#45;&gt;n12</title>
<path fill="none" stroke="black" d="M347.5,-173.64C353.85,-166.74 362.41,-159.19 371.95,-155.5 376.49,-153.75 381.27,-153.86 385.92,-155.05"/>
<polygon fill="black" stroke="black" points="384.35,-158.19 394.92,-158.79 387.03,-151.72 384.35,-158.19"/>
<text text-anchor="middle" x="375.33" y="-158.2" font-family="Times,serif" font-size="14.00">1</text>
</g>
<!-- n4 -->
<g id="node4" class="node">
<title>n4</title>
<ellipse fill="#6c9ac3" stroke="#6c9ac3" cx="494.19" cy="-184" rx="18.74" ry="18.74"/>
<text text-anchor="middle" x="494.19" y="-179.7" font-family="Times,serif" font-size="14.00">I₃</text>
</g>
<!-- n4&#45;&gt;n9 -->
<g id="edge21" class="edge">
<title>n4&#45;&gt;n9</title>
<path fill="none" stroke="black" d="M512.35,-177.73C520.34,-174.46 529.8,-170.08 537.68,-165 540.75,-163.02 543.82,-160.78 546.8,-158.43"/>
<polygon fill="black" stroke="black" points="548.82,-161.31 554.2,-152.18 544.3,-155.96 548.82,-161.31"/>
<text text-anchor="middle" x="534.3" y="-171.2" font-family="Times,serif" font-size="14.00">1</text>
</g>
<!-- n13 -->
<g id="node13" class="node">
<title>n13</title>
<polygon fill="#e28f41" stroke="#e28f41" points="591.68,-225 555.68,-225 555.68,-189 591.68,-189 591.68,-225"/>
<text text-anchor="middle" x="573.68" y="-202.7" font-family="Times,serif" font-size="14.00">δ₃</text>
</g>
<!-- n4&#45;&gt;n13 -->
<g id="edge17" class="edge">
<title>n4&#45;&gt;n13</title>
<path fill="none" stroke="black" d="M509.75,-194.72C515.96,-198.7 523.48,-202.78 530.93,-205 535.07,-206.23 539.54,-207 543.96,-207.45"/>
<polygon fill="black" stroke="black" points="543.63,-210.94 553.79,-207.94 543.98,-203.95 543.63,-210.94"/>
<text text-anchor="middle" x="534.3" y="-209.2" font-family="Times,serif" font-size="14.00">1</text>
</g>
<!-- n5 -->
<g id="node5" class="node">
<title>n5</title>
<ellipse fill="#6c9ac3" stroke="#6c9ac3" cx="653.17" cy="-163" rx="18.74" ry="18.74"/>
<text text-anchor="middle" x="653.17" y="-158.7" font-family="Times,serif" font-size="14.00">I₄</text>
</g>
<!-- n5&#45;&gt;n10 -->
<g id="edge18" class="edge">
<title>n5&#45;&gt;n10</title>
<path fill="none" stroke="black" d="M668.15,-151.56C676.54,-144.6 687.35,-135.45 696.66,-127 699.79,-124.16 703.03,-121.13 706.22,-118.1"/>
<polygon fill="black" stroke="black" points="708.57,-120.69 713.34,-111.24 703.71,-115.65 708.57,-120.69"/>
<text text-anchor="middle" x="693.28" y="-135.2" font-family="Times,serif" font-size="14.00">1</text>
</g>
<!-- n14 -->
<g id="node14" class="node">
<title>n14</title>
<polygon fill="#e28f41" stroke="#e28f41" points="750.66,-207 714.66,-207 714.66,-171 750.66,-171 750.66,-207"/>
<text text-anchor="middle" x="732.66" y="-184.7" font-family="Times,serif" font-size="14.00">δ₄</text>
</g>
<!-- n5&#45;&gt;n14 -->
<g id="edge1" class="edge">
<title>n5&#45;&gt;n14</title>
<path fill="none" stroke="black" d="M671.37,-168.77C680.83,-171.95 692.81,-175.97 703.59,-179.58"/>
<polygon fill="black" stroke="black" points="702.21,-182.81 712.8,-182.67 704.44,-176.18 702.21,-182.81"/>
<text text-anchor="middle" x="693.28" y="-179.2" font-family="Times,serif" font-size="14.00">1</text>
</g>
<!-- n6 -->
<g id="node6" class="node">
<title>n6</title>
<ellipse fill="#6c9ac3" stroke="#6c9ac3" cx="811.41" cy="-189" rx="18" ry="18"/>
<text text-anchor="middle" x="811.41" y="-183.95" font-family="Times,serif" font-size="14.00">R</text>
</g>
<!-- n7&#45;&gt;n2 -->
<g id="edge13" class="edge">
<title>n7&#45;&gt;n2</title>
<path fill="none" stroke="black" d="M114.94,-80.9C122.7,-80.23 131.82,-80.46 139.5,-83.5 145.53,-85.88 151.14,-89.82 156.04,-94.17"/>
<polygon fill="black" stroke="black" points="153.44,-96.52 162.98,-101.14 158.4,-91.58 153.44,-96.52"/>
<text text-anchor="middle" x="136.12" y="-86.2" font-family="Times,serif" font-size="14.00">2</text>
</g>
<!-- n8&#45;&gt;n2 -->
<g id="edge2" class="edge">
<title>n8&#45;&gt;n2</title>
<path fill="none" stroke="black" d="M396.35,-248.83C362.83,-245.8 288.03,-235.3 237.73,-200 217.35,-185.7 201.21,-162.32 190.74,-144.01"/>
<polygon fill="black" stroke="black" points="193.83,-142.35 185.97,-135.25 187.68,-145.7 193.83,-142.35"/>
<text text-anchor="middle" x="295.1" y="-232.2" font-family="Times,serif" font-size="14.00">1</text>
</g>
<!-- n8&#45;&gt;n3 -->
<g id="edge4" class="edge">
<title>n8&#45;&gt;n3</title>
<path fill="none" stroke="black" d="M396.33,-236.1C385.41,-227.36 371.19,-215.99 359.33,-206.5"/>
<polygon fill="black" stroke="black" points="361.6,-203.83 351.61,-200.32 357.23,-209.3 361.6,-203.83"/>
<text text-anchor="middle" x="375.33" y="-223.2" font-family="Times,serif" font-size="14.00">1</text>
</g>
<!-- n9&#45;&gt;n2 -->
<g id="edge8" class="edge">
<title>n9&#45;&gt;n2</title>
<path fill="none" stroke="black" d="M555.47,-126.89C539.98,-121.14 516.45,-114 495.19,-114 254.73,-114 254.73,-114 254.73,-114 238.84,-114 221.15,-114.64 206.68,-115.32"/>
<polygon fill="black" stroke="black" points="206.71,-111.82 196.9,-115.82 207.07,-118.81 206.71,-111.82"/>
<text text-anchor="middle" x="375.33" y="-117.2" font-family="Times,serif" font-size="14.00">1</text>
</g>
<!-- n9&#45;&gt;n4 -->
<g id="edge11" class="edge">
<title>n9&#45;&gt;n4</title>
<path fill="none" stroke="black" d="M555.24,-138.16C547.44,-140.49 538.35,-143.87 530.93,-148.5 525.13,-152.12 519.54,-156.84 514.58,-161.65"/>
<polygon fill="black" stroke="black" points="512.34,-158.92 507.93,-168.56 517.38,-163.78 512.34,-158.92"/>
<text text-anchor="middle" x="534.3" y="-151.2" font-family="Times,serif" font-size="14.00">1</text>
</g>
<!-- n10&#45;&gt;n2 -->
<g id="edge16" class="edge">
<title>n10&#45;&gt;n2</title>
<path fill="none" stroke="black" d="M714.35,-86.96C698.8,-82.07 675.24,-76 654.17,-76 254.73,-76 254.73,-76 254.73,-76 234.38,-76 214.14,-87.19 199.46,-97.87"/>
<polygon fill="black" stroke="black" points="197.61,-94.87 191.86,-103.77 201.91,-100.4 197.61,-94.87"/>
<text text-anchor="middle" x="454.08" y="-79.2" font-family="Times,serif" font-size="14.00">1</text>
</g>
<!-- n10&#45;&gt;n5 -->
<g id="edge5" class="edge">
<title>n10&#45;&gt;n5</title>
<path fill="none" stroke="black" d="M714.19,-97.8C706.2,-100.6 696.97,-104.73 689.91,-110.5 681.13,-117.67 673.64,-127.55 667.81,-136.81"/>
<polygon fill="black" stroke="black" points="664.97,-134.74 662.93,-145.14 671.01,-138.28 664.97,-134.74"/>
<text text-anchor="middle" x="693.28" y="-113.2" font-family="Times,serif" font-size="14.00">1</text>
</g>
<!-- n11&#45;&gt;n3 -->
<g id="edge10" class="edge">
<title>n11&#45;&gt;n3</title>
<path fill="none" stroke="black" d="M273.92,-176.33C283.12,-178.11 294.7,-180.35 305.25,-182.39"/>
<polygon fill="black" stroke="black" points="304.56,-185.82 315.04,-184.29 305.89,-178.95 304.56,-185.82"/>
<text text-anchor="middle" x="295.1" y="-183.2" font-family="Times,serif" font-size="14.00">1</text>
</g>
<!-- n12&#45;&gt;n4 -->
<g id="edge6" class="edge">
<title>n12&#45;&gt;n4</title>
<path fill="none" stroke="black" d="M432.9,-175.44C442.04,-176.74 453.52,-178.37 464,-179.86"/>
<polygon fill="black" stroke="black" points="463.34,-183.3 473.74,-181.24 464.33,-176.37 463.34,-183.3"/>
<text text-anchor="middle" x="454.08" y="-181.2" font-family="Times,serif" font-size="14.00">1</text>
</g>
<!-- n13&#45;&gt;n5 -->
<g id="edge3" class="edge">
<title>n13&#45;&gt;n5</title>
<path fill="none" stroke="black" d="M591.88,-197.23C602.05,-191.46 615.13,-184.03 626.5,-177.57"/>
<polygon fill="black" stroke="black" points="628.05,-180.72 635.02,-172.74 624.6,-174.63 628.05,-180.72"/>
<text text-anchor="middle" x="613.05" y="-189.2" font-family="Times,serif" font-size="14.00">1</text>
</g>
<!-- n14&#45;&gt;n6 -->
<g id="edge20" class="edge">
<title>n14&#45;&gt;n6</title>
<path fill="none" stroke="black" d="M751.07,-189C760.1,-189 771.36,-189 781.64,-189"/>
<polygon fill="black" stroke="black" points="781.55,-192.5 791.55,-189 781.55,-185.5 781.55,-192.5"/>
<text text-anchor="middle" x="772.03" y="-192.2" font-family="Times,serif" font-size="14.00">1</text>
</g>
</g>
</svg>
