<?xml version="1.0" encoding="UTF-8" standalone="no"?>
<!DOCTYPE svg PUBLIC "-//W3C//DTD SVG 1.1//EN"
 "http://www.w3.org/Graphics/SVG/1.1/DTD/svg11.dtd">
<!-- Generated by graphviz version 11.0.0 (20240428.1522)
 -->
<!-- Title: G Pages: 1 -->
<svg width="173pt" height="181pt"
 viewBox="0.00 0.00 172.59 180.74" xmlns="http://www.w3.org/2000/svg" xmlns:xlink="http://www.w3.org/1999/xlink">
<g id="graph0" class="graph" transform="scale(1 1) rotate(0) translate(4 176.74)">
<title>G</title>
<polygon fill="white" stroke="none" points="-4,4 -4,-176.74 168.59,-176.74 168.59,4 -4,4"/>
<!-- n1 -->
<g id="box1" class="node">
<title>n1</title>
<ellipse fill="none" stroke="black" cx="78.04" cy="-90" rx="18" ry="18"/>
<text text-anchor="middle" x="78.04" y="-83.83" font-family="Serif" font-size="14.00">si</text>
</g>
<!-- n11 -->
<!-- junction -->
<g id="junction1" class="node">
<title>n11</title>
<ellipse fill="black" stroke="black" cx="52.67" cy="-64.59" rx="2.7" ry="2.7"/>
<text text-anchor="middle" x="44.72" y="-71.99" font-family="Serif" font-size="14.00">I₁</text>
</g>
<!-- n1&#45;&#45;n11 -->
<g id="edge1" class="edge">
<title>n1&#45;&#45;n11</title>
<path fill="none" stroke="black" d="M65.06,-77C60.96,-72.89 56.9,-68.83 54.6,-66.53"/>
</g>
<!-- n12 -->
<!-- junction -->
<g id="junction2" class="node">
<title>n12</title>
<ellipse fill="black" stroke="black" cx="57.17" cy="-121.83" rx="2.7" ry="2.7"/>
<text text-anchor="middle" x="49.22" y="-129.23" font-family="Serif" font-size="14.00">I₂</text>
</g>
<!-- n1&#45;&#45;n12 -->
<g id="edge4" class="edge">
<title>n1&#45;&#45;n12</title>
<path fill="none" stroke="black" d="M68.1,-105.17C64.57,-110.55 60.97,-116.05 58.91,-119.19"/>
</g>
<!-- n13 -->
<!-- junction -->
<g id="junction3" class="node">
<title>n13</title>
<ellipse fill="black" stroke="black" cx="116.42" cy="-113.15" rx="2.7" ry="2.7"/>
<text text-anchor="middle" x="108.47" y="-120.55" font-family="Serif" font-size="14.00">I₃</text>
</g>
<!-- n1&#45;&#45;n13 -->
<g id="edge7" class="edge">
<title>n1&#45;&#45;n13</title>
<path fill="none" stroke="black" d="M93.65,-99.42C101.29,-104.02 109.71,-109.1 113.85,-111.59"/>
</g>
<!-- n14 -->
<!-- junction -->
<g id="junction4" class="node">
<title>n14</title>
<ellipse fill="black" stroke="black" cx="88.75" cy="-130.66" rx="2.7" ry="2.7"/>
<text text-anchor="middle" x="80.8" y="-138.06" font-family="Serif" font-size="14.00">I₄</text>
</g>
<!-- n1&#45;&#45;n14 -->
<g id="edge10" class="edge">
<title>n1&#45;&#45;n14</title>
<path fill="none" stroke="black" d="M82.64,-107.48C84.68,-115.23 86.87,-123.54 87.99,-127.79"/>
</g>
<!-- n15 -->
<!-- junction -->
<g id="junction5" class="node">
<title>n15</title>
<ellipse fill="black" stroke="black" cx="42.44" cy="-93.41" rx="2.7" ry="2.7"/>
<text text-anchor="middle" x="34.49" y="-100.81" font-family="Serif" font-size="14.00">I₅</text>
</g>
<!-- n1&#45;&#45;n15 -->
<g id="edge13" class="edge">
<title>n1&#45;&#45;n15</title>
<path fill="none" stroke="black" d="M59.82,-91.75C54.08,-92.3 48.39,-92.84 45.15,-93.15"/>
</g>
<!-- n16 -->
<!-- junction -->
<g id="junction6" class="node">
<title>n16</title>
<ellipse fill="black" stroke="black" cx="121.71" cy="-82.95" rx="2.7" ry="2.7"/>
<text text-anchor="middle" x="113.76" y="-90.35" font-family="Serif" font-size="14.00">I₆</text>
</g>
<!-- n1&#45;&#45;n16 -->
<g id="edge16" class="edge">
<title>n1&#45;&#45;n16</title>
<path fill="none" stroke="black" d="M96.05,-87.09C104.7,-85.7 114.17,-84.17 118.81,-83.42"/>
</g>
<!-- n17 -->
<!-- junction -->
<g id="junction7" class="node">
<title>n17</title>
<ellipse fill="black" stroke="black" cx="78.06" cy="-42.8" rx="2.7" ry="2.7"/>
<text text-anchor="middle" x="71.61" y="-46.45" font-family="Serif" font-size="14.00">S</text>
</g>
<!-- n1&#45;&#45;n17 -->
<g id="edge19" class="edge">
<title>n1&#45;&#45;n17</title>
<path fill="none" stroke="black" d="M78.05,-71.62C78.05,-61.88 78.06,-50.9 78.06,-45.76"/>
</g>
<!-- n2 -->
<g id="box2" class="node">
<title>n2</title>
<ellipse fill="none" stroke="black" cx="86.65" cy="-94.51" rx="18" ry="18"/>
<text text-anchor="middle" x="86.65" y="-88.33" font-family="Serif" font-size="14.00">ir</text>
</g>
<!-- n2&#45;&#45;n11 -->
<g id="edge2" class="edge">
<title>n2&#45;&#45;n11</title>
<path fill="none" stroke="black" d="M72.83,-82.34C66.06,-76.38 58.61,-69.82 54.95,-66.6"/>
</g>
<!-- n2&#45;&#45;n12 -->
<g id="edge5" class="edge">
<title>n2&#45;&#45;n12</title>
<path fill="none" stroke="black" d="M73.29,-106.89C67.93,-111.86 62.32,-117.06 59.34,-119.83"/>
</g>
<!-- n2&#45;&#45;n13 -->
<g id="edge8" class="edge">
<title>n2&#45;&#45;n13</title>
<path fill="none" stroke="black" d="M102.23,-104.26C106.74,-107.08 111.15,-109.85 113.83,-111.53"/>
</g>
<!-- n2&#45;&#45;n14 -->
<g id="edge11" class="edge">
<title>n2&#45;&#45;n14</title>
<path fill="none" stroke="black" d="M87.7,-112.58C88.04,-118.51 88.39,-124.44 88.58,-127.82"/>
</g>
<!-- n2&#45;&#45;n15 -->
<g id="edge14" class="edge">
<title>n2&#45;&#45;n15</title>
<path fill="none" stroke="black" d="M68.16,-94.05C59.45,-93.83 49.97,-93.6 45.33,-93.49"/>
</g>
<!-- n2&#45;&#45;n16 -->
<g id="edge17" class="edge">
<title>n2&#45;&#45;n16</title>
<path fill="none" stroke="black" d="M104.18,-88.73C109.93,-86.83 115.68,-84.94 118.96,-83.86"/>
</g>
<!-- n18 -->
<!-- junction -->
<g id="junction8" class="node">
<title>n18</title>
<ellipse fill="black" stroke="black" cx="110.15" cy="-52.49" rx="2.7" ry="2.7"/>
<text text-anchor="middle" x="102.95" y="-56.14" font-family="Serif" font-size="14.00">R</text>
</g>
<!-- n2&#45;&#45;n18 -->
<g id="edge21" class="edge">
<title>n2&#45;&#45;n18</title>
<path fill="none" stroke="black" d="M95.67,-78.38C100.53,-69.68 106.07,-59.8 108.66,-55.16"/>
</g>
<!-- n3 -->
<!-- n3&#45;&#45;n11 -->
<g id="edge3" class="edge">
<title>n3&#45;&#45;n11</title>
<path fill="none" stroke="black" d="M18.44,-38.96C20.11,-40.21 42.49,-56.96 50.13,-62.69"/>
</g>
<!-- n4 -->
<!-- n4&#45;&#45;n12 -->
<g id="edge6" class="edge">
<title>n4&#45;&#45;n12</title>
<path fill="none" stroke="black" d="M30.67,-153.59C33.11,-150.67 49.68,-130.81 55.31,-124.07"/>
</g>
<!-- n5 -->
<!-- n5&#45;&#45;n13 -->
<g id="edge9" class="edge">
<title>n5&#45;&#45;n13</title>
<path fill="none" stroke="black" d="M150.57,-137.56C148.91,-136.37 126.58,-120.41 118.96,-114.96"/>
</g>
<!-- n6 -->
<!-- n6&#45;&#45;n14 -->
<g id="edge12" class="edge">
<title>n6&#45;&#45;n14</title>
<path fill="none" stroke="black" d="M94.26,-171.3C93.64,-166.75 90.27,-141.86 89.12,-133.44"/>
</g>
<!-- n7 -->
<!-- n7&#45;&#45;n15 -->
<g id="edge15" class="edge">
<title>n7&#45;&#45;n15</title>
<path fill="none" stroke="black" d="M0.48,-96.76C2.52,-96.6 29.96,-94.41 39.33,-93.66"/>
</g>
<!-- n8 -->
<!-- n8&#45;&#45;n16 -->
<g id="edge18" class="edge">
<title>n8&#45;&#45;n16</title>
<path fill="none" stroke="black" d="M164.11,-77.54C162.04,-77.81 134.32,-81.34 124.85,-82.55"/>
</g>
<!-- n9 -->
<!-- n9&#45;&#45;n17 -->
<g id="edge20" class="edge">
<title>n9&#45;&#45;n17</title>
<path fill="none" stroke="black" d="M72.68,-1.19C73.17,-5.02 76.54,-31.04 77.69,-39.87"/>
</g>
<!-- n10 -->
<!-- n10&#45;&#45;n18 -->
<g id="edge22" class="edge">
<title>n10&#45;&#45;n18</title>
<path fill="none" stroke="black" d="M135.72,-18.88C133.36,-21.97 117.38,-43 111.95,-50.13"/>
</g>
</g>
</svg>
