<?xml version="1.0" encoding="UTF-8" standalone="no"?>
<!DOCTYPE svg PUBLIC "-//W3C//DTD SVG 1.1//EN"
 "http://www.w3.org/Graphics/SVG/1.1/DTD/svg11.dtd">
<!-- Generated by graphviz version 11.0.0 (20240428.1522)
 -->
<!-- Title: G Pages: 1 -->
<svg width="239pt" height="236pt"
 viewBox="0.00 0.00 238.95 236.24" xmlns="http://www.w3.org/2000/svg" xmlns:xlink="http://www.w3.org/1999/xlink">
<g id="graph0" class="graph" transform="scale(1 1) rotate(0) translate(4 232.24)">
<title>G</title>
<polygon fill="white" stroke="none" points="-4,4 -4,-232.24 234.95,-232.24 234.95,4 -4,4"/>
<!-- n1 -->
<g id="box1" class="node">
<title>n1</title>
<ellipse fill="none" stroke="black" cx="92.93" cy="-139.31" rx="31.78" ry="18"/>
<text text-anchor="middle" x="92.93" y="-133.13" font-family="Serif" font-size="14.00">infection</text>
</g>
<!-- n14 -->
<!-- junction -->
<g id="junction1" class="node">
<title>n14</title>
<ellipse fill="black" stroke="black" cx="115.33" cy="-117.98" rx="2.7" ry="2.7"/>
<text text-anchor="middle" x="116.68" y="-101.98" font-family="Serif" font-size="14.00">I₁</text>
</g>
<!-- n1&#45;&#45;n14 -->
<g id="edge1" class="edge">
<title>n1&#45;&#45;n14</title>
<path fill="none" stroke="black" d="M118.86,-128.3C119.19,-125.66 118.73,-122.95 117.21,-120.43"/>
</g>
<!-- n1&#45;&#45;n14 -->
<g id="edge2" class="edge">
<title>n1&#45;&#45;n14</title>
<path fill="none" stroke="black" d="M92.88,-121.01C97.62,-114.93 106.19,-111.46 112.94,-115.95"/>
</g>
<!-- n1&#45;&#45;n14 -->
<g id="edge3" class="edge">
<title>n1&#45;&#45;n14</title>
<path fill="none" stroke="black" d="M109.21,-123.81C110.73,-122.36 112.09,-121.06 113.14,-120.06"/>
</g>
<!-- n20 -->
<!-- junction -->
<g id="junction7" class="node">
<title>n20</title>
<ellipse fill="black" stroke="black" cx="126.49" cy="-127.01" rx="2.7" ry="2.7"/>
<text text-anchor="middle" x="132.94" y="-125.26" font-family="Serif" font-size="14.00">S</text>
</g>
<!-- n1&#45;&#45;n20 -->
<g id="edge25" class="edge">
<title>n1&#45;&#45;n20</title>
<path fill="none" stroke="black" d="M120.02,-129.38C121.45,-128.85 122.72,-128.39 123.75,-128.01"/>
</g>
<!-- n2 -->
<g id="box2" class="node">
<title>n2</title>
<ellipse fill="none" stroke="black" cx="142.82" cy="-157.55" rx="31.78" ry="18"/>
<text text-anchor="middle" x="142.82" y="-151.38" font-family="Serif" font-size="14.00">infection</text>
</g>
<!-- n2&#45;&#45;n14 -->
<g id="edge4" class="edge">
<title>n2&#45;&#45;n14</title>
<path fill="none" stroke="black" d="M131,-140.54C125.65,-132.83 119.89,-124.55 117.08,-120.5"/>
</g>
<!-- n15 -->
<!-- junction -->
<g id="junction2" class="node">
<title>n15</title>
<ellipse fill="black" stroke="black" cx="169.96" cy="-190.35" rx="2.7" ry="2.7"/>
<text text-anchor="middle" x="162.01" y="-197.75" font-family="Serif" font-size="14.00">I₂</text>
</g>
<!-- n2&#45;&#45;n15 -->
<g id="edge10" class="edge">
<title>n2&#45;&#45;n15</title>
<path fill="none" stroke="black" d="M149.04,-175.52C154.63,-182.96 162.15,-189.98 166.93,-190.92"/>
</g>
<!-- n2&#45;&#45;n15 -->
<g id="edge11" class="edge">
<title>n2&#45;&#45;n15</title>
<path fill="none" stroke="black" d="M163.15,-171.59C167.62,-177.38 171.02,-183.55 171.08,-187.39"/>
</g>
<!-- n2&#45;&#45;n20 -->
<g id="edge26" class="edge">
<title>n2&#45;&#45;n20</title>
<path fill="none" stroke="black" d="M133.51,-140.14C131.34,-136.06 129.27,-132.2 127.95,-129.73"/>
</g>
<!-- n3 -->
<g id="box3" class="node">
<title>n3</title>
<ellipse fill="none" stroke="black" cx="125.62" cy="-81.76" rx="31.78" ry="18"/>
<text text-anchor="middle" x="125.62" y="-75.58" font-family="Serif" font-size="14.00">infection</text>
</g>
<!-- n3&#45;&#45;n14 -->
<g id="edge5" class="edge">
<title>n3&#45;&#45;n14</title>
<path fill="none" stroke="black" d="M120.48,-99.87C118.79,-105.81 117.1,-111.75 116.14,-115.14"/>
</g>
<!-- n16 -->
<!-- junction -->
<g id="junction3" class="node">
<title>n16</title>
<ellipse fill="black" stroke="black" cx="124.21" cy="-39.38" rx="2.7" ry="2.7"/>
<text text-anchor="middle" x="116.26" y="-46.78" font-family="Serif" font-size="14.00">I₃</text>
</g>
<!-- n3&#45;&#45;n16 -->
<g id="edge13" class="edge">
<title>n3&#45;&#45;n16</title>
<path fill="none" stroke="black" d="M131.7,-63.81C131.83,-54.36 130.1,-44.03 126.77,-40.58"/>
</g>
<!-- n3&#45;&#45;n16 -->
<g id="edge14" class="edge">
<title>n3&#45;&#45;n16</title>
<path fill="none" stroke="black" d="M118.33,-63.76C117.64,-54.44 118.71,-44.28 121.77,-40.71"/>
</g>
<!-- n3&#45;&#45;n20 -->
<g id="edge27" class="edge">
<title>n3&#45;&#45;n20</title>
<path fill="none" stroke="black" d="M125.98,-100.16C126.15,-109.17 126.34,-119.09 126.43,-123.97"/>
</g>
<!-- n4 -->
<g id="box4" class="node">
<title>n4</title>
<ellipse fill="none" stroke="black" cx="156.49" cy="-102.63" rx="31.78" ry="18"/>
<text text-anchor="middle" x="156.49" y="-96.45" font-family="Serif" font-size="14.00">infection</text>
</g>
<!-- n4&#45;&#45;n14 -->
<g id="edge6" class="edge">
<title>n4&#45;&#45;n14</title>
<path fill="none" stroke="black" d="M129.72,-112.61C125.06,-114.35 120.86,-115.92 118.22,-116.9"/>
</g>
<!-- n17 -->
<!-- junction -->
<g id="junction4" class="node">
<title>n17</title>
<ellipse fill="black" stroke="black" cx="195.42" cy="-86.4" rx="2.7" ry="2.7"/>
<text text-anchor="middle" x="187.47" y="-70.4" font-family="Serif" font-size="14.00">I₄</text>
</g>
<!-- n4&#45;&#45;n17 -->
<g id="edge16" class="edge">
<title>n4&#45;&#45;n17</title>
<path fill="none" stroke="black" d="M186.74,-96.69C190.78,-94.3 193.94,-91.72 195.13,-89.38"/>
</g>
<!-- n4&#45;&#45;n17 -->
<g id="edge17" class="edge">
<title>n4&#45;&#45;n17</title>
<path fill="none" stroke="black" d="M175.19,-87.55C182.37,-84.78 189.69,-83.26 193.32,-84.58"/>
</g>
<!-- n4&#45;&#45;n20 -->
<g id="edge28" class="edge">
<title>n4&#45;&#45;n20</title>
<path fill="none" stroke="black" d="M138,-117.65C134.34,-120.63 130.97,-123.37 128.83,-125.1"/>
</g>
<!-- n5 -->
<g id="box5" class="node">
<title>n5</title>
<ellipse fill="none" stroke="black" cx="79.01" cy="-114.88" rx="31.78" ry="18"/>
<text text-anchor="middle" x="79.01" y="-108.71" font-family="Serif" font-size="14.00">infection</text>
</g>
<!-- n5&#45;&#45;n14 -->
<g id="edge7" class="edge">
<title>n5&#45;&#45;n14</title>
<path fill="none" stroke="black" d="M110.88,-117.6C111.38,-117.64 111.86,-117.68 112.29,-117.72"/>
</g>
<!-- n18 -->
<!-- junction -->
<g id="junction5" class="node">
<title>n18</title>
<ellipse fill="black" stroke="black" cx="37.51" cy="-106.81" rx="2.7" ry="2.7"/>
<text text-anchor="middle" x="29.56" y="-114.21" font-family="Serif" font-size="14.00">I₅</text>
</g>
<!-- n5&#45;&#45;n18 -->
<g id="edge19" class="edge">
<title>n5&#45;&#45;n18</title>
<path fill="none" stroke="black" d="M54.22,-103.38C48.14,-102.67 42.54,-102.86 39.6,-104.38"/>
</g>
<!-- n5&#45;&#45;n18 -->
<g id="edge20" class="edge">
<title>n5&#45;&#45;n18</title>
<path fill="none" stroke="black" d="M46.85,-114.69C43.04,-113.27 39.96,-111.57 38.46,-109.75"/>
</g>
<!-- n5&#45;&#45;n20 -->
<g id="edge29" class="edge">
<title>n5&#45;&#45;n20</title>
<path fill="none" stroke="black" d="M108.27,-122.35C114.68,-123.99 120.53,-125.48 123.79,-126.31"/>
</g>
<!-- n6 -->
<g id="box6" class="node">
<title>n6</title>
<ellipse fill="none" stroke="black" cx="103.63" cy="-161.5" rx="31.78" ry="18"/>
<text text-anchor="middle" x="103.63" y="-155.33" font-family="Serif" font-size="14.00">infection</text>
</g>
<!-- n6&#45;&#45;n14 -->
<g id="edge8" class="edge">
<title>n6&#45;&#45;n14</title>
<path fill="none" stroke="black" d="M108.52,-143.3C110.83,-134.72 113.34,-125.4 114.56,-120.83"/>
</g>
<!-- n19 -->
<!-- junction -->
<g id="junction6" class="node">
<title>n19</title>
<ellipse fill="black" stroke="black" cx="80.55" cy="-196.62" rx="2.7" ry="2.7"/>
<text text-anchor="middle" x="72.6" y="-204.02" font-family="Serif" font-size="14.00">I₆</text>
</g>
<!-- n6&#45;&#45;n19 -->
<g id="edge22" class="edge">
<title>n6&#45;&#45;n19</title>
<path fill="none" stroke="black" d="M85.65,-176.59C81.5,-183.2 78.54,-190.27 79.15,-194.17"/>
</g>
<!-- n6&#45;&#45;n19 -->
<g id="edge23" class="edge">
<title>n6&#45;&#45;n19</title>
<path fill="none" stroke="black" d="M99.55,-179.85C94.88,-187.76 88.24,-195.45 83.62,-196.86"/>
</g>
<!-- n6&#45;&#45;n20 -->
<g id="edge30" class="edge">
<title>n6&#45;&#45;n20</title>
<path fill="none" stroke="black" d="M115.06,-144.25C118.99,-138.32 122.92,-132.4 124.99,-129.27"/>
</g>
<!-- n7 -->
<!-- n7&#45;&#45;n14 -->
<g id="edge9" class="edge">
<title>n7&#45;&#45;n14</title>
<path fill="none" stroke="black" d="M90.06,-84.91C92.38,-87.95 108.19,-108.63 113.55,-115.65"/>
</g>
<!-- n8 -->
<!-- n8&#45;&#45;n15 -->
<g id="edge12" class="edge">
<title>n8&#45;&#45;n15</title>
<path fill="none" stroke="black" d="M197.92,-216.76C195.4,-214.38 178.52,-198.43 172.28,-192.54"/>
</g>
<!-- n9 -->
<!-- n9&#45;&#45;n16 -->
<g id="edge15" class="edge">
<title>n9&#45;&#45;n16</title>
<path fill="none" stroke="black" d="M120.03,-1.39C120.49,-5.56 122.96,-28.04 123.87,-36.32"/>
</g>
<!-- n10 -->
<!-- n10&#45;&#45;n17 -->
<g id="edge18" class="edge">
<title>n10&#45;&#45;n17</title>
<path fill="none" stroke="black" d="M230.49,-70.15C228.78,-70.94 205.85,-81.57 198.02,-85.2"/>
</g>
<!-- n11 -->
<!-- n11&#45;&#45;n18 -->
<g id="edge21" class="edge">
<title>n11&#45;&#45;n18</title>
<path fill="none" stroke="black" d="M0.47,-96.27C2.27,-96.79 26.49,-103.67 34.77,-106.03"/>
</g>
<!-- n12 -->
<!-- n12&#45;&#45;n19 -->
<g id="edge24" class="edge">
<title>n12&#45;&#45;n19</title>
<path fill="none" stroke="black" d="M57.5,-227.17C59.58,-224.41 73.5,-205.97 78.65,-199.15"/>
</g>
<!-- n13 -->
<!-- n13&#45;&#45;n20 -->
<g id="edge31" class="edge">
<title>n13&#45;&#45;n20</title>
<path fill="none" stroke="black" d="M166.06,-137.5C164.13,-136.99 138.26,-130.13 129.43,-127.78"/>
</g>
</g>
</svg>
