<?xml version="1.0" encoding="UTF-8" standalone="no"?>
<!DOCTYPE svg PUBLIC "-//W3C//DTD SVG 1.1//EN"
 "http://www.w3.org/Graphics/SVG/1.1/DTD/svg11.dtd">
<!-- Generated by graphviz version 11.0.0 (20240428.1522)
 -->
<!-- Title: G Pages: 1 -->
<svg width="203pt" height="648pt"
 viewBox="0.00 0.00 202.98 648.07" xmlns="http://www.w3.org/2000/svg" xmlns:xlink="http://www.w3.org/1999/xlink">
<g id="graph0" class="graph" transform="scale(1 1) rotate(0) translate(4 644.07)">
<title>G</title>
<polygon fill="white" stroke="none" points="-4,4 -4,-644.07 198.98,-644.07 198.98,4 -4,4"/>
<!-- n1 -->
<g id="node1" class="node">
<title>n1</title>
<ellipse fill="#6c9ac3" stroke="#6c9ac3" cx="18" cy="-316.33" rx="18" ry="18"/>
<text text-anchor="middle" x="18" y="-311.28" font-family="Times,serif" font-size="14.00">S</text>
</g>
<!-- n8 -->
<g id="node8" class="node">
<title>n8</title>
<polygon fill="#e28f41" stroke="#e28f41" points="114.75,-379.33 78.75,-379.33 78.75,-343.33 114.75,-343.33 114.75,-379.33"/>
<text text-anchor="middle" x="96.75" y="-357.03" font-family="Times,serif" font-size="14.00">β₁</text>
</g>
<!-- n1&#45;&gt;n8 -->
<g id="edge22" class="edge">
<title>n1&#45;&gt;n8</title>
<path fill="none" stroke="black" d="M34.16,-325.22C44.03,-331.01 57.17,-338.72 68.79,-345.52"/>
<polygon fill="black" stroke="black" points="66.77,-348.4 77.17,-350.44 70.31,-342.36 66.77,-348.4"/>
<text text-anchor="middle" x="57.38" y="-342.53" font-family="Times,serif" font-size="14.00">1</text>
</g>
<!-- n9 -->
<g id="node9" class="node">
<title>n9</title>
<polygon fill="#e28f41" stroke="#e28f41" points="114.75,-599.33 78.75,-599.33 78.75,-563.33 114.75,-563.33 114.75,-599.33"/>
<text text-anchor="middle" x="96.75" y="-577.03" font-family="Times,serif" font-size="14.00">β₂</text>
</g>
<!-- n1&#45;&gt;n9 -->
<g id="edge10" class="edge">
<title>n1&#45;&gt;n9</title>
<path fill="none" stroke="black" d="M24.04,-333.72C36.96,-378.33 71.39,-497.22 87.38,-552.42"/>
<polygon fill="black" stroke="black" points="83.93,-553.1 90.07,-561.73 90.65,-551.15 83.93,-553.1"/>
<text text-anchor="middle" x="57.38" y="-459.53" font-family="Times,serif" font-size="14.00">1</text>
</g>
<!-- n10 -->
<g id="node10" class="node">
<title>n10</title>
<polygon fill="#e28f41" stroke="#e28f41" points="114.75,-479.33 78.75,-479.33 78.75,-443.33 114.75,-443.33 114.75,-479.33"/>
<text text-anchor="middle" x="96.75" y="-457.03" font-family="Times,serif" font-size="14.00">β₃</text>
</g>
<!-- n1&#45;&gt;n10 -->
<g id="edge23" class="edge">
<title>n1&#45;&gt;n10</title>
<path fill="none" stroke="black" d="M27.36,-332.13C40.22,-356.42 65.03,-403.3 80.97,-433.41"/>
<polygon fill="black" stroke="black" points="77.72,-434.76 85.5,-441.96 83.91,-431.48 77.72,-434.76"/>
<text text-anchor="middle" x="57.38" y="-395.53" font-family="Times,serif" font-size="14.00">1</text>
</g>
<!-- n11 -->
<g id="node11" class="node">
<title>n11</title>
<polygon fill="#e28f41" stroke="#e28f41" points="114.75,-309.33 78.75,-309.33 78.75,-273.33 114.75,-273.33 114.75,-309.33"/>
<text text-anchor="middle" x="96.75" y="-287.03" font-family="Times,serif" font-size="14.00">β₄</text>
</g>
<!-- n1&#45;&gt;n11 -->
<g id="edge14" class="edge">
<title>n1&#45;&gt;n11</title>
<path fill="none" stroke="black" d="M35.65,-310.91C45.01,-307.86 56.94,-303.98 67.7,-300.47"/>
<polygon fill="black" stroke="black" points="68.47,-303.9 76.89,-297.48 66.3,-297.25 68.47,-303.9"/>
<text text-anchor="middle" x="57.38" y="-307.53" font-family="Times,serif" font-size="14.00">1</text>
</g>
<!-- n12 -->
<g id="node12" class="node">
<title>n12</title>
<polygon fill="#e28f41" stroke="#e28f41" points="114.75,-222.33 78.75,-222.33 78.75,-186.33 114.75,-186.33 114.75,-222.33"/>
<text text-anchor="middle" x="96.75" y="-200.03" font-family="Times,serif" font-size="14.00">β₅</text>
</g>
<!-- n1&#45;&gt;n12 -->
<g id="edge2" class="edge">
<title>n1&#45;&gt;n12</title>
<path fill="none" stroke="black" d="M29.03,-301.69C41.08,-284.11 61.56,-254.23 76.66,-232.2"/>
<polygon fill="black" stroke="black" points="79.54,-234.18 82.31,-223.95 73.77,-230.22 79.54,-234.18"/>
<text text-anchor="middle" x="57.38" y="-266.53" font-family="Times,serif" font-size="14.00">1</text>
</g>
<!-- n13 -->
<g id="node13" class="node">
<title>n13</title>
<polygon fill="#e28f41" stroke="#e28f41" points="114.75,-102.33 78.75,-102.33 78.75,-66.33 114.75,-66.33 114.75,-102.33"/>
<text text-anchor="middle" x="96.75" y="-80.03" font-family="Times,serif" font-size="14.00">β₆</text>
</g>
<!-- n1&#45;&gt;n13 -->
<g id="edge5" class="edge">
<title>n1&#45;&gt;n13</title>
<path fill="none" stroke="black" d="M24.64,-299.27C37.66,-259.94 69.88,-162.52 86.1,-113.5"/>
<polygon fill="black" stroke="black" points="89.38,-114.72 89.2,-104.13 82.74,-112.53 89.38,-114.72"/>
<text text-anchor="middle" x="57.38" y="-209.53" font-family="Times,serif" font-size="14.00">1</text>
</g>
<!-- n2 -->
<g id="node2" class="node">
<title>n2</title>
<ellipse fill="#6c9ac3" stroke="#6c9ac3" cx="176.24" cy="-361.33" rx="18.74" ry="18.74"/>
<text text-anchor="middle" x="176.24" y="-357.03" font-family="Times,serif" font-size="14.00">I₁</text>
</g>
<!-- n2&#45;&gt;n8 -->
<g id="edge13" class="edge">
<title>n2&#45;&gt;n8</title>
<path fill="none" stroke="black" d="M157.47,-359.54C149.86,-358.96 140.87,-358.54 132.75,-358.83 130.69,-358.91 128.57,-359 126.43,-359.12"/>
<polygon fill="black" stroke="black" points="126.45,-355.61 116.69,-359.75 126.9,-362.6 126.45,-355.61"/>
<text text-anchor="middle" x="136.12" y="-361.53" font-family="Times,serif" font-size="14.00">1</text>
</g>
<!-- n3 -->
<g id="node3" class="node">
<title>n3</title>
<ellipse fill="#6c9ac3" stroke="#6c9ac3" cx="176.24" cy="-621.33" rx="18.74" ry="18.74"/>
<text text-anchor="middle" x="176.24" y="-617.03" font-family="Times,serif" font-size="14.00">I₂</text>
</g>
<!-- n3&#45;&gt;n9 -->
<g id="edge18" class="edge">
<title>n3&#45;&gt;n9</title>
<path fill="none" stroke="black" d="M160.26,-611.13C153.98,-607.06 146.53,-602.49 139.5,-598.83 135.11,-596.55 130.35,-594.33 125.67,-592.28"/>
<polygon fill="black" stroke="black" points="127.08,-589.08 116.5,-588.45 124.38,-595.54 127.08,-589.08"/>
<text text-anchor="middle" x="136.12" y="-601.53" font-family="Times,serif" font-size="14.00">1</text>
</g>
<!-- n4 -->
<g id="node4" class="node">
<title>n4</title>
<ellipse fill="#6c9ac3" stroke="#6c9ac3" cx="176.24" cy="-501.33" rx="18.74" ry="18.74"/>
<text text-anchor="middle" x="176.24" y="-497.03" font-family="Times,serif" font-size="14.00">I₃</text>
</g>
<!-- n4&#45;&gt;n10 -->
<g id="edge12" class="edge">
<title>n4&#45;&gt;n10</title>
<path fill="none" stroke="black" d="M157.15,-503.47C149.31,-503.65 140.24,-502.83 132.75,-499.33 126.96,-496.63 121.68,-492.49 117.08,-487.92"/>
<polygon fill="black" stroke="black" points="119.82,-485.73 110.56,-480.58 114.58,-490.38 119.82,-485.73"/>
<text text-anchor="middle" x="136.12" y="-504.53" font-family="Times,serif" font-size="14.00">1</text>
</g>
<!-- n5 -->
<g id="node5" class="node">
<title>n5</title>
<ellipse fill="#6c9ac3" stroke="#6c9ac3" cx="176.24" cy="-221.33" rx="18.74" ry="18.74"/>
<text text-anchor="middle" x="176.24" y="-217.03" font-family="Times,serif" font-size="14.00">I₄</text>
</g>
<!-- n5&#45;&gt;n11 -->
<g id="edge8" class="edge">
<title>n5&#45;&gt;n11</title>
<path fill="none" stroke="black" d="M163.18,-235.22C156.48,-242.65 147.83,-251.8 139.5,-259.33 134.67,-263.7 129.3,-268.11 124.06,-272.21"/>
<polygon fill="black" stroke="black" points="121.95,-269.41 116.11,-278.25 126.19,-274.98 121.95,-269.41"/>
<text text-anchor="middle" x="136.12" y="-267.53" font-family="Times,serif" font-size="14.00">1</text>
</g>
<!-- n6 -->
<g id="node6" class="node">
<title>n6</title>
<ellipse fill="#6c9ac3" stroke="#6c9ac3" cx="176.24" cy="-93.33" rx="18.74" ry="18.74"/>
<text text-anchor="middle" x="176.24" y="-89.03" font-family="Times,serif" font-size="14.00">I₅</text>
</g>
<!-- n6&#45;&gt;n12 -->
<g id="edge4" class="edge">
<title>n6&#45;&gt;n12</title>
<path fill="none" stroke="black" d="M159.82,-83.7C151.14,-79.61 140.52,-76.99 132.75,-82.83 117.99,-93.94 107.51,-142.97 102.06,-175.25"/>
<polygon fill="black" stroke="black" points="98.66,-174.36 100.52,-184.79 105.57,-175.48 98.66,-174.36"/>
<text text-anchor="middle" x="136.12" y="-86.53" font-family="Times,serif" font-size="14.00">1</text>
</g>
<!-- n7 -->
<g id="node7" class="node">
<title>n7</title>
<ellipse fill="#6c9ac3" stroke="#6c9ac3" cx="176.24" cy="-26.33" rx="18.74" ry="18.74"/>
<text text-anchor="middle" x="176.24" y="-22.03" font-family="Times,serif" font-size="14.00">I₆</text>
</g>
<!-- n7&#45;&gt;n13 -->
<g id="edge11" class="edge">
<title>n7&#45;&gt;n13</title>
<path fill="none" stroke="black" d="M157.72,-30.95C149.64,-33.61 140.22,-37.5 132.75,-42.83 127.15,-46.83 121.9,-51.93 117.25,-57.17"/>
<polygon fill="black" stroke="black" points="114.63,-54.84 111,-64.79 120.05,-59.28 114.63,-54.84"/>
<text text-anchor="middle" x="136.12" y="-46.53" font-family="Times,serif" font-size="14.00">1</text>
</g>
<!-- n8&#45;&gt;n2 -->
<g id="edge1" class="edge">
<title>n8&#45;&gt;n2</title>
<path fill="none" stroke="black" d="M114.92,-372.21C120.4,-375.11 126.64,-377.85 132.75,-379.33 138.63,-380.76 144.75,-379.77 150.44,-377.68"/>
<polygon fill="black" stroke="black" points="151.92,-380.85 159.34,-373.29 148.82,-374.57 151.92,-380.85"/>
<text text-anchor="middle" x="136.12" y="-382.53" font-family="Times,serif" font-size="14.00">2</text>
</g>
<!-- n9&#45;&gt;n2 -->
<g id="edge6" class="edge">
<title>n9&#45;&gt;n2</title>
<path fill="none" stroke="black" d="M113.74,-562.85C122.56,-551.77 132.99,-537.02 139.5,-522.33 158.72,-478.97 168.03,-424.31 172.21,-391.13"/>
<polygon fill="black" stroke="black" points="175.65,-391.79 173.35,-381.45 168.7,-390.97 175.65,-391.79"/>
<text text-anchor="middle" x="136.12" y="-537.53" font-family="Times,serif" font-size="14.00">1</text>
</g>
<!-- n9&#45;&gt;n3 -->
<g id="edge7" class="edge">
<title>n9&#45;&gt;n3</title>
<path fill="none" stroke="black" d="M109.56,-599.45C115.53,-607 123.48,-615.01 132.75,-619.33 136.85,-621.25 141.42,-622.36 146,-622.94"/>
<polygon fill="black" stroke="black" points="145.48,-626.42 155.63,-623.4 145.81,-619.43 145.48,-626.42"/>
<text text-anchor="middle" x="136.12" y="-624.53" font-family="Times,serif" font-size="14.00">1</text>
</g>
<!-- n10&#45;&gt;n2 -->
<g id="edge19" class="edge">
<title>n10&#45;&gt;n2</title>
<path fill="none" stroke="black" d="M111.96,-442.99C124.69,-426.57 143.41,-402.41 157.19,-384.63"/>
<polygon fill="black" stroke="black" points="159.6,-387.23 162.96,-377.18 154.07,-382.94 159.6,-387.23"/>
<text text-anchor="middle" x="136.12" y="-416.53" font-family="Times,serif" font-size="14.00">1</text>
</g>
<!-- n10&#45;&gt;n4 -->
<g id="edge20" class="edge">
<title>n10&#45;&gt;n4</title>
<path fill="none" stroke="black" d="M115.11,-467.86C122.72,-470.92 131.69,-474.77 139.5,-478.83 143.23,-480.77 147.09,-482.97 150.82,-485.22"/>
<polygon fill="black" stroke="black" points="148.64,-487.99 158.98,-490.33 152.36,-482.05 148.64,-487.99"/>
<text text-anchor="middle" x="136.12" y="-481.53" font-family="Times,serif" font-size="14.00">1</text>
</g>
<!-- n11&#45;&gt;n2 -->
<g id="edge3" class="edge">
<title>n11&#45;&gt;n2</title>
<path fill="none" stroke="black" d="M114.95,-306.87C126.28,-317.11 141.23,-330.61 153.41,-341.61"/>
<polygon fill="black" stroke="black" points="150.8,-343.97 160.57,-348.08 155.49,-338.78 150.8,-343.97"/>
<text text-anchor="middle" x="136.12" y="-331.53" font-family="Times,serif" font-size="14.00">1</text>
</g>
<!-- n11&#45;&gt;n5 -->
<g id="edge15" class="edge">
<title>n11&#45;&gt;n5</title>
<path fill="none" stroke="black" d="M103.05,-272.98C106.45,-261.11 110.93,-245.33 114.75,-231.33 123.04,-200.97 107.82,-182.06 132.75,-162.83 147.34,-151.58 159.17,-172.47 166.61,-192.34"/>
<polygon fill="black" stroke="black" points="163.24,-193.31 169.79,-201.64 169.86,-191.04 163.24,-193.31"/>
<text text-anchor="middle" x="136.12" y="-165.53" font-family="Times,serif" font-size="14.00">1</text>
</g>
<!-- n12&#45;&gt;n2 -->
<g id="edge21" class="edge">
<title>n12&#45;&gt;n2</title>
<path fill="none" stroke="black" d="M114.91,-214.92C123.42,-220.97 133.19,-229.25 139.5,-238.83 158.09,-267.08 167.21,-305.19 171.55,-331.36"/>
<polygon fill="black" stroke="black" points="168.05,-331.6 173,-340.97 174.97,-330.56 168.05,-331.6"/>
<text text-anchor="middle" x="136.12" y="-241.53" font-family="Times,serif" font-size="14.00">1</text>
</g>
<!-- n12&#45;&gt;n6 -->
<g id="edge16" class="edge">
<title>n12&#45;&gt;n6</title>
<path fill="none" stroke="black" d="M105.92,-186.08C112.36,-172.51 122.02,-153.83 132.75,-138.83 138.99,-130.12 146.77,-121.32 153.96,-113.82"/>
<polygon fill="black" stroke="black" points="156.4,-116.34 160.95,-106.77 151.42,-111.41 156.4,-116.34"/>
<text text-anchor="middle" x="136.12" y="-141.53" font-family="Times,serif" font-size="14.00">1</text>
</g>
<!-- n13&#45;&gt;n2 -->
<g id="edge17" class="edge">
<title>n13&#45;&gt;n2</title>
<path fill="none" stroke="black" d="M104.35,-102.46C113.05,-126.72 128.53,-171.18 139.5,-209.83 151.41,-251.84 162.52,-301.16 169.1,-331.84"/>
<polygon fill="black" stroke="black" points="165.66,-332.47 171.16,-341.53 172.5,-331.02 165.66,-332.47"/>
<text text-anchor="middle" x="136.12" y="-212.53" font-family="Times,serif" font-size="14.00">1</text>
</g>
<!-- n13&#45;&gt;n7 -->
<g id="edge9" class="edge">
<title>n13&#45;&gt;n7</title>
<path fill="none" stroke="black" d="M99.83,-66.06C103.13,-46.63 111.53,-16.81 132.75,-2.83 139.78,1.8 147.79,-0.76 154.94,-5.6"/>
<polygon fill="black" stroke="black" points="152.3,-7.96 162.24,-11.62 156.76,-2.56 152.3,-7.96"/>
<text text-anchor="middle" x="136.12" y="-6.53" font-family="Times,serif" font-size="14.00">1</text>
</g>
</g>
</svg>
