<?xml version="1.0" encoding="UTF-8" standalone="no"?>
<!DOCTYPE svg PUBLIC "-//W3C//DTD SVG 1.1//EN"
 "http://www.w3.org/Graphics/SVG/1.1/DTD/svg11.dtd">
<!-- Generated by graphviz version 11.0.0 (20240428.1522)
 -->
<!-- Title: G Pages: 1 -->
<svg width="203pt" height="408pt"
 viewBox="0.00 0.00 202.98 407.68" xmlns="http://www.w3.org/2000/svg" xmlns:xlink="http://www.w3.org/1999/xlink">
<g id="graph0" class="graph" transform="scale(1 1) rotate(0) translate(4 403.68)">
<title>G</title>
<polygon fill="white" stroke="none" points="-4,4 -4,-403.68 198.98,-403.68 198.98,4 -4,4"/>
<!-- n1 -->
<g id="node1" class="node">
<title>n1</title>
<ellipse fill="#6c9ac3" stroke="#6c9ac3" cx="18" cy="-195.94" rx="18" ry="18"/>
<text text-anchor="middle" x="18" y="-190.89" font-family="Times,serif" font-size="14.00">S</text>
</g>
<!-- n6 -->
<g id="node6" class="node">
<title>n6</title>
<polygon fill="#e28f41" stroke="#e28f41" points="114.75,-258.94 78.75,-258.94 78.75,-222.94 114.75,-222.94 114.75,-258.94"/>
<text text-anchor="middle" x="96.75" y="-236.64" font-family="Times,serif" font-size="14.00">β₁</text>
</g>
<!-- n1&#45;&gt;n6 -->
<g id="edge12" class="edge">
<title>n1&#45;&gt;n6</title>
<path fill="none" stroke="black" d="M34.16,-204.83C44.03,-210.62 57.17,-218.33 68.79,-225.13"/>
<polygon fill="black" stroke="black" points="66.77,-228.01 77.17,-230.05 70.31,-221.97 66.77,-228.01"/>
<text text-anchor="middle" x="57.38" y="-222.14" font-family="Times,serif" font-size="14.00">1</text>
</g>
<!-- n7 -->
<g id="node7" class="node">
<title>n7</title>
<polygon fill="#e28f41" stroke="#e28f41" points="114.75,-358.94 78.75,-358.94 78.75,-322.94 114.75,-322.94 114.75,-358.94"/>
<text text-anchor="middle" x="96.75" y="-336.64" font-family="Times,serif" font-size="14.00">β₂</text>
</g>
<!-- n1&#45;&gt;n7 -->
<g id="edge13" class="edge">
<title>n1&#45;&gt;n7</title>
<path fill="none" stroke="black" d="M27.36,-211.74C40.22,-236.03 65.03,-282.91 80.97,-313.02"/>
<polygon fill="black" stroke="black" points="77.72,-314.37 85.5,-321.57 83.91,-311.09 77.72,-314.37"/>
<text text-anchor="middle" x="57.38" y="-275.14" font-family="Times,serif" font-size="14.00">1</text>
</g>
<!-- n8 -->
<g id="node8" class="node">
<title>n8</title>
<polygon fill="#e28f41" stroke="#e28f41" points="114.75,-188.94 78.75,-188.94 78.75,-152.94 114.75,-152.94 114.75,-188.94"/>
<text text-anchor="middle" x="96.75" y="-166.64" font-family="Times,serif" font-size="14.00">β₃</text>
</g>
<!-- n1&#45;&gt;n8 -->
<g id="edge14" class="edge">
<title>n1&#45;&gt;n8</title>
<path fill="none" stroke="black" d="M35.65,-190.52C45.01,-187.47 56.94,-183.59 67.7,-180.08"/>
<polygon fill="black" stroke="black" points="68.47,-183.51 76.89,-177.09 66.3,-176.86 68.47,-183.51"/>
<text text-anchor="middle" x="57.38" y="-187.14" font-family="Times,serif" font-size="14.00">1</text>
</g>
<!-- n9 -->
<g id="node9" class="node">
<title>n9</title>
<polygon fill="#e28f41" stroke="#e28f41" points="114.75,-101.94 78.75,-101.94 78.75,-65.94 114.75,-65.94 114.75,-101.94"/>
<text text-anchor="middle" x="96.75" y="-79.64" font-family="Times,serif" font-size="14.00">β₄</text>
</g>
<!-- n1&#45;&gt;n9 -->
<g id="edge8" class="edge">
<title>n1&#45;&gt;n9</title>
<path fill="none" stroke="black" d="M29.03,-181.3C41.08,-163.72 61.56,-133.84 76.66,-111.81"/>
<polygon fill="black" stroke="black" points="79.54,-113.78 82.31,-103.56 73.77,-109.83 79.54,-113.78"/>
<text text-anchor="middle" x="57.38" y="-146.14" font-family="Times,serif" font-size="14.00">1</text>
</g>
<!-- n2 -->
<g id="node2" class="node">
<title>n2</title>
<ellipse fill="#6c9ac3" stroke="#6c9ac3" cx="176.24" cy="-240.94" rx="18.74" ry="18.74"/>
<text text-anchor="middle" x="176.24" y="-236.64" font-family="Times,serif" font-size="14.00">I₁</text>
</g>
<!-- n2&#45;&gt;n6 -->
<g id="edge6" class="edge">
<title>n2&#45;&gt;n6</title>
<path fill="none" stroke="black" d="M157.47,-239.15C149.86,-238.57 140.87,-238.15 132.75,-238.44 130.69,-238.52 128.57,-238.61 126.43,-238.73"/>
<polygon fill="black" stroke="black" points="126.45,-235.22 116.69,-239.36 126.9,-242.21 126.45,-235.22"/>
<text text-anchor="middle" x="136.12" y="-241.14" font-family="Times,serif" font-size="14.00">1</text>
</g>
<!-- n3 -->
<g id="node3" class="node">
<title>n3</title>
<ellipse fill="#6c9ac3" stroke="#6c9ac3" cx="176.24" cy="-380.94" rx="18.74" ry="18.74"/>
<text text-anchor="middle" x="176.24" y="-376.64" font-family="Times,serif" font-size="14.00">I₂</text>
</g>
<!-- n3&#45;&gt;n7 -->
<g id="edge1" class="edge">
<title>n3&#45;&gt;n7</title>
<path fill="none" stroke="black" d="M157.15,-383.08C149.31,-383.26 140.24,-382.44 132.75,-378.94 126.96,-376.24 121.68,-372.1 117.08,-367.53"/>
<polygon fill="black" stroke="black" points="119.82,-365.34 110.56,-360.19 114.58,-369.99 119.82,-365.34"/>
<text text-anchor="middle" x="136.12" y="-384.14" font-family="Times,serif" font-size="14.00">1</text>
</g>
<!-- n4 -->
<g id="node4" class="node">
<title>n4</title>
<ellipse fill="#6c9ac3" stroke="#6c9ac3" cx="176.24" cy="-93.94" rx="18.74" ry="18.74"/>
<text text-anchor="middle" x="176.24" y="-89.64" font-family="Times,serif" font-size="14.00">I₃</text>
</g>
<!-- n4&#45;&gt;n8 -->
<g id="edge10" class="edge">
<title>n4&#45;&gt;n8</title>
<path fill="none" stroke="black" d="M160.06,-84.07C151.46,-79.82 140.84,-76.94 132.75,-82.44 122.46,-89.44 112.17,-118.82 105.44,-141.83"/>
<polygon fill="black" stroke="black" points="102.1,-140.78 102.76,-151.36 108.83,-142.68 102.1,-140.78"/>
<text text-anchor="middle" x="136.12" y="-86.14" font-family="Times,serif" font-size="14.00">1</text>
</g>
<!-- n5 -->
<g id="node5" class="node">
<title>n5</title>
<ellipse fill="#6c9ac3" stroke="#6c9ac3" cx="176.24" cy="-26.94" rx="18.74" ry="18.74"/>
<text text-anchor="middle" x="176.24" y="-22.64" font-family="Times,serif" font-size="14.00">I₄</text>
</g>
<!-- n5&#45;&gt;n9 -->
<g id="edge4" class="edge">
<title>n5&#45;&gt;n9</title>
<path fill="none" stroke="black" d="M163.47,-12.74C154.82,-4.06 142.85,4.21 132.75,-2.44 115.26,-13.97 106.48,-36.25 102.08,-54.6"/>
<polygon fill="black" stroke="black" points="98.7,-53.69 100.13,-64.19 105.56,-55.09 98.7,-53.69"/>
<text text-anchor="middle" x="136.12" y="-6.14" font-family="Times,serif" font-size="14.00">1</text>
</g>
<!-- n6&#45;&gt;n2 -->
<g id="edge2" class="edge">
<title>n6&#45;&gt;n2</title>
<path fill="none" stroke="black" d="M114.92,-251.82C120.4,-254.72 126.64,-257.46 132.75,-258.94 138.63,-260.37 144.75,-259.38 150.44,-257.29"/>
<polygon fill="black" stroke="black" points="151.92,-260.46 159.34,-252.9 148.82,-254.18 151.92,-260.46"/>
<text text-anchor="middle" x="136.12" y="-262.14" font-family="Times,serif" font-size="14.00">2</text>
</g>
<!-- n7&#45;&gt;n2 -->
<g id="edge7" class="edge">
<title>n7&#45;&gt;n2</title>
<path fill="none" stroke="black" d="M111.96,-322.6C124.69,-306.18 143.41,-282.02 157.19,-264.24"/>
<polygon fill="black" stroke="black" points="159.6,-266.84 162.96,-256.79 154.07,-262.55 159.6,-266.84"/>
<text text-anchor="middle" x="136.12" y="-296.14" font-family="Times,serif" font-size="14.00">1</text>
</g>
<!-- n7&#45;&gt;n3 -->
<g id="edge9" class="edge">
<title>n7&#45;&gt;n3</title>
<path fill="none" stroke="black" d="M115.11,-347.47C122.72,-350.53 131.69,-354.38 139.5,-358.44 143.23,-360.38 147.09,-362.58 150.82,-364.83"/>
<polygon fill="black" stroke="black" points="148.64,-367.6 158.98,-369.94 152.36,-361.66 148.64,-367.6"/>
<text text-anchor="middle" x="136.12" y="-361.14" font-family="Times,serif" font-size="14.00">1</text>
</g>
<!-- n8&#45;&gt;n2 -->
<g id="edge15" class="edge">
<title>n8&#45;&gt;n2</title>
<path fill="none" stroke="black" d="M114.95,-186.48C126.28,-196.72 141.23,-210.22 153.41,-221.22"/>
<polygon fill="black" stroke="black" points="150.8,-223.58 160.57,-227.69 155.49,-218.39 150.8,-223.58"/>
<text text-anchor="middle" x="136.12" y="-211.14" font-family="Times,serif" font-size="14.00">1</text>
</g>
<!-- n8&#45;&gt;n4 -->
<g id="edge3" class="edge">
<title>n8&#45;&gt;n4</title>
<path fill="none" stroke="black" d="M115.18,-159.07C122.98,-153.39 132.08,-146.24 139.5,-138.94 145.96,-132.6 152.33,-125.1 157.86,-118.05"/>
<polygon fill="black" stroke="black" points="160.64,-120.18 163.9,-110.1 155.07,-115.95 160.64,-120.18"/>
<text text-anchor="middle" x="136.12" y="-147.14" font-family="Times,serif" font-size="14.00">1</text>
</g>
<!-- n9&#45;&gt;n2 -->
<g id="edge5" class="edge">
<title>n9&#45;&gt;n2</title>
<path fill="none" stroke="black" d="M114.91,-94.53C123.42,-100.58 133.19,-108.86 139.5,-118.44 158.09,-146.69 167.21,-184.8 171.55,-210.97"/>
<polygon fill="black" stroke="black" points="168.05,-211.21 173,-220.58 174.97,-210.17 168.05,-211.21"/>
<text text-anchor="middle" x="136.12" y="-121.14" font-family="Times,serif" font-size="14.00">1</text>
</g>
<!-- n9&#45;&gt;n5 -->
<g id="edge11" class="edge">
<title>n9&#45;&gt;n5</title>
<path fill="none" stroke="black" d="M109.98,-65.48C116.04,-57.5 123.94,-48.6 132.75,-42.44 137.07,-39.43 142.04,-36.93 147.02,-34.88"/>
<polygon fill="black" stroke="black" points="148.03,-38.24 156.29,-31.6 145.69,-31.64 148.03,-38.24"/>
<text text-anchor="middle" x="136.12" y="-46.14" font-family="Times,serif" font-size="14.00">1</text>
</g>
</g>
</svg>
