<?xml version="1.0" encoding="UTF-8" standalone="no"?>
<!DOCTYPE svg PUBLIC "-//W3C//DTD SVG 1.1//EN"
 "http://www.w3.org/Graphics/SVG/1.1/DTD/svg11.dtd">
<!-- Generated by graphviz version 11.0.0 (20240428.1522)
 -->
<!-- Title: G Pages: 1 -->
<svg width="680pt" height="45pt"
 viewBox="0.00 0.00 679.91 45.48" xmlns="http://www.w3.org/2000/svg" xmlns:xlink="http://www.w3.org/1999/xlink">
<g id="graph0" class="graph" transform="scale(1 1) rotate(0) translate(4 41.48)">
<title>G</title>
<polygon fill="white" stroke="none" points="-4,4 -4,-41.48 675.91,-41.48 675.91,4 -4,4"/>
<!-- n1 -->
<g id="node1" class="node">
<title>n1</title>
<ellipse fill="#6c9ac3" stroke="#6c9ac3" cx="18.74" cy="-18.74" rx="18.74" ry="18.74"/>
<text text-anchor="middle" x="18.74" y="-14.44" font-family="Times,serif" font-size="14.00">I₁</text>
</g>
<!-- n6 -->
<g id="node6" class="node">
<title>n6</title>
<polygon fill="#e28f41" stroke="#e28f41" points="116.23,-36.74 80.23,-36.74 80.23,-0.74 116.23,-0.74 116.23,-36.74"/>
<text text-anchor="middle" x="98.23" y="-14.44" font-family="Times,serif" font-size="14.00">δ₁</text>
</g>
<!-- n1&#45;&gt;n6 -->
<g id="edge3" class="edge">
<title>n1&#45;&gt;n6</title>
<path fill="none" stroke="black" d="M37.71,-18.74C46.84,-18.74 58.15,-18.74 68.45,-18.74"/>
<polygon fill="black" stroke="black" points="68.37,-22.24 78.37,-18.74 68.37,-15.24 68.37,-22.24"/>
<text text-anchor="middle" x="58.85" y="-21.94" font-family="Times,serif" font-size="14.00">1</text>
</g>
<!-- n2 -->
<g id="node2" class="node">
<title>n2</title>
<ellipse fill="#6c9ac3" stroke="#6c9ac3" cx="177.71" cy="-18.74" rx="18.74" ry="18.74"/>
<text text-anchor="middle" x="177.71" y="-14.44" font-family="Times,serif" font-size="14.00">I₂</text>
</g>
<!-- n7 -->
<g id="node7" class="node">
<title>n7</title>
<polygon fill="#e28f41" stroke="#e28f41" points="275.2,-36.74 239.2,-36.74 239.2,-0.74 275.2,-0.74 275.2,-36.74"/>
<text text-anchor="middle" x="257.2" y="-14.44" font-family="Times,serif" font-size="14.00">δ₂</text>
</g>
<!-- n2&#45;&gt;n7 -->
<g id="edge5" class="edge">
<title>n2&#45;&gt;n7</title>
<path fill="none" stroke="black" d="M196.69,-18.74C205.81,-18.74 217.12,-18.74 227.42,-18.74"/>
<polygon fill="black" stroke="black" points="227.35,-22.24 237.35,-18.74 227.35,-15.24 227.35,-22.24"/>
<text text-anchor="middle" x="217.83" y="-21.94" font-family="Times,serif" font-size="14.00">1</text>
</g>
<!-- n3 -->
<g id="node3" class="node">
<title>n3</title>
<ellipse fill="#6c9ac3" stroke="#6c9ac3" cx="336.69" cy="-18.74" rx="18.74" ry="18.74"/>
<text text-anchor="middle" x="336.69" y="-14.44" font-family="Times,serif" font-size="14.00">I₃</text>
</g>
<!-- n8 -->
<g id="node8" class="node">
<title>n8</title>
<polygon fill="#e28f41" stroke="#e28f41" points="434.18,-36.74 398.18,-36.74 398.18,-0.74 434.18,-0.74 434.18,-36.74"/>
<text text-anchor="middle" x="416.18" y="-14.44" font-family="Times,serif" font-size="14.00">δ₃</text>
</g>
<!-- n3&#45;&gt;n8 -->
<g id="edge6" class="edge">
<title>n3&#45;&gt;n8</title>
<path fill="none" stroke="black" d="M355.66,-18.74C364.79,-18.74 376.1,-18.74 386.4,-18.74"/>
<polygon fill="black" stroke="black" points="386.32,-22.24 396.32,-18.74 386.32,-15.24 386.32,-22.24"/>
<text text-anchor="middle" x="376.8" y="-21.94" font-family="Times,serif" font-size="14.00">1</text>
</g>
<!-- n4 -->
<g id="node4" class="node">
<title>n4</title>
<ellipse fill="#6c9ac3" stroke="#6c9ac3" cx="495.67" cy="-18.74" rx="18.74" ry="18.74"/>
<text text-anchor="middle" x="495.67" y="-14.44" font-family="Times,serif" font-size="14.00">I₄</text>
</g>
<!-- n9 -->
<g id="node9" class="node">
<title>n9</title>
<polygon fill="#e28f41" stroke="#e28f41" points="593.16,-36.74 557.16,-36.74 557.16,-0.74 593.16,-0.74 593.16,-36.74"/>
<text text-anchor="middle" x="575.16" y="-14.44" font-family="Times,serif" font-size="14.00">δ₄</text>
</g>
<!-- n4&#45;&gt;n9 -->
<g id="edge7" class="edge">
<title>n4&#45;&gt;n9</title>
<path fill="none" stroke="black" d="M514.64,-18.74C523.77,-18.74 535.08,-18.74 545.38,-18.74"/>
<polygon fill="black" stroke="black" points="545.3,-22.24 555.3,-18.74 545.3,-15.24 545.3,-22.24"/>
<text text-anchor="middle" x="535.78" y="-21.94" font-family="Times,serif" font-size="14.00">1</text>
</g>
<!-- n5 -->
<g id="node5" class="node">
<title>n5</title>
<ellipse fill="#6c9ac3" stroke="#6c9ac3" cx="653.91" cy="-18.74" rx="18" ry="18"/>
<text text-anchor="middle" x="653.91" y="-13.69" font-family="Times,serif" font-size="14.00">R</text>
</g>
<!-- n6&#45;&gt;n2 -->
<g id="edge1" class="edge">
<title>n6&#45;&gt;n2</title>
<path fill="none" stroke="black" d="M116.42,-18.74C125.49,-18.74 136.88,-18.74 147.3,-18.74"/>
<polygon fill="black" stroke="black" points="146.97,-22.24 156.97,-18.74 146.97,-15.24 146.97,-22.24"/>
<text text-anchor="middle" x="137.6" y="-21.94" font-family="Times,serif" font-size="14.00">1</text>
</g>
<!-- n7&#45;&gt;n3 -->
<g id="edge8" class="edge">
<title>n7&#45;&gt;n3</title>
<path fill="none" stroke="black" d="M275.4,-18.74C284.47,-18.74 295.85,-18.74 306.28,-18.74"/>
<polygon fill="black" stroke="black" points="305.95,-22.24 315.95,-18.74 305.95,-15.24 305.95,-22.24"/>
<text text-anchor="middle" x="296.58" y="-21.94" font-family="Times,serif" font-size="14.00">1</text>
</g>
<!-- n8&#45;&gt;n4 -->
<g id="edge4" class="edge">
<title>n8&#45;&gt;n4</title>
<path fill="none" stroke="black" d="M434.38,-18.74C443.45,-18.74 454.83,-18.74 465.25,-18.74"/>
<polygon fill="black" stroke="black" points="464.93,-22.24 474.93,-18.74 464.93,-15.24 464.93,-22.24"/>
<text text-anchor="middle" x="455.55" y="-21.94" font-family="Times,serif" font-size="14.00">1</text>
</g>
<!-- n9&#45;&gt;n5 -->
<g id="edge2" class="edge">
<title>n9&#45;&gt;n5</title>
<path fill="none" stroke="black" d="M593.57,-18.74C602.6,-18.74 613.86,-18.74 624.14,-18.74"/>
<polygon fill="black" stroke="black" points="624.05,-22.24 634.05,-18.74 624.05,-15.24 624.05,-22.24"/>
<text text-anchor="middle" x="614.53" y="-21.94" font-family="Times,serif" font-size="14.00">1</text>
</g>
</g>
</svg>
