<?xml version="1.0" encoding="UTF-8" standalone="no"?>
<!DOCTYPE svg PUBLIC "-//W3C//DTD SVG 1.1//EN"
 "http://www.w3.org/Graphics/SVG/1.1/DTD/svg11.dtd">
<!-- Generated by graphviz version 11.0.0 (20240428.1522)
 -->
<!-- Title: G Pages: 1 -->
<svg width="998pt" height="45pt"
 viewBox="0.00 0.00 997.86 45.48" xmlns="http://www.w3.org/2000/svg" xmlns:xlink="http://www.w3.org/1999/xlink">
<g id="graph0" class="graph" transform="scale(1 1) rotate(0) translate(4 41.48)">
<title>G</title>
<polygon fill="white" stroke="none" points="-4,4 -4,-41.48 993.86,-41.48 993.86,4 -4,4"/>
<!-- n1 -->
<g id="node1" class="node">
<title>n1</title>
<ellipse fill="#6c9ac3" stroke="#6c9ac3" cx="18.74" cy="-18.74" rx="18.74" ry="18.74"/>
<text text-anchor="middle" x="18.74" y="-14.44" font-family="Times,serif" font-size="14.00">I₁</text>
</g>
<!-- n8 -->
<g id="node8" class="node">
<title>n8</title>
<polygon fill="#e28f41" stroke="#e28f41" points="116.23,-36.74 80.23,-36.74 80.23,-0.74 116.23,-0.74 116.23,-36.74"/>
<text text-anchor="middle" x="98.23" y="-14.44" font-family="Times,serif" font-size="14.00">δ₁</text>
</g>
<!-- n1&#45;&gt;n8 -->
<g id="edge11" class="edge">
<title>n1&#45;&gt;n8</title>
<path fill="none" stroke="black" d="M37.71,-18.74C46.84,-18.74 58.15,-18.74 68.45,-18.74"/>
<polygon fill="black" stroke="black" points="68.37,-22.24 78.37,-18.74 68.37,-15.24 68.37,-22.24"/>
<text text-anchor="middle" x="58.85" y="-21.94" font-family="Times,serif" font-size="14.00">1</text>
</g>
<!-- n2 -->
<g id="node2" class="node">
<title>n2</title>
<ellipse fill="#6c9ac3" stroke="#6c9ac3" cx="177.71" cy="-18.74" rx="18.74" ry="18.74"/>
<text text-anchor="middle" x="177.71" y="-14.44" font-family="Times,serif" font-size="14.00">I₂</text>
</g>
<!-- n9 -->
<g id="node9" class="node">
<title>n9</title>
<polygon fill="#e28f41" stroke="#e28f41" points="275.2,-36.74 239.2,-36.74 239.2,-0.74 275.2,-0.74 275.2,-36.74"/>
<text text-anchor="middle" x="257.2" y="-14.44" font-family="Times,serif" font-size="14.00">δ₂</text>
</g>
<!-- n2&#45;&gt;n9 -->
<g id="edge1" class="edge">
<title>n2&#45;&gt;n9</title>
<path fill="none" stroke="black" d="M196.69,-18.74C205.81,-18.74 217.12,-18.74 227.42,-18.74"/>
<polygon fill="black" stroke="black" points="227.35,-22.24 237.35,-18.74 227.35,-15.24 227.35,-22.24"/>
<text text-anchor="middle" x="217.83" y="-21.94" font-family="Times,serif" font-size="14.00">1</text>
</g>
<!-- n3 -->
<g id="node3" class="node">
<title>n3</title>
<ellipse fill="#6c9ac3" stroke="#6c9ac3" cx="336.69" cy="-18.74" rx="18.74" ry="18.74"/>
<text text-anchor="middle" x="336.69" y="-14.44" font-family="Times,serif" font-size="14.00">I₃</text>
</g>
<!-- n10 -->
<g id="node10" class="node">
<title>n10</title>
<polygon fill="#e28f41" stroke="#e28f41" points="434.18,-36.74 398.18,-36.74 398.18,-0.74 434.18,-0.74 434.18,-36.74"/>
<text text-anchor="middle" x="416.18" y="-14.44" font-family="Times,serif" font-size="14.00">δ₃</text>
</g>
<!-- n3&#45;&gt;n10 -->
<g id="edge3" class="edge">
<title>n3&#45;&gt;n10</title>
<path fill="none" stroke="black" d="M355.66,-18.74C364.79,-18.74 376.1,-18.74 386.4,-18.74"/>
<polygon fill="black" stroke="black" points="386.32,-22.24 396.32,-18.74 386.32,-15.24 386.32,-22.24"/>
<text text-anchor="middle" x="376.8" y="-21.94" font-family="Times,serif" font-size="14.00">1</text>
</g>
<!-- n4 -->
<g id="node4" class="node">
<title>n4</title>
<ellipse fill="#6c9ac3" stroke="#6c9ac3" cx="495.67" cy="-18.74" rx="18.74" ry="18.74"/>
<text text-anchor="middle" x="495.67" y="-14.44" font-family="Times,serif" font-size="14.00">I₄</text>
</g>
<!-- n11 -->
<g id="node11" class="node">
<title>n11</title>
<polygon fill="#e28f41" stroke="#e28f41" points="593.16,-36.74 557.16,-36.74 557.16,-0.74 593.16,-0.74 593.16,-36.74"/>
<text text-anchor="middle" x="575.16" y="-14.44" font-family="Times,serif" font-size="14.00">δ₄</text>
</g>
<!-- n4&#45;&gt;n11 -->
<g id="edge2" class="edge">
<title>n4&#45;&gt;n11</title>
<path fill="none" stroke="black" d="M514.64,-18.74C523.77,-18.74 535.08,-18.74 545.38,-18.74"/>
<polygon fill="black" stroke="black" points="545.3,-22.24 555.3,-18.74 545.3,-15.24 545.3,-22.24"/>
<text text-anchor="middle" x="535.78" y="-21.94" font-family="Times,serif" font-size="14.00">1</text>
</g>
<!-- n5 -->
<g id="node5" class="node">
<title>n5</title>
<ellipse fill="#6c9ac3" stroke="#6c9ac3" cx="654.64" cy="-18.74" rx="18.74" ry="18.74"/>
<text text-anchor="middle" x="654.64" y="-14.44" font-family="Times,serif" font-size="14.00">I₅</text>
</g>
<!-- n12 -->
<g id="node12" class="node">
<title>n12</title>
<polygon fill="#e28f41" stroke="#e28f41" points="752.13,-36.74 716.13,-36.74 716.13,-0.74 752.13,-0.74 752.13,-36.74"/>
<text text-anchor="middle" x="734.13" y="-14.44" font-family="Times,serif" font-size="14.00">δ₅</text>
</g>
<!-- n5&#45;&gt;n12 -->
<g id="edge10" class="edge">
<title>n5&#45;&gt;n12</title>
<path fill="none" stroke="black" d="M673.62,-18.74C682.74,-18.74 694.05,-18.74 704.35,-18.74"/>
<polygon fill="black" stroke="black" points="704.28,-22.24 714.28,-18.74 704.28,-15.24 704.28,-22.24"/>
<text text-anchor="middle" x="694.76" y="-21.94" font-family="Times,serif" font-size="14.00">1</text>
</g>
<!-- n6 -->
<g id="node6" class="node">
<title>n6</title>
<ellipse fill="#6c9ac3" stroke="#6c9ac3" cx="813.62" cy="-18.74" rx="18.74" ry="18.74"/>
<text text-anchor="middle" x="813.62" y="-14.44" font-family="Times,serif" font-size="14.00">I₆</text>
</g>
<!-- n13 -->
<g id="node13" class="node">
<title>n13</title>
<polygon fill="#e28f41" stroke="#e28f41" points="911.11,-36.74 875.11,-36.74 875.11,-0.74 911.11,-0.74 911.11,-36.74"/>
<text text-anchor="middle" x="893.11" y="-14.44" font-family="Times,serif" font-size="14.00">δ₆</text>
</g>
<!-- n6&#45;&gt;n13 -->
<g id="edge4" class="edge">
<title>n6&#45;&gt;n13</title>
<path fill="none" stroke="black" d="M832.59,-18.74C841.72,-18.74 853.03,-18.74 863.33,-18.74"/>
<polygon fill="black" stroke="black" points="863.25,-22.24 873.25,-18.74 863.25,-15.24 863.25,-22.24"/>
<text text-anchor="middle" x="853.73" y="-21.94" font-family="Times,serif" font-size="14.00">1</text>
</g>
<!-- n7 -->
<g id="node7" class="node">
<title>n7</title>
<ellipse fill="#6c9ac3" stroke="#6c9ac3" cx="971.86" cy="-18.74" rx="18" ry="18"/>
<text text-anchor="middle" x="971.86" y="-13.69" font-family="Times,serif" font-size="14.00">R</text>
</g>
<!-- n8&#45;&gt;n2 -->
<g id="edge12" class="edge">
<title>n8&#45;&gt;n2</title>
<path fill="none" stroke="black" d="M116.42,-18.74C125.49,-18.74 136.88,-18.74 147.3,-18.74"/>
<polygon fill="black" stroke="black" points="146.97,-22.24 156.97,-18.74 146.97,-15.24 146.97,-22.24"/>
<text text-anchor="middle" x="137.6" y="-21.94" font-family="Times,serif" font-size="14.00">1</text>
</g>
<!-- n9&#45;&gt;n3 -->
<g id="edge5" class="edge">
<title>n9&#45;&gt;n3</title>
<path fill="none" stroke="black" d="M275.4,-18.74C284.47,-18.74 295.85,-18.74 306.28,-18.74"/>
<polygon fill="black" stroke="black" points="305.95,-22.24 315.95,-18.74 305.95,-15.24 305.95,-22.24"/>
<text text-anchor="middle" x="296.58" y="-21.94" font-family="Times,serif" font-size="14.00">1</text>
</g>
<!-- n10&#45;&gt;n4 -->
<g id="edge9" class="edge">
<title>n10&#45;&gt;n4</title>
<path fill="none" stroke="black" d="M434.38,-18.74C443.45,-18.74 454.83,-18.74 465.25,-18.74"/>
<polygon fill="black" stroke="black" points="464.93,-22.24 474.93,-18.74 464.93,-15.24 464.93,-22.24"/>
<text text-anchor="middle" x="455.55" y="-21.94" font-family="Times,serif" font-size="14.00">1</text>
</g>
<!-- n11&#45;&gt;n5 -->
<g id="edge8" class="edge">
<title>n11&#45;&gt;n5</title>
<path fill="none" stroke="black" d="M593.35,-18.74C602.42,-18.74 613.81,-18.74 624.23,-18.74"/>
<polygon fill="black" stroke="black" points="623.9,-22.24 633.9,-18.74 623.9,-15.24 623.9,-22.24"/>
<text text-anchor="middle" x="614.53" y="-21.94" font-family="Times,serif" font-size="14.00">1</text>
</g>
<!-- n12&#45;&gt;n6 -->
<g id="edge7" class="edge">
<title>n12&#45;&gt;n6</title>
<path fill="none" stroke="black" d="M752.33,-18.74C761.4,-18.74 772.78,-18.74 783.21,-18.74"/>
<polygon fill="black" stroke="black" points="782.88,-22.24 792.88,-18.74 782.88,-15.24 782.88,-22.24"/>
<text text-anchor="middle" x="773.51" y="-21.94" font-family="Times,serif" font-size="14.00">1</text>
</g>
<!-- n13&#45;&gt;n7 -->
<g id="edge6" class="edge">
<title>n13&#45;&gt;n7</title>
<path fill="none" stroke="black" d="M911.53,-18.74C920.55,-18.74 931.81,-18.74 942.09,-18.74"/>
<polygon fill="black" stroke="black" points="942,-22.24 952,-18.74 942,-15.24 942,-22.24"/>
<text text-anchor="middle" x="932.48" y="-21.94" font-family="Times,serif" font-size="14.00">1</text>
</g>
</g>
</svg>
