<?xml version="1.0" encoding="UTF-8" standalone="no"?>
<!DOCTYPE svg PUBLIC "-//W3C//DTD SVG 1.1//EN"
 "http://www.w3.org/Graphics/SVG/1.1/DTD/svg11.dtd">
<!-- Generated by graphviz version 11.0.0 (20240428.1522)
 -->
<!-- Title: G Pages: 1 -->
<svg width="362pt" height="102pt"
 viewBox="0.00 0.00 362.25 101.75" xmlns="http://www.w3.org/2000/svg" xmlns:xlink="http://www.w3.org/1999/xlink">
<g id="graph0" class="graph" transform="scale(1 1) rotate(0) translate(4 97.75)">
<title>G</title>
<polygon fill="white" stroke="none" points="-4,4 -4,-97.75 358.25,-97.75 358.25,4 -4,4"/>
<!-- n1 -->
<g id="node1" class="node">
<title>n1</title>
<ellipse fill="#6c9ac3" stroke="#6c9ac3" cx="18" cy="-39.62" rx="18" ry="18"/>
<text text-anchor="middle" x="18" y="-34.58" font-family="Times,serif" font-size="14.00">I</text>
</g>
<!-- n4 -->
<g id="node4" class="node">
<title>n4</title>
<polygon fill="#e28f41" stroke="#e28f41" points="114.75,-57.62 78.75,-57.62 78.75,-21.62 114.75,-21.62 114.75,-57.62"/>
<text text-anchor="middle" x="96.75" y="-34.58" font-family="Times,serif" font-size="14.00">η</text>
</g>
<!-- n1&#45;&gt;n4 -->
<g id="edge4" class="edge">
<title>n1&#45;&gt;n4</title>
<path fill="none" stroke="black" d="M36.42,-39.62C45.44,-39.62 56.7,-39.62 66.98,-39.62"/>
<polygon fill="black" stroke="black" points="66.89,-43.13 76.89,-39.63 66.89,-36.13 66.89,-43.13"/>
<text text-anchor="middle" x="57.38" y="-42.83" font-family="Times,serif" font-size="14.00">1</text>
</g>
<!-- n2 -->
<g id="node2" class="node">
<title>n2</title>
<ellipse fill="#6c9ac3" stroke="#6c9ac3" cx="175.5" cy="-39.62" rx="18" ry="18"/>
<text text-anchor="middle" x="175.5" y="-34.58" font-family="Times,serif" font-size="14.00">H</text>
</g>
<!-- n5 -->
<g id="node5" class="node">
<title>n5</title>
<polygon fill="#e28f41" stroke="#e28f41" points="274,-93.75 237.75,-93.75 237.75,-57.5 274,-57.5 274,-93.75"/>
<text text-anchor="middle" x="255.88" y="-70.58" font-family="Times,serif" font-size="14.00">γₕ</text>
</g>
<!-- n2&#45;&gt;n5 -->
<g id="edge1" class="edge">
<title>n2&#45;&gt;n5</title>
<path fill="none" stroke="black" d="M192.36,-46.91C202.36,-51.5 215.55,-57.56 227.23,-62.93"/>
<polygon fill="black" stroke="black" points="225.48,-65.97 236.03,-66.97 228.4,-59.61 225.48,-65.97"/>
<text text-anchor="middle" x="214.88" y="-61.83" font-family="Times,serif" font-size="14.00">1</text>
</g>
<!-- n6 -->
<g id="node6" class="node">
<title>n6</title>
<polygon fill="#e28f41" stroke="#e28f41" points="275.5,-39.25 236.25,-39.25 236.25,0 275.5,0 275.5,-39.25"/>
<text text-anchor="middle" x="255.88" y="-14.57" font-family="Times,serif" font-size="14.00">ωₕ</text>
</g>
<!-- n2&#45;&gt;n6 -->
<g id="edge5" class="edge">
<title>n2&#45;&gt;n6</title>
<path fill="none" stroke="black" d="M193.16,-34.35C198.94,-32.59 205.48,-30.68 211.5,-29.12 215.83,-28 220.42,-26.9 224.93,-25.87"/>
<polygon fill="black" stroke="black" points="225.31,-29.37 234.32,-23.8 223.8,-22.54 225.31,-29.37"/>
<text text-anchor="middle" x="214.88" y="-31.82" font-family="Times,serif" font-size="14.00">1</text>
</g>
<!-- n3 -->
<g id="node3" class="node">
<title>n3</title>
<ellipse fill="#6c9ac3" stroke="#6c9ac3" cx="336.25" cy="-75.62" rx="18" ry="18"/>
<text text-anchor="middle" x="336.25" y="-70.58" font-family="Times,serif" font-size="14.00">R</text>
</g>
<!-- n4&#45;&gt;n2 -->
<g id="edge2" class="edge">
<title>n4&#45;&gt;n2</title>
<path fill="none" stroke="black" d="M115.17,-39.62C124.19,-39.62 135.45,-39.62 145.73,-39.62"/>
<polygon fill="black" stroke="black" points="145.64,-43.13 155.64,-39.63 145.64,-36.13 145.64,-43.13"/>
<text text-anchor="middle" x="136.12" y="-42.83" font-family="Times,serif" font-size="14.00">1</text>
</g>
<!-- n5&#45;&gt;n3 -->
<g id="edge3" class="edge">
<title>n5&#45;&gt;n3</title>
<path fill="none" stroke="black" d="M274.27,-75.62C283.71,-75.62 295.61,-75.62 306.4,-75.62"/>
<polygon fill="black" stroke="black" points="306.39,-79.13 316.39,-75.63 306.39,-72.13 306.39,-79.13"/>
<text text-anchor="middle" x="296.88" y="-78.83" font-family="Times,serif" font-size="14.00">1</text>
</g>
</g>
</svg>
