<?xml version="1.0" encoding="UTF-8" standalone="no"?>
<!DOCTYPE svg PUBLIC "-//W3C//DTD SVG 1.1//EN"
 "http://www.w3.org/Graphics/SVG/1.1/DTD/svg11.dtd">
<!-- Generated by graphviz version 11.0.0 (20240428.1522)
 -->
<!-- Title: G Pages: 1 -->
<svg width="549pt" height="148pt"
 viewBox="0.00 0.00 549.00 147.62" xmlns="http://www.w3.org/2000/svg" xmlns:xlink="http://www.w3.org/1999/xlink">
<g id="graph0" class="graph" transform="scale(1 1) rotate(0) translate(4 143.62)">
<title>G</title>
<polygon fill="white" stroke="none" points="-4,4 -4,-143.62 545,-143.62 545,4 -4,4"/>
<!-- n1 -->
<g id="node1" class="node">
<title>n1</title>
<ellipse fill="#6c9ac3" stroke="#6c9ac3" cx="18" cy="-75.62" rx="18" ry="18"/>
<text text-anchor="middle" x="18" y="-70.58" font-family="Times,serif" font-size="14.00">S</text>
</g>
<!-- n5 -->
<g id="node5" class="node">
<title>n5</title>
<polygon fill="#e28f41" stroke="#e28f41" points="114.75,-93.62 78.75,-93.62 78.75,-57.62 114.75,-57.62 114.75,-93.62"/>
<text text-anchor="middle" x="96.75" y="-70.58" font-family="Times,serif" font-size="14.00">β</text>
</g>
<!-- n1&#45;&gt;n5 -->
<g id="edge6" class="edge">
<title>n1&#45;&gt;n5</title>
<path fill="none" stroke="black" d="M36.42,-75.62C45.44,-75.62 56.7,-75.62 66.98,-75.62"/>
<polygon fill="black" stroke="black" points="66.89,-79.13 76.89,-75.63 66.89,-72.13 66.89,-79.13"/>
<text text-anchor="middle" x="57.38" y="-78.83" font-family="Times,serif" font-size="14.00">1</text>
</g>
<!-- n2 -->
<g id="node2" class="node">
<title>n2</title>
<ellipse fill="#6c9ac3" stroke="#6c9ac3" cx="175.5" cy="-75.62" rx="18" ry="18"/>
<text text-anchor="middle" x="175.5" y="-70.58" font-family="Times,serif" font-size="14.00">I</text>
</g>
<!-- n2&#45;&gt;n5 -->
<g id="edge1" class="edge">
<title>n2&#45;&gt;n5</title>
<path fill="none" stroke="black" d="M161.01,-64.54C153.04,-59.31 142.6,-54.68 132.75,-57.12 130.31,-57.73 127.85,-58.54 125.44,-59.48"/>
<polygon fill="black" stroke="black" points="124.18,-56.2 116.61,-63.61 127.15,-62.54 124.18,-56.2"/>
<text text-anchor="middle" x="136.12" y="-60.83" font-family="Times,serif" font-size="14.00">1</text>
</g>
<!-- n6 -->
<g id="node6" class="node">
<title>n6</title>
<polygon fill="#e28f41" stroke="#e28f41" points="326.25,-139.62 290.25,-139.62 290.25,-103.62 326.25,-103.62 326.25,-139.62"/>
<text text-anchor="middle" x="308.25" y="-116.58" font-family="Times,serif" font-size="14.00">γ</text>
</g>
<!-- n2&#45;&gt;n6 -->
<g id="edge4" class="edge">
<title>n2&#45;&gt;n6</title>
<path fill="none" stroke="black" d="M191.08,-85.02C197.21,-88.68 204.53,-92.7 211.5,-95.62 233.33,-104.79 259.33,-111.61 278.72,-115.96"/>
<polygon fill="black" stroke="black" points="277.85,-119.35 288.36,-118.03 279.32,-112.51 277.85,-119.35"/>
<text text-anchor="middle" x="214.88" y="-101.83" font-family="Times,serif" font-size="14.00">1</text>
</g>
<!-- n7 -->
<g id="node7" class="node">
<title>n7</title>
<polygon fill="#e28f41" stroke="#e28f41" points="272.25,-93.62 236.25,-93.62 236.25,-57.62 272.25,-57.62 272.25,-93.62"/>
<text text-anchor="middle" x="254.25" y="-70.58" font-family="Times,serif" font-size="14.00">η</text>
</g>
<!-- n2&#45;&gt;n7 -->
<g id="edge5" class="edge">
<title>n2&#45;&gt;n7</title>
<path fill="none" stroke="black" d="M193.92,-75.62C202.94,-75.62 214.2,-75.62 224.48,-75.62"/>
<polygon fill="black" stroke="black" points="224.39,-79.13 234.39,-75.63 224.39,-72.13 224.39,-79.13"/>
<text text-anchor="middle" x="214.88" y="-78.83" font-family="Times,serif" font-size="14.00">1</text>
</g>
<!-- n10 -->
<g id="node10" class="node">
<title>n10</title>
<polygon fill="#e28f41" stroke="#e28f41" points="272.25,-39.62 236.25,-39.62 236.25,-3.62 272.25,-3.62 272.25,-39.62"/>
<text text-anchor="middle" x="254.25" y="-16.57" font-family="Times,serif" font-size="14.00">ω</text>
</g>
<!-- n2&#45;&gt;n10 -->
<g id="edge9" class="edge">
<title>n2&#45;&gt;n10</title>
<path fill="none" stroke="black" d="M190.94,-65.47C201.01,-58.38 214.75,-48.71 226.76,-40.26"/>
<polygon fill="black" stroke="black" points="228.52,-43.3 234.68,-34.69 224.49,-37.58 228.52,-43.3"/>
<text text-anchor="middle" x="214.88" y="-53.83" font-family="Times,serif" font-size="14.00">1</text>
</g>
<!-- n3 -->
<g id="node3" class="node">
<title>n3</title>
<ellipse fill="#6c9ac3" stroke="#6c9ac3" cx="523" cy="-98.62" rx="18" ry="18"/>
<text text-anchor="middle" x="523" y="-93.58" font-family="Times,serif" font-size="14.00">R</text>
</g>
<!-- n4 -->
<g id="node4" class="node">
<title>n4</title>
<ellipse fill="#6c9ac3" stroke="#6c9ac3" cx="362.25" cy="-75.62" rx="18" ry="18"/>
<text text-anchor="middle" x="362.25" y="-70.58" font-family="Times,serif" font-size="14.00">H</text>
</g>
<!-- n8 -->
<g id="node8" class="node">
<title>n8</title>
<polygon fill="#e28f41" stroke="#e28f41" points="460.75,-93.75 424.5,-93.75 424.5,-57.5 460.75,-57.5 460.75,-93.75"/>
<text text-anchor="middle" x="442.62" y="-70.58" font-family="Times,serif" font-size="14.00">γₕ</text>
</g>
<!-- n4&#45;&gt;n8 -->
<g id="edge7" class="edge">
<title>n4&#45;&gt;n8</title>
<path fill="none" stroke="black" d="M380.64,-75.62C390.02,-75.62 401.82,-75.62 412.55,-75.62"/>
<polygon fill="black" stroke="black" points="412.5,-79.13 422.5,-75.63 412.5,-72.13 412.5,-79.13"/>
<text text-anchor="middle" x="401.62" y="-78.83" font-family="Times,serif" font-size="14.00">1</text>
</g>
<!-- n9 -->
<g id="node9" class="node">
<title>n9</title>
<polygon fill="#e28f41" stroke="#e28f41" points="462.25,-39.25 423,-39.25 423,0 462.25,0 462.25,-39.25"/>
<text text-anchor="middle" x="442.62" y="-14.57" font-family="Times,serif" font-size="14.00">ωₕ</text>
</g>
<!-- n4&#45;&gt;n9 -->
<g id="edge11" class="edge">
<title>n4&#45;&gt;n9</title>
<path fill="none" stroke="black" d="M377.63,-65.35C387.6,-58.23 401.21,-48.5 413.32,-39.85"/>
<polygon fill="black" stroke="black" points="415.28,-42.75 421.38,-34.09 411.21,-37.06 415.28,-42.75"/>
<text text-anchor="middle" x="401.62" y="-52.83" font-family="Times,serif" font-size="14.00">1</text>
</g>
<!-- n5&#45;&gt;n2 -->
<g id="edge10" class="edge">
<title>n5&#45;&gt;n2</title>
<path fill="none" stroke="black" d="M115.17,-75.62C124.19,-75.62 135.45,-75.62 145.73,-75.62"/>
<polygon fill="black" stroke="black" points="145.64,-79.13 155.64,-75.63 145.64,-72.13 145.64,-79.13"/>
<text text-anchor="middle" x="136.12" y="-78.83" font-family="Times,serif" font-size="14.00">2</text>
</g>
<!-- n6&#45;&gt;n3 -->
<g id="edge3" class="edge">
<title>n6&#45;&gt;n3</title>
<path fill="none" stroke="black" d="M326.53,-121.26C358.44,-120.35 428.68,-117.34 487,-107.62 489.37,-107.23 491.81,-106.75 494.25,-106.22"/>
<polygon fill="black" stroke="black" points="495.03,-109.64 503.92,-103.88 493.38,-102.84 495.03,-109.64"/>
<text text-anchor="middle" x="401.62" y="-119.83" font-family="Times,serif" font-size="14.00">1</text>
</g>
<!-- n7&#45;&gt;n4 -->
<g id="edge8" class="edge">
<title>n7&#45;&gt;n4</title>
<path fill="none" stroke="black" d="M272.28,-75.62C288.49,-75.62 313.19,-75.62 332.46,-75.62"/>
<polygon fill="black" stroke="black" points="332.4,-79.13 342.4,-75.63 332.4,-72.13 332.4,-79.13"/>
<text text-anchor="middle" x="308.25" y="-78.83" font-family="Times,serif" font-size="14.00">1</text>
</g>
<!-- n8&#45;&gt;n3 -->
<g id="edge2" class="edge">
<title>n8&#45;&gt;n3</title>
<path fill="none" stroke="black" d="M461.02,-80.73C470.79,-83.6 483.22,-87.24 494.3,-90.5"/>
<polygon fill="black" stroke="black" points="493.16,-93.81 503.74,-93.27 495.13,-87.09 493.16,-93.81"/>
<text text-anchor="middle" x="483.62" y="-91.83" font-family="Times,serif" font-size="14.00">1</text>
</g>
</g>
</svg>
